<svg width="111" height="48" fill="none" xmlns="http://www.w3.org/2000/svg"><path d="M81.261 45.498l-.005-7.624c.462-.296 1.004-.41 1.618-.41.942 0 1.696.343 2.262 1.03.571.69.859 1.733.859 3.137 0 1.415-.293 2.48-.875 3.185-.585.71-1.334 1.062-2.246 1.062-.606 0-1.143-.07-1.613-.38zm6.85-1.66v3.927h-3.528a4.78 4.78 0 002.273-1.442c.598-.677 1.014-1.501 1.256-2.485zM81.254 18.08l-13.04 16.215-13.05-16.15.018 29.62h-6.85L48.307.123h1.242l18.694 24.09L86.773.123h1.314l.022 39.395c-.236-.992-.657-1.822-1.261-2.493-1.004-1.12-2.33-1.681-3.995-1.681-.575 0-1.103.064-1.597.188l-.003-17.452zM34.762 32.72l6.831.043h.008v.005c-.11.45-.236.903-.378 1.347a18.5 18.5 0 01-.448 1.318c-.322.857-.7 1.682-1.132 2.472-.413.77-.883 1.506-1.406 2.207-.5.67-1.028 1.312-1.591 1.919a19.154 19.154 0 01-1.8 1.7c-.572.477-1.181.914-1.81 1.302a14.72 14.72 0 01-1.915 1c-.687.296-1.393.555-2.106.77-.717.224-1.447.405-2.184.547-.765.149-1.532.26-2.305.33-.794.07-1.6.096-2.402.096a22.664 22.664 0 01-4.089-.417 20.58 20.58 0 01-1.988-.499 19.734 19.734 0 01-1.953-.687 23.691 23.691 0 01-1.884-.863 23.307 23.307 0 01-1.795-1.034 23.778 23.778 0 01-1.693-1.2c-.553-.43-1.09-.889-1.6-1.371a16.708 16.708 0 01-1.416-1.507 19.544 19.544 0 01-1.266-1.711 22.168 22.168 0 01-1.168-2.043 25.281 25.281 0 01-1.768-4.557 26.014 26.014 0 01-.563-2.53 28.592 28.592 0 01-.336-2.704 34.01 34.01 0 01.035-5.751c.086-.927.207-1.849.37-2.76.164-.865.36-1.719.601-2.557a25.52 25.52 0 011.822-4.573 23.31 23.31 0 011.197-2.04c.402-.593.826-1.165 1.29-1.701a16.09 16.09 0 011.43-1.488 22.992 22.992 0 013.317-2.511 22.116 22.116 0 011.795-.997c.617-.305 1.24-.583 1.873-.817.644-.25 1.296-.466 1.953-.647.658-.186 1.326-.34 2-.455a22.12 22.12 0 012.05-.272c.7-.06 1.397-.084 2.098-.084.767.008 1.54.051 2.304.13a22.67 22.67 0 012.244.347c.73.148 1.454.334 2.167.56.706.219 1.398.475 2.085.771a14.7 14.7 0 011.905.992c.628.38 1.23.811 1.806 1.28.628.51 1.224 1.07 1.784 1.655.561.593 1.09 1.223 1.58 1.873a17.1 17.1 0 011.394 2.124 17.85 17.85 0 011.094 2.336 21.533 21.533 0 01.724 2.242l.009.006h-.014l-6.93-.052h-.006a13.596 13.596 0 00-1.746-2.915 11.782 11.782 0 00-2.319-2.235A12.035 12.035 0 0026.63 7.26c-1.368-.385-2.804-.555-4.242-.56a15.184 15.184 0 00-3.107.277c-.96.192-1.91.483-2.817.89-.918.404-1.768.913-2.563 1.511a14.058 14.058 0 00-2.224 2.127c-1.374 1.628-2.348 3.463-2.994 5.42-.706 2.163-1.017 4.481-1.033 6.855-.014 2.243.297 4.385.95 6.395a17.897 17.897 0 002.913 5.471 14.827 14.827 0 002.198 2.28c.773.644 1.62 1.2 2.53 1.65a12.7 12.7 0 002.826.997c1.016.231 2.055.342 3.107.347a16.73 16.73 0 002.318-.14 13.804 13.804 0 002.154-.458 12.94 12.94 0 003.92-1.951c.615-.45 1.173-.96 1.686-1.517a12.59 12.59 0 001.387-1.841 14.788 14.788 0 001.127-2.299h-.003v.006zm66.991 15.052V35.609h8.522v2.054h-6.187v2.706h5.755v2.053h-5.755v3.299h6.412v2.053h-8.747v-.002zm-9.276-7.01H94.2c1.114 0 1.806-.051 2.087-.154.28-.096.5-.269.65-.514.16-.243.239-.547.239-.914 0-.412-.102-.74-.312-.992-.206-.25-.496-.412-.874-.477-.19-.032-.754-.045-1.693-.045h-1.82v3.096zm-2.329 7.01V35.609h4.897c1.23 0 2.125.11 2.683.33.561.218 1.004.605 1.34 1.166.335.56.504 1.197.504 1.91 0 .922-.255 1.669-.762 2.267-.505.593-1.259.965-2.27 1.121.499.308.915.65 1.237 1.022.327.366.764 1.032 1.317 1.975l1.406 2.37h-2.78l-1.666-2.653c-.596-.946-1.006-1.539-1.229-1.784-.22-.245-.45-.418-.7-.506-.25-.09-.641-.135-1.173-.135h-.475v5.08h-2.329z" fill="#fff"/><path d="M70.703 47.77V37.662H67.29v-2.054h9.133v2.054h-3.389V47.77h-2.331zm10.553-12.237v2.342a2.822 2.822 0 00-.824.665c-.585.696-.883 1.747-.883 3.14 0 1.377.306 2.428.907 3.142.244.283.513.51.802.677l.003 2.33a4.892 4.892 0 01-2.587-1.492c-1.011-1.108-1.516-2.628-1.516-4.57 0-1.243.178-2.28.524-3.124a5.903 5.903 0 011.068-1.674c.458-.49.95-.857 1.492-1.1a5.668 5.668 0 011.014-.336zM56.774 43.83l2.27-.237c.132.803.408 1.391.827 1.763.413.38.974.566 1.68.566.74 0 1.309-.167 1.684-.502.379-.334.57-.727.57-1.17 0-.29-.081-.535-.24-.737-.158-.203-.437-.375-.834-.523-.274-.103-.885-.278-1.849-.534-1.24-.326-2.111-.728-2.616-1.205-.705-.676-1.051-1.493-1.051-2.457 0-.617.166-1.202.493-1.747.336-.539.808-.946 1.436-1.229.62-.283 1.376-.425 2.256-.425 1.444 0 2.525.334 3.252 1.01.73.677 1.114 1.58 1.149 2.711l-2.33.084c-.104-.63-.319-1.08-.64-1.35-.323-.278-.811-.418-1.46-.418-.668 0-1.194.148-1.57.445a.922.922 0 00-.37.76c0 .288.118.533.346.738.295.259 1.003.534 2.13.82 1.133.277 1.964.57 2.501.875.542.302.966.706 1.272 1.235.303.522.456 1.166.456 1.937a3.75 3.75 0 01-.547 1.957 3.353 3.353 0 01-1.557 1.358c-.668.296-1.502.445-2.5.445-1.455 0-2.573-.356-3.354-1.068-.784-.714-1.25-1.74-1.404-3.102z" fill="#fff"/></svg>