<svg width="24" height="24" viewBox="0 0 24 24" fill="none" xmlns="http://www.w3.org/2000/svg">
<path d="M5 19.3333C5 19.7015 5.32495 20 5.72581 20C6.12666 20 6.45161 19.7015 6.45161 19.3333V13.5556C6.45161 13.1874 6.12666 12.8889 5.72581 12.8889C5.32495 12.8889 5 13.1874 5 13.5556V19.3333Z" fill="#2A65C5"/>
<path d="M9.35484 19.3333C9.35484 19.7015 9.67979 20 10.0806 20C10.4815 20 10.8065 19.7015 10.8065 19.3333V4.66667C10.8065 4.29848 10.4815 4 10.0806 4C9.67979 4 9.35484 4.29848 9.35484 4.66667V19.3333Z" fill="#2A65C5"/>
<path d="M13.7097 19.3333C13.7097 19.7015 14.0346 20 14.4355 20C14.8363 20 15.1613 19.7015 15.1613 19.3333V6.44444C15.1613 6.07625 14.8363 5.77778 14.4355 5.77778C14.0346 5.77778 13.7097 6.07625 13.7097 6.44444V19.3333Z" fill="#2A65C5"/>
<path d="M18.5484 19.3333C18.5484 19.7015 18.8733 20 19.2742 20C19.675 20 20 19.7015 20 19.3333V9.55556C20 9.18737 19.675 8.88889 19.2742 8.88889C18.8733 8.88889 18.5484 9.18737 18.5484 9.55556V19.3333Z" fill="#2A65C5"/>
</svg>
