<svg width="24" height="24" viewBox="0 0 24 24" fill="none" xmlns="http://www.w3.org/2000/svg">
<g id="Type=accessories">
<path id="Vector" d="M10.1286 5.05796L9.78415 5.05587V5.05796H10.1286ZM11.1794 4V3.6555L11.1773 3.65552L11.1794 4ZM12.9697 4L12.9718 3.65551H12.9697V4ZM14.0205 5.05796H14.365L14.365 5.05587L14.0205 5.05796ZM11.3222 17.1592V16.8147H10.9777V17.1592H11.3222ZM12.6714 17.1592H13.0158V16.8147H12.6714V17.1592ZM12.6714 20V20.3445H13.0158V20H12.6714ZM11.3222 20H10.9777V20.3445H11.3222V20ZM9.9081 7.9298H14.0919V7.24082H9.9081V7.9298ZM14.0919 7.9298C14.401 7.9298 14.6555 8.18269 14.6555 8.49959H15.3445C15.3445 7.8066 14.7859 7.24082 14.0919 7.24082V7.9298ZM14.6555 8.49959V16.1731H15.3445V8.49959H14.6555ZM14.6555 16.1731C14.6555 16.49 14.401 16.7429 14.0919 16.7429V17.4318C14.7859 17.4318 15.3445 16.8661 15.3445 16.1731H14.6555ZM14.0919 16.7429H9.9081V17.4318H14.0919V16.7429ZM9.9081 16.7429C9.59903 16.7429 9.34449 16.49 9.34449 16.1731H8.65551C8.65551 16.8661 9.21411 17.4318 9.9081 17.4318V16.7429ZM9.34449 16.1731V8.49959H8.65551V16.1731H9.34449ZM9.34449 8.49959C9.34449 8.18269 9.59903 7.9298 9.9081 7.9298V7.24082C9.21411 7.24082 8.65551 7.8066 8.65551 8.49959H9.34449ZM10.4731 7.59837V5.05796H9.78415V7.59837H10.4731ZM10.4731 5.06005C10.4743 4.86988 10.5498 4.6883 10.6827 4.55453L10.1939 4.069C9.93335 4.3313 9.78641 4.68592 9.78416 5.05587L10.4731 5.06005ZM10.6827 4.55453C10.8155 4.42083 10.9948 4.34563 11.1816 4.34448L11.1773 3.65552C10.8078 3.65779 10.4545 3.80662 10.1939 4.069L10.6827 4.55453ZM11.1794 4.34449H12.9697V3.65551H11.1794V4.34449ZM12.9676 4.34448C13.1544 4.34563 13.3337 4.42084 13.4665 4.55453L13.9553 4.069C13.6947 3.80662 13.3414 3.65779 12.9718 3.65552L12.9676 4.34448ZM13.4665 4.55453C13.5993 4.68829 13.6749 4.86987 13.6761 5.06005L14.365 5.05587C14.3628 4.68593 14.2159 4.33131 13.9553 4.069L13.4665 4.55453ZM13.676 5.05796V7.59837H14.365V5.05796H13.676ZM11.3222 17.5037H12.6714V16.8147H11.3222V17.5037ZM12.3269 17.1592V20H13.0158V17.1592H12.3269ZM12.6714 19.6555H11.3222V20.3445H12.6714V19.6555ZM11.6666 20V17.1592H10.9777V20H11.6666Z" fill="#2A65C5"/>
</g>
</svg>
