<svg width="24" height="24" viewBox="0 0 24 24" fill="none" xmlns="http://www.w3.org/2000/svg">
<g id="Type=add photo">
<path id="Vector" d="M4.63636 20C4.18636 20 3.801 19.8432 3.48027 19.5296C3.15955 19.216 2.99946 18.8395 3 18.4V8.8C3 8.36 3.16037 7.9832 3.48109 7.6696C3.80182 7.356 4.18691 7.19947 4.63636 7.2H7.21364L8.23636 6.12C8.38636 5.96 8.56718 5.83334 8.77882 5.74C8.99045 5.64667 9.21164 5.6 9.44236 5.6H12.8182C13.05 5.6 13.2445 5.6768 13.4015 5.8304C13.5586 5.984 13.6369 6.17387 13.6364 6.4C13.6364 6.62667 13.5578 6.8168 13.4007 6.9704C13.2436 7.124 13.0495 7.20054 12.8182 7.2H9.44318L7.95 8.8H4.63636V18.4H17.7273V12C17.7273 11.7733 17.8058 11.5832 17.9629 11.4296C18.12 11.276 18.3142 11.1995 18.5455 11.2C18.7773 11.2 18.9717 11.2768 19.1288 11.4304C19.2859 11.584 19.3642 11.7739 19.3636 12V18.4C19.3636 18.84 19.2033 19.2168 18.8825 19.5304C18.5618 19.844 18.1767 20.0005 17.7273 20H4.63636ZM17.7273 7.2H16.9091C16.6773 7.2 16.4828 7.1232 16.3257 6.9696C16.1686 6.816 16.0904 6.62614 16.0909 6.4C16.0909 6.17334 16.1695 5.9832 16.3265 5.8296C16.4836 5.676 16.6778 5.59947 16.9091 5.6H17.7273V4.8C17.7273 4.57334 17.8058 4.3832 17.9629 4.2296C18.12 4.076 18.3142 3.99947 18.5455 4C18.7773 4 18.9717 4.0768 19.1288 4.2304C19.2859 4.384 19.3642 4.57387 19.3636 4.8V5.6H20.1818C20.4136 5.6 20.6081 5.6768 20.7652 5.8304C20.9223 5.984 21.0005 6.17387 21 6.4C21 6.62667 20.9215 6.8168 20.7644 6.9704C20.6073 7.124 20.4131 7.20054 20.1818 7.2H19.3636V8C19.3636 8.22667 19.2851 8.4168 19.128 8.5704C18.9709 8.724 18.7767 8.80053 18.5455 8.8C18.3136 8.8 18.1192 8.7232 17.9621 8.5696C17.805 8.416 17.7267 8.22613 17.7273 8V7.2ZM11.1818 17.2C12.2045 17.2 13.074 16.8499 13.7902 16.1496C14.5064 15.4493 14.8642 14.5995 14.8636 13.6C14.8636 12.6 14.5055 11.7499 13.7894 11.0496C13.0732 10.3493 12.204 9.99947 11.1818 10C10.1591 10 9.28964 10.3501 8.57345 11.0504C7.85727 11.7507 7.49945 12.6005 7.5 13.6C7.5 14.6 7.85809 15.4501 8.57427 16.1504C9.29045 16.8507 10.1596 17.2005 11.1818 17.2ZM11.1818 15.6C10.6091 15.6 10.125 15.4067 9.72955 15.02C9.33409 14.6333 9.13636 14.16 9.13636 13.6C9.13636 13.04 9.33409 12.5667 9.72955 12.18C10.125 11.7933 10.6091 11.6 11.1818 11.6C11.7545 11.6 12.2386 11.7933 12.6341 12.18C13.0295 12.5667 13.2273 13.04 13.2273 13.6C13.2273 14.16 13.0295 14.6333 12.6341 15.02C12.2386 15.4067 11.7545 15.6 11.1818 15.6Z" fill="#0E0E0E"/>
</g>
</svg>
