<svg width="24" height="24" viewBox="0 0 24 24" fill="none" xmlns="http://www.w3.org/2000/svg">
<g id="Type=add to basket ANDROID">
<path id="Union" fill-rule="evenodd" clip-rule="evenodd" d="M13.25 3V5.25H11V6.75H13.25V9H14.75V6.75H17V5.25H14.75V3H13.25ZM10.5 21C11.3284 21 12 20.3284 12 19.5C12 18.6716 11.3284 18 10.5 18C9.67157 18 9 18.6716 9 19.5C9 20.3284 9.67157 21 10.5 21ZM19 19.5C19 20.3284 18.3284 21 17.5 21C16.6716 21 16 20.3284 16 19.5C16 18.6716 16.6716 18 17.5 18C18.3284 18 19 18.6716 19 19.5ZM2 5.75H5.42715L7.32188 12.6973L8.27643 16.1973L8.42715 16.75H9H20V15.25H9.57285L9.02739 13.25H20H20.6434L20.7413 12.614L21.7413 6.11404L20.2587 5.88596L19.3566 11.75H8.6183L6.72357 4.80266L6.57285 4.25H6H2V5.75Z" fill="#0E0E0E"/>
</g>
</svg>
