<svg width="24" height="24" viewBox="0 0 24 24" fill="none" xmlns="http://www.w3.org/2000/svg">
<g id="Type=added to basket">
<g id="Frame 554648">
<g id="Frame 554644">
<path id="cart body 1" d="M3 4.25C2.58579 4.25 2.25 4.58579 2.25 5C2.25 5.41421 2.58579 5.75 3 5.75V4.25ZM5.95106 6.36042L5.21707 6.51456L5.95106 6.36042ZM20.7635 9.0581L20.0224 8.94275L20.7635 9.0581ZM19.8564 14.8855L19.1153 14.7701L19.8564 14.8855ZM3 5.75H4.20865V4.25H3V5.75ZM8.53481 16.75H18.555V15.25H8.53481V16.75ZM20.5975 15.0008L21.5045 9.17346L20.0224 8.94275L19.1153 14.7701L20.5975 15.0008ZM5.21707 6.51456L5.46445 7.6926L6.93243 7.38432L6.68505 6.20628L5.21707 6.51456ZM5.45577 7.64307L6.48794 14.9712L7.97328 14.762L6.94111 7.43386L5.45577 7.64307ZM4.20865 5.75C4.72562 5.75 5.12884 6.09443 5.21707 6.51456L6.68505 6.20628C6.44104 5.04436 5.38572 4.25 4.20865 4.25V5.75ZM8.5 6.78846H6.19844V8.28846H8.5V6.78846ZM19.4621 6.78846H18.5V8.28846H19.4621V6.78846ZM21.5045 9.17346C21.6996 7.9202 20.7304 6.78846 19.4621 6.78846V8.28846C19.81 8.28846 20.0759 8.59894 20.0224 8.94275L21.5045 9.17346ZM18.555 16.75C19.5739 16.75 20.4408 16.0076 20.5975 15.0008L19.1153 14.7701C19.0723 15.0463 18.8345 15.25 18.555 15.25V16.75ZM8.53481 15.25C8.25218 15.25 8.0127 15.0419 7.97328 14.762L6.48794 14.9712C6.63163 15.9914 7.50458 16.75 8.53481 16.75V15.25Z" fill="#0E0E0E"/>
<circle id="wheels 1" cx="9.5" cy="19.5" r="1.5" fill="#0E0E0E"/>
<circle id="wheels 1_2" cx="18.5" cy="19.5" r="1.5" fill="#0E0E0E"/>
</g>
<path id="Vector" d="M10 5.94915L13.4105 9L19 4" stroke="#0E0E0E" stroke-width="1.6" stroke-linecap="round" stroke-linejoin="round"/>
</g>
</g>
</svg>
