<svg width="16" height="16" viewBox="0 0 16 16" fill="none" xmlns="http://www.w3.org/2000/svg">
<g id="Type=attention">
<path id="Subtract" fill-rule="evenodd" clip-rule="evenodd" d="M8 1C11.866 1 15 4.13401 15 8C15 11.866 11.866 15 8 15C4.13401 15 1 11.866 1 8C1 4.13401 4.13401 1 8 1ZM7.0667 11.2667C7.0667 11.7821 7.48457 12.2 8.00003 12.2H8.00843C8.5239 12.2 8.94176 11.7821 8.94176 11.2667C8.94176 10.7512 8.5239 10.3333 8.00843 10.3333H8.00003C7.48457 10.3333 7.0667 10.7512 7.0667 11.2667ZM8.7 8.46667C8.7 8.85327 8.3866 9.16667 8 9.16667C7.6134 9.16667 7.3 8.85327 7.3 8.46667V4.73333C7.3 4.34673 7.6134 4.03333 8 4.03333C8.3866 4.03333 8.7 4.34673 8.7 4.73333V8.46667Z" fill="white"/>
</g>
</svg>
