<svg width="34" height="28" viewBox="0 0 34 28" fill="none" xmlns="http://www.w3.org/2000/svg">
<g id="Type=basket item veiw">
<path id="Vector" d="M9.69283 20.0447H19.2999C19.6209 20.0447 19.9008 19.7843 19.9008 19.4344C19.9008 19.0844 19.6209 18.824 19.2999 18.824H9.83277C9.36353 18.824 9.07541 18.4985 9.00132 18.002L7.65123 8.94404C7.5689 8.31739 7.3384 8 6.49872 8H3.60919C3.2799 8 3 8.28484 3 8.61038C3 8.94404 3.2799 9.22889 3.60919 9.22889H6.39169L7.70885 18.1648C7.88173 19.3204 8.49915 20.0447 9.69283 20.0447ZM8.17809 17.1475H19.3163C20.5182 17.1475 21.1356 16.415 21.3086 15.2513L21.9671 10.9461C21.9836 10.8403 22 10.7101 22 10.6368C22 10.2462 21.7038 9.97762 21.2509 9.97762H7.46188L7.47012 11.2065H20.6006L20.0161 15.1048C19.9502 15.6094 19.6786 15.9268 19.1928 15.9268H8.16162L8.17809 17.1475ZM10.3432 24C11.0841 24 11.6768 23.4222 11.6768 22.6816C11.6768 21.9491 11.0841 21.3631 10.3432 21.3631C9.59403 21.3631 9.00132 21.9491 9.00132 22.6816C9.00132 23.4222 9.59403 24 10.3432 24ZM18.0403 24C18.7895 24 19.3822 23.4222 19.3822 22.6816C19.3822 21.9491 18.7895 21.3631 18.0403 21.3631C17.2994 21.3631 16.6985 21.9491 16.6985 22.6816C16.6985 23.4222 17.2994 24 18.0403 24Z" fill="#999999"/>
<g id="Badge">
<rect x="14.5" y="0.5" width="19" height="19" rx="9.5" fill="#0E0E0E"/>
<rect x="14.5" y="0.5" width="19" height="19" rx="9.5" stroke="white"/>
<path id="4" d="M20.3493 12.2102V11.3409L24.1845 5.27273H24.8152V6.61932H24.389L21.4913 11.2045V11.2727H26.6561V12.2102H20.3493ZM24.4572 14V11.946V11.5412V5.27273H25.4629V14H24.4572Z" fill="white"/>
</g>
</g>
</svg>
