<svg width="24" height="24" viewBox="0 0 24 24" fill="none" xmlns="http://www.w3.org/2000/svg">
<g id="Type=basket">
<g id="Frame 554644">
<path id="cart body 1" d="M3 3.25C2.58579 3.25 2.25 3.58579 2.25 4C2.25 4.41421 2.58579 4.75 3 4.75V3.25ZM5.95106 5.36042L5.21707 5.51456L5.95106 5.36042ZM20.7635 8.0581L21.5045 8.17346L20.7635 8.0581ZM19.8564 13.8855L20.5975 14.0008L19.8564 13.8855ZM3 4.75H4.20865V3.25H3V4.75ZM8.53481 15.75H18.555V14.25H8.53481V15.75ZM20.5975 14.0008L21.5045 8.17346L20.0224 7.94275L19.1153 13.7701L20.5975 14.0008ZM5.21707 5.51456L5.46445 6.6926L6.93243 6.38432L6.68505 5.20628L5.21707 5.51456ZM5.45578 6.64307L6.48794 13.9712L7.97328 13.762L6.94111 6.43386L5.45578 6.64307ZM19.4621 5.78846H6.19844V7.28846H19.4621V5.78846ZM4.20865 4.75C4.72562 4.75 5.12884 5.09443 5.21707 5.51456L6.68505 5.20628C6.44104 4.04436 5.38572 3.25 4.20865 3.25V4.75ZM21.5045 8.17346C21.6996 6.9202 20.7304 5.78846 19.4621 5.78846V7.28846C19.81 7.28846 20.0759 7.59894 20.0224 7.94275L21.5045 8.17346ZM18.555 15.75C19.5739 15.75 20.4408 15.0076 20.5975 14.0008L19.1153 13.7701C19.0723 14.0463 18.8345 14.25 18.555 14.25V15.75ZM8.53481 14.25C8.25218 14.25 8.0127 14.0419 7.97328 13.762L6.48794 13.9712C6.63163 14.9914 7.50458 15.75 8.53481 15.75V14.25Z" fill="#0E0E0E"/>
<circle id="wheels 1" cx="9.5" cy="18.5" r="1.5" fill="#0E0E0E"/>
<circle id="wheels 1_2" cx="18.5" cy="18.5" r="1.5" fill="#0E0E0E"/>
</g>
</g>
</svg>
