<svg width="24" height="24" viewBox="0 0 24 24" fill="none" xmlns="http://www.w3.org/2000/svg">
<g id="Type=big star IOS">
<path id="Vector" d="M6.45358 20.8443C6.78588 21.1158 7.20735 21.0225 7.70987 20.6407L11.9975 17.3416L16.2932 20.6407C16.7958 21.0225 17.2091 21.1158 17.5495 20.8443C17.8818 20.5815 17.9548 20.1489 17.7522 19.5298L16.0582 14.2545L20.3863 10.9977C20.8888 10.6246 21.0915 10.2344 20.9618 9.81037C20.8322 9.40326 20.4512 9.19973 19.8271 9.2082L14.5182 9.24213L12.9053 3.94141C12.7108 3.3138 12.419 3 11.9975 3C11.5841 3 11.2924 3.3138 11.0978 3.94141L9.4849 9.24213L4.17603 9.2082C3.55193 9.19973 3.17099 9.40326 3.0413 9.81037C2.90352 10.2344 3.11425 10.6246 3.61677 10.9977L7.94491 14.2545L6.25095 19.5298C6.04832 20.1489 6.12126 20.5815 6.45358 20.8443Z" fill="#0E0E0E"/>
</g>
</svg>
