<svg width="24" height="24" viewBox="0 0 24 24" fill="none" xmlns="http://www.w3.org/2000/svg">
<g id="Type=calendar">
<path id="Vector" d="M7.5 2C7.6705 2 7.83401 2.07024 7.95457 2.19526C8.07513 2.32029 8.14286 2.48986 8.14286 2.66667V4.66667H15.8571V2.66667C15.8571 2.48986 15.9249 2.32029 16.0454 2.19526C16.166 2.07024 16.3295 2 16.5 2C16.6705 2 16.834 2.07024 16.9546 2.19526C17.0751 2.32029 17.1429 2.48986 17.1429 2.66667V4.66667H19.5C20.328 4.66667 21 5.36356 21 6.22222V20.4444C21 20.857 20.842 21.2527 20.5607 21.5444C20.2794 21.8361 19.8978 22 19.5 22H4.5C4.10218 22 3.72064 21.8361 3.43934 21.5444C3.15804 21.2527 3 20.857 3 20.4444V6.22222C3 5.36356 3.672 4.66667 4.5 4.66667H6.85714V2.66667C6.85714 2.48986 6.92487 2.32029 7.04543 2.19526C7.16599 2.07024 7.3295 2 7.5 2ZM19.7143 10.4444H4.28571V20.4444C4.28571 20.5671 4.38171 20.6667 4.5 20.6667H19.5C19.5568 20.6667 19.6113 20.6433 19.6515 20.6016C19.6917 20.5599 19.7143 20.5034 19.7143 20.4444V10.4444ZM4.5 6C4.44317 6 4.38866 6.02341 4.34848 6.06509C4.30829 6.10676 4.28571 6.16329 4.28571 6.22222V9.11111H19.7143V6.22222C19.7143 6.16329 19.6917 6.10676 19.6515 6.06509C19.6113 6.02341 19.5568 6 19.5 6H4.5Z" fill="#0E0E0E"/>
</g>
</svg>
