<svg width="24" height="24" viewBox="0 0 24 24" fill="none" xmlns="http://www.w3.org/2000/svg">
<g id="Type=catalog">
<g id="Frame 554646">
<g id="&#226;&#150;&#182; Frame 554740">
<path id="Vector" d="M21.9697 19.5303C22.2626 19.8232 22.7374 19.8232 23.0303 19.5303C23.3232 19.2374 23.3232 18.7626 23.0303 18.4697L21.9697 19.5303ZM14.625 16.5C11.6565 16.5 9.25 14.0935 9.25 11.125H7.75C7.75 14.922 10.828 18 14.625 18V16.5ZM9.25 11.125C9.25 8.15647 11.6565 5.75 14.625 5.75V4.25C10.828 4.25 7.75 7.32804 7.75 11.125H9.25ZM14.625 5.75C17.5935 5.75 20 8.15647 20 11.125H21.5C21.5 7.32804 18.422 4.25 14.625 4.25V5.75ZM18.4257 15.9864L21.9697 19.5303L23.0303 18.4697L19.4864 14.9257L18.4257 15.9864ZM20 11.125C20 12.6095 19.3992 13.9522 18.4257 14.9257L19.4864 15.9864C20.7297 14.743 21.5 13.0233 21.5 11.125H20ZM18.4257 14.9257C17.4522 15.8992 16.1095 16.5 14.625 16.5V18C16.5233 18 18.243 17.2297 19.4864 15.9864L18.4257 14.9257Z" fill="#0E0E0E"/>
</g>
<path id="3L" d="M1.5 19H8.5" stroke="#0E0E0E" stroke-width="1.5" stroke-linecap="round"/>
<path id="2L" d="M1.5 12H5" stroke="#0E0E0E" stroke-width="1.5" stroke-linecap="round"/>
<path id="1L" d="M1.5 5H6.75" stroke="#0E0E0E" stroke-width="1.5" stroke-linecap="round"/>
</g>
</g>
</svg>
