<svg width="28" height="28" viewBox="0 0 28 28" fill="none" xmlns="http://www.w3.org/2000/svg">
<g id="Type=checkbox field IOS">
<g id="Frame" clip-path="url(#clip0_13751_167287)">
<g id="Group">
<path id="Vector" d="M6.67969 24.5977H20.8945C23.3555 24.5977 24.5742 23.3789 24.5742 20.9648V6.65625C24.5742 4.24219 23.3555 3.02344 20.8945 3.02344H6.67969C4.23047 3.02344 3 4.23047 3 6.65625V20.9648C3 23.3906 4.23047 24.5977 6.67969 24.5977ZM12.4805 19.5234C12.082 19.5234 11.7539 19.3594 11.4492 18.9492L8.50781 15.3398C8.33203 15.1055 8.22656 14.8477 8.22656 14.5781C8.22656 14.0508 8.63672 13.6172 9.17578 13.6172C9.50391 13.6172 9.76172 13.7227 10.0547 14.1094L12.4336 17.1797L17.4375 9.14062C17.6602 8.78906 17.9648 8.60156 18.2812 8.60156C18.7852 8.60156 19.2656 8.95312 19.2656 9.50391C19.2656 9.76172 19.125 10.0312 18.9727 10.2773L13.4648 18.9492C13.2188 19.3359 12.8789 19.5234 12.4805 19.5234Z" fill="#0E0E0E"/>
</g>
</g>
</g>
<defs>
<clipPath id="clip0_13751_167287">
<rect width="21.5742" height="21.5977" fill="white" transform="translate(3 3)"/>
</clipPath>
</defs>
</svg>
