<svg width="24" height="24" viewBox="0 0 24 24" fill="none" xmlns="http://www.w3.org/2000/svg">
<g id="Type=checkmark">
<path id="Vector" d="M16.8062 8.68689C16.8683 8.74599 16.9175 8.81619 16.9511 8.89348C16.9847 8.97076 17.002 9.05362 17.002 9.13729C17.002 9.22097 16.9847 9.30383 16.9511 9.38111C16.9175 9.4584 16.8683 9.5286 16.8062 9.58769L10.8062 15.3131C10.7442 15.3723 10.6707 15.4194 10.5897 15.4514C10.5087 15.4835 10.4219 15.5 10.3342 15.5C10.2465 15.5 10.1597 15.4835 10.0787 15.4514C9.99767 15.4194 9.9241 15.3723 9.86218 15.3131L7.19551 12.7685C7.07033 12.649 7 12.487 7 12.3181C7 12.1491 7.07033 11.9871 7.19551 11.8677C7.32069 11.7482 7.49047 11.6811 7.66751 11.6811C7.84454 11.6811 8.01433 11.7482 8.13951 11.8677L10.3342 13.9632L15.8622 8.68689C15.9241 8.62765 15.9977 8.58065 16.0787 8.54858C16.1597 8.51651 16.2465 8.5 16.3342 8.5C16.4219 8.5 16.5087 8.51651 16.5897 8.54858C16.6707 8.58065 16.7442 8.62765 16.8062 8.68689Z" fill="#0E0E0E"/>
</g>
</svg>
