<svg width="28" height="28" viewBox="0 0 28 28" fill="none" xmlns="http://www.w3.org/2000/svg">
<g id="Type=checkbox empty IOS">
<g id="Group">
<path id="Vector" d="M6.75231 25H21.2477C23.7572 25 25 23.7571 25 21.2954V6.7045C25 4.2428 23.7572 3 21.2477 3H6.75231C4.25476 3 3 4.23085 3 6.7045V21.2954C3 23.7691 4.25476 25 6.75231 25ZM6.77621 23.076C5.58121 23.076 4.92396 22.4426 4.92396 21.1999V6.8001C4.92396 5.5573 5.58121 4.92395 6.77621 4.92395H21.2238C22.4068 4.92395 23.0761 5.5573 23.0761 6.8001V21.1999C23.0761 22.4426 22.4068 23.076 21.2238 23.076H6.77621Z" fill="#D7D7D7"/>
</g>
</g>
</svg>
