<svg width="24" height="24" viewBox="0 0 24 24" fill="none" xmlns="http://www.w3.org/2000/svg">
<g id="Type=classmates colored">
<g id="socials">
<rect id="Rectangle 1" width="24" height="24" rx="12" fill="#F79A38"/>
<g id="Vector">
<path d="M15.7434 13.6741C16.0582 13.3593 16.1032 12.9095 15.8333 12.4598C15.6084 12.1 15.2037 11.92 14.7539 12.01C14.574 12.055 14.3941 12.1449 14.2142 12.2799C12.8199 13.2244 10.9309 13.1794 9.5366 12.2349C9.44664 12.1899 9.35669 12.1449 9.26673 12.1C8.77199 11.8751 8.27725 11.965 8.00739 12.4148C7.69256 12.8646 7.73753 13.3593 8.14232 13.7641C8.23227 13.854 8.32223 13.899 8.3672 13.989L8.41218 14.0339C9.04185 14.5287 9.80646 14.8435 10.7959 14.9785L10.2112 15.5632C9.7165 16.0579 9.17679 16.5976 8.68204 17.0924C8.54711 17.2273 8.3672 17.4522 8.3672 17.767C8.3672 18.1718 8.59209 18.5766 8.99688 18.7565C9.13181 18.8464 9.26674 18.8464 9.40167 18.8464C9.62655 18.8464 9.89641 18.7565 10.0763 18.5316C10.751 17.857 11.2907 17.3172 11.8304 16.7775C11.8754 16.7325 11.8754 16.7325 11.8754 16.7325C11.8754 16.7325 11.9204 16.7325 11.9204 16.7775C12.2802 17.1823 12.685 17.5421 13.0448 17.9469C13.2247 18.1268 13.4046 18.3067 13.5845 18.4866C13.8094 18.7115 13.9893 18.8015 14.2591 18.8015C14.6639 18.8464 15.1137 18.5766 15.2936 18.1718C15.4735 17.812 15.3836 17.3622 15.0687 17.0924C14.619 16.6426 14.1692 16.1478 13.6744 15.6981L12.9098 14.9335C13.3146 14.8885 13.7644 14.7986 14.1692 14.6186C14.8438 14.3938 15.3386 14.0789 15.7434 13.6741Z" fill="white"/>
<path d="M11.8754 12.4148C13.8094 12.4148 15.3836 10.8856 15.3836 8.95159C15.3836 8.00708 15.0237 7.10755 14.3491 6.4329C13.6744 5.75825 12.8199 5.39844 11.9204 5.39844C9.98636 5.39844 8.45716 6.97262 8.41218 8.86163C8.41218 9.80614 8.772 10.6607 9.44664 11.3353C10.0763 12.055 10.9309 12.4148 11.8754 12.4148ZM10.8859 7.91713C11.1558 7.64727 11.5156 7.51234 11.8754 7.51234C12.685 7.51234 13.2697 8.14201 13.2697 8.90661C13.2697 9.71619 12.64 10.3009 11.8754 10.3009C11.0658 10.3009 10.4811 9.67122 10.4811 8.90661C10.4811 8.5468 10.616 8.18699 10.8859 7.91713Z" fill="white"/>
<path d="M15.7434 13.6741C16.0582 13.3593 16.1032 12.9095 15.8333 12.4598C15.6084 12.1 15.2037 11.92 14.7539 12.01C14.574 12.055 14.3941 12.1449 14.2142 12.2799C12.8199 13.2244 10.9309 13.1794 9.5366 12.2349C9.44664 12.1899 9.35669 12.1449 9.26673 12.1C8.77199 11.8751 8.27725 11.965 8.00739 12.4148C7.69256 12.8646 7.73753 13.3593 8.14232 13.7641C8.23227 13.854 8.32223 13.899 8.3672 13.989L8.41218 14.0339C9.04185 14.5287 9.80646 14.8435 10.7959 14.9785L10.2112 15.5632C9.7165 16.0579 9.17679 16.5976 8.68204 17.0924C8.54711 17.2273 8.3672 17.4522 8.3672 17.767C8.3672 18.1718 8.59209 18.5766 8.99688 18.7565C9.13181 18.8464 9.26674 18.8464 9.40167 18.8464C9.62655 18.8464 9.89641 18.7565 10.0763 18.5316C10.751 17.857 11.2907 17.3172 11.8304 16.7775C11.8754 16.7325 11.8754 16.7325 11.8754 16.7325C11.8754 16.7325 11.9204 16.7325 11.9204 16.7775C12.2802 17.1823 12.685 17.5421 13.0448 17.9469C13.2247 18.1268 13.4046 18.3067 13.5845 18.4866C13.8094 18.7115 13.9893 18.8015 14.2591 18.8015C14.6639 18.8464 15.1137 18.5766 15.2936 18.1718C15.4735 17.812 15.3836 17.3622 15.0687 17.0924C14.619 16.6426 14.1692 16.1478 13.6744 15.6981L12.9098 14.9335C13.3146 14.8885 13.7644 14.7986 14.1692 14.6186C14.8438 14.3938 15.3386 14.0789 15.7434 13.6741Z" fill="white"/>
</g>
</g>
</g>
</svg>
