<svg width="24" height="24" viewBox="0 0 24 24" fill="none" xmlns="http://www.w3.org/2000/svg">
<g id="Type=CMbonus">
<g id="Frame 554249">
<rect x="5.14516" y="4.64516" width="14.7097" height="14.7097" rx="7.35484" stroke="#7D7D7D" stroke-width="1.29032"/>
<g id="Vector">
<path d="M16.8926 14.9667L16.9026 13.6978C16.9633 13.6611 17.0346 13.6471 17.1154 13.6471C17.2392 13.6471 17.3384 13.6894 17.4128 13.7744C17.488 13.8597 17.8042 14.2614 17.8042 14.435C17.8042 14.6099 17.7156 14.6549 17.639 14.7421C17.5621 14.8298 17.4601 14.9657 17.3401 14.9657C17.2604 14.9657 17.0476 14.9667 16.8926 14.9667ZM17.8042 14.435V14.9657H17.3401C17.4569 14.9337 17.5572 14.8288 17.639 14.7421C17.7177 14.6585 17.7724 14.5566 17.8042 14.435ZM16.9022 11.2509L15.1873 13.2554L13.471 11.2589L13.4734 14.9204H12.5726L12.5694 9.03125H12.7328L15.1912 12.0091L17.6281 9.03125H17.801L17.8042 14.435C17.7731 14.3124 17.4922 13.8573 17.4128 13.7744C17.2027 13.8362 17.3345 13.6471 17.1154 13.6471C17.0399 13.6471 16.9675 13.6824 16.9026 13.6978L16.9022 11.2509Z" fill="#7D7D7D"/>
<path d="M11.0434 13.0644L11.9134 13.0697H11.9145V13.0704C11.9004 13.1259 11.8844 13.1817 11.8663 13.2365C11.8495 13.2913 11.83 13.3458 11.8092 13.3989C11.7682 13.5046 11.72 13.6062 11.665 13.7035C11.6124 13.7986 11.5526 13.8892 11.4859 13.9756C11.4224 14.0583 11.355 14.1374 11.2833 14.2121C11.2112 14.2869 11.1346 14.3573 11.054 14.4217C10.9812 14.4805 10.9036 14.5344 10.8236 14.5822C10.7454 14.629 10.6641 14.6702 10.5796 14.7054C10.4922 14.742 10.4023 14.7739 10.3114 14.8004C10.2201 14.828 10.1272 14.8503 10.0332 14.8679C9.93581 14.8862 9.83808 14.8998 9.73966 14.9084C9.6385 14.917 9.53598 14.9204 9.43381 14.9204C9.34598 14.9194 9.25884 14.9147 9.17204 14.9061C9.08524 14.8981 8.99912 14.8852 8.913 14.8689C8.82791 14.8523 8.7435 14.8323 8.65978 14.8074C8.57503 14.7832 8.49233 14.7553 8.41099 14.7227C8.33 14.6908 8.24935 14.6553 8.1711 14.6164C8.09284 14.5775 8.01697 14.5344 7.94248 14.4888C7.86866 14.4427 7.79655 14.3935 7.72684 14.341C7.65644 14.2879 7.5881 14.2314 7.52317 14.1719C7.45892 14.1138 7.39946 14.052 7.34273 13.9862C7.28566 13.9195 7.23133 13.8487 7.18143 13.7753C7.12744 13.6942 7.07789 13.6102 7.03278 13.5235C6.98733 13.4361 6.94598 13.3474 6.90975 13.2567C6.87011 13.1601 6.83696 13.0614 6.80757 12.9618C6.77819 12.8584 6.75426 12.7545 6.73581 12.6498C6.71633 12.5395 6.70164 12.4283 6.69309 12.3166C6.68284 12.2 6.67908 12.0831 6.67977 11.9658C6.68079 11.8469 6.68592 11.727 6.69754 11.6077C6.70847 11.4935 6.72385 11.3799 6.7447 11.2676C6.76554 11.1609 6.79049 11.0556 6.82124 10.9523C6.85166 10.8517 6.88652 10.7523 6.92752 10.6547C6.96546 10.564 7.00749 10.4753 7.05328 10.3886C7.09976 10.3022 7.15068 10.2182 7.2057 10.1371C7.25696 10.064 7.31095 9.99361 7.37007 9.92751C7.42646 9.8624 7.48797 9.80127 7.55221 9.74414C7.61817 9.686 7.6872 9.63053 7.7576 9.57904C7.82799 9.52755 7.9001 9.47971 7.9746 9.43453C8.0491 9.39002 8.12565 9.34883 8.20322 9.31162C8.28182 9.27408 8.3611 9.23987 8.44175 9.21097C8.52377 9.18007 8.60681 9.1535 8.69053 9.13124C8.77426 9.10832 8.85935 9.08938 8.94512 9.0751C9.03193 9.05982 9.11907 9.04886 9.20621 9.04155C9.2954 9.03424 9.38425 9.03125 9.47345 9.03125C9.57118 9.03225 9.6696 9.03756 9.767 9.0472C9.86234 9.05683 9.95837 9.07111 10.0527 9.09005C10.1456 9.10832 10.2379 9.13124 10.3288 9.15914C10.4187 9.18605 10.5069 9.21761 10.5943 9.25415C10.6781 9.28903 10.7591 9.32989 10.837 9.3764C10.9169 9.42324 10.9935 9.47639 11.067 9.53419C11.1469 9.59697 11.2228 9.66607 11.2942 9.73816C11.3656 9.81124 11.433 9.88897 11.4955 9.96903C11.5614 10.0514 11.6202 10.1398 11.6729 10.2308C11.7258 10.3228 11.773 10.4188 11.8123 10.5188C11.83 10.5633 11.8471 10.6085 11.8618 10.654C11.8772 10.7009 11.8919 10.7477 11.9045 10.7952L11.9056 10.7959H11.9039L11.0212 10.7895H11.0205C10.96 10.6587 10.8865 10.5381 10.798 10.4301C10.7126 10.3261 10.6148 10.2331 10.5028 10.1547C10.3493 10.0468 10.1819 9.97302 10.0076 9.92618C9.83329 9.87867 9.65047 9.85775 9.4673 9.85708C9.33402 9.85542 9.20177 9.86672 9.07157 9.8913C8.94923 9.91488 8.82825 9.95076 8.71275 10.0009C8.59587 10.0508 8.48754 10.1135 8.38639 10.1873C8.28353 10.2634 8.18887 10.3507 8.10309 10.4494C7.92812 10.65 7.80407 10.8762 7.72171 11.1174C7.63184 11.3842 7.5922 11.6699 7.59015 11.9625C7.58844 12.2389 7.62808 12.503 7.71112 12.7508C7.79245 12.9913 7.91479 13.2172 8.08224 13.4252C8.16597 13.5291 8.2596 13.6235 8.36213 13.7062C8.46054 13.7856 8.56853 13.854 8.68438 13.9095C8.80091 13.965 8.92086 14.0055 9.04423 14.0324C9.17375 14.061 9.306 14.0746 9.43996 14.0753C9.53838 14.0759 9.6368 14.0706 9.73522 14.058C9.82748 14.046 9.91975 14.0278 10.0096 14.0015C10.0995 13.9753 10.187 13.9421 10.2707 13.9015C10.3538 13.8617 10.4334 13.8148 10.5089 13.761C10.5872 13.7055 10.6582 13.6428 10.7235 13.574C10.7888 13.5049 10.8476 13.4288 10.9002 13.3471C10.9282 13.3026 10.9535 13.2574 10.9771 13.2106C11.0017 13.1631 11.0232 13.1139 11.0437 13.0637H11.0434V13.0644Z" fill="#7D7D7D"/>
</g>
</g>
</g>
</svg>
