<svg width="24" height="24" viewBox="0 0 24 24" fill="none" xmlns="http://www.w3.org/2000/svg">
<g id="Type=comapare IOS clicked">
<g id="Frame 554280">
<g id="Vector">
<path d="M5 19.3793C5 19.7221 5.30329 20 5.67742 20C6.05155 20 6.35484 19.7221 6.35484 19.3793V5.62069C6.35484 5.27789 6.05155 5 5.67742 5C5.30329 5 5 5.27789 5 5.62069V19.3793Z" fill="#0E0E0E"/>
<path d="M9.06452 19.3793C9.06452 19.7221 9.36781 20 9.74194 20C10.1161 20 10.4194 19.7221 10.4194 19.3793V5.72414C10.4194 5.38134 10.1161 5.10345 9.74194 5.10345C9.36781 5.10345 9.06452 5.38134 9.06452 5.72414V19.3793Z" fill="#0E0E0E"/>
<path d="M13.129 19.3793C13.129 19.7221 13.4323 20 13.8065 20C14.1806 20 14.4839 19.7221 14.4839 19.3793V9.81034C14.4839 9.46755 14.1806 9.18966 13.8065 9.18966C13.4323 9.18966 13.129 9.46755 13.129 9.81034V19.3793Z" fill="#0E0E0E"/>
<path d="M17.6452 19.3793C17.6452 19.7221 17.9485 20 18.3226 20C18.6967 20 19 19.7221 19 19.3793V10.5086C19 10.1658 18.6967 9.88793 18.3226 9.88793C17.9485 9.88793 17.6452 10.1658 17.6452 10.5086V19.3793Z" fill="#0E0E0E"/>
</g>
<g id="quill:checkmark" clip-path="url(#clip0_13751_167379)">
<path id="Vector_2" d="M15 6.90163L16.5158 8.31289L19 6" stroke="#0E0E0E" stroke-width="1.52189" stroke-linecap="round" stroke-linejoin="round"/>
</g>
</g>
</g>
<defs>
<clipPath id="clip0_13751_167379">
<rect width="6" height="5" fill="white" transform="translate(14 5)"/>
</clipPath>
</defs>
</svg>
