<svg width="34" height="28" viewBox="0 0 34 28" fill="none" xmlns="http://www.w3.org/2000/svg">
<g id="Type=compare added items">
<g id="Vector">
<path d="M5 23.3333C5 23.7015 5.32495 24 5.72581 24C6.12666 24 6.45161 23.7015 6.45161 23.3333V17.5556C6.45161 17.1874 6.12666 16.8889 5.72581 16.8889C5.32495 16.8889 5 17.1874 5 17.5556V23.3333Z" fill="#999999"/>
<path d="M9.35484 23.3333C9.35484 23.7015 9.67979 24 10.0806 24C10.4815 24 10.8065 23.7015 10.8065 23.3333V8.66667C10.8065 8.29848 10.4815 8 10.0806 8C9.67979 8 9.35484 8.29848 9.35484 8.66667V23.3333Z" fill="#999999"/>
<path d="M13.7097 23.3333C13.7097 23.7015 14.0346 24 14.4355 24C14.8363 24 15.1613 23.7015 15.1613 23.3333V10.4444C15.1613 10.0763 14.8363 9.77778 14.4355 9.77778C14.0346 9.77778 13.7097 10.0763 13.7097 10.4444V23.3333Z" fill="#999999"/>
<path d="M18.5484 23.3333C18.5484 23.7015 18.8733 24 19.2742 24C19.675 24 20 23.7015 20 23.3333V13.5556C20 13.1874 19.675 12.8889 19.2742 12.8889C18.8733 12.8889 18.5484 13.1874 18.5484 13.5556V23.3333Z" fill="#999999"/>
</g>
<g id="Badge">
<rect x="14.5" y="0.5" width="19" height="19" rx="9.5" fill="#0E0E0E"/>
<rect x="14.5" y="0.5" width="19" height="19" rx="9.5" stroke="white"/>
<path id="4" d="M20.3493 12.2102V11.3409L24.1845 5.27273H24.8152V6.61932H24.389L21.4913 11.2045V11.2727H26.6561V12.2102H20.3493ZM24.4572 14V11.946V11.5412V5.27273H25.4629V14H24.4572Z" fill="white"/>
</g>
</g>
</svg>
