<svg width="24" height="24" viewBox="0 0 24 24" fill="none" xmlns="http://www.w3.org/2000/svg">
<g id="Type=compare clicked">
<g id="Vector">
<path d="M15.2 14.4C15.2 11.3072 12.6928 8.8 9.6 8.8C9.34562 8.8 9.0952 8.81696 8.84982 8.84981C6.11174 9.21639 4 11.5616 4 14.4C4 17.4928 6.50721 20 9.6 20C12.4384 20 14.7836 17.8883 15.1502 15.1502C15.183 14.9048 15.2 14.6544 15.2 14.4Z" fill="#0E0E0E"/>
<path d="M9.6 8.8V9.55V8.8ZM15.2 14.4H15.95H15.2ZM9.6 20V19.25V20ZM14.4 4V3.25V4ZM20 9.6H19.25H20ZM8.84982 8.84981L8.94934 9.59318H8.94934L8.84982 8.84981ZM15.1502 15.1502L14.4068 15.0507V15.0507L15.1502 15.1502ZM9.6 9.55C12.2786 9.55 14.45 11.7214 14.45 14.4H15.95C15.95 10.893 13.107 8.05 9.6 8.05V9.55ZM9.6 19.25C6.92142 19.25 4.75 17.0786 4.75 14.4H3.25C3.25 17.907 6.09299 20.75 9.6 20.75V19.25ZM14.4 4.75C17.0786 4.75 19.25 6.92142 19.25 9.6H20.75C20.75 6.09299 17.907 3.25 14.4 3.25V4.75ZM9.6 8.05C9.31225 8.05 9.02858 8.06919 8.75029 8.10645L8.94934 9.59318C9.16183 9.56473 9.379 9.55 9.6 9.55V8.05ZM15.8936 15.2497C15.9308 14.9714 15.95 14.6878 15.95 14.4H14.45C14.45 14.621 14.4353 14.8382 14.4068 15.0507L15.8936 15.2497ZM19.25 9.6C19.25 12.0577 17.4213 14.0894 15.0507 14.4068L15.2497 15.8936C18.3552 15.4778 20.75 12.8192 20.75 9.6H19.25ZM14.4068 15.0507C14.0894 17.4213 12.0577 19.25 9.6 19.25V20.75C12.8192 20.75 15.4778 18.3552 15.8936 15.2497L14.4068 15.0507ZM9.59318 8.94934C9.91057 6.5787 11.9423 4.75 14.4 4.75V3.25C11.1808 3.25 8.52222 5.64477 8.10645 8.75029L9.59318 8.94934ZM4.75 14.4C4.75 11.9423 6.5787 9.91057 8.94934 9.59318L8.75029 8.10645C5.64477 8.52222 3.25 11.1808 3.25 14.4H4.75Z" fill="#0E0E0E"/>
</g>
</g>
</svg>
