<svg width="24" height="24" viewBox="0 0 24 24" fill="none" xmlns="http://www.w3.org/2000/svg">
<g id="Type=compare hover">
<g id="Vector">
<path d="M5 19.3351C5 19.7033 5.32495 20.0017 5.72581 20.0017C6.12666 20.0017 6.45161 19.7033 6.45161 19.3351V4.55729C6.45161 4.1891 6.12666 3.89063 5.72581 3.89063C5.32495 3.89063 5 4.1891 5 4.55729V19.3351Z" fill="#7D7D7D"/>
<path d="M9.35484 19.3351C9.35484 19.7033 9.67979 20.0017 10.0806 20.0017C10.4815 20.0017 10.8065 19.7033 10.8065 19.3351V4.55729C10.8065 4.1891 10.4815 3.89063 10.0806 3.89063C9.67979 3.89063 9.35484 4.1891 9.35484 4.55729V19.3351Z" fill="#7D7D7D"/>
<path d="M13.7097 19.3351C13.7097 19.7033 14.0346 20.0017 14.4355 20.0017C14.8363 20.0017 15.1613 19.7033 15.1613 19.3351V4.55729C15.1613 4.1891 14.8363 3.89062 14.4355 3.89062C14.0346 3.89062 13.7097 4.1891 13.7097 4.55729V19.3351Z" fill="#7D7D7D"/>
<path d="M18.5484 19.3351C18.5484 19.7033 18.8733 20.0017 19.2742 20.0017C19.675 20.0017 20 19.7033 20 19.3351V4.55729C20 4.1891 19.675 3.89063 19.2742 3.89063C18.8733 3.89063 18.5484 4.1891 18.5484 4.55729V19.3351Z" fill="#7D7D7D"/>
</g>
</g>
</svg>
