<svg width="24" height="24" viewBox="0 0 24 24" fill="none" xmlns="http://www.w3.org/2000/svg">
<g id="Type=compare IOS">
<g id="icon">
<g id="Vector">
<path d="M5 19.3793C5 19.7221 5.30329 20 5.67742 20C6.05155 20 6.35484 19.7221 6.35484 19.3793V5.62069C6.35484 5.27789 6.05155 5 5.67742 5C5.30329 5 5 5.27789 5 5.62069V19.3793Z" fill="#999999"/>
<path d="M9.06452 19.3793C9.06452 19.7221 9.36781 20 9.74193 20C10.1161 20 10.4194 19.7221 10.4194 19.3793V5.72414C10.4194 5.38134 10.1161 5.10345 9.74193 5.10345C9.36781 5.10345 9.06452 5.38134 9.06452 5.72414V19.3793Z" fill="#999999"/>
<path d="M13.129 19.3793C13.129 19.7221 13.4323 20 13.8064 20C14.1806 20 14.4839 19.7221 14.4839 19.3793L14.4839 10.6207C14.4839 10.2779 14.1806 10 13.8065 10C13.4323 10 13.129 10.2779 13.129 10.6207L13.129 19.3793Z" fill="#999999"/>
<path d="M17.6452 19.3793C17.6452 19.7221 17.9485 20 18.3226 20C18.6967 20 19 19.7221 19 19.3793L19 12.5977C19 12.2549 18.6967 11.977 18.3226 11.977C17.9485 11.977 17.6452 12.2549 17.6452 12.5977L17.6452 19.3793Z" fill="#999999"/>
</g>
<g id="Vector_2">
<path d="M17 5C17.4142 5 17.75 5.33579 17.75 5.75L17.75 10.25C17.75 10.6642 17.4142 11 17 11C16.5858 11 16.25 10.6642 16.25 10.25L16.25 5.75C16.25 5.33579 16.5858 5 17 5Z" fill="#999999"/>
<path d="M14 8C14 7.58579 14.3358 7.25 14.75 7.25H19.25C19.6642 7.25 20 7.58579 20 8C20 8.41421 19.6642 8.75 19.25 8.75H14.75C14.3358 8.75 14 8.41421 14 8Z" fill="#999999"/>
</g>
</g>
</g>
</svg>
