<svg width="32" height="32" viewBox="0 0 32 32" fill="none" xmlns="http://www.w3.org/2000/svg">
<g id="Type=consoles service">
<g id="carbon:game-console" clip-path="url(#clip0_13751_167807)">
<path id="Vector" d="M1.99993 21.9517C1.99993 24.4142 3.49943 25.9999 5.75829 25.9999C6.37248 25.9919 6.97574 25.8412 7.51759 25.5605C8.05943 25.2797 8.52408 24.8771 8.87261 24.3863L10.6605 22.0916C10.7517 21.9515 10.876 21.8344 11.0231 21.75C11.1701 21.6657 11.3358 21.6165 11.5064 21.6066H20.9935C21.1641 21.6165 21.3297 21.6657 21.4768 21.75C21.6239 21.8344 21.7482 21.9515 21.8394 22.0916L23.6273 24.3863C23.9758 24.8771 24.4404 25.2797 24.9823 25.5605C25.5241 25.8412 26.1274 25.9919 26.7416 25.9999C29.0004 25.9999 30.4999 24.4142 30.4999 21.9517C30.463 20.7302 30.2561 19.519 29.8848 18.3513C29.1656 15.8498 28.2761 13.3975 27.2222 11.0104C26.3763 9.14487 25.9438 8.2121 23.8483 7.75505C18.8359 6.74823 13.664 6.74823 8.65155 7.75505C6.56572 8.25874 6.12355 9.11689 5.27768 11.0104C4.22372 13.3975 3.33425 15.8498 2.61513 18.3513C2.24895 19.5202 2.04212 20.7307 1.99993 21.9517Z" stroke="#3C82FF" stroke-width="1.72727" stroke-miterlimit="10"/>
<g id="Vector_2">
<path d="M21.8643 13.9109C22.3413 13.9109 22.728 13.5242 22.728 13.0472C22.728 12.5703 22.3413 12.1836 21.8643 12.1836C21.3874 12.1836 21.0007 12.5703 21.0007 13.0472C21.0007 13.5242 21.3874 13.9109 21.8643 13.9109Z" fill="#3C82FF"/>
<path d="M21.8643 17.3654C22.3413 17.3654 22.728 16.9787 22.728 16.5018C22.728 16.0248 22.3413 15.6381 21.8643 15.6381C21.3874 15.6381 21.0007 16.0248 21.0007 16.5018C21.0007 16.9787 21.3874 17.3654 21.8643 17.3654Z" fill="#3C82FF"/>
<path d="M20.1371 15.6381C20.614 15.6381 21.0007 15.2515 21.0007 14.7745C21.0007 14.2975 20.614 13.9109 20.1371 13.9109C19.6601 13.9109 19.2734 14.2975 19.2734 14.7745C19.2734 15.2515 19.6601 15.6381 20.1371 15.6381Z" fill="#3C82FF"/>
<path d="M23.5916 15.6381C24.0686 15.6381 24.4553 15.2515 24.4553 14.7745C24.4553 14.2975 24.0686 13.9109 23.5916 13.9109C23.1146 13.9109 22.728 14.2975 22.728 14.7745C22.728 15.2515 23.1146 15.6381 23.5916 15.6381Z" fill="#3C82FF"/>
</g>
<g id="Vector_3">
<path d="M9.7745 16.07C10.2515 16.07 10.6381 16.5018 10.6381 13.0472C10.6381 12.5703 10.2515 12.1836 9.7745 12.1836C9.29753 12.1836 8.91087 12.5703 8.91087 13.0472C8.91087 16.5018 9.29753 16.07 9.7745 16.07Z" fill="#3C82FF"/>
<path d="M9.7745 17.3654C10.2515 17.3654 10.6381 16.9787 10.6381 16.5018C10.6381 14.1803 10.2515 13.479 9.7745 13.479C9.29753 13.479 8.91087 13.9203 8.91087 16.5018C8.91087 16.9787 9.29753 17.3654 9.7745 17.3654Z" fill="#3C82FF"/>
<path d="M8.04723 15.6381C11.5018 15.6381 11.5018 15.2515 11.5018 14.7745C11.5018 14.2975 11.5018 13.9109 8.04723 13.9109C7.57026 13.9109 7.18359 14.2975 7.18359 14.7745C7.18359 15.2515 7.57026 15.6381 8.04723 15.6381Z" fill="#3C82FF"/>
<path d="M11.5018 15.6381C11.9787 15.6381 12.3654 15.2515 12.3654 14.7745C12.3654 14.2975 11.9787 13.9109 11.5018 13.9109C7.83132 13.9381 8.04723 14.2975 8.04723 14.7745C8.04723 15.2515 8.47905 15.6381 11.5018 15.6381Z" fill="#3C82FF"/>
</g>
</g>
</g>
<defs>
<clipPath id="clip0_13751_167807">
<rect width="31" height="21" fill="white" transform="translate(1 6)"/>
</clipPath>
</defs>
</svg>
