<svg width="24" height="24" viewBox="0 0 24 24" fill="none" xmlns="http://www.w3.org/2000/svg">
<g id="Type=contacts">
<g id="Group">
<path id="Vector" d="M13.0011 11.9983C14.4213 11.9983 15.5725 10.8471 15.5725 9.4269C15.5725 8.00674 14.4213 6.85547 13.0011 6.85547C11.581 6.85547 10.4297 8.00674 10.4297 9.4269C10.4297 10.8471 11.581 11.9983 13.0011 11.9983Z" stroke="#2A65C5" stroke-linecap="round" stroke-linejoin="round"/>
<path id="Vector_2" d="M4 6.85714H5.28571V5.57143C5.28571 4.88944 5.55663 4.23539 6.03887 3.75315C6.5211 3.27092 7.17516 3 7.85714 3H18.1429C18.8248 3 19.4789 3.27092 19.9611 3.75315C20.4434 4.23539 20.7143 4.88944 20.7143 5.57143V18.4286C20.7143 19.1106 20.4434 19.7646 19.9611 20.2468C19.4789 20.7291 18.8248 21 18.1429 21H7.85714C7.17516 21 6.5211 20.7291 6.03887 20.2468C5.55663 19.7646 5.28571 19.1106 5.28571 18.4286V17.1429H4M4 12H5.28571M4 9.42857H5.28571M4 14.5714H5.28571" stroke="#2A65C5" stroke-linecap="round" stroke-linejoin="round"/>
<path id="Vector_3" fill-rule="evenodd" clip-rule="evenodd" d="M16.8588 15.8571V14.5714C16.8588 13.8894 16.5879 13.2354 16.1057 12.7532C15.6234 12.2709 14.9694 12 14.2874 12H11.716C11.034 12 10.3799 12.2709 9.89769 12.7532C9.41545 13.2354 9.14453 13.8894 9.14453 14.5714V15.8571C9.14453 16.1981 9.27999 16.5252 9.52111 16.7663C9.76223 17.0074 10.0893 17.1429 10.4302 17.1429H15.5731C15.9141 17.1429 16.2411 17.0074 16.4822 16.7663C16.7234 16.5252 16.8588 16.1981 16.8588 15.8571Z" stroke="#2A65C5" stroke-linecap="round" stroke-linejoin="round"/>
</g>
</g>
</svg>
