<svg width="24" height="24" viewBox="0 0 24 24" fill="none" xmlns="http://www.w3.org/2000/svg">
<g id="Type=delete ANDROID">
<path id="Vector" d="M17 8.91667C17.4142 8.91667 17.75 8.58088 17.75 8.16667C17.75 7.75245 17.4142 7.41667 17 7.41667V8.91667ZM6 7.41667C5.58579 7.41667 5.25 7.75245 5.25 8.16667C5.25 8.58088 5.58579 8.91667 6 8.91667V7.41667ZM15.624 14.9549L14.8753 14.9102V14.9102L15.624 14.9549ZM7.37609 14.9549L6.62742 14.9996L7.37609 14.9549ZM8.10758 18.4155L8.64926 17.8968L8.10758 18.4155ZM13.7185 6.92857L12.9999 7.14319V7.14319L13.7185 6.92857ZM13.7813 7.13893L14.5 6.92431V6.92431L13.7813 7.13893ZM9.21873 7.13893L8.50009 6.92431L8.50009 6.92431L9.21873 7.13893ZM9.28155 6.92857L10.0002 7.14319L9.28155 6.92857ZM9.196 7.21356L9.90947 7.44479L9.90947 7.44478L9.196 7.21356ZM7.94122 7.41667C7.52701 7.41667 7.19122 7.75245 7.19122 8.16667C7.19122 8.58088 7.52701 8.91667 7.94122 8.91667V7.41667ZM8.01185 8.1662L8.03305 8.9159H8.03305L8.01185 8.1662ZM13.8041 7.21356L14.5175 6.98234L14.5175 6.98232L13.8041 7.21356ZM15.0588 8.91667C15.473 8.91667 15.8088 8.58088 15.8088 8.16667C15.8088 7.75245 15.473 7.41667 15.0588 7.41667V8.91667ZM14.9882 8.1662L14.967 8.9159H14.967L14.9882 8.1662ZM12.8947 6.01355L13.0263 5.27519V5.27519L12.8947 6.01355ZM13.6025 6.58298L14.2822 6.26589L14.2822 6.26588L13.6025 6.58298ZM10.1054 6.01355L9.97377 5.27519L10.1054 6.01355ZM9.39756 6.58298L8.71789 6.26588L8.71789 6.26589L9.39756 6.58298ZM7.8672 10.5981C7.84251 10.1847 7.4873 9.86949 7.07382 9.89419C6.66034 9.91889 6.34517 10.2741 6.36987 10.6876L7.8672 10.5981ZM16.6302 10.6876C16.6549 10.2741 16.3397 9.91889 15.9262 9.89419C15.5128 9.8695 15.1575 10.1847 15.1329 10.5981L16.6302 10.6876ZM17 7.41667H6V8.91667H17V7.41667ZM11.2498 19.75H11.7502V18.25H11.2498V19.75ZM11.7502 19.75C12.5883 19.75 13.2984 19.7519 13.8654 19.6691C14.4622 19.5819 14.9984 19.3893 15.4341 18.9343L14.3508 17.8968C14.2268 18.0263 14.0527 18.1258 13.6487 18.1848C13.215 18.2481 12.6338 18.25 11.7502 18.25V19.75ZM14.8753 14.9102C14.8169 15.8873 14.7759 16.5544 14.6868 17.0533C14.6003 17.5383 14.4846 17.757 14.3508 17.8968L15.4341 18.9343C15.86 18.4896 16.0529 17.9367 16.1635 17.3169C16.2716 16.7109 16.3165 15.9399 16.3726 14.9996L14.8753 14.9102ZM11.2498 18.25C10.3662 18.25 9.78504 18.2481 9.35132 18.1848C8.94733 18.1258 8.77323 18.0263 8.64926 17.8968L7.56591 18.9343C8.00165 19.3893 8.53782 19.5819 9.13461 19.6691C9.70165 19.7519 10.4117 19.75 11.2498 19.75V18.25ZM6.62742 14.9996C6.68358 15.9399 6.72842 16.7109 6.83656 17.3169C6.94719 17.9367 7.14005 18.4896 7.56591 18.9343L8.64926 17.8968C8.51541 17.757 8.39979 17.5383 8.31322 17.0533C8.22418 16.5544 8.18312 15.8873 8.12475 14.9102L6.62742 14.9996ZM10.4358 6.75H12.5643V5.25H10.4358V6.75ZM12.9999 7.14319L13.0627 7.35354L14.5 6.92431L14.4371 6.71396L12.9999 7.14319ZM9.93737 7.35354L10.0002 7.14319L8.56291 6.71396L8.50009 6.92431L9.93737 7.35354ZM8.50009 6.92431C8.48756 6.96627 8.48478 6.97542 8.48253 6.98234L9.90947 7.44478C9.91838 7.4173 9.92703 7.38816 9.93737 7.35354L8.50009 6.92431ZM7.94122 8.91667C7.97273 8.91667 8.00349 8.91674 8.03305 8.9159L7.99064 7.4165C7.98742 7.41659 7.98203 7.41667 7.94122 7.41667V8.91667ZM8.48253 6.98234C8.38568 7.2812 8.16493 7.41157 7.99064 7.4165L8.03305 8.9159C8.9244 8.89069 9.64373 8.26478 9.90947 7.44479L8.48253 6.98234ZM13.0627 7.35354C13.0729 7.38791 13.0817 7.41735 13.0906 7.44481L14.5175 6.98232C14.5153 6.97546 14.5124 6.96607 14.5 6.92431L13.0627 7.35354ZM15.0588 7.41667C15.018 7.41667 15.0126 7.41659 15.0094 7.4165L14.967 8.9159C14.9966 8.91674 15.0273 8.91667 15.0588 8.91667V7.41667ZM13.0906 7.44479C13.3563 8.26478 14.0757 8.89069 14.967 8.9159L15.0094 7.4165C14.8351 7.41157 14.6144 7.2812 14.5175 6.98234L13.0906 7.44479ZM12.5643 6.75C12.6538 6.75 12.7032 6.75009 12.7401 6.75129C12.7729 6.75237 12.7739 6.75385 12.7631 6.75192L13.0263 5.27519C12.8692 5.24719 12.7047 5.25 12.5643 5.25V6.75ZM14.4371 6.71396C14.3906 6.55797 14.3466 6.40408 14.2822 6.26589L12.9228 6.90007C12.9295 6.91434 12.9392 6.94002 12.9999 7.14319L14.4371 6.71396ZM12.7631 6.75192C12.8021 6.75886 12.8734 6.79409 12.9228 6.90007L14.2822 6.26588C14.0478 5.76357 13.5941 5.37639 13.0263 5.27519L12.7631 6.75192ZM10.4358 5.25C10.2953 5.25 10.1309 5.24719 9.97377 5.27519L10.237 6.75192C10.2262 6.75385 10.2271 6.75237 10.26 6.75129C10.2968 6.75009 10.3463 6.75 10.4358 6.75V5.25ZM10.0002 7.14319C10.0609 6.94003 10.0706 6.91434 10.0772 6.90007L8.71789 6.26589C8.65342 6.40408 8.60949 6.55798 8.56291 6.71396L10.0002 7.14319ZM9.97377 5.27519C9.40598 5.37639 8.95224 5.76357 8.71789 6.26588L10.0772 6.90007C10.1267 6.79409 10.198 6.75886 10.237 6.75192L9.97377 5.27519ZM6.36987 10.6876L6.62742 14.9996L8.12475 14.9102L7.8672 10.5981L6.36987 10.6876ZM16.3726 14.9996L16.6302 10.6876L15.1329 10.5981L14.8753 14.9102L16.3726 14.9996Z" fill="#999999"/>
</g>
</svg>
