<svg width="24" height="24" viewBox="0 0 24 24" fill="none" xmlns="http://www.w3.org/2000/svg">
<g id="Type=delivery point">
<g id="Group">
<path id="Vector" fill-rule="evenodd" clip-rule="evenodd" d="M18.0925 2.54878C17.5405 2.23878 16.9525 2.20878 16.3315 2.28578C15.7415 2.35978 15.0225 2.54578 14.1595 2.77078L12.1405 3.29478C11.2775 3.51978 10.5595 3.70578 10.0105 3.92878C9.43152 4.16278 8.93151 4.47678 8.60751 5.02178C8.28151 5.56978 8.24951 6.15578 8.33051 6.76778C8.40751 7.34478 8.60051 8.04478 8.83051 8.87878L9.37352 10.8428C9.60352 11.6778 9.79751 12.3768 10.0285 12.9128C10.2735 13.4828 10.6005 13.9678 11.1565 14.2798C11.7085 14.5888 12.2965 14.6198 12.9185 14.5418C13.5085 14.4688 14.2275 14.2818 15.0905 14.0568L17.1095 13.5328C17.9725 13.3088 18.6905 13.1218 19.2395 12.8988C19.8185 12.6648 20.3185 12.3508 20.6425 11.8058C20.9685 11.2578 21.0005 10.6718 20.9195 10.0608C20.8425 9.48378 20.6495 8.78278 20.4195 7.94878L19.8765 5.98478C19.6465 5.15078 19.4525 4.45078 19.2215 3.91478C18.9765 3.34478 18.6475 2.85978 18.0925 2.54878ZM14.4875 4.23478C15.4125 3.99478 16.0355 3.83478 16.5175 3.77478C16.9785 3.71678 17.1995 3.76778 17.3605 3.85778C17.5175 3.94578 17.6685 4.09878 17.8435 4.50778C18.0285 4.93778 18.1965 5.53678 18.4445 6.43478L18.9585 8.29778C19.2075 9.19578 19.3715 9.79578 19.4325 10.2578C19.4905 10.6968 19.4385 10.8958 19.3525 11.0388C19.2655 11.1858 19.1075 11.3348 18.6775 11.5088C18.2295 11.6898 17.6075 11.8538 16.6825 12.0938L14.7625 12.5928C13.8375 12.8328 13.2145 12.9928 12.7325 13.0528C12.2705 13.1118 12.0505 13.0608 11.8895 12.9708C11.7325 12.8828 11.5815 12.7288 11.4065 12.3208C11.2215 11.8908 11.0535 11.2908 10.8055 10.3928L10.2915 8.53078C10.0425 7.63078 9.87851 7.03178 9.81751 6.57078C9.75951 6.13078 9.81152 5.93278 9.89752 5.78878C9.98452 5.64178 10.1425 5.49278 10.5725 5.31878C11.0205 5.13778 11.6425 4.97478 12.5675 4.73378L14.4875 4.23478Z" fill="#0E0E0E"/>
<path id="Vector_2" fill-rule="evenodd" clip-rule="evenodd" d="M3.20202 4.7247C3.01257 4.67825 2.81247 4.70744 2.64419 4.80608C2.4759 4.90472 2.35266 5.06504 2.30062 5.25304C2.24858 5.44103 2.27183 5.64191 2.36544 5.81304C2.45905 5.98418 2.61565 6.11211 2.80202 6.1697L4.50502 6.6427C4.93102 6.7607 5.24802 7.0827 5.35602 7.4737L7.30802 14.5367C7.23249 14.5517 7.15746 14.569 7.08302 14.5887C5.10602 15.1017 3.89802 17.0907 4.44002 19.0557C4.98002 21.0107 7.03402 22.1377 9.00302 21.6257C10.727 21.1787 11.866 19.6097 11.77 17.9137L20.19 15.7257C20.2854 15.7009 20.3749 15.6577 20.4535 15.5983C20.5321 15.5389 20.5983 15.4647 20.6482 15.3798C20.6981 15.2948 20.7308 15.2009 20.7444 15.1034C20.758 15.0058 20.7523 14.9065 20.7275 14.8112C20.7028 14.7159 20.6595 14.6263 20.6001 14.5477C20.5408 14.4691 20.4665 14.403 20.3816 14.353C20.2967 14.3031 20.2028 14.2704 20.1052 14.2568C20.0076 14.2432 19.9084 14.2489 19.813 14.2737L11.375 16.4667C11.1226 15.9843 10.7673 15.5632 10.3343 15.2332C9.90128 14.9032 9.40108 14.6722 8.86902 14.5567L6.80202 7.0737C6.67515 6.62355 6.43381 6.21395 6.10153 5.88482C5.76925 5.5557 5.35736 5.31828 4.90602 5.1957L3.20302 4.7237L3.20202 4.7247ZM7.46102 16.0397C8.67302 15.7257 9.88902 16.4287 10.201 17.5587C10.511 18.6787 9.83102 19.8617 8.62702 20.1747C7.41502 20.4897 6.19902 19.7857 5.88702 18.6557C5.57702 17.5357 6.25702 16.3527 7.46102 16.0397Z" fill="#0E0E0E"/>
</g>
</g>
</svg>
