<svg width="26" height="24" viewBox="0 0 26 24" fill="none" xmlns="http://www.w3.org/2000/svg">
<g id="Type=delivery">
<g id="Frame" clip-path="url(#clip0_13751_167795)">
<path id="Vector" d="M10.3886 18.1H17.4694V16.8535H10.3886V18.1ZM17.5004 9.25843H20.1712C20.5672 9.25843 20.8467 9.3281 21.165 9.6765L23.6029 12.4095C23.8125 12.6417 23.9212 12.9669 23.9212 13.2456V15.9786C23.9212 16.5593 23.6183 16.8535 23.0361 16.8535H21.7861V18.1H23.0594C24.4414 18.1 25.1712 17.3799 25.1712 16.0018V13.2688C25.1712 12.5101 25.047 12.154 24.6199 11.674L21.9803 8.70098C21.5222 8.19001 21.0097 8.01193 20.2488 8.01193H17.5004V9.25843ZM8.32337 20.26C9.783 20.26 10.9709 19.0754 10.9709 17.6122C10.9709 16.1567 9.783 14.9721 8.32337 14.9721C6.85599 14.9721 5.66034 16.1567 5.66034 17.6122C5.66034 19.0754 6.85599 20.26 8.32337 20.26ZM8.32337 19.207C7.43828 19.207 6.71624 18.4948 6.71624 17.6122C6.71624 16.7373 7.43828 16.0173 8.32337 16.0173C9.20071 16.0173 9.91499 16.7373 9.91499 17.6122C9.91499 18.4948 9.20071 19.207 8.32337 19.207ZM19.5112 20.26C20.9787 20.26 22.1588 19.0754 22.1588 17.6122C22.1588 16.1567 20.9787 14.9721 19.5112 14.9721C18.0439 14.9721 16.856 16.1567 16.856 17.6122C16.856 19.0754 18.0439 20.26 19.5112 20.26ZM19.5112 19.207C18.634 19.207 17.9119 18.4948 17.9119 17.6122C17.9119 16.7373 18.634 16.0173 19.5112 16.0173C20.3808 16.0173 21.1029 16.7373 21.1029 17.6122C21.1029 18.4948 20.3964 19.207 19.5112 19.207ZM2.5625 16.0018C2.5625 17.3799 3.28456 18.1 4.67431 18.1H6.37463V16.8535H4.68984C4.10753 16.8535 3.81251 16.5593 3.81251 15.9786V10.7604C3.36997 10.7062 2.95847 10.5901 2.5625 10.4197V16.0018ZM16.0718 3.73828H9.10754C9.29387 4.13312 9.4181 4.54346 9.48797 4.98476H16.0485C16.623 4.98476 16.9336 5.2867 16.9336 5.86736V17.2173L18.1837 16.7683V5.84415C18.1837 4.46605 17.4538 3.73828 16.0718 3.73828ZM19.6356 13.3385H23.0206C23.0206 13.1527 22.9507 13.0521 22.8343 12.9205L20.5206 10.3268C20.3498 10.1488 20.1479 10.0326 19.9305 10.0326H18.9677V12.6804C18.9677 13.0908 19.224 13.3385 19.6356 13.3385Z" fill="#2A65C5"/>
<path id="Vector_2" d="M4.73726 9.82609C6.85554 9.82609 8.65031 8.05443 8.65031 5.91304C8.65031 3.76394 6.88635 2 4.73726 2C2.59588 2 0.824219 3.77166 0.824219 5.91304C0.824219 8.06984 2.59588 9.82609 4.73726 9.82609Z" fill="#2A65C5"/>
<path id="Vector_3" d="M3.0044 6.34935C2.75494 6.34935 2.5625 6.12443 2.5625 5.8513C2.5625 5.58622 2.76207 5.3613 3.0044 5.3613H4.28737V3.35307C4.28737 3.07995 4.48695 2.87109 4.72928 2.87109C4.97162 2.87109 5.1712 3.07995 5.1712 3.35307V5.8513C5.1712 6.13246 4.97874 6.34935 4.72928 6.34935H3.0044Z" fill="white"/>
</g>
</g>
<defs>
<clipPath id="clip0_13751_167795">
<rect width="24.3478" height="20" fill="white" transform="translate(0.824219 2)"/>
</clipPath>
</defs>
</svg>
