<svg width="50" height="50" viewBox="0 0 50 50" fill="none" xmlns="http://www.w3.org/2000/svg">
<g id="Type=delivery speed">
<rect width="50" height="50" rx="10" fill="#547DBA" fill-opacity="0.2"/>
<g id="Frame" clip-path="url(#clip0_13751_167704)">
<g id="Frame_2" clip-path="url(#clip1_13751_167704)">
<path id="Vector" d="M21.6791 32.9319H30.6945V31.3115H21.6791V32.9319ZM30.734 21.4379H34.1346C34.6386 21.4379 34.9946 21.5285 35.3999 21.9814L38.5038 25.5343C38.7706 25.8362 38.9091 26.2589 38.9091 26.6213V30.1741C38.9091 30.929 38.5234 31.3115 37.7821 31.3115H36.1906V32.9319H37.8118C39.5713 32.9319 40.5006 31.9959 40.5006 30.2043V26.6515C40.5006 25.6651 40.3424 25.2021 39.7987 24.5781L36.4378 20.7132C35.8546 20.049 35.2021 19.8175 34.2333 19.8175H30.734V21.4379ZM19.0497 35.74C20.9081 35.74 22.4205 34.2 22.4205 32.2978C22.4205 30.4056 20.9081 28.8657 19.0497 28.8657C17.1814 28.8657 15.6591 30.4056 15.6591 32.2978C15.6591 34.2 17.1814 35.74 19.0497 35.74ZM19.0497 34.3711C17.9228 34.3711 17.0034 33.4452 17.0034 32.2978C17.0034 31.1605 17.9228 30.2244 19.0497 30.2244C20.1667 30.2244 21.0761 31.1605 21.0761 32.2978C21.0761 33.4452 20.1667 34.3711 19.0497 34.3711ZM33.2942 35.74C35.1626 35.74 36.6652 34.2 36.6652 32.2978C36.6652 30.4056 35.1626 28.8657 33.2942 28.8657C31.426 28.8657 29.9135 30.4056 29.9135 32.2978C29.9135 34.2 31.426 35.74 33.2942 35.74ZM33.2942 34.3711C32.1773 34.3711 31.258 33.4452 31.258 32.2978C31.258 31.1605 32.1773 30.2244 33.2942 30.2244C34.4014 30.2244 35.3207 31.1605 35.3207 32.2978C35.3207 33.4452 34.4212 34.3711 33.2942 34.3711ZM11.7148 30.2043C11.7148 31.9959 12.6342 32.9319 14.4036 32.9319H16.5685V31.3115H14.4234C13.682 31.3115 13.3064 30.929 13.3064 30.1741V23.3905C12.7429 23.32 12.219 23.169 11.7148 22.9476V30.2043ZM28.9151 14.2617H20.0481C20.2853 14.775 20.4435 15.3084 20.5324 15.8821H28.8855C29.6169 15.8821 30.0123 16.2747 30.0123 17.0295V31.7845L31.6039 31.2007V16.9993C31.6039 15.2078 30.6747 14.2617 28.9151 14.2617ZM33.4525 26.742H37.7624C37.7624 26.5005 37.6734 26.3696 37.5252 26.1985L34.5793 22.8268C34.3619 22.5954 34.1048 22.4444 33.828 22.4444H32.6022V25.8865C32.6022 26.42 32.9286 26.742 33.4525 26.742Z" fill="#0E0E0E"/>
<path id="Vector_2" d="M14.4821 22.1739C17.1792 22.1739 19.4643 19.8708 19.4643 17.087C19.4643 14.2931 17.2184 12 14.4821 12C11.7557 12 9.5 14.3032 9.5 17.087C9.5 19.8908 11.7557 22.1739 14.4821 22.1739Z" fill="#0E0E0E"/>
<path id="Vector_3" d="M12.2775 17.6506C11.9599 17.6506 11.7148 17.3582 11.7148 17.0032C11.7148 16.6586 11.9689 16.3662 12.2775 16.3662H13.911V13.7555C13.911 13.4004 14.1651 13.1289 14.4736 13.1289C14.7822 13.1289 15.0363 13.4004 15.0363 13.7555V17.0032C15.0363 17.3687 14.7912 17.6506 14.4736 17.6506H12.2775Z" fill="white"/>
</g>
</g>
</g>
<defs>
<clipPath id="clip0_13751_167704">
<rect width="31" height="27" fill="white" transform="translate(9.5 11.5)"/>
</clipPath>
<clipPath id="clip1_13751_167704">
<rect width="31" height="26" fill="white" transform="translate(9.5 12)"/>
</clipPath>
</defs>
</svg>
