<svg width="50" height="50" viewBox="0 0 50 50" fill="none" xmlns="http://www.w3.org/2000/svg">
<g id="Type=Document">
<rect width="50" height="50" rx="10" fill="#547DBA" fill-opacity="0.2"/>
<g id="solar:document-add-linear">
<g id="Group">
<path id="Vector" d="M31.179 21.0401L31.642 20.5761C32.0106 20.2073 32.5107 20.0001 33.0321 20C33.5536 19.9999 34.0537 20.207 34.4225 20.5756C34.7913 20.9443 34.9985 21.4443 34.9986 21.9658C34.9987 22.4872 34.7916 22.9873 34.423 23.3561L33.96 23.8201M31.179 21.0401C31.179 21.0401 31.237 22.0241 32.106 22.8931C32.975 23.7621 33.96 23.8201 33.96 23.8201M31.179 21.0401L26.919 25.3001C26.629 25.5881 26.485 25.7331 26.361 25.8921C26.215 26.0801 26.09 26.2821 25.987 26.4981C25.9 26.6801 25.836 26.8731 25.707 27.2601L25.294 28.5001L25.16 28.9011M33.96 23.8201L29.7 28.0801C29.41 28.3701 29.266 28.5141 29.107 28.6381C28.919 28.7841 28.717 28.9091 28.501 29.0121C28.319 29.0991 28.126 29.1631 27.739 29.2921L26.499 29.7051L26.098 29.8391M25.16 28.9011L25.027 29.3031C24.996 29.3964 24.9916 29.4965 25.0143 29.5922C25.0369 29.6879 25.0857 29.7754 25.1552 29.8449C25.2248 29.9144 25.3122 29.9632 25.4079 29.9859C25.5036 30.0085 25.6037 30.0041 25.697 29.9731L26.098 29.8391M25.16 28.9011L26.098 29.8391" stroke="#0E0E0E" stroke-width="1.5"/>
<path id="Vector_2" d="M21 26H23.5M21 22H27.5M21 30H22.5M32.828 16.172C31.657 15 29.771 15 26 15H24C20.229 15 18.343 15 17.172 16.172C16 17.343 16 19.229 16 23V27C16 30.771 16 32.657 17.172 33.828C18.343 35 20.229 35 24 35H26C29.771 35 31.657 35 32.828 33.828C33.772 32.885 33.955 31.48 33.991 29" stroke="#0E0E0E" stroke-width="1.5" stroke-linecap="round"/>
</g>
</g>
</g>
</svg>
