<svg width="24" height="24" viewBox="0 0 24 24" fill="none" xmlns="http://www.w3.org/2000/svg">
<g id="Type=door delivery">
<path id="Vector" d="M17.2135 14H17.9865C18.1006 14 18.1963 13.8306 18.2 13.6222V10.3779C18.2 10.1694 18.1043 10 17.9865 10H17.2135C17.0957 10 17 10.1694 17 10.3779V13.6222C17 13.8306 17.0957 14 17.2135 14Z" fill="#0E0E0E"/>
<path id="Vector_2" fill-rule="evenodd" clip-rule="evenodd" d="M8.30877 17.6471C8.26001 17.6471 8.21668 17.6363 8.17334 17.6146C8.065 17.5603 8 17.4519 8 17.3325V14.3146C8 14.141 8.14084 14 8.31418 14C8.48753 14 8.62837 14.141 8.62837 14.3146V16.6924L9.09964 16.3181C9.2134 16.2259 9.37049 16.2259 9.48424 16.3181L9.95552 16.6924V14.3146C9.95552 14.141 10.0964 14 10.2697 14C10.443 14 10.5839 14.141 10.5839 14.3146V17.3379C10.5839 17.4573 10.5135 17.5658 10.4105 17.62C10.3022 17.6743 10.1776 17.658 10.0801 17.582L9.29465 16.9637L8.50919 17.582C8.44419 17.6254 8.37919 17.6471 8.30877 17.6471Z" fill="#0E0E0E"/>
<rect id="Rectangle 6037" x="3" y="21" width="19" height="1.2" rx="0.6" fill="#0E0E0E"/>
<path id="Rectangle 6038" d="M7 14.8493V4C7 2.89543 7.89543 2 9 2H18C19.1046 2 20 2.89543 20 4V21.4738H12" stroke="#0E0E0E" stroke-width="1.2"/>
<g id="Rectangle 6040">
<mask id="path-5-inside-1_13751_167258" fill="white">
<path d="M5 15C5 14.4477 5.44772 14 6 14H12C12.5523 14 13 14.4477 13 15V22H5V15Z"/>
</mask>
<path d="M5 15C5 14.4477 5.44772 14 6 14H12C12.5523 14 13 14.4477 13 15V22H5V15Z" stroke="#0E0E0E" stroke-width="2.4" mask="url(#path-5-inside-1_13751_167258)"/>
</g>
</g>
</svg>
