<svg width="24" height="24" viewBox="0 0 24 24" fill="none" xmlns="http://www.w3.org/2000/svg">
<g id="Type=down IOS">
<path id="Vector" d="M12 15C12.144 15 12.2765 14.9387 12.3802 14.8221L16.8502 9.96319C16.9482 9.85277 17 9.71779 17 9.55829C17 9.2454 16.7753 9 16.4758 9C16.3318 9 16.1993 9.06135 16.1014 9.15951L12 13.6258L7.89865 9.15951C7.80073 9.06135 7.67396 9 7.52424 9C7.22469 9 7 9.2454 7 9.55829C7 9.71779 7.05186 9.85277 7.15557 9.96319L11.6198 14.8221C11.7293 14.9387 11.856 15 12 15Z" fill="white"/>
</g>
</svg>
