<svg width="24" height="24" viewBox="0 0 24 24" fill="none" xmlns="http://www.w3.org/2000/svg">
<g id="Type=drop">
<path id="Vector" d="M16.1818 5.54894C15.0589 4.27521 13.795 3.12825 12.4136 2.12927C12.2914 2.04513 12.1457 2 11.9964 2C11.8471 2 11.7014 2.04513 11.5791 2.12927C10.2002 3.12867 8.93884 4.27561 7.81818 5.54894C5.31909 8.36772 4 11.3392 4 14.1428C4 16.2266 4.84285 18.2252 6.34315 19.6987C7.84344 21.1722 9.87827 22 12 22C14.1217 22 16.1566 21.1722 17.6569 19.6987C19.1571 18.2252 20 16.2266 20 14.1428C20 11.3392 18.6809 8.36772 16.1818 5.54894ZM12 20.5714C10.2646 20.5695 8.60088 19.8916 7.37379 18.6864C6.1467 17.4812 5.45647 15.8472 5.45455 14.1428C5.45455 9.03291 10.4973 4.76768 12 3.60696C13.5027 4.76768 18.5455 9.03112 18.5455 14.1428C18.5435 15.8472 17.8533 17.4812 16.6262 18.6864C15.3991 19.8916 13.7354 20.5695 12 20.5714ZM17.0809 14.9767C16.8923 16.0113 16.3855 16.9643 15.6288 17.7074C14.872 18.4505 13.9016 18.948 12.8482 19.133C12.8082 19.1393 12.7678 19.1426 12.7273 19.1428C12.5448 19.1428 12.3691 19.0754 12.2349 18.954C12.1007 18.8327 12.0178 18.6662 12.0027 18.4877C11.9876 18.3091 12.0414 18.1315 12.1533 17.9901C12.2653 17.8486 12.4274 17.7537 12.6073 17.7241C14.1136 17.475 15.3918 16.2196 15.6473 14.7374C15.6796 14.5506 15.7861 14.384 15.9435 14.2743C16.1009 14.1647 16.2961 14.1209 16.4864 14.1526C16.6766 14.1843 16.8462 14.289 16.9579 14.4435C17.0695 14.5981 17.1132 14.7899 17.0809 14.9767Z" fill="#0E0E0E"/>
</g>
</svg>
