<svg width="24" height="24" viewBox="0 0 24 24" fill="none" xmlns="http://www.w3.org/2000/svg">
<g id="Type=dyson">
<path id="Vector" d="M15.7646 6.66646V9.27606L13.5355 9.22551C11.8194 9.22551 11.7561 9.22551 11.1608 9.38348C10.3852 9.56841 9.6598 9.92124 9.03603 10.417C8.41226 10.9127 7.90535 11.5392 7.5512 12.2521C7.18857 12.9874 7 13.7959 7 14.6153C7 15.4347 7.18857 16.2432 7.5512 16.9785C7.90381 17.686 8.40648 18.3085 9.02432 18.8027C9.64215 19.297 10.3604 19.6512 11.1291 19.8408C11.5692 19.9558 12.0232 20.0089 12.478 19.9988C12.9198 20.0086 13.3609 19.9576 13.7888 19.8471C14.7476 19.6162 15.6258 19.1307 16.3304 18.4421C17.035 17.7535 17.5397 16.8875 17.791 15.9359C17.9493 15.304 17.943 15.5947 17.962 10.6662C17.962 8.19557 17.9937 5.68708 18 5.08681V4H15.7456L15.7646 6.66646ZM15.7646 13.4464C15.7646 14.9565 15.9103 15.5441 15.3403 16.4603C14.7704 17.3765 14.1118 17.5345 13.2442 17.7241C11.6737 18.0842 9.61563 16.7447 9.44465 15.1966C9.33106 14.3314 9.47648 13.4521 9.8626 12.6692C10.2806 11.8225 11.1291 11.6203 12.0917 11.6203H15.7393L15.7646 13.4464Z" stroke="#0066CC" stroke-width="0.669061" stroke-miterlimit="10"/>
</g>
</svg>
