<svg width="24" height="24" viewBox="0 0 24 24" fill="none" xmlns="http://www.w3.org/2000/svg">
<g id="Type=edit IOS">
<g id="square.and.pencil" clip-path="url(#clip0_13751_167366)">
<g id="Group">
<path id="Vector" d="M6.698 20H16.7854C18.3321 20 19.2256 19.105 19.2256 17.332V8.1316L17.8423 9.51725V17.2631C17.8423 18.1582 17.3611 18.6144 16.7683 18.6144H6.72377C5.86454 18.6144 5.38337 18.1582 5.38337 17.2631V7.49472C5.38337 6.59964 5.86454 6.13489 6.72377 6.13489H14.5514L15.9348 4.74924H6.698C4.91079 4.74924 4 5.64431 4 7.41726V17.332C4 19.1136 4.91079 20 6.698 20ZM9.82562 14.423L11.5012 13.6914L19.5264 5.66153L18.3492 4.49965L10.3326 12.5295L9.55925 14.1476C9.49052 14.2939 9.66237 14.4918 9.82562 14.423ZM20.1622 5.03325L20.7809 4.39637C21.073 4.08654 21.073 3.67342 20.7809 3.3894L20.5833 3.18285C20.3169 2.91605 19.8959 2.95047 19.6123 3.22588L18.9851 3.84555L20.1622 5.03325Z" fill="#2A65C5"/>
</g>
</g>
</g>
<defs>
<clipPath id="clip0_13751_167366">
<rect width="17" height="18" fill="white" transform="translate(4 3)"/>
</clipPath>
</defs>
</svg>
