<svg width="24" height="24" viewBox="0 0 24 24" fill="none" xmlns="http://www.w3.org/2000/svg">
<g id="Type=electro">
<path id="Vector" fill-rule="evenodd" clip-rule="evenodd" d="M18.4092 9.12339H13.9041L16.5897 2.8275C16.6282 2.73717 16.6438 2.63864 16.6351 2.54074C16.6264 2.44285 16.5937 2.34867 16.5398 2.26664C16.4859 2.18461 16.4126 2.11731 16.3265 2.07077C16.2403 2.02423 16.144 1.99991 16.0462 2H10.1387C10.023 1.9999 9.90982 2.03393 9.8132 2.09788C9.71658 2.16183 9.64078 2.25288 9.5952 2.35973L6.05069 10.6704C6.01215 10.7607 5.99654 10.8592 6.00525 10.9571C6.01396 11.055 6.04673 11.1492 6.1006 11.2312C6.15448 11.3132 6.22778 11.3806 6.31393 11.4271C6.40007 11.4736 6.49637 11.4979 6.59418 11.4979H9.51722L6.04596 20.1813C5.80966 20.7713 6.53865 21.2712 6.99944 20.8343L12.9353 15.2032L18.7932 10.1682C18.885 10.0893 18.9505 9.98405 18.9809 9.86661C19.0114 9.74918 19.0053 9.62519 18.9634 9.51135C18.9216 9.39752 18.846 9.2993 18.7469 9.22993C18.6478 9.16057 18.53 9.12338 18.4092 9.12339ZM13.0086 10.3106H16.8094L12.1449 14.3211L8.14549 18.1143L10.9397 11.1251C10.9757 11.035 10.9891 10.9375 10.9788 10.841C10.9685 10.7445 10.9348 10.652 10.8807 10.5717C10.8266 10.4913 10.7537 10.4255 10.6685 10.38C10.5832 10.3345 10.4881 10.3106 10.3915 10.3106H7.48976L10.5286 3.18723H15.1506L12.4651 9.48313C12.4265 9.57346 12.4109 9.67199 12.4196 9.76988C12.4283 9.86777 12.4611 9.96196 12.515 10.044C12.5689 10.126 12.6422 10.1933 12.7283 10.2399C12.8144 10.2864 12.9107 10.3107 13.0086 10.3106Z" fill="#0E0E0E"/>
</g>
</svg>
