<svg width="24" height="24" viewBox="0 0 24 24" fill="none" xmlns="http://www.w3.org/2000/svg">
<g id="Type=enter">
<path id="Vector" d="M18.9989 6.49609C18.7337 6.49609 18.4793 6.60145 18.2918 6.78899C18.1043 6.97652 17.9989 7.23088 17.9989 7.49609V11.4961C17.9989 11.7613 17.8936 12.0157 17.706 12.2032C17.5185 12.3907 17.2641 12.4961 16.9989 12.4961H7.40892L8.70892 11.2061C8.89722 11.0178 9.00301 10.7624 9.00301 10.4961C9.00301 10.2298 8.89722 9.9744 8.70892 9.78609C8.52062 9.59779 8.26522 9.492 7.99892 9.492C7.73262 9.492 7.47722 9.59779 7.28892 9.78609L4.28892 12.7861C4.19788 12.8812 4.12651 12.9933 4.07892 13.1161C3.9789 13.3596 3.9789 13.6326 4.07892 13.8761C4.12651 13.9988 4.19788 14.111 4.28892 14.2061L7.28892 17.2061C7.38188 17.2998 7.49248 17.3742 7.61434 17.425C7.7362 17.4758 7.86691 17.5019 7.99892 17.5019C8.13093 17.5019 8.26164 17.4758 8.3835 17.425C8.50536 17.3742 8.61596 17.2998 8.70892 17.2061C8.80265 17.1131 8.87704 17.0025 8.92781 16.8807C8.97858 16.7588 9.00472 16.6281 9.00472 16.4961C9.00472 16.3641 8.97858 16.2334 8.92781 16.1115C8.87704 15.9897 8.80265 15.8791 8.70892 15.7861L7.40892 14.4961H16.9989C17.7946 14.4961 18.5576 14.18 19.1202 13.6174C19.6828 13.0548 19.9989 12.2917 19.9989 11.4961V7.49609C19.9989 7.23088 19.8936 6.97652 19.706 6.78899C19.5185 6.60145 19.2641 6.49609 18.9989 6.49609Z" fill="white"/>
</g>
</svg>
