<svg width="24" height="24" viewBox="0 0 24 24" fill="none" xmlns="http://www.w3.org/2000/svg">
<g id="Type=fav ANDROID">
<path id="Vector" d="M15.875 6C14.57 6 13.3175 6.57384 12.5 7.48065C11.6825 6.57384 10.43 6 9.125 6C6.815 6 5 7.71444 5 9.89646C5 12.5744 7.55 14.7564 11.4125 18.0719L12.5 19L13.5875 18.0649C17.45 14.7564 20 12.5744 20 9.89646C20 7.71444 18.185 6 15.875 6ZM12.575 17.0163L12.5 17.0872L12.425 17.0163C8.855 13.9629 6.5 11.9439 6.5 9.89646C6.5 8.47956 7.625 7.41689 9.125 7.41689C10.28 7.41689 11.405 8.11826 11.8025 9.08883H13.205C13.595 8.11826 14.72 7.41689 15.875 7.41689C17.375 7.41689 18.5 8.47956 18.5 9.89646C18.5 11.9439 16.145 13.9629 12.575 17.0163Z" fill="#999999"/>
</g>
</svg>
