<svg width="28" height="28" viewBox="0 0 28 28" fill="none" xmlns="http://www.w3.org/2000/svg">
<g id="Type=fav IOS">
<path id="Vector" d="M6 11.9346C6 15.4151 8.87614 18.8382 13.42 21.7794C13.5892 21.8856 13.8308 22 14 22C14.1692 22 14.4109 21.8856 14.5881 21.7794C19.1239 18.8382 22 15.4151 22 11.9346C22 9.04248 20.0423 7 17.432 7C15.9416 7 14.7331 7.71895 14 8.82189C13.283 7.72712 12.0584 7 10.568 7C7.95771 7 6 9.04248 6 11.9346ZM7.29708 11.9346C7.29708 9.76143 8.68278 8.31536 10.5519 8.31536C12.0665 8.31536 12.9365 9.27124 13.4521 10.0882C13.6697 10.415 13.8067 10.5049 14 10.5049C14.1934 10.5049 14.3142 10.4069 14.5479 10.0882C15.1038 9.28758 15.9416 8.31536 17.4481 8.31536C19.3172 8.31536 20.7029 9.76143 20.7029 11.9346C20.7029 14.9738 17.5367 18.25 14.1692 20.5212C14.0886 20.5784 14.0322 20.6193 14 20.6193C13.9678 20.6193 13.9114 20.5784 13.8389 20.5212C10.4633 18.25 7.29708 14.9738 7.29708 11.9346Z" fill="#999999"/>
</g>
</svg>
