<svg width="24" height="24" viewBox="0 0 24 24" fill="none" xmlns="http://www.w3.org/2000/svg">
<g id="Type=favorite">
<path id="Vector" d="M19.9637 7.18167C19.4465 5.8672 18.4589 4.85927 17.1828 4.34315C16.631 4.12016 16.0721 4.00699 15.5223 4.00699C13.6935 4.00699 12.414 5.22477 11.9148 5.79566C11.418 5.22282 10.1441 4 8.31594 4C7.76779 4 7.21065 4.11289 6.65968 4.3356C5.38356 4.85172 4.39571 5.85965 3.87846 7.17384C3.32665 8.57634 3.38032 10.1658 4.02596 11.5353C4.94274 13.4793 7.0269 16.5059 11.7496 19.8826L11.9134 20L12.0772 19.8826C16.8231 16.4892 18.905 13.474 19.8156 11.5423C20.4618 10.1733 20.5155 8.58388 19.9637 7.18167Z" stroke="#999999" stroke-width="1.5" stroke-linejoin="round"/>
</g>
</svg>
