<svg width="34" height="28" viewBox="0 0 34 28" fill="none" xmlns="http://www.w3.org/2000/svg">
<g id="Type=favorites added item">
<path id="Vector" d="M3 13.2636C3 16.9761 6.23565 20.6274 11.3475 23.7647C11.5378 23.878 11.8097 24 12 24C12.1903 24 12.4623 23.878 12.6617 23.7647C17.7643 20.6274 21 16.9761 21 13.2636C21 10.1786 18.7976 8 15.861 8C14.1843 8 12.8248 8.76688 12 9.94335C11.1934 8.7756 9.81572 8 8.13898 8C5.20242 8 3 10.1786 3 13.2636ZM4.45922 13.2636C4.45922 10.9455 6.01813 9.40305 8.12085 9.40305C9.82479 9.40305 10.8036 10.4227 11.3837 11.2941C11.6284 11.6427 11.7825 11.7386 12 11.7386C12.2176 11.7386 12.3535 11.634 12.6163 11.2941C13.2417 10.4401 14.1843 9.40305 15.8791 9.40305C17.9819 9.40305 19.5408 10.9455 19.5408 13.2636C19.5408 16.5054 15.9788 20 12.1903 22.4227C12.0997 22.4836 12.0363 22.5272 12 22.5272C11.9637 22.5272 11.9003 22.4836 11.8187 22.4227C8.02116 20 4.45922 16.5054 4.45922 13.2636Z" fill="#999999"/>
<g id="Badge">
<rect x="14.5" y="0.5" width="19" height="19" rx="9.5" fill="#0E0E0E"/>
<rect x="14.5" y="0.5" width="19" height="19" rx="9.5" stroke="white"/>
<path id="4" d="M20.3493 12.2102V11.3409L24.1845 5.27273H24.8152V6.61932H24.389L21.4913 11.2045V11.2727H26.6561V12.2102H20.3493ZM24.4572 14V11.946V11.5412V5.27273H25.4629V14H24.4572Z" fill="white"/>
</g>
</g>
</svg>
