<svg width="24" height="24" viewBox="0 0 24 24" fill="none" xmlns="http://www.w3.org/2000/svg">
<g id="Type=feedback IOS">
<path id="Vector" d="M5.71354 20H14.4624C15.6186 20 16.1689 19.6446 16.1689 18.8626C16.1689 17.0001 13.8703 14.3058 10.0879 14.3058C6.30562 14.3058 4 17.0001 4 18.8626C4 19.6446 4.55028 20 5.71354 20ZM5.37919 18.9266C5.19808 18.9266 5.12146 18.8768 5.12146 18.7275C5.12146 17.5617 6.89072 15.3792 10.0879 15.3792C13.2851 15.3792 15.0474 17.5617 15.0474 18.7275C15.0474 18.8768 14.9778 18.9266 14.7967 18.9266H5.37919ZM10.0879 13.3248C11.7457 13.3248 13.0971 11.8177 13.0971 9.98363C13.0971 8.17087 11.7597 6.73488 10.0879 6.73488C8.43708 6.73488 7.0788 8.1922 7.0788 9.99785C7.08576 11.8248 8.43708 13.3248 10.0879 13.3248ZM10.0879 12.2514C9.07096 12.2514 8.20026 11.2561 8.20026 9.99785C8.20026 8.76091 9.05702 7.80832 10.0879 7.80832C11.1328 7.80832 11.9756 8.74669 11.9756 9.98363C11.9756 11.2419 11.1189 12.2514 10.0879 12.2514ZM15.2425 13.012C15.4724 13.1755 15.8067 13.1258 15.9878 12.8485C16.5241 12.1305 16.8446 11.0713 16.8446 9.98363C16.8446 8.89597 16.5241 7.84387 15.9878 7.11877C15.8067 6.84152 15.4724 6.79175 15.2425 6.95526C14.9569 7.15431 14.9151 7.50975 15.1311 7.80122C15.542 8.36992 15.7649 9.15901 15.7649 9.98363C15.7649 10.8083 15.535 11.5902 15.1311 12.166C14.9221 12.4646 14.9569 12.8058 15.2425 13.012ZM17.8197 14.8674C18.0775 15.0451 18.3979 14.9812 18.586 14.711C19.4776 13.4599 20 11.7395 20 9.98363C20 8.22774 19.4845 6.49319 18.586 5.25625C18.3979 4.98611 18.0775 4.92213 17.8197 5.09985C17.569 5.27757 17.5202 5.61169 17.7292 5.90315C18.4884 6.99792 18.9203 8.46945 18.9203 9.98363C18.9203 11.4978 18.4745 12.9622 17.7292 14.0641C17.5272 14.3556 17.569 14.6897 17.8197 14.8674Z" fill="#7D7D7D"/>
</g>
</svg>
