<svg width="24" height="24" viewBox="0 0 24 24" fill="none" xmlns="http://www.w3.org/2000/svg">
<g id="Type=feedback">
<path id="Vector" d="M12 13.8C12.17 13.8 12.3126 13.7424 12.4278 13.6272C12.543 13.512 12.6004 13.3696 12.6 13.2C12.6 13.03 12.5424 12.8876 12.4272 12.7728C12.312 12.658 12.1696 12.6004 12 12.6C11.83 12.6 11.6876 12.6576 11.5728 12.7728C11.458 12.888 11.4004 13.0304 11.4 13.2C11.4 13.37 11.4576 13.5126 11.5728 13.6278C11.688 13.743 11.8304 13.8004 12 13.8ZM11.4 11.4H12.6V7.8H11.4V11.4ZM6 18V7.2C6 6.87 6.1176 6.5876 6.3528 6.3528C6.588 6.118 6.8704 6.0004 7.2 6H16.8C17.13 6 17.4126 6.1176 17.6478 6.3528C17.883 6.588 18.0004 6.8704 18 7.2V14.4C18 14.73 17.8826 15.0126 17.6478 15.2478C17.413 15.483 17.1304 15.6004 16.8 15.6H8.4L6 18ZM7.89 14.4H16.8V7.2H7.2V15.075L7.89 14.4Z" fill="#2A65C5"/>
</g>
</svg>
