<svg width="24" height="24" viewBox="0 0 24 24" fill="none" xmlns="http://www.w3.org/2000/svg">
<g id="Type=filled fav">
<path id="Vector" d="M20.4637 7.18167C19.9465 5.8672 18.9589 4.85927 17.6828 4.34315C17.131 4.12016 16.5721 4.00699 16.0223 4.00699C14.1935 4.00699 12.914 5.22477 12.4148 5.79566C11.918 5.22282 10.6441 4 8.81594 4C8.26779 4 7.71065 4.11289 7.15968 4.3356C5.88356 4.85172 4.89571 5.85965 4.37846 7.17384C3.82665 8.57634 3.88032 10.1658 4.52596 11.5353C5.44274 13.4793 7.5269 16.5059 12.2496 19.8826L12.4134 20L12.5772 19.8826C17.3231 16.4892 19.405 13.474 20.3156 11.5423C20.9618 10.1733 21.0155 8.58388 20.4637 7.18167Z" fill="#0E0E0E"/>
</g>
</svg>
