<svg width="24" height="24" viewBox="0 0 24 24" fill="none" xmlns="http://www.w3.org/2000/svg">
<g id="Type=filter IOS">
<g id="Frame" clip-path="url(#clip0_13751_167623)">
<g id="Group">
<path id="Vector" d="M15.2025 20C16.3816 20 17.3464 19.0487 17.3464 17.8861C17.3464 16.7234 16.3816 15.7722 15.2025 15.7722C14.0233 15.7722 13.0496 16.7234 13.0496 17.8861C13.0496 19.0487 14.0233 20 15.2025 20ZM15.2025 18.9166C14.6129 18.9166 14.1573 18.4586 14.1573 17.8861C14.1573 17.2959 14.6129 16.8555 15.2025 16.8555C15.792 16.8555 16.2476 17.2959 16.2476 17.8861C16.2476 18.4586 15.792 18.9166 15.2025 18.9166ZM13.7821 17.1727H3.71464C3.31265 17.1727 3 17.4897 3 17.8861C3 18.2824 3.31265 18.5907 3.71464 18.5907H13.7821V17.1727ZM20.3121 17.1727H16.7568V18.5907H20.3121C20.6784 18.5907 21 18.2824 21 17.8861C21 17.4897 20.6784 17.1727 20.3121 17.1727ZM8.89578 14.6271C10.0749 14.6271 11.0397 13.6671 11.0397 12.5044C11.0397 11.3417 10.0749 10.3905 8.89578 10.3905C7.71662 10.3905 6.75186 11.3417 6.75186 12.5044C6.75186 13.6671 7.71662 14.6271 8.89578 14.6271ZM8.89578 13.5349C8.31514 13.5349 7.85062 13.0769 7.85062 12.5044C7.85062 11.9231 8.31514 11.4739 8.89578 11.4739C9.48535 11.4739 9.94094 11.9231 9.94094 12.5044C9.94094 13.0769 9.48535 13.5349 8.89578 13.5349ZM3.67891 11.7909C3.31265 11.7909 3 12.108 3 12.5044C3 12.9008 3.31265 13.209 3.67891 13.209H7.3593V11.7909H3.67891ZM20.2764 11.7909H10.3161V13.209H20.2764C20.6784 13.209 21 12.9008 21 12.5044C21 12.108 20.6784 11.7909 20.2764 11.7909ZM15.2025 9.23664C16.3816 9.23664 17.3464 8.28537 17.3464 7.12272C17.3464 5.96007 16.3816 5 15.2025 5C14.0233 5 13.0496 5.96007 13.0496 7.12272C13.0496 8.28537 14.0233 9.23664 15.2025 9.23664ZM15.2025 8.15325C14.6129 8.15325 14.1573 7.69524 14.1573 7.11392C14.1573 6.53259 14.6129 6.08338 15.2025 6.08338C15.792 6.08338 16.2476 6.53259 16.2476 7.11392C16.2476 7.69524 15.792 8.15325 15.2025 8.15325ZM13.8268 6.41809H3.71464C3.31265 6.41809 3 6.72636 3 7.12272C3 7.51908 3.31265 7.83617 3.71464 7.83617H13.8268V6.41809ZM20.3121 6.41809H16.6317V7.83617H20.3121C20.6784 7.83617 21 7.51908 21 7.12272C21 6.72636 20.6784 6.41809 20.3121 6.41809Z" fill="#0E0E0E"/>
</g>
</g>
</g>
<defs>
<clipPath id="clip0_13751_167623">
<rect width="18" height="15" fill="white" transform="translate(3 5)"/>
</clipPath>
</defs>
</svg>
