<svg width="50" height="50" viewBox="0 0 50 50" fill="none" xmlns="http://www.w3.org/2000/svg">
<g id="Type=Fixing">
<rect width="50" height="50" rx="10" fill="#547DBA" fill-opacity="0.2"/>
<path id="Vector" d="M20.7005 26.9709L21.6701 26.0124L14.9734 19.2219C14.2361 18.4776 14.2462 17.7027 14.9734 16.9584L16.3976 15.5105C17.1148 14.7764 17.9026 14.7866 18.64 15.5207L25.8518 22.7905L26.8618 21.883L19.7005 14.6031C18.2763 13.1756 16.7612 13.1756 15.3775 14.5725L14.0341 15.9286C12.6503 17.3254 12.6503 18.8548 14.0644 20.2823L20.7005 26.9709ZM20.0439 22.4336C20.1954 22.5866 20.4379 22.5866 20.5793 22.4336C20.7207 22.2909 20.7308 22.0564 20.5793 21.9034L16.8016 18.0901C16.6703 17.9678 16.4178 17.9474 16.2663 18.0901C16.1249 18.2533 16.1148 18.498 16.2663 18.6407L20.0439 22.4336ZM21.2863 21.1897C21.4277 21.3427 21.6903 21.3223 21.8216 21.1897C21.9731 21.0164 21.9731 20.7819 21.8317 20.6391L18.0541 16.836C17.9026 16.6831 17.6602 16.6933 17.5289 16.836C17.3774 16.9889 17.3875 17.2235 17.5289 17.3662L21.2863 21.1897ZM34.2857 36.8305L36.0939 35.0053C36.3059 34.781 36.2755 34.4548 36.0736 34.1387L33.9626 30.9575C33.7503 30.6415 33.4272 30.4171 33.0636 30.3662L32.1545 30.2234L27.2557 25.2783L26.3164 26.3693L31.5687 31.6509L32.7 31.8446L34.6291 34.4344L33.71 35.3621L31.1546 33.4147L30.9526 32.2728L25.7508 27.0117L24.8013 28.0924L29.5385 32.8642L29.6799 33.7818C29.7304 34.1489 29.9627 34.4751 30.2657 34.6791L33.4272 36.8405C33.7503 37.0548 34.0635 37.0548 34.2857 36.8305ZM14.5795 35.6273C16.337 37.381 18.6905 37.4014 20.4177 35.6478C22.6398 33.3842 22.2358 30.8148 29.3668 23.647L28.488 22.7497C20.7106 30.6312 21.8923 32.0995 19.3874 34.6282C18.2662 35.7702 16.7511 35.7802 15.5795 34.6179C14.4179 33.425 14.4381 31.9058 15.5492 30.774C18.0743 28.2352 19.5288 29.4383 27.3264 21.5874L26.4477 20.7003C19.347 27.8987 16.8016 27.4909 14.5593 29.7238C12.8119 31.4673 12.8321 33.8532 14.5795 35.6273ZM17.4582 34.0061C18.145 34.0061 18.7106 33.4352 18.7106 32.7418C18.7106 32.0485 18.145 31.4877 17.4582 31.4877C16.7713 31.4877 16.2158 32.0485 16.2158 32.7418C16.2158 33.4352 16.7713 34.0061 17.4582 34.0061ZM27.1446 22.9332C29.4577 25.2681 33.1444 25.3497 35.3868 23.0964C37.2049 21.2611 37.5179 18.3654 36.1644 16.0203L35.1847 17.0195C36.0332 18.7732 35.7503 20.8125 34.4373 22.1481C32.7303 23.8713 29.9021 23.7897 28.0941 21.985C26.2962 20.1701 26.2255 17.2948 27.9426 15.5819C29.2557 14.2564 31.3061 13.9709 32.9929 14.8376L33.9826 13.8384C31.6798 12.4823 28.8213 12.7882 27.0032 14.6337C24.771 16.8768 24.8417 20.5984 27.1446 22.9332ZM30.2051 18.3552L31.7 19.854C32.4475 20.6085 33.407 20.6289 34.114 19.905L36.2351 17.7536L35.3463 16.8666L33.4171 18.7936C33.1444 19.0689 32.801 19.0893 32.5081 18.7936L31.2758 17.5395C30.9829 17.2337 30.9526 16.8768 31.2253 16.6015L33.1747 14.6541L32.2555 13.7568L30.1546 15.8878C29.4072 16.6321 29.4274 17.5905 30.2051 18.3552Z" fill="#0E0E0E"/>
</g>
</svg>
