<svg width="28" height="28" viewBox="0 0 28 28" fill="none" xmlns="http://www.w3.org/2000/svg">
<g id="Type=flame">
<path id="Vector" d="M17.4843 12.9446C17.3303 12.7363 17.1429 12.5557 16.9688 12.3751C16.5202 11.9585 16.0114 11.6598 15.5829 11.2223C14.5853 10.2084 14.3644 8.53476 15.0004 7.25C14.3644 7.40973 13.8087 7.77085 13.3333 8.16669C11.5992 9.61118 10.9163 12.1599 11.7332 14.3474C11.7599 14.4169 11.7867 14.4863 11.7867 14.5766C11.7867 14.7294 11.6863 14.8683 11.5524 14.9238C11.3984 14.9933 11.2377 14.9516 11.1105 14.8405C11.0723 14.8077 11.0405 14.7676 11.0168 14.7224C10.2602 13.7294 10.1397 12.3057 10.6485 11.1668C9.53043 12.1112 8.92117 13.7085 9.00821 15.2155C9.04838 15.5627 9.08855 15.91 9.20237 16.2572C9.2961 16.6739 9.47687 17.0906 9.67773 17.4586C10.4008 18.66 11.6528 19.5212 12.9985 19.6948C14.4313 19.8823 15.9645 19.6115 17.0625 18.5837C18.2878 17.4308 18.7162 15.5836 18.0869 14.0002L17.9999 13.8196C17.8593 13.5002 17.4843 12.9446 17.4843 12.9446ZM15.3686 17.3197C15.1812 17.4864 14.8732 17.667 14.6322 17.7364C13.8823 18.0142 13.1325 17.6253 12.6906 17.167C13.4873 16.9725 13.9627 16.3614 14.1033 15.7433C14.2171 15.1877 14.0028 14.7294 13.9158 14.1946C13.8354 13.6807 13.8488 13.2432 14.0296 12.764C14.1568 13.0279 14.2907 13.2918 14.4514 13.5002C14.9669 14.1946 15.7771 14.5002 15.9511 15.4447C15.9779 15.5419 15.9913 15.6391 15.9913 15.7433C16.0114 16.3128 15.7704 16.9378 15.3686 17.3197Z" fill="url(#paint0_linear_13751_167304)"/>
</g>
<defs>
<linearGradient id="paint0_linear_13751_167304" x1="17.5473" y1="11.325" x2="4.1324" y2="19.1965" gradientUnits="userSpaceOnUse">
<stop stop-color="#FFDF92"/>
<stop offset="1" stop-color="#FF5E59"/>
</linearGradient>
</defs>
</svg>
