<svg width="50" height="50" viewBox="0 0 50 50" fill="none" xmlns="http://www.w3.org/2000/svg">
<g id="Type=Free diagnostik">
<rect width="50" height="50" rx="10" fill="#547DBA" fill-opacity="0.2"/>
<path id="Vector" d="M27.8111 36.1278L27.811 36.1278L27.569 36.3718C27.37 36.2689 27.1776 36.1553 26.9927 36.0317L27.0751 35.7685C27.0752 35.7685 27.0752 35.7684 27.0752 35.7684C27.2148 35.3236 27.2576 34.8557 27.2008 34.3938C27.144 33.932 26.9889 33.4872 26.7461 33.0867C26.5034 32.6863 26.1784 32.3391 25.7924 32.0654C25.4065 31.7917 24.9672 31.5969 24.5019 31.4918C24.5019 31.4918 24.5019 31.4918 24.5018 31.4918L24.3245 31.4517C24.3101 31.2319 24.3078 31.0115 24.3176 30.7914L24.6633 30.7071C24.6633 30.7071 24.6633 30.7071 24.6633 30.7071C25.1168 30.5965 25.5438 30.4005 25.919 30.1294C26.2942 29.8582 26.6104 29.5171 26.8478 29.1252C27.0852 28.7332 27.2387 28.2987 27.2982 27.8472C27.3577 27.3958 27.3218 26.9377 27.193 26.5002C27.193 26.5001 27.193 26.5 27.193 26.5L27.0585 26.0426C27.2382 25.9263 27.4245 25.8192 27.6165 25.7218L27.8786 25.9871L27.8788 25.9873C28.2102 26.3223 28.6085 26.5879 29.0486 26.769C29.4888 26.9501 29.9622 27.0432 30.4401 27.0434C30.9181 27.0435 31.3916 26.9507 31.8318 26.7699C32.2721 26.5891 32.6706 26.3238 33.0022 25.989L33.0026 25.9886L33.2424 25.746C33.4411 25.8493 33.6335 25.9631 33.8186 26.0867L33.7364 26.3483C33.7364 26.3483 33.7364 26.3483 33.7364 26.3483C33.5966 26.7934 33.5535 27.2616 33.6103 27.7238C33.6671 28.186 33.8223 28.631 34.0653 29.0317C34.3082 29.4323 34.6335 29.7797 35.0198 30.0534C35.4061 30.3272 35.8458 30.5219 36.3115 30.6267L36.3121 30.6269L36.4872 30.6661C36.5015 30.8859 36.5038 31.1063 36.494 31.3263L36.1491 31.4097L36.1483 31.4099C35.6946 31.5204 35.2674 31.7165 34.8921 31.9878C34.5167 32.2591 34.2004 32.6003 33.963 32.9924C33.7256 33.3846 33.5721 33.8193 33.5127 34.271C33.4534 34.7226 33.4895 35.1809 33.6185 35.6185C33.6186 35.6186 33.6186 35.6187 33.6186 35.6188L33.753 36.0752C33.5736 36.1918 33.3874 36.2991 33.1951 36.3967L32.9329 36.1314L32.9327 36.1311C32.6015 35.7963 32.2033 35.5308 31.7634 35.3498C31.3235 35.1687 30.8503 35.0754 30.3726 35.0751C29.8949 35.0748 29.4216 35.1674 28.9814 35.3479C28.5413 35.5284 28.1428 35.7934 27.8111 36.1278ZM17.2332 14.2083C17.7065 13.7573 18.3535 13.5 19.0328 13.5H28.1312C28.8105 13.5 29.4574 13.7573 29.9308 14.2083C30.4033 14.6585 30.6639 15.2638 30.6639 15.8895V22.616C30.4919 22.6113 30.3196 22.6113 30.1476 22.616V15.8895C30.1476 15.3657 29.9289 14.8685 29.5483 14.5059C29.1685 14.144 28.6583 13.9447 28.1312 13.9447H19.0328C18.5056 13.9447 17.9954 14.144 17.6156 14.5059C17.235 14.8685 17.0164 15.3657 17.0164 15.8895V33.2263C17.0164 33.7501 17.235 34.2473 17.6156 34.6099C17.9954 34.9718 18.5056 35.1711 19.0328 35.1711H22.6824C22.7706 35.3221 22.8636 35.4704 22.9612 35.6158H19.0328C18.3535 35.6158 17.7065 35.3585 17.2332 34.9075C16.7607 34.4573 16.5 33.852 16.5 33.2263V15.8895C16.5 15.2638 16.7607 14.6585 17.2332 14.2083ZM28.9886 32.4428C29.3684 32.8047 29.8786 33.004 30.4058 33.004C30.9329 33.004 31.4431 32.8047 31.8229 32.4428C32.2035 32.0802 32.4221 31.583 32.4221 31.0592C32.4221 30.5354 32.2035 30.0383 31.8229 29.6756C31.4431 29.3138 30.9329 29.1145 30.4058 29.1145C29.8786 29.1145 29.3684 29.3138 28.9886 29.6756C28.608 30.0383 28.3894 30.5354 28.3894 31.0592C28.3894 31.583 28.608 32.0802 28.9886 32.4428Z" stroke="#5AA0F5"/>
</g>
</svg>
