<svg width="24" height="24" viewBox="0 0 24 24" fill="none" xmlns="http://www.w3.org/2000/svg">
<g id="Type=game consoles">
<g id="Frame 554112">
<path id="Vector" d="M3.99996 15.6563C3.99996 17.0819 4.86809 18 6.17585 18C6.53144 17.9953 6.88069 17.9081 7.19439 17.7455C7.50809 17.583 7.7771 17.3499 7.97888 17.0657L9.01397 15.7373C9.06678 15.6561 9.13872 15.5883 9.22387 15.5395C9.30903 15.4907 9.40495 15.4622 9.50368 15.4565H14.9963C15.095 15.4622 15.1909 15.4907 15.2761 15.5395C15.3612 15.5883 15.4332 15.6561 15.486 15.7373L16.521 17.0657C16.7228 17.3499 16.9918 17.583 17.3055 17.7455C17.6192 17.9081 17.9685 17.9953 18.3241 18C19.6318 18 20.5 17.0819 20.5 15.6563C20.4786 14.949 20.3588 14.2479 20.1438 13.5718C19.7275 12.1236 19.2125 10.7038 18.6023 9.32181C18.1126 8.24177 17.8622 7.70174 16.649 7.43713C13.7471 6.85424 10.7529 6.85424 7.8509 7.43713C6.64331 7.72875 6.38732 8.22557 5.8976 9.32181C5.28741 10.7038 4.77246 12.1236 4.35613 13.5718C4.14413 14.2485 4.02439 14.9493 3.99996 15.6563Z" stroke="#2A65C5" stroke-miterlimit="10"/>
<g id="Vector_2">
<path d="M15.5 11C15.7761 11 16 10.7761 16 10.5C16 10.2239 15.7761 10 15.5 10C15.2239 10 15 10.2239 15 10.5C15 10.7761 15.2239 11 15.5 11Z" fill="#2A65C5"/>
<path d="M15.5 13C15.7761 13 16 12.7761 16 12.5C16 12.2239 15.7761 12 15.5 12C15.2239 12 15 12.2239 15 12.5C15 12.7761 15.2239 13 15.5 13Z" fill="#2A65C5"/>
<path d="M14.5 12C14.7761 12 15 11.7761 15 11.5C15 11.2239 14.7761 11 14.5 11C14.2239 11 14 11.2239 14 11.5C14 11.7761 14.2239 12 14.5 12Z" fill="#2A65C5"/>
<path d="M16.5 12C16.7761 12 17 11.7761 17 11.5C17 11.2239 16.7761 11 16.5 11C16.2239 11 16 11.2239 16 11.5C16 11.7761 16.2239 12 16.5 12Z" fill="#2A65C5"/>
</g>
<g id="Vector_3">
<path d="M8.5 12.25C8.77614 12.25 9 12.5 9 10.5C9 10.2239 8.77614 10 8.5 10C8.22386 10 8 10.2239 8 10.5C8 12.5 8.22386 12.25 8.5 12.25Z" fill="#2A65C5"/>
<path d="M8.5 13C8.77614 13 9 12.7761 9 12.5C9 11.156 8.77614 10.75 8.5 10.75C8.22386 10.75 8 11.0055 8 12.5C8 12.7761 8.22386 13 8.5 13Z" fill="#2A65C5"/>
<path d="M7.5 12C9.5 12 9.5 11.7761 9.5 11.5C9.5 11.2239 9.5 11 7.5 11C7.22386 11 7 11.2239 7 11.5C7 11.7761 7.22386 12 7.5 12Z" fill="#2A65C5"/>
<path d="M9.5 12C9.77614 12 10 11.7761 10 11.5C10 11.2239 9.77614 11 9.5 11C7.375 11.0158 7.5 11.2239 7.5 11.5C7.5 11.7761 7.75 12 9.5 12Z" fill="#2A65C5"/>
</g>
</g>
</g>
</svg>
