<svg width="24" height="24" viewBox="0 0 24 24" fill="none" xmlns="http://www.w3.org/2000/svg">
<g id="Type=guarantee">
<path id="Vector" d="M8.66667 1C7.95942 1 7.28115 1.27269 6.78105 1.75808C6.28095 2.24346 6 2.90179 6 3.58824V10.3267C6.43584 10.207 6.8822 10.1268 7.33333 10.0873V3.58824C7.33333 3.24501 7.47381 2.91585 7.72386 2.67316C7.97391 2.43046 8.31305 2.29412 8.66667 2.29412H14V6.82353C14 7.33836 14.2107 7.83211 14.5858 8.19615C14.9609 8.56019 15.4696 8.76471 16 8.76471H20.6667V19.1176C20.6667 19.4609 20.5262 19.79 20.2761 20.0327C20.0261 20.2754 19.687 20.4118 19.3333 20.4118H14.5333C14.2906 20.8727 13.9969 21.3067 13.6573 21.7059H19.3333C20.0406 21.7059 20.7189 21.4332 21.219 20.9478C21.719 20.4624 22 19.8041 22 19.1176V8.00635C21.9995 7.49169 21.7885 6.99828 21.4133 6.63459L16.1947 1.56812C15.8197 1.20445 15.3114 1.00011 14.7813 1H8.66667ZM20.3907 7.47059H16C15.8232 7.47059 15.6536 7.40242 15.5286 7.28107C15.4036 7.15972 15.3333 6.99514 15.3333 6.82353V2.562L20.3907 7.47059ZM14 17.1765C14 18.721 13.3679 20.2022 12.2426 21.2943C11.1174 22.3865 9.5913 23 8 23C6.4087 23 4.88258 22.3865 3.75736 21.2943C2.63214 20.2022 2 18.721 2 17.1765C2 15.632 2.63214 14.1507 3.75736 13.0586C4.88258 11.9665 6.4087 11.3529 8 11.3529C9.5913 11.3529 11.1174 11.9665 12.2426 13.0586C13.3679 14.1507 14 15.632 14 17.1765ZM8 13.9412C7.82319 13.9412 7.65362 14.0093 7.5286 14.1307C7.40357 14.252 7.33333 14.4166 7.33333 14.5882V17.1765C7.33333 17.3481 7.40357 17.5127 7.5286 17.634C7.65362 17.7554 7.82319 17.8235 8 17.8235C8.17681 17.8235 8.34638 17.7554 8.4714 17.634C8.59643 17.5127 8.66667 17.3481 8.66667 17.1765V14.5882C8.66667 14.4166 8.59643 14.252 8.4714 14.1307C8.34638 14.0093 8.17681 13.9412 8 13.9412ZM8 20.5735C8.22101 20.5735 8.43298 20.4883 8.58926 20.3366C8.74554 20.1849 8.83333 19.9792 8.83333 19.7647C8.83333 19.5502 8.74554 19.3445 8.58926 19.1928C8.43298 19.0411 8.22101 18.9559 8 18.9559C7.77899 18.9559 7.56702 19.0411 7.41074 19.1928C7.25446 19.3445 7.16667 19.5502 7.16667 19.7647C7.16667 19.9792 7.25446 20.1849 7.41074 20.3366C7.56702 20.4883 7.77899 20.5735 8 20.5735Z" fill="#0E0E0E"/>
</g>
</svg>
