<svg width="24" height="24" viewBox="0 0 24 24" fill="none" xmlns="http://www.w3.org/2000/svg">
<g id="Type=hammer">
<path id="Vector" d="M18.6603 8.286L19.0283 7.918C19.3703 7.575 19.5423 7.404 19.6453 7.226C19.7824 6.98855 19.8545 6.71919 19.8545 6.445C19.8545 6.17081 19.7824 5.90145 19.6453 5.664C19.5423 5.486 19.3703 5.314 19.0283 4.972C18.6863 4.63 18.5143 4.458 18.3363 4.356C18.0988 4.21891 17.8295 4.14673 17.5553 4.14673C17.2811 4.14673 17.0117 4.21891 16.7743 4.356C16.5963 4.458 16.4243 4.63 16.0823 4.972L15.7143 5.34M11.2953 15.65L5.77227 21.174C5.42927 21.517 5.25827 21.688 5.08027 21.791C4.84281 21.9281 4.57346 22.0003 4.29927 22.0003C4.02508 22.0003 3.75572 21.9281 3.51827 21.791C3.33927 21.688 3.16827 21.517 2.82627 21.174C2.48327 20.832 2.31227 20.66 2.20927 20.482C2.07217 20.2445 2 19.9752 2 19.701C2 19.4268 2.07217 19.1575 2.20927 18.92C2.31227 18.742 2.48327 18.57 2.82627 18.228L8.34927 12.705M7.61327 11.968L12.0323 16.388C13.7673 18.123 14.6353 18.991 15.7143 18.991C16.7923 18.991 17.6603 18.123 19.3963 16.387C21.1323 14.651 22.0003 13.783 22.0003 12.705C22.0003 11.626 21.1323 10.758 19.3963 9.023L14.9773 4.603C13.2423 2.869 12.3743 2 11.2953 2C10.2173 2 9.34927 2.868 7.61327 4.604C5.87727 6.34 5.00927 7.208 5.00927 8.286C5.00927 9.365 5.87727 10.233 7.61327 11.968Z" stroke="#0E0E0E" stroke-width="1.5"/>
</g>
</svg>
