<svg width="24" height="24" viewBox="0 0 24 24" fill="none" xmlns="http://www.w3.org/2000/svg">
<g id="Type=headphones">
<g id="Frame 554116">
<g id="Frame 554114">
<rect id="Rectangle 6041" x="9.66406" y="9.28125" width="1" height="2.09977" rx="0.5" transform="rotate(52.3706 9.66406 9.28125)" fill="#2A65C5"/>
<path id="Rectangle 6042" d="M9.3128 14.3248C9.14004 13.8002 9.42525 13.2349 9.94982 13.0622L10.3297 12.9371L11.544 16.6241C11.6649 16.9913 11.4653 17.387 11.0981 17.5079C10.7309 17.6288 10.3352 17.4292 10.2142 17.062L9.3128 14.3248Z" fill="#2A65C5"/>
<path id="Vector" d="M6.75567 8.4756C7.31317 8.17327 7.93125 8.012 8.5598 8.00488C8.90589 7.98269 9.25261 8.03634 9.57755 8.16238C9.90249 8.28841 10.1984 8.48402 10.4462 8.73657C10.694 8.98912 10.8882 9.29299 11.0162 9.62855C11.1441 9.96411 11.2031 10.3239 11.1892 10.6846C11.1747 11.3391 10.9864 11.9765 10.6452 12.5263C10.304 13.0761 9.87811 13.4525 9.25614 13.7994C8 14.5 7.16073 14.4322 6.5 14.5C6.64061 14.149 7 14 7 13.5C7 13 6.78619 12.3884 6.31779 11.8522C5.84938 11.3159 5.18807 11.1103 4.5 11C4.59243 10.7917 4.73696 10.3826 5 10C5.5 9.2728 6.19817 8.77793 6.75567 8.4756Z" stroke="#2A65C5" stroke-width="0.525597" stroke-miterlimit="10"/>
<g id="Group 553790">
<path id="Vector_2" d="M5.16801 14.9753C5.39496 14.9945 5.62324 14.9632 5.83766 14.8834C6.05208 14.8036 6.24773 14.6772 6.41161 14.5126C6.57549 14.348 6.70384 14.149 6.78814 13.9287C6.87243 13.7085 6.91074 13.4721 6.9005 13.2352C6.85427 12.6536 6.59924 12.1116 6.18626 11.717C5.77328 11.3225 5.23268 11.1045 4.67221 11.1065C4.45065 11.0984 4.22986 11.1379 4.02358 11.2225C3.81729 11.307 3.62994 11.4349 3.47318 11.5981C3.31641 11.7614 3.19358 11.9565 3.11235 12.1712C3.03112 12.386 2.99321 12.6159 3.001 12.8466C3.01992 13.4272 3.25818 13.9765 3.66397 14.3751C4.06977 14.7737 4.61028 14.9894 5.16801 14.9753Z" stroke="#2A65C5" stroke-width="0.6" stroke-miterlimit="10"/>
<ellipse id="Ellipse 113" cx="4.57592" cy="13.4825" rx="1.03868" ry="0.512573" transform="rotate(43.1118 4.57592 13.4825)" fill="#2A65C5"/>
</g>
</g>
<g id="Frame 554116_2">
<rect id="Rectangle 6041_2" width="1" height="2.09977" rx="0.5" transform="matrix(-0.610552 0.791976 0.791976 0.610552 15.0391 9.28125)" fill="#2A65C5"/>
<path id="Rectangle 6042_2" d="M15.3903 14.3248C15.5631 13.8002 15.2779 13.2349 14.7533 13.0622L14.3734 12.9371L13.1591 16.6241C13.0382 16.9913 13.2379 17.387 13.6051 17.5079C13.9723 17.6288 14.368 17.4292 14.4889 17.062L15.3903 14.3248Z" fill="#2A65C5"/>
<path id="Vector_3" d="M17.9475 8.4756C17.39 8.17327 16.7719 8.012 16.1433 8.00488C15.7972 7.98269 15.4505 8.03634 15.1256 8.16238C14.8006 8.28841 14.5047 8.48402 14.2569 8.73657C14.0091 8.98912 13.8149 9.29299 13.687 9.62855C13.559 9.96411 13.5 10.3239 13.5139 10.6846C13.5285 11.3391 13.7168 11.9765 14.058 12.5263C14.3992 13.0761 14.825 13.4525 15.447 13.7994C16.7031 14.5 17.5424 14.4322 18.2031 14.5C18.0625 14.149 17.7031 14 17.7031 13.5C17.7031 13 17.9169 12.3884 18.3853 11.8522C18.8537 11.3159 19.5151 11.1103 20.2031 11C20.1107 10.7917 19.9662 10.3826 19.7031 10C19.2031 9.2728 18.505 8.77793 17.9475 8.4756Z" stroke="#2A65C5" stroke-width="0.525597" stroke-miterlimit="10"/>
<g id="Group 553790_2">
<path id="Vector_4" d="M19.5351 14.9753C19.3082 14.9945 19.0799 14.9632 18.8655 14.8834C18.651 14.8036 18.4554 14.6772 18.2915 14.5126C18.1276 14.348 17.9993 14.149 17.915 13.9287C17.8307 13.7085 17.7924 13.4721 17.8026 13.2352C17.8489 12.6536 18.1039 12.1116 18.5169 11.717C18.9298 11.3225 19.4704 11.1045 20.0309 11.1065C20.2525 11.0984 20.4733 11.1379 20.6795 11.2225C20.8858 11.307 21.0732 11.4349 21.2299 11.5981C21.3867 11.7614 21.5095 11.9565 21.5908 12.1712C21.672 12.386 21.7099 12.6159 21.7021 12.8466C21.6832 13.4272 21.4449 13.9765 21.0392 14.3751C20.6334 14.7737 20.0928 14.9894 19.5351 14.9753Z" stroke="#2A65C5" stroke-width="0.6" stroke-miterlimit="10"/>
<ellipse id="Ellipse 113_2" cx="1.03868" cy="0.512573" rx="1.03868" ry="0.512573" transform="matrix(-0.730022 0.683424 0.683424 0.730022 20.5352 12.3984)" fill="#2A65C5"/>
</g>
</g>
</g>
</g>
</svg>
