<svg width="24" height="24" viewBox="0 0 24 24" fill="none" xmlns="http://www.w3.org/2000/svg">
<g id="Type=hover compare">
<g id="Vector">
<path d="M5 19.335C5 19.7032 5.32495 20.0016 5.72581 20.0016C6.12666 20.0016 6.45161 19.7032 6.45161 19.335V4.66267C6.45161 4.29448 6.12666 3.996 5.72581 3.996C5.32495 3.996 5 4.29448 5 4.66267V19.335Z" fill="#0E0E0E"/>
<path d="M9.35484 19.335C9.35484 19.7032 9.67979 20.0016 10.0806 20.0016C10.4815 20.0016 10.8065 19.7032 10.8065 19.335V4.66831C10.8065 4.30012 10.4815 4.00164 10.0806 4.00164C9.67979 4.00164 9.35484 4.30012 9.35484 4.66831V19.335Z" fill="#0E0E0E"/>
<path d="M13.7097 19.335C13.7097 19.7032 14.0346 20.0016 14.4355 20.0016C14.8363 20.0016 15.1613 19.7032 15.1613 19.335V4.66836C15.1613 4.30017 14.8363 4.00169 14.4355 4.00169C14.0346 4.00169 13.7097 4.30017 13.7097 4.66836V19.335Z" fill="#0E0E0E"/>
<path d="M18.5484 19.335C18.5484 19.7032 18.8733 20.0016 19.2742 20.0016C19.675 20.0016 20 19.7032 20 19.335V4.66833C20 4.30014 19.675 4.00167 19.2742 4.00167C18.8733 4.00167 18.5484 4.30014 18.5484 4.66833V19.335Z" fill="#0E0E0E"/>
</g>
</g>
</svg>
