<svg width="24" height="24" viewBox="0 0 24 24" fill="none" xmlns="http://www.w3.org/2000/svg">
<g id="Type=huge arrow IOS">
<g id="chevron.left 1" clip-path="url(#clip0_13751_167321)">
<g id="Group">
<path id="Vector" d="M8 12C8 12.2304 8.08282 12.4332 8.25767 12.6083L15.5552 19.7511C15.7117 19.917 15.9141 20 16.1534 20C16.6319 20 17 19.6405 17 19.1612C17 18.9217 16.8988 18.7188 16.7515 18.5622L10.0522 12L16.7515 5.43778C16.8988 5.28111 17 5.06913 17 4.83871C17 4.35945 16.6319 4 16.1534 4C15.9141 4 15.7117 4.08295 15.5552 4.23963L8.25767 11.3917C8.08282 11.5576 8 11.7696 8 12Z" fill="#0E0E0E"/>
</g>
</g>
</g>
<defs>
<clipPath id="clip0_13751_167321">
<rect width="9" height="16" fill="white" transform="translate(8 4)"/>
</clipPath>
</defs>
</svg>
