<svg width="24" height="24" viewBox="0 0 24 24" fill="none" xmlns="http://www.w3.org/2000/svg">
<g id="Type=huge cross IOS">
<g id="Group">
<path id="Vector" d="M4.26109 19.7388C4.61423 20.082 5.19944 20.082 5.5425 19.7388L12 13.2803L18.4575 19.7388C18.8006 20.082 19.3959 20.0921 19.7389 19.7388C20.0819 19.3857 20.0819 18.8104 19.7389 18.4674L13.2814 11.9987L19.7389 5.54022C20.0819 5.19711 20.0921 4.61181 19.7389 4.2687C19.3857 3.9155 18.8006 3.9155 18.4575 4.2687L12 10.7272L5.5425 4.2687C5.19944 3.9155 4.60414 3.90541 4.26109 4.2687C3.91803 4.6219 3.91803 5.19711 4.26109 5.54022L10.7186 11.9987L4.26109 18.4674C3.91803 18.8104 3.90794 19.3958 4.26109 19.7388Z" fill="#0E0E0E"/>
</g>
</g>
</svg>
