<svg width="28" height="28" viewBox="0 0 28 28" fill="none" xmlns="http://www.w3.org/2000/svg">
<g id="Type=info IOS">
<g id="Group">
<path id="Vector" d="M14 22C18.3765 22 22 18.3687 22 14C22 9.62354 18.3687 6 13.9922 6C9.62353 6 6 9.62354 6 14C6 18.3687 9.63138 22 14 22ZM14 20.6667C10.2981 20.6667 7.34118 17.702 7.34118 14C7.34118 10.2981 10.2902 7.33334 13.9922 7.33334C17.6942 7.33334 20.6667 10.2981 20.6667 14C20.6667 17.702 17.702 20.6667 14 20.6667ZM12.6275 18.3922H15.8196C16.1412 18.3922 16.3921 18.1569 16.3921 17.8353C16.3921 17.5295 16.1412 17.2863 15.8196 17.2863H14.8471V13.2941C14.8471 12.8706 14.6353 12.5882 14.2353 12.5882H12.7608C12.4392 12.5882 12.1882 12.8314 12.1882 13.1373C12.1882 13.4588 12.4392 13.6941 12.7608 13.6941H13.6V17.2863H12.6275C12.3059 17.2863 12.0549 17.5295 12.0549 17.8353C12.0549 18.1569 12.3059 18.3922 12.6275 18.3922ZM13.9295 11.2863C14.502 11.2863 14.949 10.8314 14.949 10.2588C14.949 9.68628 14.502 9.23138 13.9295 9.23138C13.3647 9.23138 12.9098 9.68628 12.9098 10.2588C12.9098 10.8314 13.3647 11.2863 13.9295 11.2863Z" fill="#0E0E0E"/>
</g>
</g>
</svg>
