<svg width="24" height="24" viewBox="0 0 24 24" fill="none" xmlns="http://www.w3.org/2000/svg">
<g id="Type=info">
<g id="info">
<path id="Vector" d="M11 10.9583C11 10.6915 11.1054 10.4357 11.2929 10.247C11.4804 10.0584 11.7348 9.95238 12 9.95238C12.2652 9.95238 12.5196 10.0584 12.7071 10.247C12.8946 10.4357 13 10.6915 13 10.9583V16.994C13 17.2608 12.8946 17.5167 12.7071 17.7054C12.5196 17.894 12.2652 18 12 18C11.7348 18 11.4804 17.894 11.2929 17.7054C11.1054 17.5167 11 17.2608 11 16.994V10.9583ZM12 6C11.7348 6 11.4804 6.10598 11.2929 6.29464C11.1054 6.48329 11 6.73916 11 7.00595C11 7.27275 11.1054 7.52861 11.2929 7.71727C11.4804 7.90592 11.7348 8.0119 12 8.0119C12.2652 8.0119 12.5196 7.90592 12.7071 7.71727C12.8946 7.52861 13 7.27275 13 7.00595C13 6.73916 12.8946 6.48329 12.7071 6.29464C12.5196 6.10598 12.2652 6 12 6Z" fill="#999999"/>
<path id="Vector_2" fill-rule="evenodd" clip-rule="evenodd" d="M12 2C6.477 2 2 6.477 2 12C2 17.523 6.477 22 12 22C17.523 22 22 17.523 22 12C22 6.477 17.523 2 12 2ZM4 12C4 14.1217 4.84285 16.1566 6.34315 17.6569C7.84344 19.1571 9.87827 20 12 20C14.1217 20 16.1566 19.1571 17.6569 17.6569C19.1571 16.1566 20 14.1217 20 12C20 9.87827 19.1571 7.84344 17.6569 6.34315C16.1566 4.84285 14.1217 4 12 4C9.87827 4 7.84344 4.84285 6.34315 6.34315C4.84285 7.84344 4 9.87827 4 12Z" fill="#999999"/>
</g>
</g>
</svg>
