<svg width="24" height="24" viewBox="0 0 24 24" fill="none" xmlns="http://www.w3.org/2000/svg">
<g id="Type=job">
<g id="Group">
<path id="Vector" d="M7.1423 9.60156C6.98127 9.60156 6.82685 9.66478 6.71298 9.7773C6.59912 9.88982 6.53516 10.0424 6.53516 10.2016C6.53516 10.3607 6.59912 10.5133 6.71298 10.6258C6.82685 10.7383 6.98127 10.8016 7.1423 10.8016H11.3923C11.5533 10.8016 11.7078 10.7383 11.8216 10.6258C11.9355 10.5133 11.9994 10.3607 11.9994 10.2016C11.9994 10.0424 11.9355 9.88982 11.8216 9.7773C11.7078 9.66478 11.5533 9.60156 11.3923 9.60156H7.1423ZM6.53516 7.20156C6.53516 7.04243 6.59912 6.88982 6.71298 6.7773C6.82685 6.66478 6.98127 6.60156 7.1423 6.60156H16.553C16.714 6.60156 16.8685 6.66478 16.9823 6.7773C17.0962 6.88982 17.1602 7.04243 17.1602 7.20156C17.1602 7.36069 17.0962 7.51331 16.9823 7.62583C16.8685 7.73835 16.714 7.80156 16.553 7.80156H7.1423C6.98127 7.80156 6.82685 7.73835 6.71298 7.62583C6.59912 7.51331 6.53516 7.36069 6.53516 7.20156Z" fill="#2A65C5"/>
<path id="Vector_2" fill-rule="evenodd" clip-rule="evenodd" d="M6.53516 14.4016C6.53516 14.2424 6.59912 14.0898 6.71298 13.9773C6.82685 13.8648 6.98127 13.8016 7.1423 13.8016H9.57087C9.73189 13.8016 9.88632 13.8648 10.0002 13.9773C10.114 14.0898 10.178 14.2424 10.178 14.4016V16.8016C10.178 16.9607 10.114 17.1133 10.0002 17.2258C9.88632 17.3383 9.73189 17.4016 9.57087 17.4016H7.1423C6.98127 17.4016 6.82685 17.3383 6.71298 17.2258C6.59912 17.1133 6.53516 16.9607 6.53516 16.8016V14.4016ZM7.74944 16.2016V15.0016H8.96373V16.2016H7.74944ZM14.428 16.2016C14.9111 16.2016 15.3744 16.0119 15.716 15.6744C16.0575 15.3368 16.2494 14.879 16.2494 14.4016C16.2494 13.9242 16.0575 13.4663 15.716 13.1288C15.3744 12.7912 14.9111 12.6016 14.428 12.6016C13.9449 12.6016 13.4817 12.7912 13.1401 13.1288C12.7985 13.4663 12.6066 13.9242 12.6066 14.4016C12.6066 14.879 12.7985 15.3368 13.1401 15.6744C13.4817 16.0119 13.9449 16.2016 14.428 16.2016ZM14.428 15.0016C14.5099 15.0053 14.5918 14.9925 14.6686 14.9641C14.7454 14.9357 14.8156 14.8922 14.8749 14.8362C14.9343 14.7803 14.9815 14.713 15.0138 14.6385C15.0461 14.564 15.0628 14.4838 15.0629 14.4028C15.063 14.3217 15.0464 14.2415 15.0143 14.1669C14.9821 14.0924 14.935 14.025 14.8758 13.969C14.8166 13.9129 14.7465 13.8693 14.6697 13.8407C14.593 13.8121 14.5112 13.7992 14.4292 13.8028C14.2731 13.8095 14.1255 13.8755 14.0174 13.9871C13.9092 14.0986 13.8488 14.2471 13.8486 14.4016C13.8485 14.5561 13.9086 14.7047 14.0165 14.8164C14.1245 14.9282 14.2719 14.9945 14.428 15.0016ZM10.7852 18.7108C10.7852 17.4412 13.2119 16.8016 14.428 16.8016C15.6441 16.8016 18.0709 17.4412 18.0709 18.7108V21.0016H10.7852V18.7108ZM12.0328 18.7348C12.0212 18.7457 12.0101 18.7571 11.9994 18.769V19.8016H16.8566V18.7696C16.846 18.7573 16.8348 18.7455 16.8232 18.7342C16.7236 18.6382 16.5318 18.511 16.2306 18.3844C15.6235 18.1294 14.8743 18.0016 14.428 18.0016C13.9818 18.0016 13.2325 18.1294 12.6254 18.3844C12.3243 18.5104 12.1324 18.6388 12.0328 18.7348Z" fill="#2A65C5"/>
<path id="Vector_3" fill-rule="evenodd" clip-rule="evenodd" d="M7.75 1.8C7.75 1.32261 7.9419 0.864773 8.28348 0.527208C8.62507 0.189642 9.08836 0 9.57143 0H14.4286C14.9116 0 15.3749 0.189642 15.7165 0.527208C16.0581 0.864773 16.25 1.32261 16.25 1.8H18.6786C19.1616 1.8 19.6249 1.98964 19.9665 2.32721C20.3081 2.66477 20.5 3.12261 20.5 3.6V22.2C20.5 22.6774 20.3081 23.1352 19.9665 23.4728C19.6249 23.8104 19.1616 24 18.6786 24H5.32143C4.83836 24 4.37507 23.8104 4.03348 23.4728C3.6919 23.1352 3.5 22.6774 3.5 22.2V3.6C3.5 3.12261 3.6919 2.66477 4.03348 2.32721C4.37507 1.98964 4.83836 1.8 5.32143 1.8H7.75ZM14.4286 4.8C14.9116 4.8 15.3749 4.61036 15.7165 4.27279C16.0581 3.93523 16.25 3.47739 16.25 3H18.6786C18.8396 3 18.994 3.06321 19.1079 3.17574C19.2217 3.28826 19.2857 3.44087 19.2857 3.6V22.2C19.2857 22.3591 19.2217 22.5117 19.1079 22.6243C18.994 22.7368 18.8396 22.8 18.6786 22.8H5.32143C5.1604 22.8 5.00598 22.7368 4.89211 22.6243C4.77825 22.5117 4.71429 22.3591 4.71429 22.2V3.6C4.71429 3.44087 4.77825 3.28826 4.89211 3.17574C5.00598 3.06321 5.1604 3 5.32143 3H7.75C7.75 3.47739 7.9419 3.93523 8.28348 4.27279C8.62507 4.61036 9.08836 4.8 9.57143 4.8H14.4286ZM9.57143 1.2C9.4104 1.2 9.25597 1.26321 9.14211 1.37574C9.02825 1.48826 8.96429 1.64087 8.96429 1.8V3C8.96429 3.15913 9.02825 3.31174 9.14211 3.42426C9.25597 3.53679 9.4104 3.6 9.57143 3.6H14.4286C14.5896 3.6 14.744 3.53679 14.8579 3.42426C14.9717 3.31174 15.0357 3.15913 15.0357 3V1.8C15.0357 1.64087 14.9717 1.48826 14.8579 1.37574C14.744 1.26321 14.5896 1.2 14.4286 1.2H9.57143Z" fill="#2A65C5"/>
</g>
</g>
</svg>
