<svg width="24" height="24" viewBox="0 0 24 24" fill="none" xmlns="http://www.w3.org/2000/svg">
<g id="Type=like IOS">
<g id="hand.thumbsup 1" clip-path="url(#clip0_13751_167596)">
<g id="Group">
<path id="Vector" d="M4 15.1959C4 17.8703 5.76092 20.1223 7.88905 20.1223H10.5513C11.6112 20.677 12.8964 21 14.3318 21H15.4502C16.4517 21 17.3196 20.942 17.8954 20.8013C19.0137 20.528 19.7148 19.7581 19.7148 18.781C19.7148 18.5741 19.6814 18.3919 19.6313 18.2097C20.1822 17.7957 20.4909 17.1913 20.4909 16.5289C20.4909 16.206 20.4241 15.8832 20.3073 15.6265C20.6829 15.2456 20.8915 14.6909 20.8915 14.1113C20.8915 13.7387 20.7997 13.3413 20.6411 13.0515C20.8665 12.7286 21 12.2732 21 11.793C21 10.6007 20.057 9.65685 18.8552 9.65685H15.809C15.6254 9.65685 15.5086 9.57405 15.5086 9.41673C15.5086 8.55565 16.8772 6.53542 16.8772 4.9126C16.8772 3.79485 16.0928 3 15.0162 3C14.2234 3 13.6893 3.4057 13.1635 4.39926C12.187 6.26219 11.0187 7.93468 9.11585 10.2364H7.58861C5.60236 10.2364 4 12.4636 4 15.1959ZM8.69858 15.1545C8.69858 13.4241 9.09082 12.3229 10.1758 10.8739C11.3859 9.2677 13.0634 7.34682 14.2735 4.96228C14.5739 4.35787 14.7742 4.22539 15.0663 4.22539C15.4084 4.22539 15.6421 4.4655 15.6421 4.9126C15.6421 6.20423 14.2735 8.15823 14.2735 9.41673C14.2735 10.3275 15.0246 10.8822 15.9843 10.8822H18.8552C19.3726 10.8822 19.7648 11.2714 19.7648 11.793C19.7648 12.1739 19.6396 12.414 19.3308 12.7286C19.1806 12.861 19.164 13.0267 19.2892 13.184C19.5478 13.5648 19.6564 13.7966 19.6564 14.1113C19.6564 14.4839 19.4811 14.8068 19.1139 15.08C18.9136 15.2373 18.8301 15.4443 18.947 15.6927C19.1556 16.0653 19.2558 16.2392 19.2558 16.5289C19.2558 16.9512 18.9804 17.2741 18.3961 17.5722C18.2125 17.6798 18.1708 17.8289 18.2459 18.0028C18.4463 18.4995 18.4713 18.5741 18.4713 18.781C18.4713 19.1619 18.1875 19.4682 17.6034 19.6172C17.1276 19.7332 16.3682 19.7829 15.4585 19.7829H14.4236C10.9853 19.7829 8.69858 17.8454 8.69858 15.1545ZM5.23515 15.1959C5.23515 13.1343 6.35346 11.4618 7.58861 11.4618C7.83064 11.4618 8.07265 11.4618 8.31467 11.4618C7.72214 12.5713 7.46342 13.7304 7.46342 15.1297C7.46342 16.6117 7.99754 17.9034 8.95729 18.8887C8.59843 18.8887 8.24791 18.8887 7.88905 18.8887C6.47865 18.8887 5.23515 17.1996 5.23515 15.1959Z" fill="#7D7D7D"/>
</g>
</g>
</g>
<defs>
<clipPath id="clip0_13751_167596">
<rect width="17" height="18" fill="white" transform="translate(4 3)"/>
</clipPath>
</defs>
</svg>
