<svg width="24" height="24" viewBox="0 0 24 24" fill="none" xmlns="http://www.w3.org/2000/svg">
<g id="Type=lil shield">
<path id="Vector" d="M12 22C12.1733 22 12.4549 21.9406 12.7256 21.802C18.8881 18.6435 21 17.3069 21 13.693V6.1188C21 5.0792 20.5126 4.75247 19.592 4.39604C18.314 3.91089 14.1877 2.55445 12.9098 2.14851C12.6173 2.05941 12.3032 2 12 2C11.6967 2 11.3827 2.07921 11.1011 2.14851C9.82309 2.48515 5.68592 3.92079 4.40794 4.39604C3.49819 4.74257 3 5.0792 3 6.1188V13.693C3 17.3069 5.12274 18.6336 11.2743 21.802C11.5559 21.9406 11.8267 22 12 22ZM12 20.2079C11.8267 20.2079 11.6534 20.1485 11.3285 19.9703C6.32491 17.198 4.72202 16.3861 4.72202 13.3267V6.42574C4.72202 6.08911 4.787 5.96039 5.09025 5.85148C6.73646 5.25742 9.93139 4.27723 11.5668 3.68316C11.7401 3.61386 11.8809 3.59406 12 3.59406C12.1191 3.59406 12.2599 3.62376 12.4332 3.68316C14.0686 4.27723 17.2419 5.32672 18.9206 5.85148C19.213 5.95049 19.278 6.08911 19.278 6.42574V13.3267C19.278 16.3861 17.6751 17.1881 12.6714 19.9703C12.3574 20.1485 12.1733 20.2079 12 20.2079ZM10.8195 16.2178C11.1769 16.2178 11.4801 16.0594 11.6967 15.7624L16.6462 8.63366C16.7761 8.44554 16.9061 8.22772 16.9061 8C16.9061 7.56435 16.4729 7.27722 16.0289 7.27722C15.7473 7.27722 15.4765 7.42574 15.2707 7.72276L10.7762 14.3168L8.64259 11.792C8.38266 11.4752 8.1444 11.3862 7.85198 11.3862C7.37545 11.3862 7.00721 11.7326 7.00721 12.1782C7.00721 12.3862 7.10469 12.604 7.25631 12.792L9.8989 15.7624C10.1697 16.0891 10.4621 16.2178 10.8195 16.2178Z" fill="#5AA0F5" fill-opacity="0.6"/>
</g>
</svg>
