<svg width="24" height="24" viewBox="0 0 24 24" fill="none" xmlns="http://www.w3.org/2000/svg">
<g id="Type=lil add to basket">
<path id="Union" fill-rule="evenodd" clip-rule="evenodd" d="M14.5624 4.60937C14.5624 4.27282 14.2896 4 13.9531 4C13.6165 4 13.3437 4.27282 13.3437 4.60937V6.43748H11.5156C11.179 6.43748 10.9062 6.71031 10.9062 7.04686C10.9062 7.3834 11.179 7.65623 11.5156 7.65623H13.3437V9.48434C13.3437 9.82089 13.6165 10.0937 13.9531 10.0937C14.2896 10.0937 14.5624 9.82089 14.5624 9.48434V7.65623H16.3905C16.7271 7.65623 16.9999 7.3834 16.9999 7.04686C16.9999 6.71031 16.7271 6.43748 16.3905 6.43748H14.5624V4.60937ZM4.60937 5.62499C4.27282 5.62499 4 5.89781 4 6.23436C4 6.57091 4.27282 6.84373 4.60937 6.84373H6.98494L8.48698 12.4764L9.15403 15.3114C9.2188 15.5866 9.46443 15.7812 9.74721 15.7812H17.92C18.2565 15.7812 18.5293 15.5084 18.5293 15.1718C18.5293 14.8353 18.2565 14.5624 17.92 14.5624H10.2298L9.84749 12.9374H18.7802C19.0759 12.9374 19.3289 12.7252 19.3803 12.434L20.2406 7.559C20.2991 7.22758 20.0779 6.91149 19.7464 6.853C19.415 6.79452 19.0989 7.01578 19.0404 7.3472L18.269 11.7187H9.54626L8.0419 6.07735C7.97076 5.81059 7.72918 5.62499 7.4531 5.62499H4.60937ZM12.3281 18.0155C12.3281 18.6886 11.7824 19.2343 11.1093 19.2343C10.4362 19.2343 9.89059 18.6886 9.89059 18.0155C9.89059 17.3424 10.4362 16.7968 11.1093 16.7968C11.7824 16.7968 12.3281 17.3424 12.3281 18.0155ZM16.7968 19.2343C17.4699 19.2343 18.0155 18.6886 18.0155 18.0155C18.0155 17.3424 17.4699 16.7968 16.7968 16.7968C16.1237 16.7968 15.5781 17.3424 15.5781 18.0155C15.5781 18.6886 16.1237 19.2343 16.7968 19.2343Z" fill="#0E0E0E"/>
</g>
</svg>
