<svg width="28" height="28" viewBox="0 0 28 28" fill="none" xmlns="http://www.w3.org/2000/svg">
<g id="Type=lil info IOS">
<g id="Group">
<path id="Vector" d="M14 20C17.2824 20 20 17.2765 20 14C20 10.7177 17.2765 8 13.9941 8C10.7177 8 8 10.7177 8 14C8 17.2765 10.7235 20 14 20ZM14 19C11.2235 19 9.00589 16.7765 9.00589 14C9.00589 11.2235 11.2177 9 13.9941 9C16.7706 9 19 11.2235 19 14C19 16.7765 16.7765 19 14 19ZM12.9706 17.2941H15.3647C15.6059 17.2941 15.7941 17.1177 15.7941 16.8765C15.7941 16.6471 15.6059 16.4647 15.3647 16.4647H14.6353V13.4706C14.6353 13.1529 14.4765 12.9412 14.1765 12.9412H13.0706C12.8294 12.9412 12.6412 13.1235 12.6412 13.353C12.6412 13.5941 12.8294 13.7706 13.0706 13.7706H13.7V16.4647H12.9706C12.7294 16.4647 12.5412 16.6471 12.5412 16.8765C12.5412 17.1177 12.7294 17.2941 12.9706 17.2941ZM13.9471 11.9647C14.3765 11.9647 14.7118 11.6235 14.7118 11.1941C14.7118 10.7647 14.3765 10.4235 13.9471 10.4235C13.5235 10.4235 13.1824 10.7647 13.1824 11.1941C13.1824 11.6235 13.5235 11.9647 13.9471 11.9647Z" fill="#0E0E0E"/>
</g>
</g>
</svg>
