<svg width="24" height="24" viewBox="0 0 24 24" fill="none" xmlns="http://www.w3.org/2000/svg">
<g id="Type=list IOS">
<path id="Vector" d="M9.66451 9.269H18.4774C18.7677 9.269 19 9.05339 19 8.77618C19 8.49281 18.7677 8.27721 18.4774 8.27721H9.66451C9.36774 8.27721 9.14193 8.49281 9.14193 8.77618C9.14193 9.05339 9.36774 9.269 9.66451 9.269ZM9.66451 12.9959H18.4774C18.7677 12.9959 19 12.7741 19 12.4969C19 12.2197 18.7677 12.0041 18.4774 12.0041H9.66451C9.36774 12.0041 9.14193 12.2197 9.14193 12.4969C9.14193 12.7741 9.36774 12.9959 9.66451 12.9959ZM9.66451 16.7167H18.4774C18.7677 16.7167 19 16.501 19 16.2239C19 15.9405 18.7677 15.7249 18.4774 15.7249H9.66451C9.36774 15.7249 9.14193 15.9405 9.14193 16.2239C9.14193 16.501 9.36774 16.7167 9.66451 16.7167ZM6.8129 9.5462C7.26452 9.5462 7.6258 9.20123 7.6258 8.77618C7.6258 8.34497 7.26452 8 6.8129 8C6.36129 8 6 8.34497 6 8.77618C6 9.20123 6.36129 9.5462 6.8129 9.5462ZM6.8129 13.2731C7.26452 13.2731 7.6258 12.9281 7.6258 12.4969C7.6258 12.0657 7.26452 11.7207 6.8129 11.7207C6.36129 11.7207 6 12.0657 6 12.4969C6 12.9281 6.36129 13.2731 6.8129 13.2731ZM6.8129 17C7.26452 17 7.6258 16.6489 7.6258 16.2239C7.6258 15.7926 7.26452 15.4476 6.8129 15.4476C6.36129 15.4476 6 15.7926 6 16.2239C6 16.6489 6.36129 17 6.8129 17Z" fill="#2A65C5"/>
</g>
</svg>
