<svg width="24" height="24" viewBox="0 0 24 24" fill="none" xmlns="http://www.w3.org/2000/svg">
<g id="Type=location IOS">
<path id="Vector" d="M4.7193 10.459C3.55615 11.001 3.87644 12.5678 5.1576 12.5762L11.3021 12.6017C11.4033 12.6017 11.4285 12.6271 11.4285 12.7287L11.4453 18.8517C11.4538 20.1898 13.0384 20.4269 13.6031 19.1989L19.8319 5.74187C20.405 4.48847 19.4273 3.59923 18.1883 4.18359L4.7193 10.459ZM6.18589 11.2551C6.15218 11.2551 6.14375 11.2212 6.18589 11.2043L18.2979 5.63177C18.3569 5.60636 18.3822 5.6233 18.3569 5.69105L12.7771 17.8524C12.7687 17.8863 12.7349 17.8778 12.7349 17.8439L12.7771 11.8564C12.7771 11.4838 12.5158 11.2212 12.1365 11.2212L6.18589 11.2551Z" fill="white" fill-opacity="0.85"/>
</g>
</svg>
