<svg width="24" height="24" viewBox="0 0 24 24" fill="none" xmlns="http://www.w3.org/2000/svg">
<g id="Type=location ANDROID">
<path id="Vector" d="M12.5 21.8366C12.3341 21.6349 12.1371 21.3917 11.9165 21.1126C11.2228 20.2351 10.2991 19.0072 9.37677 17.6037C8.45308 16.1982 7.53964 14.6299 6.85928 13.0707C6.1748 11.5021 5.75 9.99592 5.75 8.7C5.75 4.83849 8.78627 1.75 12.5 1.75C16.2137 1.75 19.25 4.83849 19.25 8.7C19.25 9.99592 18.8252 11.5021 18.1407 13.0707C17.4604 14.6299 16.5469 16.1982 15.6232 17.6037C14.7009 19.0072 13.7772 20.2351 13.0835 21.1126C12.8629 21.3917 12.6659 21.6349 12.5 21.8366ZM9.07143 8.7C9.07143 10.6135 10.5887 12.2 12.5 12.2C14.4113 12.2 15.9286 10.6135 15.9286 8.7C15.9286 6.78652 14.4113 5.2 12.5 5.2C10.5887 5.2 9.07143 6.78652 9.07143 8.7Z" stroke="#0E0E0E" stroke-width="1.5"/>
</g>
</svg>
