<svg width="24" height="24" viewBox="0 0 24 24" fill="none" xmlns="http://www.w3.org/2000/svg">
<g id="Type=low price">
<g id="Frame 554307">
<path id="Vector 21" d="M11.3261 14.0582C11.3964 14.0774 11.471 14.0971 11.5489 14.1168C12.0307 14.2388 12.6752 14.3706 13.2391 14.3706C13.8031 14.3706 14.4476 14.2388 14.9294 14.1168C15.0073 14.0971 15.0818 14.0774 15.1522 14.0582V16.2836V16.7619H15.6304H17.4128L13.2241 21.3314L8.65462 16.7619H10.8478H11.3261V16.2836V14.0582Z" stroke="#2A65C5" stroke-width="0.956522"/>
<g id="Frame 554306">
<circle id="Ellipse 116" cx="12.9991" cy="7.57333" r="5.10889" stroke="#2A65C5" stroke-width="0.928889"/>
<path id="Vector" d="M13.9605 4.78906H11.8041V7.77478H11.1406V8.43827H11.8041V9.10176H11.1406V9.76525H11.8041V10.7605H12.4676V9.76525H13.7946V9.10176H12.4676V8.43827H13.9605C14.969 8.43827 15.7851 7.62217 15.7851 6.61367C15.7851 5.60516 14.969 4.78906 13.9605 4.78906ZM13.9605 7.77478H12.4676V5.45255H13.9605C14.6007 5.45255 15.1216 5.9734 15.1216 6.61367C15.1216 7.25394 14.6007 7.77478 13.9605 7.77478Z" fill="#2A65C5"/>
</g>
</g>
</g>
</svg>
