<svg width="24" height="24" viewBox="0 0 24 24" fill="none" xmlns="http://www.w3.org/2000/svg">
<g id="Type=mail">
<g id="Group">
<path id="Vector" fill-rule="evenodd" clip-rule="evenodd" d="M4 8.16667V16.8333C4 17.408 4.24082 17.9591 4.66947 18.3654C5.09812 18.7717 5.67951 19 6.28571 19H17.7143C18.3205 19 18.9019 18.7717 19.3305 18.3654C19.7592 17.9591 20 17.408 20 16.8333V8.16667C20 7.59203 19.7592 7.04093 19.3305 6.6346C18.9019 6.22827 18.3205 6 17.7143 6H6.28571C5.67951 6 5.09812 6.22827 4.66947 6.6346C4.24082 7.04093 4 7.59203 4 8.16667Z" stroke="#2A65C5" stroke-linecap="round" stroke-linejoin="round"/>
<path id="Vector_2" d="M4.57031 10.875L11.9989 14.125L19.4275 10.875" stroke="#2A65C5" stroke-linecap="round" stroke-linejoin="round"/>
</g>
</g>
</svg>
