<svg width="24" height="24" viewBox="0 0 24 24" fill="none" xmlns="http://www.w3.org/2000/svg">
<g id="Type=map IOS">
<path id="Vector" d="M4.86923 19.7035C5.06154 19.7035 5.26154 19.6351 5.5077 19.4983L9.42308 17.4151L13.6769 19.7719C13.9539 19.924 14.2539 20 14.5385 20C14.8077 20 15.0769 19.9316 15.3077 19.8023L19.3308 17.5443C19.7923 17.2934 20 16.9285 20 16.4192V6.17841C20 5.61581 19.6846 5.30411 19.1308 5.30411C18.9385 5.30411 18.7384 5.36493 18.4846 5.50177L14.4077 7.74455L10.2308 5.21287C9.99231 5.07603 9.72308 5 9.45384 5C9.17692 5 8.9 5.07603 8.66154 5.21287L4.66154 7.46326C4.20769 7.72174 4 8.08667 4 8.59605V18.8216C4 19.3842 4.31538 19.7035 4.86923 19.7035ZM8.92308 16.2063L5.45384 18.0917C5.41538 18.1069 5.37693 18.1298 5.33846 18.1298C5.27692 18.1298 5.23846 18.0842 5.23846 18.0081V8.89255C5.23846 8.71009 5.30769 8.58084 5.49231 8.4744L8.64615 6.64977C8.74615 6.59655 8.83077 6.55093 8.92308 6.49772V16.2063ZM10.1615 16.3279V6.65738C10.2385 6.70299 10.3308 6.7486 10.4077 6.79422L13.8385 8.86213V18.3655C13.7308 18.3046 13.6154 18.2514 13.5 18.1905L10.1615 16.3279ZM15.0769 18.5023V8.78611L18.5462 6.91586C18.5846 6.89306 18.623 6.87785 18.6538 6.87785C18.7231 6.87785 18.7616 6.92346 18.7616 6.99949V16.115C18.7616 16.3051 18.6846 16.4344 18.5077 16.5408L15.423 18.3122C15.3077 18.3806 15.1923 18.4491 15.0769 18.5023Z" fill="white" fill-opacity="0.85"/>
</g>
</svg>
