<svg width="24" height="24" viewBox="0 0 24 24" fill="none" xmlns="http://www.w3.org/2000/svg">
<g id="Type=map way IOS">
<path id="Vector" d="M15.8867 15.5156C14.5382 15.5156 13.4397 16.6065 13.4397 17.9626C13.4397 19.3036 14.5382 20.3945 15.8867 20.3945C17.2353 20.3945 18.3262 19.3036 18.3262 17.9626C18.3262 16.6065 17.2353 15.5156 15.8867 15.5156ZM15.8867 16.705C16.5838 16.705 17.1368 17.2581 17.1368 17.9626C17.1368 18.6596 16.5838 19.2051 15.8867 19.2051C15.1746 19.2051 14.6291 18.6596 14.6291 17.9626C14.6291 17.2581 15.1746 16.705 15.8867 16.705ZM7.43948 8.88654C8.78802 8.88654 9.87896 7.78801 9.87896 6.43948C9.87896 5.09853 8.78802 4 7.43948 4C6.09095 4 5 5.09853 5 6.43948C5 7.78801 6.09095 8.88654 7.43948 8.88654ZM7.43948 7.6971C6.74248 7.6971 6.18943 7.14405 6.18943 6.43948C6.18943 5.73491 6.74248 5.18944 7.43948 5.18944C8.14405 5.18944 8.68952 5.73491 8.68952 6.43948C8.68952 7.14405 8.15163 7.6971 7.43948 7.6971ZM6.82582 9.16685C6.82582 10.6821 7.77282 11.7427 9.57592 12.2427L13.3867 13.3185C14.6367 13.6746 15.2731 14.3186 15.2731 15.2276V15.758H16.4928V15.2276C16.4928 13.72 15.5534 12.6594 13.7503 12.1593L9.93957 11.0836C8.6971 10.7351 8.04556 10.076 8.04556 9.16685V8.6441H6.82582V9.16685Z" fill="#0E0E0E"/>
</g>
</svg>
