<svg width="24" height="24" viewBox="0 0 24 24" fill="none" xmlns="http://www.w3.org/2000/svg">
<g id="Type=mi">
<g id="Frame 554107">
<path id="Vector" fill-rule="evenodd" clip-rule="evenodd" d="M4 7C6.79549 7 9.59098 7 12.392 7C12.8275 7.00742 13.2573 7.10439 13.6566 7.2853C14.0559 7.46622 14.4168 7.72751 14.7186 8.05413C15.0204 8.38074 15.2571 8.76623 15.415 9.18838C15.5729 9.61053 15.6489 10.061 15.6387 10.5139C15.6717 12.803 15.6387 15.0578 15.6387 17.3298C15.6387 17.8277 15.6387 17.8506 15.1434 17.8506C14.6482 17.8506 14.0704 17.8506 13.5366 17.8506C13.2504 17.8506 13.1734 17.7762 13.1789 17.4786C13.1789 15.4355 13.1789 13.3867 13.1789 11.3437C13.1931 11.0822 13.1543 10.8206 13.0649 10.5758C12.9755 10.3311 12.8375 10.1086 12.66 9.92289C12.4825 9.7372 12.2694 9.59245 12.0345 9.49805C11.7997 9.40365 11.5484 9.36173 11.2969 9.375C9.75057 9.4265 8.20424 9.375 6.66342 9.375C6.62332 9.43003 6.57715 9.47997 6.52584 9.52379C6.52584 11.2407 6.52584 12.9575 6.52584 14.6744C6.52584 15.6015 6.52584 16.5286 6.52584 17.4614C6.52584 17.7132 6.46532 17.7991 6.20668 17.7934C5.46929 17.7934 4.7319 17.7934 4.00551 17.7934L4 7Z" stroke="#2A65C5" stroke-miterlimit="10"/>
<path id="Vector_2" fill-rule="evenodd" clip-rule="evenodd" d="M17.4117 12.5459C17.4117 10.8863 17.4117 9.22663 17.4117 7.567C17.4117 7.21218 17.5218 7.06338 17.874 7.07483C18.4243 7.07483 18.9746 7.07483 19.5579 7.07483C19.855 7.07483 19.9761 7.17784 19.9761 7.48688C20.0146 10.8405 20.0036 14.1998 19.9761 17.5592C19.9761 17.8682 19.8771 18.0113 19.5469 17.9998C18.9966 17.9998 18.4023 17.9998 17.83 17.9998C17.5053 17.9998 17.4062 17.8739 17.4062 17.5534C17.4173 15.8881 17.4117 14.217 17.4117 12.5459Z" stroke="#2A65C5" stroke-miterlimit="10"/>
<path id="Vector_3" fill-rule="evenodd" clip-rule="evenodd" d="M11.0486 14.5844C11.0486 15.5229 11.0486 16.4672 11.0486 17.4057C11.0486 17.7835 10.944 17.938 10.5698 17.9265C10.0195 17.9265 9.4252 17.9265 8.84739 17.9265C8.59425 17.9265 8.51172 17.8292 8.51172 17.5832C8.51172 15.5801 8.51172 13.5771 8.51172 11.5684C8.51172 11.3051 8.61077 11.225 8.8529 11.2308C9.46372 11.2308 10.0801 11.2308 10.6909 11.2308C10.955 11.2308 11.0486 11.328 11.0486 11.6027C11.0431 12.5928 11.0486 13.5886 11.0486 14.5844Z" stroke="#2A65C5" stroke-miterlimit="10"/>
</g>
</g>
</svg>
