<svg width="32" height="32" viewBox="0 0 32 32" fill="none" xmlns="http://www.w3.org/2000/svg">
<g id="Type=phone service">
<g id="Frame 554097">
<path id="Vector" d="M20.2888 3H11.7112C10.2138 3 9 4.24342 9 5.77725V26.2227C9 27.7566 10.2138 29 11.7112 29H20.2888C21.7862 29 23 27.7566 23 26.2227V5.77725C23 4.24342 21.7862 3 20.2888 3Z" stroke="#3C82FF" stroke-width="1.625" stroke-miterlimit="10"/>
<path id="Vector_2" d="M19.1408 3H12.8557C12.4435 3 12.1094 3.28798 12.1094 3.64323V3.98177C12.1094 4.33702 12.4435 4.625 12.8557 4.625H19.1408C19.553 4.625 19.8872 4.33702 19.8872 3.98177V3.64323C19.8872 3.28798 19.553 3 19.1408 3Z" fill="#3C82FF"/>
</g>
</g>
</svg>
