<svg width="24" height="24" viewBox="0 0 24 24" fill="none" xmlns="http://www.w3.org/2000/svg">
<g id="Type=phone">
<path id="Vector" d="M16.8671 22C18.6564 22 19.8323 21.5194 20.865 20.3538C20.9468 20.272 21.0286 20.1799 21.1002 20.0982C21.7137 19.4131 22 18.7383 22 18.0941C22 17.358 21.5705 16.6728 20.6605 16.0389L17.6851 13.9735C16.7648 13.3396 15.6912 13.268 14.8323 14.1166L14.045 14.904C13.8098 15.1391 13.6053 15.1493 13.3804 15.0062C12.8282 14.6586 11.7137 13.6872 10.957 12.9305C10.1595 12.1433 9.39263 11.2639 8.98364 10.6198C8.85071 10.3846 8.86093 10.1903 9.0961 9.95515L9.8732 9.16785C10.7321 8.30896 10.6605 7.22513 10.0266 6.31513L7.96114 3.3397C7.32719 2.4297 6.64212 2.01048 5.90592 2.00026C5.26175 1.99003 4.58691 2.28655 3.90184 2.90004C3.80981 2.98183 3.72802 3.05341 3.64622 3.12499C2.48057 4.16792 2 5.34376 2 7.11266C2 10.037 3.79959 13.5952 7.10225 16.8978C10.3845 20.1799 13.9529 22 16.8671 22ZM16.8773 20.4254C14.2699 20.4765 10.9264 18.4724 8.27811 15.8344C5.6094 13.176 3.5133 9.71998 3.56442 7.11266C3.58487 5.98793 3.98364 5.01657 4.78118 4.32129C4.85276 4.25994 4.90388 4.20881 4.97546 4.15769C5.28221 3.89184 5.6094 3.7487 5.90592 3.7487C6.20245 3.7487 6.46829 3.86117 6.66257 4.16792L8.64621 7.14333C8.86093 7.4603 8.88138 7.81817 8.56441 8.13513L7.66462 9.03492C6.95909 9.74043 7.01022 10.5993 7.52146 11.2844C8.10428 12.0717 9.11656 13.2169 9.90387 13.994C10.681 14.7812 11.9182 15.8856 12.7157 16.4785C13.4008 16.9898 14.2597 17.041 14.9652 16.3354L15.865 15.4356C16.182 15.1187 16.5296 15.1391 16.8568 15.3437L19.8323 17.3272C20.1391 17.5318 20.2515 17.7873 20.2515 18.0941C20.2515 18.3907 20.1084 18.7179 19.8425 19.0245C19.7812 19.0961 19.7402 19.1472 19.6789 19.2189C18.9836 20.0163 18.0123 20.4049 16.8773 20.4254Z" fill="#0E0E0E"/>
</g>
</svg>
