<svg width="24" height="24" viewBox="0 0 24 24" fill="none" xmlns="http://www.w3.org/2000/svg">
<g id="Type=phone IOS">
<g id="phone 1" clip-path="url(#clip0_13751_167351)">
<g id="Group">
<path id="Vector" d="M15.8937 20C17.3251 20 18.2658 19.6155 19.092 18.6831C19.1574 18.6176 19.2229 18.5439 19.2801 18.4785C19.771 17.9305 20 17.3906 20 16.8753C20 16.2864 19.6564 15.7383 18.9284 15.2311L16.5481 13.5788C15.8119 13.0717 14.9529 13.0144 14.2658 13.6933L13.636 14.3232C13.4479 14.5113 13.2843 14.5195 13.1043 14.4049C12.6626 14.1268 11.7709 13.3497 11.1656 12.7444C10.5276 12.1146 9.91411 11.4112 9.58691 10.8958C9.48057 10.7077 9.48875 10.5523 9.67688 10.3641L10.2986 9.73428C10.9857 9.04717 10.9284 8.18011 10.4213 7.4521L8.76891 5.07176C8.26175 4.34376 7.7137 4.00838 7.12474 4.0002C6.6094 3.99202 6.06952 4.22924 5.52147 4.72003C5.44785 4.78547 5.38241 4.84272 5.31697 4.89999C4.38446 5.73433 4 6.67501 4 8.09013C4 10.4296 5.43967 13.2762 8.0818 15.9182C10.7076 18.5439 13.5623 20 15.8937 20ZM15.9018 18.7403C13.8159 18.7812 11.1411 17.1779 9.02249 15.0676C6.88752 12.9408 5.21064 10.176 5.25153 8.09013C5.26789 7.19035 5.58691 6.41325 6.22495 5.85703C6.28221 5.80795 6.3231 5.76705 6.38037 5.72615C6.62576 5.51347 6.88752 5.39896 7.12474 5.39896C7.36196 5.39896 7.57464 5.48894 7.73006 5.73433L9.31697 8.11466C9.48875 8.36824 9.50511 8.65453 9.25153 8.90811L8.53169 9.62793C7.96727 10.1923 8.00818 10.8795 8.41717 11.4275C8.88343 12.0574 9.69325 12.9735 10.3231 13.5952C10.9448 14.225 11.9346 15.1085 12.5726 15.5828C13.1206 15.9919 13.8078 16.0328 14.3722 15.4684L15.092 14.7485C15.3456 14.495 15.6237 14.5113 15.8854 14.6749L18.2658 16.2618C18.5113 16.4254 18.6012 16.6299 18.6012 16.8753C18.6012 17.1125 18.4867 17.3743 18.274 17.6196C18.2249 17.6769 18.1922 17.7178 18.1431 17.7751C17.5869 18.4131 16.8098 18.7239 15.9018 18.7403Z" fill="#7D7D7D"/>
</g>
</g>
</g>
<defs>
<clipPath id="clip0_13751_167351">
<rect width="16" height="16" fill="white" transform="translate(4 4)"/>
</clipPath>
</defs>
</svg>
