<svg width="24" height="24" viewBox="0 0 24 24" fill="none" xmlns="http://www.w3.org/2000/svg">
<g id="Type=plus IOS">
<g id="Group">
<path id="Vector" d="M4 12C4 12.4752 4.39758 12.863 4.86303 12.863H11.137V19.137C11.137 19.6025 11.5249 20 12 20C12.4752 20 12.8728 19.6025 12.8728 19.137V12.863H19.137C19.6025 12.863 20 12.4752 20 12C20 11.5249 19.6025 11.1273 19.137 11.1273H12.8728V4.86303C12.8728 4.39758 12.4752 4 12 4C11.5249 4 11.137 4.39758 11.137 4.86303V11.1273H4.86303C4.39758 11.1273 4 11.5249 4 12Z" fill="#0E0E0E"/>
</g>
</g>
</svg>
