<svg width="24" height="24" viewBox="0 0 24 24" fill="none" xmlns="http://www.w3.org/2000/svg">
<g id="Type=profile">
<g id="Frame 554645">
<path id="Vector" d="M19.25 12C19.25 16.0041 16.0041 19.25 12 19.25V20.75C16.8325 20.75 20.75 16.8325 20.75 12H19.25ZM12 19.25C7.99594 19.25 4.75 16.0041 4.75 12H3.25C3.25 16.8325 7.16751 20.75 12 20.75V19.25ZM4.75 12C4.75 7.99594 7.99594 4.75 12 4.75V3.25C7.16751 3.25 3.25 7.16751 3.25 12H4.75ZM12 4.75C16.0041 4.75 19.25 7.99594 19.25 12H20.75C20.75 7.16751 16.8325 3.25 12 3.25V4.75Z" fill="#0E0E0E"/>
<path id="Vector_2" d="M11.9992 16.75C13.6917 16.75 15.2098 17.5653 16.205 18.8576L17.3934 17.9424C16.135 16.3084 14.1901 15.25 11.9992 15.25V16.75ZM7.79343 18.8576C8.78865 17.5653 10.3067 16.75 11.9992 16.75V15.25C9.80829 15.25 7.86342 16.3084 6.60501 17.9424L7.79343 18.8576Z" fill="#0E0E0E"/>
<path id="Vector_3" d="M13.6516 11.2008C13.6516 12.1121 12.9128 12.8508 12.0016 12.8508V14.3508C13.7413 14.3508 15.1516 12.9405 15.1516 11.2008H13.6516ZM12.0016 12.8508C11.0903 12.8508 10.3516 12.1121 10.3516 11.2008H8.85156C8.85156 12.9405 10.2619 14.3508 12.0016 14.3508V12.8508ZM10.3516 11.2008C10.3516 10.2895 11.0903 9.55078 12.0016 9.55078V8.05078C10.2619 8.05078 8.85156 9.46108 8.85156 11.2008H10.3516ZM12.0016 9.55078C12.9128 9.55078 13.6516 10.2895 13.6516 11.2008H15.1516C15.1516 9.46108 13.7413 8.05078 12.0016 8.05078V9.55078Z" fill="#0E0E0E"/>
</g>
</g>
</svg>
