<svg width="24" height="24" viewBox="0 0 24 24" fill="none" xmlns="http://www.w3.org/2000/svg">
<g id="Type=quadcopter">
<g id="Frame 554100">
<path id="Vector" d="M18.1663 11.5878C18.2505 11.6862 18.3207 11.6971 18.7885 11.6971C19.136 11.6971 19.3193 11.7029 19.4159 11.6142C19.5299 11.5095 19.523 11.2731 19.523 10.7402C19.523 10.2073 19.5299 9.97092 19.4159 9.86622C19.3193 9.77755 19.136 9.7833 18.7885 9.7833C18.1663 9.7833 18.0727 9.84345 18.0727 10.2207V10.4395H17.5727H16.5148C15.0271 10.4395 14.9476 10.434 14.868 10.3356L18.1663 11.5878ZM18.1663 11.5878C18.1148 11.5276 18.0727 11.4347 18.0727 11.3745C18.0727 11.2761 18.0634 11.2761 17.6657 11.3745C17.6363 11.3822 17.6058 11.3901 17.5747 11.398M18.1663 11.5878L17.5747 11.398M17.5747 11.398C17.5747 11.398 17.5747 11.3979 17.5746 11.3978C17.5736 11.3881 17.5731 11.3797 17.5728 11.3745C17.5727 11.3711 17.5727 11.3691 17.5727 11.3691C17.5727 11.369 17.5727 11.3707 17.5727 11.3745C17.5727 11.3825 17.5729 11.3905 17.5732 11.3984M17.5747 11.398L17.5732 11.3984M17.5732 11.3984C17.3613 11.4524 17.1187 11.5093 16.9967 11.5331C16.8563 11.5659 16.6037 11.626 16.4353 11.6698C16.1078 11.7573 15.2703 11.9651 14.5732 12.1291C14.3892 12.1725 14.2805 12.197 14.1843 12.246L17.5732 11.3984ZM10.9999 9.9549L11.0001 9.95486C11.7111 9.8454 12.7594 9.91248 13.417 10.1044C13.572 10.1503 13.8312 10.2656 14.0786 10.3994C14.1991 10.4646 14.3059 10.5284 14.3859 10.5823C14.4545 10.6284 14.4786 10.6512 14.4793 10.6505C14.4794 10.6504 14.479 10.6498 14.4781 10.6487L14.4791 10.6499C14.5418 10.7274 14.6349 10.814 14.7876 10.8663C14.8975 10.904 15.0192 10.9163 15.1317 10.9234C15.3676 10.9384 15.7804 10.9395 16.5148 10.9395H17.3479C17.1708 10.9834 16.9925 11.0245 16.901 11.0423L16.8919 11.0441L16.8828 11.0462C16.7421 11.0791 16.4844 11.1404 16.3096 11.1858L16.3096 11.1858L16.3062 11.1867C15.9857 11.2723 15.1537 11.4788 14.4587 11.6424L14.4583 11.6425C14.4421 11.6463 14.4258 11.6501 14.4094 11.6539C14.2208 11.6978 14.0223 11.7439 13.8277 11.8779C13.6622 11.9918 13.502 12.1691 13.2957 12.3975C13.2787 12.4162 13.2615 12.4354 13.2439 12.4548C12.989 12.735 12.7914 12.8884 12.6009 12.9782C12.4148 13.066 12.1974 13.1109 11.8738 13.1109C11.4635 13.1109 11.1581 13.0191 10.9878 12.9039C10.9875 12.9036 10.9871 12.9033 10.9865 12.9029C10.9858 12.9024 10.9849 12.9017 10.9837 12.9008L10.9704 12.8904C10.959 12.8814 10.9447 12.8696 10.9274 12.8547C10.8927 12.825 10.8504 12.7871 10.8033 12.7431C10.7089 12.655 10.602 12.5491 10.5069 12.4481L10.5069 12.448C10.3085 12.2373 10.0703 11.9983 9.97767 11.9261L9.97766 11.9261C9.91992 11.8812 9.86294 11.8569 9.85304 11.8527C9.8525 11.8524 9.8521 11.8523 9.85185 11.8521C9.82735 11.8414 9.80251 11.832 9.78151 11.8244C9.73848 11.8089 9.68558 11.7917 9.62773 11.7739C9.51064 11.7379 9.35216 11.6926 9.16563 11.6414C8.79172 11.5389 8.2919 11.4094 7.75583 11.2775L6.41044 10.9395H7.22347H8.77201H8.96743L9.11106 10.8069L9.28886 10.6429L9.28962 10.6422C9.41918 10.5222 9.66397 10.3746 9.99041 10.2402C10.309 10.109 10.6683 10.0058 10.9999 9.9549ZM18.4982 11.0694C18.4677 11.0164 18.4321 10.9737 18.3944 10.9395H18.5727V10.4395V10.2873C18.6288 10.2847 18.6992 10.2833 18.7885 10.2833C18.8036 10.2833 18.8181 10.2833 18.832 10.2833C18.91 10.2833 18.9709 10.2833 19.0199 10.2839C19.0232 10.3756 19.0231 10.4939 19.0231 10.6572C19.023 10.6837 19.023 10.7113 19.023 10.7402C19.023 10.7691 19.023 10.7967 19.0231 10.8232C19.0231 10.9865 19.0232 11.1048 19.0199 11.1966C18.9709 11.1972 18.91 11.1971 18.832 11.1971C18.8181 11.1971 18.8036 11.1971 18.7885 11.1971C18.6879 11.1971 18.6112 11.1966 18.5508 11.195C18.5404 11.1577 18.5241 11.1143 18.4982 11.0694ZM5.21106 11.1638L5.20461 11.1918C5.13561 11.1956 5.04487 11.1971 4.92168 11.1971C4.84788 11.1971 4.78544 11.1966 4.73226 11.1956C4.72348 11.0647 4.71875 10.9045 4.71875 10.7402C4.71875 10.5759 4.72347 10.4159 4.73225 10.285C4.78777 10.2838 4.85326 10.2833 4.93104 10.2833C5.03314 10.2833 5.11247 10.2848 5.17491 10.2879V10.4395V10.9395H5.26274L5.21106 11.1638ZM4.52423 10.2979C4.52364 10.298 4.52334 10.2981 4.52333 10.2981L4.52423 10.2979Z" stroke="#2A65C5"/>
<path id="Vector_2" d="M8.70176 13.1981C8.21055 13.7076 8.06187 13.8959 7.77105 14.4275C7.43498 15.0312 7.24758 15.6514 7.17001 16.3602C7.10537 16.9361 7.12476 17.0192 7.31863 16.997C7.43498 16.9805 7.46083 16.9306 7.50608 16.5928C7.60304 15.8286 7.93912 15.1973 8.53369 14.6822C8.94087 14.3334 9.60008 13.9679 10.0396 13.8516L10.2917 13.7796L10.0719 13.6356C9.94908 13.5581 9.68411 13.3587 9.48379 13.1981C9.2834 13.0431 9.096 12.9102 9.05722 12.9102C9.01844 12.9102 8.8633 13.0431 8.70176 13.1981Z" fill="#2A65C5"/>
<path id="Vector_3" d="M14.1782 13.1447C14.0481 13.2705 13.8296 13.4421 13.6936 13.5222C13.5519 13.6023 13.4396 13.6824 13.4455 13.6996C13.4455 13.7224 13.6523 13.8369 13.9004 13.9513C14.9757 14.4489 15.667 15.4214 15.791 16.5884C15.8324 16.9773 15.8383 17.0002 15.9801 17.0002C16.1042 17.0002 16.1337 16.9716 16.1455 16.8114C16.181 16.4739 15.9742 15.4214 15.7733 14.8665C15.6611 14.5691 15.4661 14.1572 15.3361 13.9455C15.0585 13.4936 14.574 12.9102 14.4794 12.9102C14.4381 12.9102 14.3022 13.0131 14.1782 13.1447Z" fill="#2A65C5"/>
<path id="Rectangle 6019" d="M10.6391 14.5898C10.6391 14.507 10.7062 14.4398 10.7891 14.4398H12.9351C13.018 14.4398 13.0851 14.507 13.0851 14.5898V15.6203C13.0851 15.7031 13.018 15.7703 12.9351 15.7703H10.7891C10.7062 15.7703 10.6391 15.7031 10.6391 15.6203V14.5898Z" stroke="#2A65C5" stroke-width="0.7"/>
<rect id="Rectangle 6022" x="1" y="8" width="7.65217" height="1.01523" rx="0.507615" fill="#2A65C5"/>
<path id="Rectangle 6023" d="M14.8711 8.50761C14.8711 8.22727 15.0984 8 15.3787 8H22.0356C22.316 8 22.5433 8.22727 22.5433 8.50761C22.5433 8.78796 22.316 9.01523 22.0356 9.01523H15.3787C15.0984 9.01523 14.8711 8.78796 14.8711 8.50761Z" fill="#2A65C5"/>
</g>
</g>
</svg>
