<svg width="24" height="24" viewBox="0 0 24 24" fill="none" xmlns="http://www.w3.org/2000/svg">
<g id="Type=question IOS">
<path id="Vector" d="M8.46461 20C8.82033 20 9.06716 19.7989 9.50999 19.3813L12.0145 17.0072H16.6751C18.8385 17.0072 20 15.7312 20 13.4655V7.54181C20 5.27598 18.8385 4 16.6751 4H7.32487C5.16153 4 4 5.26825 4 7.54181V13.4655C4 15.739 5.16153 17.0072 7.32487 17.0072H7.67333V19.0179C7.67333 19.6134 7.95645 20 8.46461 20ZM8.76225 18.5848V16.3422C8.76225 15.9246 8.60981 15.7622 8.21779 15.7622H7.32487C5.85844 15.7622 5.16879 14.9657 5.16879 13.4577V7.54181C5.16879 6.03383 5.85844 5.24505 7.32487 5.24505H16.6751C18.1343 5.24505 18.8312 6.03383 18.8312 7.54181V13.4577C18.8312 14.9657 18.1343 15.7622 16.6751 15.7622H11.971C11.5644 15.7622 11.3612 15.8241 11.0853 16.1257L8.76225 18.5848ZM11.8621 12.1044C12.225 12.1044 12.4428 11.8569 12.4428 11.5553C12.4428 11.5244 12.4428 11.4858 12.4428 11.4625C12.4428 11.0295 12.6824 10.7511 13.1905 10.3954C13.8948 9.90043 14.3956 9.45191 14.3956 8.52392C14.3956 7.24021 13.3213 6.55196 12.0871 6.55196C10.8385 6.55196 10.0182 7.17835 9.81489 7.8898C9.77859 8.01353 9.75681 8.13726 9.75681 8.26873C9.75681 8.61672 10.0109 8.80232 10.2577 8.80232C10.5045 8.80232 10.657 8.67859 10.7876 8.49299L10.9184 8.30739C11.1724 7.85887 11.5572 7.59594 12.0363 7.59594C12.7042 7.59594 13.1325 7.99806 13.1325 8.58579C13.1325 9.11164 12.8276 9.36684 12.1888 9.8386C11.6733 10.2252 11.2813 10.6351 11.2813 11.3929C11.2813 11.4239 11.2813 11.4625 11.2813 11.4935C11.2813 11.8956 11.4846 12.1044 11.8621 12.1044ZM11.8403 14.4089C12.2613 14.4089 12.6243 14.0609 12.6243 13.6046C12.6243 13.1561 12.2686 12.8081 11.8403 12.8081C11.4193 12.8081 11.0635 13.1638 11.0635 13.6046C11.0635 14.0532 11.4265 14.4089 11.8403 14.4089Z" fill="#0E0E0E"/>
</g>
</svg>
