<svg width="24" height="24" viewBox="0 0 24 24" fill="none" xmlns="http://www.w3.org/2000/svg">
<g id="Type=radiobtn">
<g id="akar-icons:radio-fill">
<path id="Vector" fill-rule="evenodd" clip-rule="evenodd" d="M12 3C7.0293 3 3 7.0293 3 12C3 16.9707 7.0293 21 12 21C16.9707 21 21 16.9707 21 12C21 7.0293 16.9707 3 12 3ZM12 8.4C11.0452 8.4 10.1295 8.77928 9.45442 9.45442C8.77928 10.1295 8.4 11.0452 8.4 12C8.4 12.9548 8.77928 13.8705 9.45442 14.5456C10.1295 15.2207 11.0452 15.6 12 15.6C12.9548 15.6 13.8705 15.2207 14.5456 14.5456C15.2207 13.8705 15.6 12.9548 15.6 12C15.6 11.0452 15.2207 10.1295 14.5456 9.45442C13.8705 8.77928 12.9548 8.4 12 8.4Z" fill="#0E0E0E"/>
</g>
</g>
</svg>
