<svg width="24" height="24" viewBox="0 0 24 24" fill="none" xmlns="http://www.w3.org/2000/svg">
<g id="Type=right arrow IOS">
<path id="Vector" d="M22.7617 11.8828C22.7617 11.5898 22.6445 11.3203 22.4102 11.0977L14.6406 3.35156C14.3828 3.09375 14.1367 3 13.8555 3C13.2812 3 12.8359 3.42188 12.8359 4.00781C12.8359 4.28906 12.9297 4.55859 13.1172 4.74609L15.7422 7.41797L20.3945 11.6602L20.6289 11.0742L16.8555 10.8398H2.03125C1.42188 10.8398 1 11.2734 1 11.8828C1 12.4922 1.42188 12.9258 2.03125 12.9258H16.8555L20.6289 12.6914L20.3945 12.1172L15.7422 16.3477L13.1172 19.0195C12.9297 19.1953 12.8359 19.4766 12.8359 19.7578C12.8359 20.3438 13.2812 20.7656 13.8555 20.7656C14.1367 20.7656 14.3828 20.6602 14.6172 20.4375L22.4102 12.668C22.6445 12.4453 22.7617 12.1758 22.7617 11.8828Z" fill="white" fill-opacity="0.85"/>
</g>
</svg>
