<svg width="24" height="24" viewBox="0 0 24 24" fill="none" xmlns="http://www.w3.org/2000/svg">
<g id="Type=right IOS">
<path id="Vector" d="M15 12C15 11.856 14.9387 11.7235 14.8221 11.6198L9.96319 7.14977C9.85277 7.05184 9.71779 7 9.55829 7C9.2454 7 9 7.22465 9 7.52419C9 7.6682 9.06135 7.80069 9.15951 7.89861L13.6258 12L9.15951 16.1013C9.06135 16.1993 9 16.326 9 16.4758C9 16.7753 9.2454 17 9.55829 17C9.71779 17 9.85277 16.9481 9.96319 16.8444L14.8221 12.3802C14.9387 12.2707 15 12.144 15 12Z" fill="white"/>
</g>
</svg>
