<svg width="24" height="24" viewBox="0 0 24 24" fill="none" xmlns="http://www.w3.org/2000/svg">
<g id="Type=sale">
<g id="Group">
<path id="Vector" d="M10.0737 4.95981C10.5633 4.54311 10.8081 4.33475 11.0633 4.21235C11.3556 4.07256 11.6755 4 11.9996 4C12.3236 4 12.6435 4.07256 12.9358 4.21235C13.1919 4.33389 13.4367 4.54224 13.9254 4.95981C14.1208 5.1265 14.218 5.20897 14.3222 5.27842C14.5607 5.43831 14.8286 5.54926 15.1104 5.60484C15.2328 5.62915 15.3604 5.63957 15.6156 5.6604C16.2571 5.71076 16.5775 5.7368 16.8448 5.83143C17.1502 5.93921 17.4276 6.11397 17.6567 6.3429C17.8858 6.57184 18.0607 6.84914 18.1687 7.15447C18.2633 7.42273 18.2885 7.74307 18.3397 8.38376C18.3597 8.63899 18.3701 8.76661 18.3944 8.88989C18.4499 9.17116 18.5611 9.43942 18.7208 9.67729C18.7902 9.78147 18.8736 9.8787 19.0394 10.074C19.4561 10.5637 19.6653 10.8085 19.7877 11.0637C19.9274 11.356 20 11.676 20 12C20 12.324 19.9274 12.644 19.7877 12.9363C19.6661 13.1915 19.4569 13.4363 19.0394 13.926C18.9259 14.0522 18.8195 14.1846 18.7208 14.3227C18.5609 14.561 18.45 14.8286 18.3944 15.1101C18.3701 15.2334 18.3597 15.361 18.3397 15.6162C18.2885 16.2569 18.2633 16.5781 18.1687 16.8455C18.0607 17.1509 17.8858 17.4282 17.6567 17.6571C17.4276 17.886 17.1502 18.0608 16.8448 18.1686C16.5775 18.2641 16.2571 18.2892 15.6156 18.3396C15.3604 18.3604 15.2336 18.3708 15.1104 18.3952C14.8286 18.4507 14.5607 18.5617 14.3222 18.7216C14.1844 18.8203 14.0522 18.9267 13.9263 19.0402C13.4367 19.4569 13.1919 19.6652 12.9367 19.7877C12.6444 19.9274 12.3245 20 12.0004 20C11.6764 20 11.3565 19.9274 11.0642 19.7877C10.8081 19.6661 10.5633 19.4578 10.0746 19.0402C9.94835 18.9267 9.8159 18.8203 9.67785 18.7216C9.43929 18.5617 9.17137 18.4507 8.88962 18.3952C8.72237 18.3673 8.5537 18.3488 8.38439 18.3396C7.74287 18.2892 7.42254 18.2632 7.15517 18.1686C6.84978 18.0608 6.57238 17.886 6.34331 17.6571C6.11424 17.4282 5.9393 17.1509 5.83133 16.8455C5.73671 16.5781 5.71153 16.2569 5.66031 15.6162C5.65164 15.4466 5.63338 15.2777 5.60562 15.1101C5.54994 14.8287 5.439 14.561 5.27922 14.3227C5.20977 14.2185 5.12644 14.1213 4.96063 13.926C4.54395 13.4363 4.33474 13.1915 4.21233 12.9363C4.07255 12.644 4 12.324 4 12C4 11.676 4.07255 11.356 4.21233 11.0637C4.33474 10.8085 4.54308 10.5637 4.96063 10.074C5.12644 9.8787 5.20977 9.78147 5.27922 9.67729C5.439 9.43898 5.54994 9.17135 5.60562 8.88989C5.62993 8.76661 5.64035 8.63899 5.66031 8.38376C5.71153 7.74307 5.73671 7.42273 5.83133 7.15447C5.93939 6.84905 6.11446 6.57169 6.34369 6.34275C6.57291 6.11381 6.85049 5.9391 7.15604 5.83143C7.42341 5.7368 7.74374 5.71076 8.38526 5.6604C8.64048 5.63957 8.76722 5.62915 8.89049 5.60484C9.17224 5.54926 9.44016 5.43831 9.67872 5.27842C9.78289 5.20897 9.87925 5.1265 10.0737 4.95981Z" stroke="#2A65C5"/>
<path id="Vector_2" d="M9.39453 14.6034L14.6031 9.39453" stroke="#2A65C5" stroke-linecap="round"/>
<path id="Vector_3" d="M15.0376 14.1698C15.0376 14.4 14.9461 14.6208 14.7833 14.7836C14.6205 14.9465 14.3997 15.0379 14.1695 15.0379C13.9393 15.0379 13.7185 14.9465 13.5557 14.7836C13.3929 14.6208 13.3014 14.4 13.3014 14.1698C13.3014 13.9395 13.3929 13.7187 13.5557 13.5559C13.7185 13.3931 13.9393 13.3016 14.1695 13.3016C14.3997 13.3016 14.6205 13.3931 14.7833 13.5559C14.9461 13.7187 15.0376 13.9395 15.0376 14.1698ZM10.6971 9.82908C10.6971 10.0593 10.6057 10.2801 10.4429 10.4429C10.2801 10.6058 10.0593 10.6972 9.82903 10.6972C9.5988 10.6972 9.378 10.6058 9.2152 10.4429C9.0524 10.2801 8.96094 10.0593 8.96094 9.82908C8.96094 9.59883 9.0524 9.37802 9.2152 9.21521C9.378 9.0524 9.5988 8.96094 9.82903 8.96094C10.0593 8.96094 10.2801 9.0524 10.4429 9.21521C10.6057 9.37802 10.6971 9.59883 10.6971 9.82908Z" fill="#2A65C5"/>
</g>
</g>
</svg>
