<svg width="24" height="24" viewBox="0 0 24 24" fill="none" xmlns="http://www.w3.org/2000/svg">
<g id="Type=scooter">
<g id="Frame 554108">
<path id="Vector" d="M12.9562 5C12.6801 5 12.4562 5.22386 12.4562 5.5C12.4562 5.77614 12.6801 6 12.9562 6V5ZM14.6277 5.5L15.106 5.35412C15.0418 5.14374 14.8477 5 14.6277 5V5.5ZM17.142 13.7429L17.3964 14.1733C17.5951 14.0559 17.6876 13.8178 17.6202 13.597L17.142 13.7429ZM14.6277 16.8857V17.3857C14.8472 17.3857 15.041 17.2426 15.1056 17.0329L14.6277 16.8857ZM7.21083 16.8857H6.71083C6.71083 17.1619 6.93469 17.3857 7.21083 17.3857V16.8857ZM15.4277 15.1429L15.0271 14.8437L15.4277 15.1429ZM6.4812 14.0795C6.24891 13.9302 5.93956 13.9974 5.79024 14.2297C5.64092 14.462 5.70817 14.7713 5.94046 14.9207L6.4812 14.0795ZM12.9562 6H14.6277V5H12.9562V6ZM14.1495 5.64588L16.6638 13.8888L17.6202 13.597L15.106 5.35412L14.1495 5.64588ZM14.6277 16.8857C14.6277 16.3857 14.6277 16.3857 14.6277 16.3857C14.6276 16.3857 14.6276 16.3857 14.6275 16.3857C14.6274 16.3857 14.6273 16.3857 14.6272 16.3857C14.6271 16.3857 14.627 16.3857 14.6268 16.3857C14.6267 16.3857 14.6265 16.3857 14.6263 16.3857C14.6262 16.3857 14.626 16.3857 14.6257 16.3857C14.6255 16.3857 14.6253 16.3857 14.625 16.3857C14.6248 16.3857 14.6245 16.3857 14.6242 16.3857C14.6239 16.3857 14.6236 16.3857 14.6233 16.3857C14.6229 16.3857 14.6226 16.3857 14.6222 16.3857C14.6219 16.3857 14.6215 16.3857 14.6211 16.3857C14.6207 16.3857 14.6203 16.3857 14.6198 16.3857C14.6194 16.3857 14.619 16.3857 14.6185 16.3857C14.618 16.3857 14.6175 16.3857 14.617 16.3857C14.6165 16.3857 14.616 16.3857 14.6155 16.3857C14.6149 16.3857 14.6144 16.3857 14.6138 16.3857C14.6132 16.3857 14.6126 16.3857 14.612 16.3857C14.6114 16.3857 14.6108 16.3857 14.6101 16.3857C14.6095 16.3857 14.6088 16.3857 14.6081 16.3857C14.6074 16.3857 14.6067 16.3857 14.606 16.3857C14.6053 16.3857 14.6046 16.3857 14.6038 16.3857C14.6031 16.3857 14.6023 16.3857 14.6015 16.3857C14.6007 16.3857 14.5999 16.3857 14.5991 16.3857C14.5983 16.3857 14.5975 16.3857 14.5966 16.3857C14.5958 16.3857 14.5949 16.3857 14.594 16.3857C14.5931 16.3857 14.5922 16.3857 14.5913 16.3857C14.5904 16.3857 14.5894 16.3857 14.5885 16.3857C14.5875 16.3857 14.5865 16.3857 14.5855 16.3857C14.5846 16.3857 14.5836 16.3857 14.5825 16.3857C14.5815 16.3857 14.5805 16.3857 14.5794 16.3857C14.5783 16.3857 14.5773 16.3857 14.5762 16.3857C14.5751 16.3857 14.574 16.3857 14.5729 16.3857C14.5717 16.3857 14.5706 16.3857 14.5694 16.3857C14.5683 16.3857 14.5671 16.3857 14.5659 16.3857C14.5647 16.3857 14.5635 16.3857 14.5623 16.3857C14.5611 16.3857 14.5598 16.3857 14.5586 16.3857C14.5573 16.3857 14.556 16.3857 14.5547 16.3857C14.5534 16.3857 14.5521 16.3857 14.5508 16.3857C14.5495 16.3857 14.5481 16.3857 14.5468 16.3857C14.5454 16.3857 14.5441 16.3857 14.5427 16.3857C14.5413 16.3857 14.5399 16.3857 14.5385 16.3857C14.537 16.3857 14.5356 16.3857 14.5341 16.3857C14.5327 16.3857 14.5312 16.3857 14.5297 16.3857C14.5282 16.3857 14.5267 16.3857 14.5252 16.3857C14.5237 16.3857 14.5222 16.3857 14.5206 16.3857C14.5191 16.3857 14.5175 16.3857 14.5159 16.3857C14.5143 16.3857 14.5127 16.3857 14.5111 16.3857C14.5095 16.3857 14.5079 16.3857 14.5062 16.3857C14.5046 16.3857 14.5029 16.3857 14.5012 16.3857C14.4996 16.3857 14.4979 16.3857 14.4962 16.3857C14.4944 16.3857 14.4927 16.3857 14.491 16.3857C14.4892 16.3857 14.4875 16.3857 14.4857 16.3857C14.4839 16.3857 14.4821 16.3857 14.4803 16.3857C14.4785 16.3857 14.4767 16.3857 14.4749 16.3857C14.473 16.3857 14.4712 16.3857 14.4693 16.3857C14.4675 16.3857 14.4656 16.3857 14.4637 16.3857C14.4618 16.3857 14.4599 16.3857 14.4579 16.3857C14.456 16.3857 14.4541 16.3857 14.4521 16.3857C14.4501 16.3857 14.4482 16.3857 14.4462 16.3857C14.4442 16.3857 14.4422 16.3857 14.4402 16.3857C14.4381 16.3857 14.4361 16.3857 14.4341 16.3857C14.432 16.3857 14.4299 16.3857 14.4279 16.3857C14.4258 16.3857 14.4237 16.3857 14.4216 16.3857C14.4195 16.3857 14.4173 16.3857 14.4152 16.3857C14.413 16.3857 14.4109 16.3857 14.4087 16.3857C14.4065 16.3857 14.4044 16.3857 14.4022 16.3857C14.4 16.3857 14.3977 16.3857 14.3955 16.3857C14.3933 16.3857 14.391 16.3857 14.3888 16.3857C14.3865 16.3857 14.3842 16.3857 14.3819 16.3857C14.3797 16.3857 14.3773 16.3857 14.375 16.3857C14.3727 16.3857 14.3704 16.3857 14.368 16.3857C14.3657 16.3857 14.3633 16.3857 14.3609 16.3857C14.3585 16.3857 14.3562 16.3857 14.3537 16.3857C14.3513 16.3857 14.3489 16.3857 14.3465 16.3857C14.344 16.3857 14.3416 16.3857 14.3391 16.3857C14.3367 16.3857 14.3342 16.3857 14.3317 16.3857C14.3292 16.3857 14.3267 16.3857 14.3241 16.3857C14.3216 16.3857 14.3191 16.3857 14.3165 16.3857C14.314 16.3857 14.3114 16.3857 14.3088 16.3857C14.3062 16.3857 14.3037 16.3857 14.301 16.3857C14.2984 16.3857 14.2958 16.3857 14.2932 16.3857C14.2905 16.3857 14.2879 16.3857 14.2852 16.3857C14.2825 16.3857 14.2799 16.3857 14.2772 16.3857C14.2745 16.3857 14.2718 16.3857 14.269 16.3857C14.2663 16.3857 14.2636 16.3857 14.2608 16.3857C14.2581 16.3857 14.2553 16.3857 14.2525 16.3857C14.2498 16.3857 14.247 16.3857 14.2442 16.3857C14.2414 16.3857 14.2385 16.3857 14.2357 16.3857C14.2329 16.3857 14.23 16.3857 14.2272 16.3857C14.2243 16.3857 14.2214 16.3857 14.2185 16.3857C14.2156 16.3857 14.2127 16.3857 14.2098 16.3857C14.2069 16.3857 14.204 16.3857 14.201 16.3857C14.1981 16.3857 14.1951 16.3857 14.1922 16.3857C14.1892 16.3857 14.1862 16.3857 14.1832 16.3857C14.1802 16.3857 14.1772 16.3857 14.1742 16.3857C14.1712 16.3857 14.1681 16.3857 14.1651 16.3857C14.162 16.3857 14.159 16.3857 14.1559 16.3857C14.1528 16.3857 14.1497 16.3857 14.1466 16.3857C14.1435 16.3857 14.1404 16.3857 14.1373 16.3857C14.1341 16.3857 14.131 16.3857 14.1278 16.3857C14.1247 16.3857 14.1215 16.3857 14.1183 16.3857C14.1151 16.3857 14.1119 16.3857 14.1087 16.3857C14.1055 16.3857 14.1023 16.3857 14.0991 16.3857C14.0958 16.3857 14.0926 16.3857 14.0893 16.3857C14.086 16.3857 14.0828 16.3857 14.0795 16.3857C14.0762 16.3857 14.0729 16.3857 14.0696 16.3857C14.0663 16.3857 14.0629 16.3857 14.0596 16.3857C14.0563 16.3857 14.0529 16.3857 14.0496 16.3857C14.0462 16.3857 14.0428 16.3857 14.0394 16.3857C14.036 16.3857 14.0326 16.3857 14.0292 16.3857C14.0258 16.3857 14.0224 16.3857 14.0189 16.3857C14.0155 16.3857 14.012 16.3857 14.0086 16.3857C14.0051 16.3857 14.0016 16.3857 13.9981 16.3857C13.9947 16.3857 13.9912 16.3857 13.9876 16.3857C13.9841 16.3857 13.9806 16.3857 13.9771 16.3857C13.9735 16.3857 13.97 16.3857 13.9664 16.3857C13.9628 16.3857 13.9593 16.3857 13.9557 16.3857C13.9521 16.3857 13.9485 16.3857 13.9449 16.3857C13.9413 16.3857 13.9376 16.3857 13.934 16.3857C13.9303 16.3857 13.9267 16.3857 13.923 16.3857C13.9194 16.3857 13.9157 16.3857 13.912 16.3857C13.9083 16.3857 13.9046 16.3857 13.9009 16.3857C13.8972 16.3857 13.8935 16.3857 13.8898 16.3857C13.886 16.3857 13.8823 16.3857 13.8785 16.3857C13.8748 16.3857 13.871 16.3857 13.8672 16.3857C13.8634 16.3857 13.8596 16.3857 13.8558 16.3857C13.852 16.3857 13.8482 16.3857 13.8444 16.3857C13.8405 16.3857 13.8367 16.3857 13.8329 16.3857C13.829 16.3857 13.8251 16.3857 13.8213 16.3857C13.8174 16.3857 13.8135 16.3857 13.8096 16.3857C13.8057 16.3857 13.8018 16.3857 13.7979 16.3857C13.7939 16.3857 13.79 16.3857 13.7861 16.3857C13.7821 16.3857 13.7782 16.3857 13.7742 16.3857C13.7702 16.3857 13.7663 16.3857 13.7623 16.3857C13.7583 16.3857 13.7543 16.3857 13.7503 16.3857C13.7462 16.3857 13.7422 16.3857 13.7382 16.3857C13.7341 16.3857 13.7301 16.3857 13.726 16.3857C13.722 16.3857 13.7179 16.3857 13.7138 16.3857C13.7098 16.3857 13.7057 16.3857 13.7016 16.3857C13.6975 16.3857 13.6933 16.3857 13.6892 16.3857C13.6851 16.3857 13.681 16.3857 13.6768 16.3857C13.6727 16.3857 13.6685 16.3857 13.6643 16.3857C13.6602 16.3857 13.656 16.3857 13.6518 16.3857C13.6476 16.3857 13.6434 16.3857 13.6392 16.3857C13.635 16.3857 13.6308 16.3857 13.6265 16.3857C13.6223 16.3857 13.618 16.3857 13.6138 16.3857C13.6095 16.3857 13.6053 16.3857 13.601 16.3857C13.5967 16.3857 13.5924 16.3857 13.5881 16.3857C13.5838 16.3857 13.5795 16.3857 13.5752 16.3857C13.5709 16.3857 13.5665 16.3857 13.5622 16.3857C13.5579 16.3857 13.5535 16.3857 13.5491 16.3857C13.5448 16.3857 13.5404 16.3857 13.536 16.3857C13.5317 16.3857 13.5273 16.3857 13.5229 16.3857C13.5185 16.3857 13.514 16.3857 13.5096 16.3857C13.5052 16.3857 13.5008 16.3857 13.4963 16.3857C13.4919 16.3857 13.4874 16.3857 13.4829 16.3857C13.4785 16.3857 13.474 16.3857 13.4695 16.3857C13.465 16.3857 13.4605 16.3857 13.456 16.3857C13.4515 16.3857 13.447 16.3857 13.4425 16.3857C13.438 16.3857 13.4334 16.3857 13.4289 16.3857C13.4243 16.3857 13.4198 16.3857 13.4152 16.3857C13.4106 16.3857 13.4061 16.3857 13.4015 16.3857C13.3969 16.3857 13.3923 16.3857 13.3877 16.3857C13.3831 16.3857 13.3785 16.3857 13.3739 16.3857C13.3692 16.3857 13.3646 16.3857 13.36 16.3857C13.3553 16.3857 13.3507 16.3857 13.346 16.3857C13.3413 16.3857 13.3367 16.3857 13.332 16.3857C13.3273 16.3857 13.3226 16.3857 13.3179 16.3857C13.3132 16.3857 13.3085 16.3857 13.3038 16.3857C13.299 16.3857 13.2943 16.3857 13.2896 16.3857C13.2848 16.3857 13.2801 16.3857 13.2753 16.3857C13.2706 16.3857 13.2658 16.3857 13.261 16.3857C13.2562 16.3857 13.2514 16.3857 13.2466 16.3857C13.2418 16.3857 13.237 16.3857 13.2322 16.3857C13.2274 16.3857 13.2226 16.3857 13.2178 16.3857C13.2129 16.3857 13.2081 16.3857 13.2032 16.3857C13.1984 16.3857 13.1935 16.3857 13.1886 16.3857C13.1838 16.3857 13.1789 16.3857 13.174 16.3857C13.1691 16.3857 13.1642 16.3857 13.1593 16.3857C13.1544 16.3857 13.1495 16.3857 13.1446 16.3857C13.1396 16.3857 13.1347 16.3857 13.1298 16.3857C13.1248 16.3857 13.1199 16.3857 13.1149 16.3857C13.11 16.3857 13.105 16.3857 13.1 16.3857C13.095 16.3857 13.09 16.3857 13.085 16.3857C13.0801 16.3857 13.075 16.3857 13.07 16.3857C13.065 16.3857 13.06 16.3857 13.055 16.3857C13.0499 16.3857 13.0449 16.3857 13.0399 16.3857C13.0348 16.3857 13.0298 16.3857 13.0247 16.3857C13.0196 16.3857 13.0146 16.3857 13.0095 16.3857C13.0044 16.3857 12.9993 16.3857 12.9942 16.3857C12.9891 16.3857 12.984 16.3857 12.9789 16.3857C12.9738 16.3857 12.9686 16.3857 12.9635 16.3857C12.9584 16.3857 12.9532 16.3857 12.9481 16.3857C12.9429 16.3857 12.9378 16.3857 12.9326 16.3857C12.9275 16.3857 12.9223 16.3857 12.9171 16.3857C12.9119 16.3857 12.9067 16.3857 12.9015 16.3857C12.8963 16.3857 12.8911 16.3857 12.8859 16.3857C12.8807 16.3857 12.8755 16.3857 12.8703 16.3857C12.865 16.3857 12.8598 16.3857 12.8546 16.3857C12.8493 16.3857 12.8441 16.3857 12.8388 16.3857C12.8335 16.3857 12.8283 16.3857 12.823 16.3857C12.8177 16.3857 12.8124 16.3857 12.8071 16.3857C12.8018 16.3857 12.7965 16.3857 12.7912 16.3857C12.7859 16.3857 12.7806 16.3857 12.7753 16.3857C12.77 16.3857 12.7646 16.3857 12.7593 16.3857C12.754 16.3857 12.7486 16.3857 12.7433 16.3857C12.7379 16.3857 12.7325 16.3857 12.7272 16.3857C12.7218 16.3857 12.7164 16.3857 12.711 16.3857C12.7057 16.3857 12.7003 16.3857 12.6949 16.3857C12.6895 16.3857 12.6841 16.3857 12.6787 16.3857C12.6732 16.3857 12.6678 16.3857 12.6624 16.3857C12.657 16.3857 12.6515 16.3857 12.6461 16.3857C12.6406 16.3857 12.6352 16.3857 12.6297 16.3857C12.6243 16.3857 12.6188 16.3857 12.6133 16.3857C12.6079 16.3857 12.6024 16.3857 12.5969 16.3857C12.5914 16.3857 12.5859 16.3857 12.5804 16.3857C12.5749 16.3857 12.5694 16.3857 12.5639 16.3857C12.5584 16.3857 12.5529 16.3857 12.5473 16.3857C12.5418 16.3857 12.5363 16.3857 12.5307 16.3857C12.5252 16.3857 12.5197 16.3857 12.5141 16.3857C12.5085 16.3857 12.503 16.3857 12.4974 16.3857C12.4918 16.3857 12.4863 16.3857 12.4807 16.3857C12.4751 16.3857 12.4695 16.3857 12.4639 16.3857C12.4583 16.3857 12.4527 16.3857 12.4471 16.3857C12.4415 16.3857 12.4359 16.3857 12.4303 16.3857C12.4246 16.3857 12.419 16.3857 12.4134 16.3857C12.4077 16.3857 12.4021 16.3857 12.3964 16.3857C12.3908 16.3857 12.3851 16.3857 12.3795 16.3857C12.3738 16.3857 12.3682 16.3857 12.3625 16.3857C12.3568 16.3857 12.3511 16.3857 12.3454 16.3857C12.3398 16.3857 12.3341 16.3857 12.3284 16.3857C12.3227 16.3857 12.317 16.3857 12.3112 16.3857C12.3055 16.3857 12.2998 16.3857 12.2941 16.3857C12.2884 16.3857 12.2826 16.3857 12.2769 16.3857C12.2712 16.3857 12.2654 16.3857 12.2597 16.3857C12.2539 16.3857 12.2482 16.3857 12.2424 16.3857C12.2366 16.3857 12.2309 16.3857 12.2251 16.3857C12.2193 16.3857 12.2136 16.3857 12.2078 16.3857C12.202 16.3857 12.1962 16.3857 12.1904 16.3857C12.1846 16.3857 12.1788 16.3857 12.173 16.3857C12.1672 16.3857 12.1614 16.3857 12.1556 16.3857C12.1497 16.3857 12.1439 16.3857 12.1381 16.3857C12.1323 16.3857 12.1264 16.3857 12.1206 16.3857C12.1147 16.3857 12.1089 16.3857 12.103 16.3857C12.0972 16.3857 12.0913 16.3857 12.0855 16.3857C12.0796 16.3857 12.0737 16.3857 12.0678 16.3857C12.062 16.3857 12.0561 16.3857 12.0502 16.3857C12.0443 16.3857 12.0384 16.3857 12.0325 16.3857C12.0266 16.3857 12.0207 16.3857 12.0148 16.3857C12.0089 16.3857 12.003 16.3857 11.9971 16.3857C11.9912 16.3857 11.9852 16.3857 11.9793 16.3857C11.9734 16.3857 11.9675 16.3857 11.9615 16.3857C11.9556 16.3857 11.9496 16.3857 11.9437 16.3857C11.9377 16.3857 11.9318 16.3857 11.9258 16.3857C11.9199 16.3857 11.9139 16.3857 11.9079 16.3857C11.902 16.3857 11.896 16.3857 11.89 16.3857C11.884 16.3857 11.878 16.3857 11.8721 16.3857C11.8661 16.3857 11.8601 16.3857 11.8541 16.3857C11.8481 16.3857 11.8421 16.3857 11.8361 16.3857C11.8301 16.3857 11.824 16.3857 11.818 16.3857C11.812 16.3857 11.806 16.3857 11.8 16.3857C11.7939 16.3857 11.7879 16.3857 11.7819 16.3857C11.7758 16.3857 11.7698 16.3857 11.7637 16.3857C11.7577 16.3857 11.7516 16.3857 11.7456 16.3857C11.7395 16.3857 11.7335 16.3857 11.7274 16.3857C11.7214 16.3857 11.7153 16.3857 11.7092 16.3857C11.7031 16.3857 11.6971 16.3857 11.691 16.3857C11.6849 16.3857 11.6788 16.3857 11.6727 16.3857C11.6666 16.3857 11.6605 16.3857 11.6544 16.3857C11.6483 16.3857 11.6422 16.3857 11.6361 16.3857C11.63 16.3857 11.6239 16.3857 11.6178 16.3857C11.6117 16.3857 11.6056 16.3857 11.5994 16.3857C11.5933 16.3857 11.5872 16.3857 11.5811 16.3857C11.5749 16.3857 11.5688 16.3857 11.5626 16.3857C11.5565 16.3857 11.5504 16.3857 11.5442 16.3857C11.5381 16.3857 11.5319 16.3857 11.5258 16.3857C11.5196 16.3857 11.5134 16.3857 11.5073 16.3857C11.5011 16.3857 11.495 16.3857 11.4888 16.3857C11.4826 16.3857 11.4764 16.3857 11.4703 16.3857C11.4641 16.3857 11.4579 16.3857 11.4517 16.3857C11.4455 16.3857 11.4393 16.3857 11.4331 16.3857C11.427 16.3857 11.4208 16.3857 11.4146 16.3857C11.4084 16.3857 11.4022 16.3857 11.3959 16.3857C11.3897 16.3857 11.3835 16.3857 11.3773 16.3857C11.3711 16.3857 11.3649 16.3857 11.3587 16.3857C11.3524 16.3857 11.3462 16.3857 11.34 16.3857C11.3338 16.3857 11.3275 16.3857 11.3213 16.3857C11.3151 16.3857 11.3088 16.3857 11.3026 16.3857C11.2963 16.3857 11.2901 16.3857 11.2838 16.3857C11.2776 16.3857 11.2713 16.3857 11.2651 16.3857C11.2588 16.3857 11.2526 16.3857 11.2463 16.3857C11.2401 16.3857 11.2338 16.3857 11.2275 16.3857C11.2213 16.3857 11.215 16.3857 11.2087 16.3857C11.2025 16.3857 11.1962 16.3857 11.1899 16.3857C11.1836 16.3857 11.1773 16.3857 11.1711 16.3857C11.1648 16.3857 11.1585 16.3857 11.1522 16.3857C11.1459 16.3857 11.1396 16.3857 11.1333 16.3857C11.127 16.3857 11.1207 16.3857 11.1144 16.3857C11.1081 16.3857 11.1018 16.3857 11.0955 16.3857C11.0892 16.3857 11.0829 16.3857 11.0766 16.3857C11.0703 16.3857 11.064 16.3857 11.0576 16.3857C11.0513 16.3857 11.045 16.3857 11.0387 16.3857C11.0324 16.3857 11.026 16.3857 11.0197 16.3857C11.0134 16.3857 11.0071 16.3857 11.0007 16.3857C10.9944 16.3857 10.9881 16.3857 10.9817 16.3857C10.9754 16.3857 10.969 16.3857 10.9627 16.3857C10.9564 16.3857 10.95 16.3857 10.9437 16.3857C10.9373 16.3857 10.931 16.3857 10.9246 16.3857C10.9183 16.3857 10.9119 16.3857 10.9056 16.3857C10.8992 16.3857 10.8929 16.3857 10.8865 16.3857C10.8801 16.3857 10.8738 16.3857 10.8674 16.3857C10.8611 16.3857 10.8547 16.3857 10.8483 16.3857C10.842 16.3857 10.8356 16.3857 10.8292 16.3857C10.8228 16.3857 10.8165 16.3857 10.8101 16.3857C10.8037 16.3857 10.7973 16.3857 10.791 16.3857C10.7846 16.3857 10.7782 16.3857 10.7718 16.3857C10.7654 16.3857 10.7591 16.3857 10.7527 16.3857C10.7463 16.3857 10.7399 16.3857 10.7335 16.3857C10.7271 16.3857 10.7207 16.3857 10.7143 16.3857C10.708 16.3857 10.7016 16.3857 10.6952 16.3857C10.6888 16.3857 10.6824 16.3857 10.676 16.3857C10.6696 16.3857 10.6632 16.3857 10.6568 16.3857C10.6504 16.3857 10.644 16.3857 10.6376 16.3857C10.6312 16.3857 10.6248 16.3857 10.6183 16.3857C10.6119 16.3857 10.6055 16.3857 10.5991 16.3857C10.5927 16.3857 10.5863 16.3857 10.5799 16.3857C10.5735 16.3857 10.5671 16.3857 10.5606 16.3857C10.5542 16.3857 10.5478 16.3857 10.5414 16.3857C10.535 16.3857 10.5286 16.3857 10.5221 16.3857C10.5157 16.3857 10.5093 16.3857 10.5029 16.3857C10.4965 16.3857 10.49 16.3857 10.4836 16.3857C10.4772 16.3857 10.4708 16.3857 10.4643 16.3857C10.4579 16.3857 10.4515 16.3857 10.4451 16.3857C10.4386 16.3857 10.4322 16.3857 10.4258 16.3857C10.4194 16.3857 10.4129 16.3857 10.4065 16.3857C10.4001 16.3857 10.3936 16.3857 10.3872 16.3857C10.3808 16.3857 10.3743 16.3857 10.3679 16.3857C10.3615 16.3857 10.355 16.3857 10.3486 16.3857C10.3422 16.3857 10.3357 16.3857 10.3293 16.3857C10.3229 16.3857 10.3164 16.3857 10.31 16.3857C10.3035 16.3857 10.2971 16.3857 10.2907 16.3857C10.2842 16.3857 10.2778 16.3857 10.2714 16.3857C10.2649 16.3857 10.2585 16.3857 10.252 16.3857C10.2456 16.3857 10.2392 16.3857 10.2327 16.3857C10.2263 16.3857 10.2198 16.3857 10.2134 16.3857C10.207 16.3857 10.2005 16.3857 10.1941 16.3857C10.1876 16.3857 10.1812 16.3857 10.1747 16.3857C10.1683 16.3857 10.1619 16.3857 10.1554 16.3857C10.149 16.3857 10.1425 16.3857 10.1361 16.3857C10.1297 16.3857 10.1232 16.3857 10.1168 16.3857C10.1103 16.3857 10.1039 16.3857 10.0974 16.3857C10.091 16.3857 10.0846 16.3857 10.0781 16.3857C10.0717 16.3857 10.0652 16.3857 10.0588 16.3857C10.0524 16.3857 10.0459 16.3857 10.0395 16.3857C10.033 16.3857 10.0266 16.3857 10.0201 16.3857C10.0137 16.3857 10.0073 16.3857 10.0008 16.3857C9.99439 16.3857 9.98795 16.3857 9.98151 16.3857C9.97507 16.3857 9.96863 16.3857 9.96219 16.3857C9.95575 16.3857 9.94932 16.3857 9.94288 16.3857C9.93644 16.3857 9.93 16.3857 9.92357 16.3857C9.91713 16.3857 9.9107 16.3857 9.90426 16.3857C9.89783 16.3857 9.89139 16.3857 9.88496 16.3857C9.87852 16.3857 9.87209 16.3857 9.86566 16.3857C9.85922 16.3857 9.85279 16.3857 9.84636 16.3857C9.83993 16.3857 9.8335 16.3857 9.82707 16.3857C9.82064 16.3857 9.81421 16.3857 9.80778 16.3857C9.80135 16.3857 9.79493 16.3857 9.7885 16.3857C9.78207 16.3857 9.77565 16.3857 9.76922 16.3857C9.7628 16.3857 9.75638 16.3857 9.74995 16.3857C9.74353 16.3857 9.73711 16.3857 9.73069 16.3857C9.72427 16.3857 9.71785 16.3857 9.71143 16.3857C9.70501 16.3857 9.69859 16.3857 9.69218 16.3857C9.68576 16.3857 9.67935 16.3857 9.67293 16.3857C9.66652 16.3857 9.66011 16.3857 9.6537 16.3857C9.64729 16.3857 9.64088 16.3857 9.63447 16.3857C9.62806 16.3857 9.62165 16.3857 9.61525 16.3857C9.60884 16.3857 9.60244 16.3857 9.59603 16.3857C9.58963 16.3857 9.58323 16.3857 9.57683 16.3857C9.57043 16.3857 9.56403 16.3857 9.55763 16.3857C9.55124 16.3857 9.54484 16.3857 9.53845 16.3857C9.53205 16.3857 9.52566 16.3857 9.51927 16.3857C9.51288 16.3857 9.50649 16.3857 9.5001 16.3857C9.49372 16.3857 9.48733 16.3857 9.48095 16.3857C9.47456 16.3857 9.46818 16.3857 9.4618 16.3857C9.45542 16.3857 9.44904 16.3857 9.44267 16.3857C9.43629 16.3857 9.42991 16.3857 9.42354 16.3857C9.41717 16.3857 9.4108 16.3857 9.40443 16.3857C9.39806 16.3857 9.39169 16.3857 9.38533 16.3857C9.37896 16.3857 9.3726 16.3857 9.36624 16.3857C9.35988 16.3857 9.35352 16.3857 9.34716 16.3857C9.34081 16.3857 9.33445 16.3857 9.3281 16.3857C9.32175 16.3857 9.3154 16.3857 9.30905 16.3857C9.3027 16.3857 9.29635 16.3857 9.29001 16.3857C9.28367 16.3857 9.27733 16.3857 9.27099 16.3857C9.26465 16.3857 9.25831 16.3857 9.25198 16.3857C9.24564 16.3857 9.23931 16.3857 9.23298 16.3857C9.22665 16.3857 9.22032 16.3857 9.214 16.3857C9.20768 16.3857 9.20135 16.3857 9.19503 16.3857C9.18871 16.3857 9.1824 16.3857 9.17608 16.3857C9.16977 16.3857 9.16346 16.3857 9.15715 16.3857C9.15084 16.3857 9.14453 16.3857 9.13823 16.3857C9.13193 16.3857 9.12562 16.3857 9.11933 16.3857C9.11303 16.3857 9.10673 16.3857 9.10044 16.3857C9.09415 16.3857 9.08786 16.3857 9.08157 16.3857C9.07528 16.3857 9.069 16.3857 9.06272 16.3857C9.05644 16.3857 9.05016 16.3857 9.04388 16.3857C9.03761 16.3857 9.03133 16.3857 9.02506 16.3857C9.01879 16.3857 9.01253 16.3857 9.00626 16.3857C9 16.3857 8.99374 16.3857 8.98748 16.3857C8.98123 16.3857 8.97497 16.3857 8.96872 16.3857C8.96247 16.3857 8.95622 16.3857 8.94998 16.3857C8.94373 16.3857 8.93749 16.3857 8.93125 16.3857C8.92502 16.3857 8.91878 16.3857 8.91255 16.3857C8.90632 16.3857 8.90009 16.3857 8.89387 16.3857C8.88764 16.3857 8.88142 16.3857 8.8752 16.3857C8.86898 16.3857 8.86277 16.3857 8.85656 16.3857C8.85035 16.3857 8.84414 16.3857 8.83794 16.3857C8.83173 16.3857 8.82553 16.3857 8.81934 16.3857C8.81314 16.3857 8.80695 16.3857 8.80076 16.3857C8.79457 16.3857 8.78838 16.3857 8.7822 16.3857C8.77602 16.3857 8.76984 16.3857 8.76366 16.3857C8.75749 16.3857 8.75132 16.3857 8.74515 16.3857C8.73898 16.3857 8.73282 16.3857 8.72666 16.3857C8.7205 16.3857 8.71434 16.3857 8.70819 16.3857C8.70204 16.3857 8.69589 16.3857 8.68975 16.3857C8.68361 16.3857 8.67747 16.3857 8.67133 16.3857C8.66519 16.3857 8.65906 16.3857 8.65293 16.3857C8.64681 16.3857 8.64068 16.3857 8.63456 16.3857C8.62844 16.3857 8.62233 16.3857 8.61622 16.3857C8.6101 16.3857 8.604 16.3857 8.59789 16.3857C8.59179 16.3857 8.58569 16.3857 8.5796 16.3857C8.5735 16.3857 8.56741 16.3857 8.56133 16.3857C8.55524 16.3857 8.54916 16.3857 8.54308 16.3857C8.53701 16.3857 8.53093 16.3857 8.52486 16.3857C8.5188 16.3857 8.51273 16.3857 8.50667 16.3857C8.50061 16.3857 8.49456 16.3857 8.48851 16.3857C8.48246 16.3857 8.47641 16.3857 8.47037 16.3857C8.46433 16.3857 8.45829 16.3857 8.45226 16.3857C8.44623 16.3857 8.4402 16.3857 8.43418 16.3857C8.42816 16.3857 8.42214 16.3857 8.41613 16.3857C8.41011 16.3857 8.4041 16.3857 8.3981 16.3857C8.3921 16.3857 8.3861 16.3857 8.3801 16.3857C8.37411 16.3857 8.36812 16.3857 8.36214 16.3857C8.35615 16.3857 8.35017 16.3857 8.3442 16.3857C8.33822 16.3857 8.33225 16.3857 8.32629 16.3857C8.32033 16.3857 8.31437 16.3857 8.30841 16.3857C8.30246 16.3857 8.29651 16.3857 8.29057 16.3857C8.28462 16.3857 8.27868 16.3857 8.27275 16.3857C8.26681 16.3857 8.26089 16.3857 8.25496 16.3857C8.24904 16.3857 8.24312 16.3857 8.23721 16.3857C8.23129 16.3857 8.22539 16.3857 8.21949 16.3857C8.21358 16.3857 8.20769 16.3857 8.20179 16.3857C8.1959 16.3857 8.19002 16.3857 8.18414 16.3857C8.17826 16.3857 8.17238 16.3857 8.16651 16.3857C8.16064 16.3857 8.15478 16.3857 8.14892 16.3857C8.14306 16.3857 8.1372 16.3857 8.13136 16.3857C8.12551 16.3857 8.11967 16.3857 8.11383 16.3857C8.10799 16.3857 8.10216 16.3857 8.09634 16.3857C8.09051 16.3857 8.08469 16.3857 8.07888 16.3857C8.07307 16.3857 8.06726 16.3857 8.06146 16.3857C8.05566 16.3857 8.04986 16.3857 8.04407 16.3857C8.03828 16.3857 8.03249 16.3857 8.02672 16.3857C8.02094 16.3857 8.01516 16.3857 8.0094 16.3857C8.00363 16.3857 7.99787 16.3857 7.99211 16.3857C7.98636 16.3857 7.98061 16.3857 7.97487 16.3857C7.96913 16.3857 7.96339 16.3857 7.95766 16.3857C7.95193 16.3857 7.9462 16.3857 7.94049 16.3857C7.93477 16.3857 7.92906 16.3857 7.92335 16.3857C7.91764 16.3857 7.91194 16.3857 7.90625 16.3857C7.90056 16.3857 7.89487 16.3857 7.88919 16.3857C7.88351 16.3857 7.87783 16.3857 7.87217 16.3857C7.8665 16.3857 7.86084 16.3857 7.85518 16.3857C7.84953 16.3857 7.84388 16.3857 7.83824 16.3857C7.83259 16.3857 7.82696 16.3857 7.82133 16.3857C7.8157 16.3857 7.81008 16.3857 7.80446 16.3857C7.79884 16.3857 7.79324 16.3857 7.78763 16.3857C7.78203 16.3857 7.77643 16.3857 7.77084 16.3857C7.76525 16.3857 7.75967 16.3857 7.7541 16.3857C7.74852 16.3857 7.74295 16.3857 7.73739 16.3857C7.73183 16.3857 7.72627 16.3857 7.72072 16.3857C7.71517 16.3857 7.70963 16.3857 7.7041 16.3857C7.69856 16.3857 7.69303 16.3857 7.68751 16.3857C7.68199 16.3857 7.67648 16.3857 7.67097 16.3857C7.66546 16.3857 7.65996 16.3857 7.65447 16.3857C7.64898 16.3857 7.64349 16.3857 7.63801 16.3857C7.63253 16.3857 7.62706 16.3857 7.6216 16.3857C7.61613 16.3857 7.61067 16.3857 7.60522 16.3857C7.59977 16.3857 7.59433 16.3857 7.58889 16.3857C7.58346 16.3857 7.57803 16.3857 7.57261 16.3857C7.56719 16.3857 7.56177 16.3857 7.55637 16.3857C7.55096 16.3857 7.54556 16.3857 7.54017 16.3857C7.53478 16.3857 7.5294 16.3857 7.52402 16.3857C7.51864 16.3857 7.51327 16.3857 7.50791 16.3857C7.50255 16.3857 7.4972 16.3857 7.49185 16.3857C7.4865 16.3857 7.48116 16.3857 7.47583 16.3857C7.4705 16.3857 7.46518 16.3857 7.45986 16.3857C7.45455 16.3857 7.44924 16.3857 7.44394 16.3857C7.43864 16.3857 7.43334 16.3857 7.42806 16.3857C7.42278 16.3857 7.4175 16.3857 7.41223 16.3857C7.40696 16.3857 7.4017 16.3857 7.39645 16.3857C7.39119 16.3857 7.38595 16.3857 7.38071 16.3857C7.37547 16.3857 7.37024 16.3857 7.36502 16.3857C7.3598 16.3857 7.35458 16.3857 7.34938 16.3857C7.34417 16.3857 7.33898 16.3857 7.33379 16.3857C7.3286 16.3857 7.32342 16.3857 7.31824 16.3857C7.31307 16.3857 7.30791 16.3857 7.30275 16.3857C7.29759 16.3857 7.29244 16.3857 7.2873 16.3857C7.28216 16.3857 7.27703 16.3857 7.27191 16.3857C7.26679 16.3857 7.26167 16.3857 7.25656 16.3857C7.25146 16.3857 7.24636 16.3857 7.24127 16.3857C7.23618 16.3857 7.2311 16.3857 7.22602 16.3857C7.22095 16.3857 7.21589 16.3857 7.21083 16.3857V17.3857C7.21589 17.3857 7.22095 17.3857 7.22602 17.3857C7.2311 17.3857 7.23618 17.3857 7.24127 17.3857C7.24636 17.3857 7.25146 17.3857 7.25656 17.3857C7.26167 17.3857 7.26679 17.3857 7.27191 17.3857C7.27703 17.3857 7.28216 17.3857 7.2873 17.3857C7.29244 17.3857 7.29759 17.3857 7.30275 17.3857C7.30791 17.3857 7.31307 17.3857 7.31824 17.3857C7.32342 17.3857 7.3286 17.3857 7.33379 17.3857C7.33898 17.3857 7.34417 17.3857 7.34938 17.3857C7.35458 17.3857 7.3598 17.3857 7.36502 17.3857C7.37024 17.3857 7.37547 17.3857 7.38071 17.3857C7.38595 17.3857 7.39119 17.3857 7.39645 17.3857C7.4017 17.3857 7.40696 17.3857 7.41223 17.3857C7.4175 17.3857 7.42278 17.3857 7.42806 17.3857C7.43334 17.3857 7.43864 17.3857 7.44394 17.3857C7.44924 17.3857 7.45455 17.3857 7.45986 17.3857C7.46518 17.3857 7.4705 17.3857 7.47583 17.3857C7.48116 17.3857 7.4865 17.3857 7.49185 17.3857C7.4972 17.3857 7.50255 17.3857 7.50791 17.3857C7.51327 17.3857 7.51864 17.3857 7.52402 17.3857C7.5294 17.3857 7.53478 17.3857 7.54017 17.3857C7.54556 17.3857 7.55096 17.3857 7.55637 17.3857C7.56177 17.3857 7.56719 17.3857 7.57261 17.3857C7.57803 17.3857 7.58346 17.3857 7.58889 17.3857C7.59433 17.3857 7.59977 17.3857 7.60522 17.3857C7.61067 17.3857 7.61613 17.3857 7.6216 17.3857C7.62706 17.3857 7.63253 17.3857 7.63801 17.3857C7.64349 17.3857 7.64898 17.3857 7.65447 17.3857C7.65996 17.3857 7.66546 17.3857 7.67097 17.3857C7.67648 17.3857 7.68199 17.3857 7.68751 17.3857C7.69303 17.3857 7.69856 17.3857 7.7041 17.3857C7.70963 17.3857 7.71517 17.3857 7.72072 17.3857C7.72627 17.3857 7.73183 17.3857 7.73739 17.3857C7.74295 17.3857 7.74852 17.3857 7.7541 17.3857C7.75967 17.3857 7.76525 17.3857 7.77084 17.3857C7.77643 17.3857 7.78203 17.3857 7.78763 17.3857C7.79324 17.3857 7.79884 17.3857 7.80446 17.3857C7.81008 17.3857 7.8157 17.3857 7.82133 17.3857C7.82696 17.3857 7.83259 17.3857 7.83824 17.3857C7.84388 17.3857 7.84953 17.3857 7.85518 17.3857C7.86084 17.3857 7.8665 17.3857 7.87217 17.3857C7.87783 17.3857 7.88351 17.3857 7.88919 17.3857C7.89487 17.3857 7.90056 17.3857 7.90625 17.3857C7.91194 17.3857 7.91764 17.3857 7.92335 17.3857C7.92906 17.3857 7.93477 17.3857 7.94049 17.3857C7.9462 17.3857 7.95193 17.3857 7.95766 17.3857C7.96339 17.3857 7.96913 17.3857 7.97487 17.3857C7.98061 17.3857 7.98636 17.3857 7.99211 17.3857C7.99787 17.3857 8.00363 17.3857 8.0094 17.3857C8.01516 17.3857 8.02094 17.3857 8.02672 17.3857C8.03249 17.3857 8.03828 17.3857 8.04407 17.3857C8.04986 17.3857 8.05566 17.3857 8.06146 17.3857C8.06726 17.3857 8.07307 17.3857 8.07888 17.3857C8.08469 17.3857 8.09051 17.3857 8.09634 17.3857C8.10216 17.3857 8.10799 17.3857 8.11383 17.3857C8.11967 17.3857 8.12551 17.3857 8.13136 17.3857C8.1372 17.3857 8.14306 17.3857 8.14892 17.3857C8.15478 17.3857 8.16064 17.3857 8.16651 17.3857C8.17238 17.3857 8.17826 17.3857 8.18414 17.3857C8.19002 17.3857 8.1959 17.3857 8.20179 17.3857C8.20769 17.3857 8.21358 17.3857 8.21949 17.3857C8.22539 17.3857 8.23129 17.3857 8.23721 17.3857C8.24312 17.3857 8.24904 17.3857 8.25496 17.3857C8.26089 17.3857 8.26681 17.3857 8.27275 17.3857C8.27868 17.3857 8.28462 17.3857 8.29057 17.3857C8.29651 17.3857 8.30246 17.3857 8.30841 17.3857C8.31437 17.3857 8.32033 17.3857 8.32629 17.3857C8.33225 17.3857 8.33822 17.3857 8.3442 17.3857C8.35017 17.3857 8.35615 17.3857 8.36214 17.3857C8.36812 17.3857 8.37411 17.3857 8.3801 17.3857C8.3861 17.3857 8.3921 17.3857 8.3981 17.3857C8.4041 17.3857 8.41011 17.3857 8.41613 17.3857C8.42214 17.3857 8.42816 17.3857 8.43418 17.3857C8.4402 17.3857 8.44623 17.3857 8.45226 17.3857C8.45829 17.3857 8.46433 17.3857 8.47037 17.3857C8.47641 17.3857 8.48246 17.3857 8.48851 17.3857C8.49456 17.3857 8.50061 17.3857 8.50667 17.3857C8.51273 17.3857 8.5188 17.3857 8.52486 17.3857C8.53093 17.3857 8.53701 17.3857 8.54308 17.3857C8.54916 17.3857 8.55524 17.3857 8.56133 17.3857C8.56741 17.3857 8.5735 17.3857 8.5796 17.3857C8.58569 17.3857 8.59179 17.3857 8.59789 17.3857C8.604 17.3857 8.6101 17.3857 8.61622 17.3857C8.62233 17.3857 8.62844 17.3857 8.63456 17.3857C8.64068 17.3857 8.64681 17.3857 8.65293 17.3857C8.65906 17.3857 8.66519 17.3857 8.67133 17.3857C8.67747 17.3857 8.68361 17.3857 8.68975 17.3857C8.69589 17.3857 8.70204 17.3857 8.70819 17.3857C8.71434 17.3857 8.7205 17.3857 8.72666 17.3857C8.73282 17.3857 8.73898 17.3857 8.74515 17.3857C8.75132 17.3857 8.75749 17.3857 8.76366 17.3857C8.76984 17.3857 8.77602 17.3857 8.7822 17.3857C8.78838 17.3857 8.79457 17.3857 8.80076 17.3857C8.80695 17.3857 8.81314 17.3857 8.81934 17.3857C8.82553 17.3857 8.83173 17.3857 8.83794 17.3857C8.84414 17.3857 8.85035 17.3857 8.85656 17.3857C8.86277 17.3857 8.86898 17.3857 8.8752 17.3857C8.88142 17.3857 8.88764 17.3857 8.89387 17.3857C8.90009 17.3857 8.90632 17.3857 8.91255 17.3857C8.91878 17.3857 8.92502 17.3857 8.93125 17.3857C8.93749 17.3857 8.94373 17.3857 8.94998 17.3857C8.95622 17.3857 8.96247 17.3857 8.96872 17.3857C8.97497 17.3857 8.98123 17.3857 8.98748 17.3857C8.99374 17.3857 9 17.3857 9.00626 17.3857C9.01253 17.3857 9.01879 17.3857 9.02506 17.3857C9.03133 17.3857 9.03761 17.3857 9.04388 17.3857C9.05016 17.3857 9.05644 17.3857 9.06272 17.3857C9.069 17.3857 9.07528 17.3857 9.08157 17.3857C9.08786 17.3857 9.09415 17.3857 9.10044 17.3857C9.10673 17.3857 9.11303 17.3857 9.11933 17.3857C9.12562 17.3857 9.13193 17.3857 9.13823 17.3857C9.14453 17.3857 9.15084 17.3857 9.15715 17.3857C9.16346 17.3857 9.16977 17.3857 9.17608 17.3857C9.1824 17.3857 9.18871 17.3857 9.19503 17.3857C9.20135 17.3857 9.20768 17.3857 9.214 17.3857C9.22032 17.3857 9.22665 17.3857 9.23298 17.3857C9.23931 17.3857 9.24564 17.3857 9.25198 17.3857C9.25831 17.3857 9.26465 17.3857 9.27099 17.3857C9.27733 17.3857 9.28367 17.3857 9.29001 17.3857C9.29635 17.3857 9.3027 17.3857 9.30905 17.3857C9.3154 17.3857 9.32175 17.3857 9.3281 17.3857C9.33445 17.3857 9.34081 17.3857 9.34716 17.3857C9.35352 17.3857 9.35988 17.3857 9.36624 17.3857C9.3726 17.3857 9.37896 17.3857 9.38533 17.3857C9.39169 17.3857 9.39806 17.3857 9.40443 17.3857C9.4108 17.3857 9.41717 17.3857 9.42354 17.3857C9.42991 17.3857 9.43629 17.3857 9.44267 17.3857C9.44904 17.3857 9.45542 17.3857 9.4618 17.3857C9.46818 17.3857 9.47456 17.3857 9.48095 17.3857C9.48733 17.3857 9.49372 17.3857 9.5001 17.3857C9.50649 17.3857 9.51288 17.3857 9.51927 17.3857C9.52566 17.3857 9.53205 17.3857 9.53845 17.3857C9.54484 17.3857 9.55124 17.3857 9.55763 17.3857C9.56403 17.3857 9.57043 17.3857 9.57683 17.3857C9.58323 17.3857 9.58963 17.3857 9.59603 17.3857C9.60244 17.3857 9.60884 17.3857 9.61525 17.3857C9.62165 17.3857 9.62806 17.3857 9.63447 17.3857C9.64088 17.3857 9.64729 17.3857 9.6537 17.3857C9.66011 17.3857 9.66652 17.3857 9.67293 17.3857C9.67935 17.3857 9.68576 17.3857 9.69218 17.3857C9.69859 17.3857 9.70501 17.3857 9.71143 17.3857C9.71785 17.3857 9.72427 17.3857 9.73069 17.3857C9.73711 17.3857 9.74353 17.3857 9.74995 17.3857C9.75638 17.3857 9.7628 17.3857 9.76922 17.3857C9.77565 17.3857 9.78207 17.3857 9.7885 17.3857C9.79493 17.3857 9.80135 17.3857 9.80778 17.3857C9.81421 17.3857 9.82064 17.3857 9.82707 17.3857C9.8335 17.3857 9.83993 17.3857 9.84636 17.3857C9.85279 17.3857 9.85922 17.3857 9.86566 17.3857C9.87209 17.3857 9.87852 17.3857 9.88496 17.3857C9.89139 17.3857 9.89783 17.3857 9.90426 17.3857C9.9107 17.3857 9.91713 17.3857 9.92357 17.3857C9.93 17.3857 9.93644 17.3857 9.94288 17.3857C9.94932 17.3857 9.95575 17.3857 9.96219 17.3857C9.96863 17.3857 9.97507 17.3857 9.98151 17.3857C9.98795 17.3857 9.99439 17.3857 10.0008 17.3857C10.0073 17.3857 10.0137 17.3857 10.0201 17.3857C10.0266 17.3857 10.033 17.3857 10.0395 17.3857C10.0459 17.3857 10.0524 17.3857 10.0588 17.3857C10.0652 17.3857 10.0717 17.3857 10.0781 17.3857C10.0846 17.3857 10.091 17.3857 10.0974 17.3857C10.1039 17.3857 10.1103 17.3857 10.1168 17.3857C10.1232 17.3857 10.1297 17.3857 10.1361 17.3857C10.1425 17.3857 10.149 17.3857 10.1554 17.3857C10.1619 17.3857 10.1683 17.3857 10.1747 17.3857C10.1812 17.3857 10.1876 17.3857 10.1941 17.3857C10.2005 17.3857 10.207 17.3857 10.2134 17.3857C10.2198 17.3857 10.2263 17.3857 10.2327 17.3857C10.2392 17.3857 10.2456 17.3857 10.252 17.3857C10.2585 17.3857 10.2649 17.3857 10.2714 17.3857C10.2778 17.3857 10.2842 17.3857 10.2907 17.3857C10.2971 17.3857 10.3035 17.3857 10.31 17.3857C10.3164 17.3857 10.3229 17.3857 10.3293 17.3857C10.3357 17.3857 10.3422 17.3857 10.3486 17.3857C10.355 17.3857 10.3615 17.3857 10.3679 17.3857C10.3743 17.3857 10.3808 17.3857 10.3872 17.3857C10.3936 17.3857 10.4001 17.3857 10.4065 17.3857C10.4129 17.3857 10.4194 17.3857 10.4258 17.3857C10.4322 17.3857 10.4386 17.3857 10.4451 17.3857C10.4515 17.3857 10.4579 17.3857 10.4643 17.3857C10.4708 17.3857 10.4772 17.3857 10.4836 17.3857C10.49 17.3857 10.4965 17.3857 10.5029 17.3857C10.5093 17.3857 10.5157 17.3857 10.5221 17.3857C10.5286 17.3857 10.535 17.3857 10.5414 17.3857C10.5478 17.3857 10.5542 17.3857 10.5606 17.3857C10.5671 17.3857 10.5735 17.3857 10.5799 17.3857C10.5863 17.3857 10.5927 17.3857 10.5991 17.3857C10.6055 17.3857 10.6119 17.3857 10.6183 17.3857C10.6248 17.3857 10.6312 17.3857 10.6376 17.3857C10.644 17.3857 10.6504 17.3857 10.6568 17.3857C10.6632 17.3857 10.6696 17.3857 10.676 17.3857C10.6824 17.3857 10.6888 17.3857 10.6952 17.3857C10.7016 17.3857 10.708 17.3857 10.7143 17.3857C10.7207 17.3857 10.7271 17.3857 10.7335 17.3857C10.7399 17.3857 10.7463 17.3857 10.7527 17.3857C10.7591 17.3857 10.7654 17.3857 10.7718 17.3857C10.7782 17.3857 10.7846 17.3857 10.791 17.3857C10.7973 17.3857 10.8037 17.3857 10.8101 17.3857C10.8165 17.3857 10.8228 17.3857 10.8292 17.3857C10.8356 17.3857 10.842 17.3857 10.8483 17.3857C10.8547 17.3857 10.8611 17.3857 10.8674 17.3857C10.8738 17.3857 10.8801 17.3857 10.8865 17.3857C10.8929 17.3857 10.8992 17.3857 10.9056 17.3857C10.9119 17.3857 10.9183 17.3857 10.9246 17.3857C10.931 17.3857 10.9373 17.3857 10.9437 17.3857C10.95 17.3857 10.9564 17.3857 10.9627 17.3857C10.969 17.3857 10.9754 17.3857 10.9817 17.3857C10.9881 17.3857 10.9944 17.3857 11.0007 17.3857C11.0071 17.3857 11.0134 17.3857 11.0197 17.3857C11.026 17.3857 11.0324 17.3857 11.0387 17.3857C11.045 17.3857 11.0513 17.3857 11.0576 17.3857C11.064 17.3857 11.0703 17.3857 11.0766 17.3857C11.0829 17.3857 11.0892 17.3857 11.0955 17.3857C11.1018 17.3857 11.1081 17.3857 11.1144 17.3857C11.1207 17.3857 11.127 17.3857 11.1333 17.3857C11.1396 17.3857 11.1459 17.3857 11.1522 17.3857C11.1585 17.3857 11.1648 17.3857 11.1711 17.3857C11.1773 17.3857 11.1836 17.3857 11.1899 17.3857C11.1962 17.3857 11.2025 17.3857 11.2087 17.3857C11.215 17.3857 11.2213 17.3857 11.2275 17.3857C11.2338 17.3857 11.2401 17.3857 11.2463 17.3857C11.2526 17.3857 11.2588 17.3857 11.2651 17.3857C11.2713 17.3857 11.2776 17.3857 11.2838 17.3857C11.2901 17.3857 11.2963 17.3857 11.3026 17.3857C11.3088 17.3857 11.3151 17.3857 11.3213 17.3857C11.3275 17.3857 11.3338 17.3857 11.34 17.3857C11.3462 17.3857 11.3524 17.3857 11.3587 17.3857C11.3649 17.3857 11.3711 17.3857 11.3773 17.3857C11.3835 17.3857 11.3897 17.3857 11.3959 17.3857C11.4022 17.3857 11.4084 17.3857 11.4146 17.3857C11.4208 17.3857 11.427 17.3857 11.4331 17.3857C11.4393 17.3857 11.4455 17.3857 11.4517 17.3857C11.4579 17.3857 11.4641 17.3857 11.4703 17.3857C11.4764 17.3857 11.4826 17.3857 11.4888 17.3857C11.495 17.3857 11.5011 17.3857 11.5073 17.3857C11.5134 17.3857 11.5196 17.3857 11.5258 17.3857C11.5319 17.3857 11.5381 17.3857 11.5442 17.3857C11.5504 17.3857 11.5565 17.3857 11.5626 17.3857C11.5688 17.3857 11.5749 17.3857 11.5811 17.3857C11.5872 17.3857 11.5933 17.3857 11.5994 17.3857C11.6056 17.3857 11.6117 17.3857 11.6178 17.3857C11.6239 17.3857 11.63 17.3857 11.6361 17.3857C11.6422 17.3857 11.6483 17.3857 11.6544 17.3857C11.6605 17.3857 11.6666 17.3857 11.6727 17.3857C11.6788 17.3857 11.6849 17.3857 11.691 17.3857C11.6971 17.3857 11.7031 17.3857 11.7092 17.3857C11.7153 17.3857 11.7214 17.3857 11.7274 17.3857C11.7335 17.3857 11.7395 17.3857 11.7456 17.3857C11.7516 17.3857 11.7577 17.3857 11.7637 17.3857C11.7698 17.3857 11.7758 17.3857 11.7819 17.3857C11.7879 17.3857 11.7939 17.3857 11.8 17.3857C11.806 17.3857 11.812 17.3857 11.818 17.3857C11.824 17.3857 11.8301 17.3857 11.8361 17.3857C11.8421 17.3857 11.8481 17.3857 11.8541 17.3857C11.8601 17.3857 11.8661 17.3857 11.8721 17.3857C11.878 17.3857 11.884 17.3857 11.89 17.3857C11.896 17.3857 11.902 17.3857 11.9079 17.3857C11.9139 17.3857 11.9199 17.3857 11.9258 17.3857C11.9318 17.3857 11.9377 17.3857 11.9437 17.3857C11.9496 17.3857 11.9556 17.3857 11.9615 17.3857C11.9675 17.3857 11.9734 17.3857 11.9793 17.3857C11.9852 17.3857 11.9912 17.3857 11.9971 17.3857C12.003 17.3857 12.0089 17.3857 12.0148 17.3857C12.0207 17.3857 12.0266 17.3857 12.0325 17.3857C12.0384 17.3857 12.0443 17.3857 12.0502 17.3857C12.0561 17.3857 12.062 17.3857 12.0678 17.3857C12.0737 17.3857 12.0796 17.3857 12.0855 17.3857C12.0913 17.3857 12.0972 17.3857 12.103 17.3857C12.1089 17.3857 12.1147 17.3857 12.1206 17.3857C12.1264 17.3857 12.1323 17.3857 12.1381 17.3857C12.1439 17.3857 12.1497 17.3857 12.1556 17.3857C12.1614 17.3857 12.1672 17.3857 12.173 17.3857C12.1788 17.3857 12.1846 17.3857 12.1904 17.3857C12.1962 17.3857 12.202 17.3857 12.2078 17.3857C12.2136 17.3857 12.2193 17.3857 12.2251 17.3857C12.2309 17.3857 12.2366 17.3857 12.2424 17.3857C12.2482 17.3857 12.2539 17.3857 12.2597 17.3857C12.2654 17.3857 12.2712 17.3857 12.2769 17.3857C12.2826 17.3857 12.2884 17.3857 12.2941 17.3857C12.2998 17.3857 12.3055 17.3857 12.3112 17.3857C12.317 17.3857 12.3227 17.3857 12.3284 17.3857C12.3341 17.3857 12.3398 17.3857 12.3454 17.3857C12.3511 17.3857 12.3568 17.3857 12.3625 17.3857C12.3682 17.3857 12.3738 17.3857 12.3795 17.3857C12.3851 17.3857 12.3908 17.3857 12.3964 17.3857C12.4021 17.3857 12.4077 17.3857 12.4134 17.3857C12.419 17.3857 12.4246 17.3857 12.4303 17.3857C12.4359 17.3857 12.4415 17.3857 12.4471 17.3857C12.4527 17.3857 12.4583 17.3857 12.4639 17.3857C12.4695 17.3857 12.4751 17.3857 12.4807 17.3857C12.4863 17.3857 12.4918 17.3857 12.4974 17.3857C12.503 17.3857 12.5085 17.3857 12.5141 17.3857C12.5197 17.3857 12.5252 17.3857 12.5307 17.3857C12.5363 17.3857 12.5418 17.3857 12.5473 17.3857C12.5529 17.3857 12.5584 17.3857 12.5639 17.3857C12.5694 17.3857 12.5749 17.3857 12.5804 17.3857C12.5859 17.3857 12.5914 17.3857 12.5969 17.3857C12.6024 17.3857 12.6079 17.3857 12.6133 17.3857C12.6188 17.3857 12.6243 17.3857 12.6297 17.3857C12.6352 17.3857 12.6406 17.3857 12.6461 17.3857C12.6515 17.3857 12.657 17.3857 12.6624 17.3857C12.6678 17.3857 12.6732 17.3857 12.6787 17.3857C12.6841 17.3857 12.6895 17.3857 12.6949 17.3857C12.7003 17.3857 12.7057 17.3857 12.711 17.3857C12.7164 17.3857 12.7218 17.3857 12.7272 17.3857C12.7325 17.3857 12.7379 17.3857 12.7433 17.3857C12.7486 17.3857 12.754 17.3857 12.7593 17.3857C12.7646 17.3857 12.77 17.3857 12.7753 17.3857C12.7806 17.3857 12.7859 17.3857 12.7912 17.3857C12.7965 17.3857 12.8018 17.3857 12.8071 17.3857C12.8124 17.3857 12.8177 17.3857 12.823 17.3857C12.8283 17.3857 12.8335 17.3857 12.8388 17.3857C12.8441 17.3857 12.8493 17.3857 12.8546 17.3857C12.8598 17.3857 12.865 17.3857 12.8703 17.3857C12.8755 17.3857 12.8807 17.3857 12.8859 17.3857C12.8911 17.3857 12.8963 17.3857 12.9015 17.3857C12.9067 17.3857 12.9119 17.3857 12.9171 17.3857C12.9223 17.3857 12.9275 17.3857 12.9326 17.3857C12.9378 17.3857 12.9429 17.3857 12.9481 17.3857C12.9532 17.3857 12.9584 17.3857 12.9635 17.3857C12.9686 17.3857 12.9738 17.3857 12.9789 17.3857C12.984 17.3857 12.9891 17.3857 12.9942 17.3857C12.9993 17.3857 13.0044 17.3857 13.0095 17.3857C13.0146 17.3857 13.0196 17.3857 13.0247 17.3857C13.0298 17.3857 13.0348 17.3857 13.0399 17.3857C13.0449 17.3857 13.0499 17.3857 13.055 17.3857C13.06 17.3857 13.065 17.3857 13.07 17.3857C13.075 17.3857 13.0801 17.3857 13.085 17.3857C13.09 17.3857 13.095 17.3857 13.1 17.3857C13.105 17.3857 13.11 17.3857 13.1149 17.3857C13.1199 17.3857 13.1248 17.3857 13.1298 17.3857C13.1347 17.3857 13.1396 17.3857 13.1446 17.3857C13.1495 17.3857 13.1544 17.3857 13.1593 17.3857C13.1642 17.3857 13.1691 17.3857 13.174 17.3857C13.1789 17.3857 13.1838 17.3857 13.1886 17.3857C13.1935 17.3857 13.1984 17.3857 13.2032 17.3857C13.2081 17.3857 13.2129 17.3857 13.2178 17.3857C13.2226 17.3857 13.2274 17.3857 13.2322 17.3857C13.237 17.3857 13.2418 17.3857 13.2466 17.3857C13.2514 17.3857 13.2562 17.3857 13.261 17.3857C13.2658 17.3857 13.2706 17.3857 13.2753 17.3857C13.2801 17.3857 13.2848 17.3857 13.2896 17.3857C13.2943 17.3857 13.299 17.3857 13.3038 17.3857C13.3085 17.3857 13.3132 17.3857 13.3179 17.3857C13.3226 17.3857 13.3273 17.3857 13.332 17.3857C13.3367 17.3857 13.3413 17.3857 13.346 17.3857C13.3507 17.3857 13.3553 17.3857 13.36 17.3857C13.3646 17.3857 13.3692 17.3857 13.3739 17.3857C13.3785 17.3857 13.3831 17.3857 13.3877 17.3857C13.3923 17.3857 13.3969 17.3857 13.4015 17.3857C13.4061 17.3857 13.4106 17.3857 13.4152 17.3857C13.4198 17.3857 13.4243 17.3857 13.4289 17.3857C13.4334 17.3857 13.438 17.3857 13.4425 17.3857C13.447 17.3857 13.4515 17.3857 13.456 17.3857C13.4605 17.3857 13.465 17.3857 13.4695 17.3857C13.474 17.3857 13.4785 17.3857 13.4829 17.3857C13.4874 17.3857 13.4919 17.3857 13.4963 17.3857C13.5008 17.3857 13.5052 17.3857 13.5096 17.3857C13.514 17.3857 13.5185 17.3857 13.5229 17.3857C13.5273 17.3857 13.5317 17.3857 13.536 17.3857C13.5404 17.3857 13.5448 17.3857 13.5491 17.3857C13.5535 17.3857 13.5579 17.3857 13.5622 17.3857C13.5665 17.3857 13.5709 17.3857 13.5752 17.3857C13.5795 17.3857 13.5838 17.3857 13.5881 17.3857C13.5924 17.3857 13.5967 17.3857 13.601 17.3857C13.6053 17.3857 13.6095 17.3857 13.6138 17.3857C13.618 17.3857 13.6223 17.3857 13.6265 17.3857C13.6308 17.3857 13.635 17.3857 13.6392 17.3857C13.6434 17.3857 13.6476 17.3857 13.6518 17.3857C13.656 17.3857 13.6602 17.3857 13.6643 17.3857C13.6685 17.3857 13.6727 17.3857 13.6768 17.3857C13.681 17.3857 13.6851 17.3857 13.6892 17.3857C13.6933 17.3857 13.6975 17.3857 13.7016 17.3857C13.7057 17.3857 13.7098 17.3857 13.7138 17.3857C13.7179 17.3857 13.722 17.3857 13.726 17.3857C13.7301 17.3857 13.7341 17.3857 13.7382 17.3857C13.7422 17.3857 13.7462 17.3857 13.7503 17.3857C13.7543 17.3857 13.7583 17.3857 13.7623 17.3857C13.7663 17.3857 13.7702 17.3857 13.7742 17.3857C13.7782 17.3857 13.7821 17.3857 13.7861 17.3857C13.79 17.3857 13.7939 17.3857 13.7979 17.3857C13.8018 17.3857 13.8057 17.3857 13.8096 17.3857C13.8135 17.3857 13.8174 17.3857 13.8213 17.3857C13.8251 17.3857 13.829 17.3857 13.8329 17.3857C13.8367 17.3857 13.8405 17.3857 13.8444 17.3857C13.8482 17.3857 13.852 17.3857 13.8558 17.3857C13.8596 17.3857 13.8634 17.3857 13.8672 17.3857C13.871 17.3857 13.8748 17.3857 13.8785 17.3857C13.8823 17.3857 13.886 17.3857 13.8898 17.3857C13.8935 17.3857 13.8972 17.3857 13.9009 17.3857C13.9046 17.3857 13.9083 17.3857 13.912 17.3857C13.9157 17.3857 13.9194 17.3857 13.923 17.3857C13.9267 17.3857 13.9303 17.3857 13.934 17.3857C13.9376 17.3857 13.9413 17.3857 13.9449 17.3857C13.9485 17.3857 13.9521 17.3857 13.9557 17.3857C13.9593 17.3857 13.9628 17.3857 13.9664 17.3857C13.97 17.3857 13.9735 17.3857 13.9771 17.3857C13.9806 17.3857 13.9841 17.3857 13.9876 17.3857C13.9912 17.3857 13.9947 17.3857 13.9981 17.3857C14.0016 17.3857 14.0051 17.3857 14.0086 17.3857C14.012 17.3857 14.0155 17.3857 14.0189 17.3857C14.0224 17.3857 14.0258 17.3857 14.0292 17.3857C14.0326 17.3857 14.036 17.3857 14.0394 17.3857C14.0428 17.3857 14.0462 17.3857 14.0496 17.3857C14.0529 17.3857 14.0563 17.3857 14.0596 17.3857C14.0629 17.3857 14.0663 17.3857 14.0696 17.3857C14.0729 17.3857 14.0762 17.3857 14.0795 17.3857C14.0828 17.3857 14.086 17.3857 14.0893 17.3857C14.0926 17.3857 14.0958 17.3857 14.0991 17.3857C14.1023 17.3857 14.1055 17.3857 14.1087 17.3857C14.1119 17.3857 14.1151 17.3857 14.1183 17.3857C14.1215 17.3857 14.1247 17.3857 14.1278 17.3857C14.131 17.3857 14.1341 17.3857 14.1373 17.3857C14.1404 17.3857 14.1435 17.3857 14.1466 17.3857C14.1497 17.3857 14.1528 17.3857 14.1559 17.3857C14.159 17.3857 14.162 17.3857 14.1651 17.3857C14.1681 17.3857 14.1712 17.3857 14.1742 17.3857C14.1772 17.3857 14.1802 17.3857 14.1832 17.3857C14.1862 17.3857 14.1892 17.3857 14.1922 17.3857C14.1951 17.3857 14.1981 17.3857 14.201 17.3857C14.204 17.3857 14.2069 17.3857 14.2098 17.3857C14.2127 17.3857 14.2156 17.3857 14.2185 17.3857C14.2214 17.3857 14.2243 17.3857 14.2272 17.3857C14.23 17.3857 14.2329 17.3857 14.2357 17.3857C14.2385 17.3857 14.2414 17.3857 14.2442 17.3857C14.247 17.3857 14.2498 17.3857 14.2525 17.3857C14.2553 17.3857 14.2581 17.3857 14.2608 17.3857C14.2636 17.3857 14.2663 17.3857 14.269 17.3857C14.2718 17.3857 14.2745 17.3857 14.2772 17.3857C14.2799 17.3857 14.2825 17.3857 14.2852 17.3857C14.2879 17.3857 14.2905 17.3857 14.2932 17.3857C14.2958 17.3857 14.2984 17.3857 14.301 17.3857C14.3037 17.3857 14.3062 17.3857 14.3088 17.3857C14.3114 17.3857 14.314 17.3857 14.3165 17.3857C14.3191 17.3857 14.3216 17.3857 14.3241 17.3857C14.3267 17.3857 14.3292 17.3857 14.3317 17.3857C14.3342 17.3857 14.3367 17.3857 14.3391 17.3857C14.3416 17.3857 14.344 17.3857 14.3465 17.3857C14.3489 17.3857 14.3513 17.3857 14.3537 17.3857C14.3562 17.3857 14.3585 17.3857 14.3609 17.3857C14.3633 17.3857 14.3657 17.3857 14.368 17.3857C14.3704 17.3857 14.3727 17.3857 14.375 17.3857C14.3773 17.3857 14.3797 17.3857 14.3819 17.3857C14.3842 17.3857 14.3865 17.3857 14.3888 17.3857C14.391 17.3857 14.3933 17.3857 14.3955 17.3857C14.3977 17.3857 14.4 17.3857 14.4022 17.3857C14.4044 17.3857 14.4065 17.3857 14.4087 17.3857C14.4109 17.3857 14.413 17.3857 14.4152 17.3857C14.4173 17.3857 14.4195 17.3857 14.4216 17.3857C14.4237 17.3857 14.4258 17.3857 14.4279 17.3857C14.4299 17.3857 14.432 17.3857 14.4341 17.3857C14.4361 17.3857 14.4381 17.3857 14.4402 17.3857C14.4422 17.3857 14.4442 17.3857 14.4462 17.3857C14.4482 17.3857 14.4501 17.3857 14.4521 17.3857C14.4541 17.3857 14.456 17.3857 14.4579 17.3857C14.4599 17.3857 14.4618 17.3857 14.4637 17.3857C14.4656 17.3857 14.4675 17.3857 14.4693 17.3857C14.4712 17.3857 14.473 17.3857 14.4749 17.3857C14.4767 17.3857 14.4785 17.3857 14.4803 17.3857C14.4821 17.3857 14.4839 17.3857 14.4857 17.3857C14.4875 17.3857 14.4892 17.3857 14.491 17.3857C14.4927 17.3857 14.4944 17.3857 14.4962 17.3857C14.4979 17.3857 14.4996 17.3857 14.5012 17.3857C14.5029 17.3857 14.5046 17.3857 14.5062 17.3857C14.5079 17.3857 14.5095 17.3857 14.5111 17.3857C14.5127 17.3857 14.5143 17.3857 14.5159 17.3857C14.5175 17.3857 14.5191 17.3857 14.5206 17.3857C14.5222 17.3857 14.5237 17.3857 14.5252 17.3857C14.5267 17.3857 14.5282 17.3857 14.5297 17.3857C14.5312 17.3857 14.5327 17.3857 14.5341 17.3857C14.5356 17.3857 14.537 17.3857 14.5385 17.3857C14.5399 17.3857 14.5413 17.3857 14.5427 17.3857C14.5441 17.3857 14.5454 17.3857 14.5468 17.3857C14.5481 17.3857 14.5495 17.3857 14.5508 17.3857C14.5521 17.3857 14.5534 17.3857 14.5547 17.3857C14.556 17.3857 14.5573 17.3857 14.5586 17.3857C14.5598 17.3857 14.5611 17.3857 14.5623 17.3857C14.5635 17.3857 14.5647 17.3857 14.5659 17.3857C14.5671 17.3857 14.5683 17.3857 14.5694 17.3857C14.5706 17.3857 14.5717 17.3857 14.5729 17.3857C14.574 17.3857 14.5751 17.3857 14.5762 17.3857C14.5773 17.3857 14.5783 17.3857 14.5794 17.3857C14.5805 17.3857 14.5815 17.3857 14.5825 17.3857C14.5836 17.3857 14.5846 17.3857 14.5855 17.3857C14.5865 17.3857 14.5875 17.3857 14.5885 17.3857C14.5894 17.3857 14.5904 17.3857 14.5913 17.3857C14.5922 17.3857 14.5931 17.3857 14.594 17.3857C14.5949 17.3857 14.5958 17.3857 14.5966 17.3857C14.5975 17.3857 14.5983 17.3857 14.5991 17.3857C14.5999 17.3857 14.6007 17.3857 14.6015 17.3857C14.6023 17.3857 14.6031 17.3857 14.6038 17.3857C14.6046 17.3857 14.6053 17.3857 14.606 17.3857C14.6067 17.3857 14.6074 17.3857 14.6081 17.3857C14.6088 17.3857 14.6095 17.3857 14.6101 17.3857C14.6108 17.3857 14.6114 17.3857 14.612 17.3857C14.6126 17.3857 14.6132 17.3857 14.6138 17.3857C14.6144 17.3857 14.6149 17.3857 14.6155 17.3857C14.616 17.3857 14.6165 17.3857 14.617 17.3857C14.6175 17.3857 14.618 17.3857 14.6185 17.3857C14.619 17.3857 14.6194 17.3857 14.6198 17.3857C14.6203 17.3857 14.6207 17.3857 14.6211 17.3857C14.6215 17.3857 14.6219 17.3857 14.6222 17.3857C14.6226 17.3857 14.6229 17.3857 14.6233 17.3857C14.6236 17.3857 14.6239 17.3857 14.6242 17.3857C14.6245 17.3857 14.6248 17.3857 14.625 17.3857C14.6253 17.3857 14.6255 17.3857 14.6257 17.3857C14.626 17.3857 14.6262 17.3857 14.6263 17.3857C14.6265 17.3857 14.6267 17.3857 14.6268 17.3857C14.627 17.3857 14.6271 17.3857 14.6272 17.3857C14.6273 17.3857 14.6274 17.3857 14.6275 17.3857C14.6276 17.3857 14.6276 17.3857 14.6277 17.3857C14.6277 17.3857 14.6277 17.3857 14.6277 16.8857ZM17.142 13.7429C16.8876 13.3125 16.8875 13.3125 16.8875 13.3125C16.8874 13.3125 16.8874 13.3126 16.8873 13.3126C16.8872 13.3127 16.8871 13.3127 16.887 13.3128C16.8867 13.313 16.8863 13.3132 16.8859 13.3135C16.885 13.314 16.8839 13.3146 16.8825 13.3155C16.8796 13.3172 16.8757 13.3196 16.8707 13.3226C16.8606 13.3286 16.8463 13.3373 16.8281 13.3484C16.7918 13.3707 16.7402 13.4028 16.677 13.4434C16.5508 13.5243 16.3769 13.6397 16.1856 13.7782C15.815 14.0465 15.3338 14.4332 15.0271 14.8437L15.8283 15.4421C16.0389 15.1601 16.4148 14.8468 16.772 14.5882C16.9447 14.4633 17.1024 14.3585 17.2168 14.2851C17.2739 14.2486 17.3198 14.22 17.351 14.2008C17.3666 14.1913 17.3785 14.1841 17.3862 14.1794C17.3901 14.1771 17.3929 14.1754 17.3946 14.1744C17.3955 14.1739 17.3961 14.1735 17.3964 14.1734C17.3965 14.1733 17.3966 14.1732 17.3966 14.1732C17.3966 14.1732 17.3966 14.1732 17.3966 14.1732C17.3965 14.1732 17.3965 14.1733 17.3965 14.1733C17.3965 14.1733 17.3964 14.1733 17.142 13.7429ZM15.0271 14.8437C14.7616 15.1991 14.542 15.6864 14.3953 16.054C14.3196 16.2436 14.2587 16.4132 14.2168 16.5355C14.1957 16.5968 14.1793 16.6466 14.168 16.6815C14.1624 16.6989 14.158 16.7127 14.1549 16.7224C14.1534 16.7272 14.1522 16.731 14.1514 16.7337C14.1509 16.7351 14.1506 16.7362 14.1503 16.737C14.1502 16.7374 14.1501 16.7378 14.15 16.738C14.15 16.7382 14.1499 16.7383 14.1499 16.7384C14.1499 16.7384 14.1499 16.7385 14.1499 16.7385C14.1499 16.7386 14.1498 16.7386 14.6277 16.8857C15.1056 17.0329 15.1056 17.0329 15.1056 17.0329C15.1056 17.033 15.1055 17.033 15.1055 17.033C15.1055 17.033 15.1055 17.033 15.1055 17.033C15.1055 17.033 15.1055 17.033 15.1056 17.0328C15.1057 17.0325 15.1059 17.032 15.1061 17.0312C15.1066 17.0295 15.1075 17.0268 15.1086 17.0232C15.1109 17.0158 15.1146 17.0044 15.1194 16.9895C15.1291 16.9595 15.1437 16.9153 15.1626 16.8601C15.2006 16.7494 15.2557 16.5957 15.324 16.4247C15.4653 16.0708 15.6456 15.6867 15.8283 15.4421L15.0271 14.8437ZM7.21083 16.8857C7.71083 16.8857 7.71083 16.8856 7.71083 16.8854C7.71083 16.8854 7.71083 16.8852 7.71083 16.8851C7.71083 16.8849 7.71083 16.8846 7.71083 16.8843C7.71083 16.8837 7.71083 16.883 7.71082 16.8822C7.71082 16.8806 7.7108 16.8786 7.71078 16.8761C7.71073 16.8712 7.71065 16.8647 7.7105 16.8566C7.71019 16.8403 7.7096 16.8178 7.70848 16.7897C7.70624 16.7334 7.70183 16.6545 7.69319 16.5585C7.67599 16.3676 7.64155 16.1043 7.57178 15.8163C7.43819 15.2647 7.14763 14.5079 6.4812 14.0795L5.94046 14.9207C6.27403 15.1351 6.48348 15.5711 6.59988 16.0517C6.65512 16.2797 6.68317 16.4923 6.69722 16.6482C6.7042 16.7257 6.70762 16.788 6.70928 16.8296C6.71011 16.8503 6.7105 16.8659 6.71068 16.8755C6.71077 16.8803 6.71081 16.8836 6.71082 16.8853C6.71083 16.8862 6.71083 16.8867 6.71083 16.8868C6.71083 16.8868 6.71083 16.8867 6.71083 16.8866C6.71083 16.8865 6.71083 16.8864 6.71083 16.8862C6.71083 16.8862 6.71083 16.886 6.71083 16.886C6.71083 16.8859 6.71083 16.8857 7.21083 16.8857Z" fill="#2A65C5"/>
<g id="Group 553788">
<circle id="Ellipse 111" cx="4" cy="17" r="1.7" stroke="#2A65C5" stroke-width="0.6"/>
<circle id="Ellipse 112" cx="4.00167" cy="17.0017" r="0.685714" stroke="#2A65C5" stroke-width="0.342857"/>
</g>
<g id="Group 553787">
<circle id="Ellipse 111_2" cx="18" cy="17" r="1.7" stroke="#2A65C5" stroke-width="0.6"/>
<circle id="Ellipse 112_2" cx="18.0017" cy="17.0017" r="0.685714" stroke="#2A65C5" stroke-width="0.342857"/>
</g>
</g>
</g>
</svg>
