<svg width="24" height="24" viewBox="0 0 24 24" fill="none" xmlns="http://www.w3.org/2000/svg">
<g id="Type=search">
<path id="Vector" d="M19.4697 20.5303C19.7626 20.8232 20.2374 20.8232 20.5303 20.5303C20.8232 20.2374 20.8232 19.7626 20.5303 19.4697L19.4697 20.5303ZM10.84 16.93C7.47659 16.93 4.75 14.2034 4.75 10.84H3.25C3.25 15.0318 6.64816 18.43 10.84 18.43V16.93ZM4.75 10.84C4.75 7.47659 7.47659 4.75 10.84 4.75V3.25C6.64816 3.25 3.25 6.64816 3.25 10.84H4.75ZM10.84 4.75C14.2034 4.75 16.93 7.47659 16.93 10.84H18.43C18.43 6.64816 15.0318 3.25 10.84 3.25V4.75ZM15.1463 16.2069L19.4697 20.5303L20.5303 19.4697L16.2069 15.1463L15.1463 16.2069ZM16.93 10.84C16.93 12.5219 16.2492 14.0434 15.1463 15.1463L16.2069 16.2069C17.5796 14.8342 18.43 12.9357 18.43 10.84H16.93ZM15.1463 15.1463C14.0434 16.2492 12.5219 16.93 10.84 16.93V18.43C12.9357 18.43 14.8342 17.5796 16.2069 16.2069L15.1463 15.1463Z" fill="#999999"/>
</g>
</svg>
