<svg width="24" height="24" viewBox="0 0 24 24" fill="none" xmlns="http://www.w3.org/2000/svg">
<g id="Type=self-delivery">
<g id="shop">
<path id="Vector" d="M21.9923 8.01102L20.5648 3.51102C20.5152 3.35578 20.4185 3.2219 20.2896 3.12981C20.1607 3.03771 20.0067 2.99248 19.8511 3.00102H4.14892C3.99328 2.99248 3.83925 3.03771 3.71037 3.12981C3.58149 3.2219 3.48484 3.35578 3.43518 3.51102L2.00771 8.01102C1.99743 8.09066 1.99743 8.17138 2.00771 8.25102V12.751C2.00771 12.9499 2.08291 13.1407 2.21676 13.2814C2.35061 13.422 2.53215 13.501 2.72145 13.501H3.43518V21.001H4.86265V13.501H9.14506V21.001H20.5648V13.501H21.2786C21.4678 13.501 21.6494 13.422 21.7832 13.2814C21.9171 13.1407 21.9923 12.9499 21.9923 12.751V8.25102C22.0026 8.17138 22.0026 8.09066 21.9923 8.01102ZM19.1374 19.501H10.5725V13.501H19.1374V19.501ZM20.5648 12.001H17.7099V9.00102H16.2824V12.001H12.7137V9.00102H11.2863V12.001H7.71759V9.00102H6.29012V12.001H3.43518V8.37102L4.66281 4.50102H19.3372L20.5648 8.37102V12.001Z" fill="#0E0E0E"/>
</g>
</g>
</svg>
