<svg width="24" height="24" viewBox="0 0 24 24" fill="none" xmlns="http://www.w3.org/2000/svg">
<g id="Type=service centre IOS">
<g id="wrench.and.screwdriver">
<g id="Group">
<path id="Vector" d="M9.13364 13.3139L9.78007 12.675L5.31562 8.14792C4.82406 7.65171 4.8308 7.13512 5.31562 6.63891L6.26508 5.67368C6.74317 5.18427 7.2684 5.19107 7.75996 5.68048L12.5679 10.527L13.2412 9.92203L8.467 5.06872C7.51755 4.11708 6.50749 4.11708 5.58497 5.04832L4.68938 5.95238C3.76687 6.88361 3.76687 7.90322 4.70959 8.85485L9.13364 13.3139ZM8.69595 10.2891C8.79696 10.3911 8.95857 10.3911 9.05284 10.2891C9.14711 10.194 9.15384 10.0376 9.05284 9.93561L6.53443 7.39342C6.44689 7.31185 6.27855 7.29825 6.17754 7.39342C6.08326 7.50217 6.07654 7.66531 6.17754 7.76047L8.69595 10.2891ZM9.5242 9.4598C9.61847 9.56177 9.79357 9.5482 9.88109 9.4598C9.9821 9.34426 9.9821 9.18792 9.88781 9.09276L7.36941 6.55734C7.2684 6.45538 7.10679 6.46218 7.01925 6.55734C6.91825 6.6593 6.92498 6.81564 7.01925 6.9108L9.5242 9.4598ZM18.1905 19.887L19.3958 18.6702C19.5373 18.5207 19.517 18.3032 19.3824 18.0925L17.975 15.9717C17.8336 15.761 17.6181 15.6114 17.3757 15.5774L16.7697 15.4823L13.5038 12.1855L12.8776 12.9129L16.3791 16.4339L17.1333 16.5631L18.4195 18.2896L17.8067 18.9082L16.103 17.6099L15.9683 16.8486L12.5005 13.3411L11.8675 14.0616L15.0256 17.2428L15.1199 17.8546C15.1536 18.0993 15.3085 18.3168 15.5105 18.4527L17.6181 19.8938C17.8336 20.0365 18.0423 20.0365 18.1905 19.887ZM5.05301 19.0849C6.22468 20.254 7.79363 20.2676 8.9451 19.0985C10.4265 17.5895 10.1572 15.8765 14.9112 11.098L14.3254 10.4998C9.14038 15.7542 9.92821 16.733 8.25826 18.4187C7.51082 19.18 6.50076 19.1869 5.71964 18.4119C4.94527 17.6166 4.95873 16.6038 5.69945 15.8494C7.38287 14.1568 8.35253 14.9589 13.551 9.72494L12.9651 9.13354C8.23133 13.9325 6.53443 13.6606 5.03954 15.1492C3.87461 16.3115 3.88807 17.9021 5.05301 19.0849ZM6.97212 18.0041C7.43001 18.0041 7.8071 17.6234 7.8071 17.1613C7.8071 16.699 7.43001 16.3252 6.97212 16.3252C6.51422 16.3252 6.14387 16.699 6.14387 17.1613C6.14387 17.6234 6.51422 18.0041 6.97212 18.0041ZM13.4298 10.6221C14.9718 12.1787 17.4296 12.2332 18.9245 10.7309C20.1366 9.50742 20.3453 7.57695 19.443 6.01355L18.7898 6.67969C19.3554 7.84884 19.1669 9.20832 18.2915 10.0988C17.1535 11.2475 15.2681 11.1931 14.0627 9.99002C12.8641 8.78008 12.817 6.86322 13.9617 5.72126C14.8371 4.8376 16.2041 4.64728 17.3286 5.22506L17.9885 4.55891C16.4532 3.65486 14.5476 3.85878 13.3355 5.08911C11.8473 6.58453 11.8945 9.06557 13.4298 10.6221ZM15.4701 7.57015L16.4666 8.56936C16.9649 9.07237 17.6047 9.08596 18.076 8.60335L19.4901 7.1691L18.8975 6.57773L17.6114 7.86243C17.4296 8.04596 17.2007 8.05956 17.0053 7.86243L16.1838 7.02636C15.9886 6.82244 15.9683 6.58453 16.1502 6.401L17.4498 5.1027L16.837 4.50453L15.4364 5.92518C14.9381 6.42139 14.9516 7.06034 15.4701 7.57015Z" fill="black"/>
</g>
</g>
</g>
</svg>
