<svg width="24" height="24" viewBox="0 0 24 24" fill="none" xmlns="http://www.w3.org/2000/svg">
<g id="Type=service centre">
<path id="Vector" d="M13.6246 19.5435V16.1544C14.1143 15.9103 14.5437 15.5583 14.8787 15.1231C15.2851 14.5951 15.5368 13.9654 15.6055 13.3037C15.6742 12.6419 15.5571 11.9743 15.2674 11.3748C14.9778 10.7753 14.527 10.2676 13.9653 9.90732L13.9548 9.90058L13.944 9.89436L13.6918 9.74984L12.9432 9.32084V10.1837V12.6078L12 13.1917L11.0566 12.6078V10.1843V9.3218L10.3082 9.75034L10.0544 9.89566L10.0433 9.90201L10.0326 9.90891C9.47144 10.2694 9.02115 10.7773 8.73193 11.3766C8.44269 11.9761 8.32593 12.6434 8.39478 13.3049C8.46363 13.9664 8.71536 14.5957 9.12171 15.1235C9.45662 15.5584 9.88576 15.9103 10.3752 16.1544V19.5429C10.3279 19.5262 10.2797 19.5113 10.2308 19.4984L10.2271 19.4973L10.2271 19.4973L10.2236 19.4964C9.3246 19.2573 8.54283 19.6945 7.98267 20.3628C7.82769 20.2804 7.67534 20.1931 7.52584 20.1012C7.8269 19.2863 7.8172 18.3944 7.15761 17.7394L7.15745 17.7393L7.15315 17.735C7.15312 17.735 7.15308 17.7349 7.15305 17.7349C6.49295 17.0797 5.59445 17.0719 4.77339 17.3735C4.68158 17.2266 4.59441 17.0769 4.51199 16.9246C5.18269 16.3699 5.62456 15.5932 5.38434 14.6975L5.38327 14.6934L5.38329 14.6934L5.38206 14.6889C5.13997 13.7922 4.36522 13.3393 3.50402 13.1925C3.49866 13.0203 3.49866 12.8481 3.50402 12.6759C4.36555 12.5291 5.14106 12.0763 5.38274 11.1788L5.38281 11.1786L5.38426 11.1732C5.38429 11.1731 5.38432 11.173 5.38435 11.1728C5.62624 10.2763 5.18435 9.49945 4.51414 8.94421C4.59669 8.79172 4.68396 8.64179 4.77582 8.49462C5.59642 8.7955 6.49395 8.78686 7.15309 8.13227C7.15315 8.13221 7.15322 8.13214 7.15328 8.13208L7.15729 8.1281L13.6246 19.5435ZM13.6246 19.5435C13.6727 19.5265 13.7215 19.5114 13.7711 19.4983L13.7765 19.4969L13.6246 19.5435ZM18.6176 11.1791L18.6174 11.1784L18.6159 11.1729L18.6176 11.1791ZM18.6176 11.1791C18.8597 12.0759 19.6346 12.5288 20.4958 12.6755C20.5013 12.8477 20.5014 13.02 20.4962 13.1922C19.6456 13.3371 18.879 13.7804 18.6271 14.6554M18.6176 11.1791L18.6271 14.6554M13.764 6.36722L13.7704 6.36913L13.7776 6.37103C14.6765 6.60993 15.4581 6.17269 16.0182 5.5044C16.1732 5.5869 16.3256 5.67416 16.4751 5.76602C16.1739 6.58101 16.1836 7.4731 16.8435 8.12791L16.8479 8.13221C17.5078 8.78731 18.4062 8.79526 19.2271 8.49385C19.3187 8.64088 19.4057 8.79069 19.488 8.94307C18.8166 9.49825 18.3744 10.2757 18.6158 11.1725L13.764 6.36722ZM13.764 6.36722C12.8689 6.12602 12.4134 5.35946 12.265 4.50413C12.0888 4.49862 11.9124 4.49862 11.7362 4.50413C11.5873 5.36146 11.1296 6.12917 10.2302 6.36842L10.2257 6.36961L10.2257 6.36959L10.2215 6.37067C9.32337 6.60802 8.54194 6.17066 7.98229 5.50179C7.82734 5.58411 7.67503 5.67121 7.52559 5.76298C7.82723 6.57843 7.81878 7.47226 7.15749 8.1279L13.764 6.36722ZM18.6271 14.6554L18.6239 14.6632L18.6153 14.6949C18.3735 15.5915 18.8153 16.3685 19.4856 16.9238C19.4031 17.0763 19.3158 17.2263 19.2239 17.3735C18.4035 17.073 17.506 17.0813 16.8467 17.7358L16.8423 17.7401C16.1819 18.3956 16.1727 19.2887 16.4747 20.1042C16.3253 20.1959 16.1731 20.283 16.0182 20.3652C15.4581 19.6959 14.676 19.2584 13.7769 19.4968L18.6271 14.6554Z" stroke="#2A65C5"/>
</g>
</svg>
