<svg width="24" height="24" viewBox="0 0 24 24" fill="none" xmlns="http://www.w3.org/2000/svg">
<g id="Type=settings IOS">
<path id="Vector" d="M11.2449 20H12.7552C13.3309 20 13.772 19.6483 13.9065 19.0945L14.228 17.695L14.4673 17.6127L15.686 18.3611C16.172 18.6679 16.7327 18.5931 17.144 18.1815L18.1907 17.1412C18.6019 16.7297 18.6766 16.1609 18.3701 15.682L17.6075 14.4696L17.6972 14.2451L19.0954 13.9158C19.6411 13.7811 20 13.3321 20 12.7634V11.2815C20 10.7128 19.6486 10.2638 19.0954 10.1291L17.7122 9.79232L17.6149 9.55285L18.3776 8.34051C18.6841 7.86155 18.6093 7.30028 18.1981 6.8812L17.1514 5.83349C16.7477 5.42937 16.187 5.35453 15.7009 5.65388L14.4823 6.40224L14.228 6.30496L13.9065 4.90552C13.772 4.35173 13.3309 4 12.7552 4H11.2449C10.6691 4 10.228 4.35173 10.0935 4.90552L9.76449 6.30496L9.51029 6.40224L8.29907 5.65388C7.81309 5.35453 7.24486 5.42937 6.84112 5.83349L5.80187 6.8812C5.39066 7.30028 5.30841 7.86155 5.62243 8.34051L6.37757 9.55285L6.28785 9.79232L4.90467 10.1291C4.3514 10.2638 4 10.7128 4 11.2815V12.7634C4 13.3321 4.35888 13.7811 4.90467 13.9158L6.30281 14.2451L6.38505 14.4696L5.62991 15.682C5.31589 16.1609 5.39813 16.7297 5.80935 17.1412L6.8486 18.1815C7.25982 18.5931 7.82804 18.6679 8.31402 18.3611L9.52524 17.6127L9.76449 17.695L10.0935 19.0945C10.228 19.6483 10.6691 20 11.2449 20ZM11.3645 18.8326C11.2374 18.8326 11.1701 18.7801 11.1477 18.6604L10.6991 16.8045C10.243 16.6922 9.81683 16.5127 9.49533 16.3105L7.86542 17.3134C7.77571 17.3807 7.67851 17.3658 7.58879 17.276L6.70655 16.3929C6.6243 16.3105 6.61682 16.2207 6.67664 16.116L7.67851 14.4995C7.50654 14.1852 7.31216 13.7586 7.19253 13.3021L5.33832 12.8606C5.2187 12.8381 5.16635 12.7708 5.16635 12.6436V11.3938C5.16635 11.2591 5.21122 11.1992 5.33832 11.1768L7.18505 10.7278C7.30468 10.2413 7.52898 9.79981 7.66356 9.52292L6.66916 7.90645C6.60187 7.7942 6.60935 7.70439 6.69159 7.61459L7.58131 6.74649C7.67103 6.65669 7.75327 6.64172 7.86542 6.70907L9.48038 7.68942C9.80188 7.50982 10.2579 7.32273 10.7065 7.19551L11.1477 5.33957C11.1701 5.21983 11.2374 5.16744 11.3645 5.16744H12.6356C12.7626 5.16744 12.8299 5.21983 12.8449 5.33957L13.3009 7.21047C13.7645 7.33021 14.1682 7.5173 14.5047 7.69691L16.1271 6.70907C16.2467 6.64172 16.3215 6.65669 16.4187 6.74649L17.301 7.61459C17.3907 7.70439 17.3907 7.7942 17.3234 7.90645L16.329 9.52292C16.4711 9.79981 16.6879 10.2413 16.8075 10.7278L18.6617 11.1768C18.7813 11.1992 18.8337 11.2591 18.8337 11.3938V12.6436C18.8337 12.7708 18.7738 12.8381 18.6617 12.8606L16.8 13.3021C16.6804 13.7586 16.4935 14.1852 16.314 14.4995L17.3159 16.116C17.3757 16.2207 17.3757 16.3105 17.286 16.3929L16.4112 17.276C16.314 17.3658 16.2243 17.3807 16.1271 17.3134L14.4972 16.3105C14.1757 16.5127 13.757 16.6922 13.3009 16.8045L12.8449 18.6604C12.8299 18.7801 12.7626 18.8326 12.6356 18.8326H11.3645ZM12 14.8587C13.5626 14.8587 14.8486 13.5716 14.8486 12C14.8486 10.4434 13.5626 9.15622 12 9.15622C10.4374 9.15622 9.14393 10.4434 9.14393 12C9.14393 13.5641 10.4299 14.8587 12 14.8587ZM12 13.6988C11.0729 13.6988 10.3103 12.9355 10.3103 12C10.3103 11.0795 11.0729 10.3162 12 10.3162C12.9122 10.3162 13.6748 11.0795 13.6748 12C13.6748 12.928 12.9122 13.6988 12 13.6988Z" fill="white" fill-opacity="0.85"/>
</g>
</svg>
