<svg width="24" height="24" viewBox="0 0 24 24" fill="none" xmlns="http://www.w3.org/2000/svg">
<g id="Type=settings">
<path id="Vector" d="M18.1975 10.527C18.0916 10.0359 17.9255 9.55982 17.7031 9.10969L18.4208 8.26092C18.5407 8.1283 18.6071 7.95559 18.6071 7.77647C18.6071 7.59734 18.5407 7.42464 18.4208 7.29202L17.2725 6.02686C17.1528 5.89296 16.988 5.80824 16.8099 5.78902C16.6318 5.76981 16.4528 5.81745 16.3076 5.92277L15.4064 6.57937C14.97 6.2943 14.4981 6.06815 14.0029 5.90675L13.9232 4.73767C13.8961 4.56367 13.8127 4.40348 13.6858 4.28189C13.559 4.16029 13.3958 4.08408 13.2214 4.06506L11.4989 4.001C11.3216 3.99153 11.1474 4.04988 11.0112 4.16429C10.8751 4.2787 10.7872 4.44067 10.7652 4.61756L10.5818 5.70656C10.0286 5.81244 9.49208 5.9929 8.98694 6.24306L8.18949 5.5224C8.05498 5.41041 7.88572 5.34912 7.71099 5.34912C7.53626 5.34912 7.36704 5.41041 7.23254 5.5224L5.96456 6.69147C5.83063 6.81298 5.74602 6.97981 5.7269 7.16004C5.70777 7.34027 5.75551 7.52125 5.86094 7.66837L6.48293 8.54918C6.18513 9.00297 5.95164 9.49615 5.78915 10.0145L4.77637 10.0866C4.59731 10.1071 4.43046 10.188 4.30303 10.3159C4.17559 10.4439 4.09507 10.6114 4.0746 10.7912L4.00286 12.4888C3.98639 12.6765 4.04143 12.8636 4.15686 13.0122C4.27229 13.1607 4.43951 13.2599 4.62485 13.2895L5.62167 13.4497C5.73586 13.9798 5.91537 14.4935 6.15599 14.9791L5.51799 15.7398C5.39691 15.8702 5.32963 16.0419 5.32963 16.2202C5.32963 16.3986 5.39691 16.5702 5.51799 16.7007L6.68229 17.9739C6.80203 18.1081 6.96752 18.1925 7.14614 18.2103C7.32476 18.228 7.50356 18.178 7.64723 18.0699L8.44468 17.5094C8.92209 17.8116 9.43332 18.0562 9.96779 18.2381L10.0396 19.231C10.0617 19.4094 10.143 19.5751 10.2702 19.7014C10.3975 19.8278 10.5635 19.9075 10.7413 19.9277L12.4319 19.9997C12.6152 20.0046 12.7945 19.946 12.9397 19.8337C13.085 19.7214 13.1873 19.5623 13.2294 19.3831L13.3889 18.4063C13.9444 18.2658 14.4802 18.0559 14.9838 17.7817L15.7813 18.4463C15.9172 18.5684 16.0932 18.6359 16.2757 18.6359C16.4581 18.6359 16.6341 18.5684 16.7701 18.4463L18.038 17.3092C18.1541 17.178 18.224 17.012 18.237 16.837C18.25 16.6619 18.2053 16.4874 18.1098 16.3403L17.5197 15.4595C17.7867 14.9936 18.0083 14.5029 18.1815 13.9942L19.2262 13.9221C19.4054 13.9101 19.5737 13.8311 19.6977 13.7007C19.8217 13.5702 19.8925 13.3978 19.8961 13.2175L19.9998 11.5119C20.0043 11.3268 19.9448 11.1459 19.8314 10.9999C19.7179 10.8539 19.5576 10.7518 19.3777 10.7112L18.1975 10.527ZM11.8179 14.875C11.26 14.8507 10.7218 14.6608 10.2714 14.3293C9.82096 13.9978 9.47861 13.5396 9.28759 13.0127C9.09657 12.4857 9.06546 11.9138 9.19823 11.3691C9.331 10.8244 9.6217 10.3316 10.0335 9.95281C10.4453 9.57406 10.9597 9.32645 11.5117 9.24131C12.0637 9.15617 12.6284 9.23734 13.1344 9.47453C13.6404 9.71172 14.065 10.0943 14.3545 10.5738C14.6439 11.0533 14.7852 11.6083 14.7605 12.1685C14.7472 12.5412 14.6602 12.9075 14.5046 13.2461C14.3489 13.5847 14.1277 13.8888 13.8539 14.1407C13.58 14.3926 13.2589 14.5873 12.9094 14.7133C12.5598 14.8394 12.1888 14.8944 11.8179 14.875Z" stroke="#2A65C5" stroke-width="0.842293" stroke-miterlimit="10"/>
</g>
</svg>
