<svg width="24" height="24" viewBox="0 0 24 24" fill="none" xmlns="http://www.w3.org/2000/svg">
<g id="Type=settings ANDROID">
<path id="icon" fill-rule="evenodd" clip-rule="evenodd" d="M15.3112 21.0317C15.2112 21.7117 14.5912 22.2517 13.8512 22.2517H10.1512C9.41121 22.2517 8.79121 21.7117 8.70121 20.9817L8.43121 19.0917C8.16121 18.9517 7.90121 18.8017 7.64121 18.6317L5.84121 19.3517C5.14121 19.6117 4.37121 19.3217 4.03121 18.7017L2.20121 15.5317C1.85121 14.8717 2.00121 14.0917 2.56121 13.6517L4.09121 12.4617C4.08121 12.3117 4.07121 12.1617 4.07121 12.0017C4.07121 11.8517 4.08121 11.6917 4.09121 11.5417L2.57121 10.3517C1.98121 9.90172 1.83121 9.09172 2.20121 8.47172L4.05121 5.28172C4.39121 4.66172 5.16121 4.38172 5.84121 4.65172L7.65121 5.38172C7.91121 5.21172 8.17121 5.06172 8.43121 4.92172L8.70121 3.01172C8.79121 2.31172 9.41121 1.76172 10.1412 1.76172H13.8412C14.5812 1.76172 15.2012 2.30172 15.2912 3.03172L15.5612 4.92172C15.8312 5.06172 16.0912 5.21172 16.3512 5.38172L18.1512 4.66172C18.8612 4.40172 19.6312 4.69172 19.9712 5.31172L21.8112 8.49172C22.1712 9.15172 22.0112 9.93172 21.4512 10.3717L19.9312 11.5617C19.9412 11.7117 19.9512 11.8617 19.9512 12.0217C19.9512 12.1817 19.9412 12.3317 19.9312 12.4817L21.4512 13.6717C22.0112 14.1217 22.1712 14.9017 21.8212 15.5317L19.9612 18.7517C19.6212 19.3717 18.8512 19.6517 18.1612 19.3817L16.3612 18.6617C16.1012 18.8317 15.8412 18.9817 15.5812 19.1217L15.3112 21.0317ZM10.6212 20.2517H13.3812L13.7512 17.7017L14.2812 17.4817C14.7212 17.3017 15.1612 17.0417 15.6212 16.7017L16.0712 16.3617L18.4512 17.3217L19.8312 14.9217L17.8012 13.3417L17.8712 12.7817L17.8743 12.7548C17.9032 12.5044 17.9312 12.2624 17.9312 12.0017C17.9312 11.7317 17.9012 11.4717 17.8712 11.2217L17.8012 10.6617L19.8312 9.08172L18.4412 6.68172L16.0512 7.64172L15.6012 7.29172C15.1812 6.97172 14.7312 6.71172 14.2712 6.52172L13.7512 6.30172L13.3812 3.75172H10.6212L10.2512 6.30172L9.72121 6.51172C9.28121 6.70172 8.84121 6.95172 8.38121 7.30172L7.93121 7.63172L5.55121 6.68172L4.16121 9.07172L6.19121 10.6517L6.12121 11.2117C6.09121 11.4717 6.06121 11.7417 6.06121 12.0017C6.06121 12.2617 6.08121 12.5317 6.12121 12.7817L6.19121 13.3417L4.16121 14.9217L5.54121 17.3217L7.93121 16.3617L8.38121 16.7117C8.81121 17.0417 9.24121 17.2917 9.71121 17.4817L10.2412 17.7017L10.6212 20.2517ZM15.5012 12.0017C15.5012 13.9347 13.9342 15.5017 12.0012 15.5017C10.0682 15.5017 8.50121 13.9347 8.50121 12.0017C8.50121 10.0687 10.0682 8.50172 12.0012 8.50172C13.9342 8.50172 15.5012 10.0687 15.5012 12.0017Z" fill="#7D7D7D"/>
</g>
</svg>
