<svg width="24" height="24" viewBox="0 0 24 24" fill="none" xmlns="http://www.w3.org/2000/svg">
<g id="Type=share  IOS">
<path id="Vector" d="M7.79972 20H16.2003C17.731 20 18.5 19.2628 18.5 17.8024V10.7275C18.5 9.26717 17.731 8.52991 16.2003 8.52991H14.1569V9.67125H16.1783C16.9034 9.67125 17.3209 10.0541 17.3209 10.7913V17.7386C17.3209 18.4759 16.9034 18.8587 16.1783 18.8587H7.81436C7.08197 18.8587 6.67915 18.4759 6.67915 17.7386V10.7913C6.67915 10.0541 7.08197 9.67125 7.81436 9.67125H9.8431V8.52991H7.79972C6.26901 8.52991 5.5 9.26717 5.5 10.7275V17.8024C5.5 19.2628 6.26901 20 7.79972 20ZM11.9963 14.4493C12.3112 14.4493 12.5822 14.1941 12.5822 13.8963V6.61586L12.5383 5.55251L13.029 6.05583L14.1422 7.20426C14.2448 7.31768 14.3913 7.37439 14.5377 7.37439C14.838 7.37439 15.0724 7.16172 15.0724 6.87107C15.0724 6.7222 15.0064 6.60877 14.8966 6.50244L12.4211 4.1914C12.2746 4.04962 12.1501 4 11.9963 4C11.8499 4 11.7253 4.04962 11.5715 4.1914L9.09606 6.50244C8.98619 6.60877 8.92761 6.7222 8.92761 6.87107C8.92761 7.16172 9.14732 7.37439 9.45492 7.37439C9.59408 7.37439 9.75521 7.31768 9.85775 7.20426L10.9637 6.05583L11.4617 5.55251L11.4177 6.61586V13.8963C11.4177 14.1941 11.6814 14.4493 11.9963 14.4493Z" fill="#0E0E0E"/>
</g>
</svg>
