<svg width="24" height="24" viewBox="0 0 24 24" fill="none" xmlns="http://www.w3.org/2000/svg">
<g id="Type=share ANDROID">
<path id="Vector" d="M17.3333 15.7293C16.6578 15.7293 16.0533 16.0005 15.5911 16.4254L9.25333 12.6735C9.29778 12.4656 9.33333 12.2577 9.33333 12.0407C9.33333 11.8237 9.29778 11.6158 9.25333 11.4078L15.52 7.69211C16 8.14415 16.6311 8.42441 17.3333 8.42441C18.8089 8.42441 20 7.21296 20 5.7122C20 4.21145 18.8089 3 17.3333 3C15.8578 3 14.6667 4.21145 14.6667 5.7122C14.6667 5.92918 14.7022 6.13712 14.7467 6.34505L8.48 10.0608C8 9.60874 7.36889 9.32848 6.66667 9.32848C5.19111 9.32848 4 10.5399 4 12.0407C4 13.5414 5.19111 14.7529 6.66667 14.7529C7.36889 14.7529 8 14.4726 8.48 14.0206L14.8089 17.7725C14.7644 17.9623 14.7378 18.1612 14.7378 18.3692C14.7378 19.8247 15.9022 21 17.3333 21C18.7644 21 19.9289 19.8247 19.9289 18.3692C19.9289 16.9136 18.7644 15.7293 17.3333 15.7293ZM17.3333 4.80814C17.8222 4.80814 18.2222 5.21497 18.2222 5.7122C18.2222 6.20944 17.8222 6.61627 17.3333 6.61627C16.8444 6.61627 16.4444 6.20944 16.4444 5.7122C16.4444 5.21497 16.8444 4.80814 17.3333 4.80814ZM6.66667 12.9448C6.17778 12.9448 5.77778 12.5379 5.77778 12.0407C5.77778 11.5434 6.17778 11.1366 6.66667 11.1366C7.15556 11.1366 7.55556 11.5434 7.55556 12.0407C7.55556 12.5379 7.15556 12.9448 6.66667 12.9448ZM17.3333 19.2732C16.8444 19.2732 16.4444 18.8664 16.4444 18.3692C16.4444 17.8719 16.8444 17.4651 17.3333 17.4651C17.8222 17.4651 18.2222 17.8719 18.2222 18.3692C18.2222 18.8664 17.8222 19.2732 17.3333 19.2732Z" fill="#0E0E0E"/>
</g>
</svg>
