<svg width="50" height="50" viewBox="0 0 50 50" fill="none" xmlns="http://www.w3.org/2000/svg">
<g id="Type=Shield">
<rect width="50" height="50" rx="10" fill="#547DBA" fill-opacity="0.2"/>
<g id="ph:shield-check" clip-path="url(#clip0_13751_167701)">
<path id="Vector" d="M35 13H15C14.4696 13 13.9609 13.2023 13.5858 13.5624C13.2107 13.9224 13 14.4108 13 14.92V21.9737C13 32.7271 22.4775 36.2948 24.375 36.9008C24.7803 37.0331 25.2197 37.0331 25.625 36.9008C27.525 36.2948 37 32.7271 37 21.9737V14.92C37 14.4108 36.7893 13.9224 36.4142 13.5624C36.0391 13.2023 35.5304 13 35 13ZM35 21.9749C35 31.3855 26.7063 34.5295 25 35.0767C23.3088 34.5355 15 31.3939 15 21.9749V14.92H35V21.9749ZM19.2925 25.1994C19.1049 25.0193 18.9994 24.7749 18.9994 24.5202C18.9994 24.2654 19.1049 24.0211 19.2925 23.841C19.4801 23.6608 19.7346 23.5596 20 23.5596C20.2654 23.5596 20.5199 23.6608 20.7075 23.841L23 26.0418L29.2925 20.0009C29.3854 19.9117 29.4957 19.841 29.6171 19.7927C29.7385 19.7444 29.8686 19.7196 30 19.7196C30.1314 19.7196 30.2615 19.7444 30.3829 19.7927C30.5043 19.841 30.6146 19.9117 30.7075 20.0009C30.8004 20.0901 30.8741 20.196 30.9244 20.3125C30.9747 20.4291 31.0006 20.554 31.0006 20.6801C31.0006 20.8063 30.9747 20.9312 30.9244 21.0477C30.8741 21.1642 30.8004 21.2701 30.7075 21.3593L23.7075 28.0794C23.6146 28.1687 23.5043 28.2395 23.3829 28.2878C23.2615 28.3361 23.1314 28.361 23 28.361C22.8686 28.361 22.7385 28.3361 22.6171 28.2878C22.4957 28.2395 22.3854 28.1687 22.2925 28.0794L19.2925 25.1994Z" fill="#0E0E0E"/>
</g>
</g>
<defs>
<clipPath id="clip0_13751_167701">
<rect width="24" height="24" fill="white" transform="translate(13 13)"/>
</clipPath>
</defs>
</svg>
