<svg width="24" height="24" viewBox="0 0 24 24" fill="none" xmlns="http://www.w3.org/2000/svg">
<g id="Type=smartphone">
<g id="Frame 554097">
<path id="Vector" d="M15.2571 4H9.7429C8.78032 4 8 4.76518 8 5.70908V18.2909C8 19.2348 8.78032 20 9.7429 20H15.2571C16.2197 20 17 19.2348 17 18.2909V5.70908C17 4.76518 16.2197 4 15.2571 4Z" stroke="#2A65C5" stroke-miterlimit="10"/>
<path id="Vector_2" d="M14.5202 4H10.4798C10.2148 4 10 4.17722 10 4.39583V4.60417C10 4.82278 10.2148 5 10.4798 5H14.5202C14.7852 5 15 4.82278 15 4.60417V4.39583C15 4.17722 14.7852 4 14.5202 4Z" fill="#2A65C5"/>
</g>
</g>
</svg>
