<svg width="24" height="24" viewBox="0 0 24 24" fill="none" xmlns="http://www.w3.org/2000/svg">
<g id="Type=sorting IOS">
<g id="Group">
<path id="Vector" d="M7.32777 5.22348L3.22735 9.05934C3.08932 9.19341 3 9.38706 3 9.55092C3 9.94568 3.29231 10.2138 3.71453 10.2138C3.92564 10.2138 4.08803 10.1468 4.22607 10.0202L5.91495 8.41879L7.22222 7.03341L7.14102 8.75396V18.325C7.14102 18.7198 7.44145 18.9953 7.87179 18.9953C8.29401 18.9953 8.59444 18.7198 8.59444 18.325V8.75396L8.52136 7.03341L9.82051 8.41879L11.5175 10.0202C11.6556 10.1468 11.8098 10.2138 12.0209 10.2138C12.4431 10.2138 12.7355 9.94568 12.7355 9.55092C12.7355 9.38706 12.6543 9.19341 12.5081 9.05934L8.41581 5.22348C8.11538 4.933 7.63632 4.9181 7.32777 5.22348ZM17.6803 18.7793L21.7727 14.9286C21.9188 14.8019 22 14.6083 22 14.437C22 14.0422 21.7077 13.7815 21.2854 13.7815C21.0743 13.7815 20.9201 13.8411 20.7821 13.9677L19.0932 15.5691L17.7859 16.962L17.859 15.2414V5.67038C17.859 5.28307 17.5585 5.00003 17.1363 5.00003C16.7059 5.00003 16.4056 5.28307 16.4056 5.67038V15.2414L16.4867 16.962L15.1795 15.5691L13.4906 13.9677C13.3526 13.8411 13.1901 13.7815 12.9872 13.7815C12.565 13.7815 12.2645 14.0422 12.2645 14.437C12.2645 14.6083 12.3538 14.8019 12.5 14.9286L16.5923 18.7793C16.8927 19.0698 17.3637 19.0773 17.6803 18.7793Z" fill="#0E0E0E"/>
</g>
</g>
</svg>
