<svg width="24" height="24" viewBox="0 0 24 24" fill="none" xmlns="http://www.w3.org/2000/svg">
<g id="Type=star IOS">
<path id="Vector" d="M8.91865 16.9135C9.10327 17.0643 9.33742 17.0125 9.61659 16.8004L11.9986 14.9676L14.3851 16.8004C14.6643 17.0125 14.894 17.0643 15.0831 16.9135C15.2677 16.7675 15.3082 16.5272 15.1956 16.1832L14.2545 13.2525L16.6591 11.4432C16.9382 11.2359 17.0508 11.0191 16.9788 10.7835C16.9068 10.5574 16.6951 10.4443 16.3484 10.449L13.399 10.4678L12.5029 7.523C12.3949 7.17433 12.2328 7 11.9986 7C11.769 7 11.6069 7.17433 11.4988 7.523L10.6027 10.4678L7.65335 10.449C7.30663 10.4443 7.09499 10.5574 7.02295 10.7835C6.9464 11.0191 7.06347 11.2359 7.34265 11.4432L9.74717 13.2525L8.80608 16.1832C8.69351 16.5272 8.73403 16.7675 8.91865 16.9135Z" fill="#0E0E0E"/>
</g>
</svg>
