<svg width="24" height="24" viewBox="0 0 24 24" fill="none" xmlns="http://www.w3.org/2000/svg">
<g id="Type=store">
<path id="Vector" d="M21.9923 8.23236L20.5648 3.9826C20.5152 3.836 20.4185 3.70956 20.2896 3.62259C20.1607 3.53562 20.0067 3.4929 19.8511 3.50096H4.14892C3.99328 3.4929 3.83925 3.53562 3.71037 3.62259C3.58149 3.70956 3.48484 3.836 3.43518 3.9826L2.00771 8.23236C1.99743 8.30757 1.99743 8.38381 2.00771 8.45902V12.7088C2.00771 12.8966 2.08291 13.0768 2.21676 13.2096C2.35061 13.3424 2.53215 13.4171 2.72145 13.4171H3.43518V20.5H4.86265V13.4171H9.14506V20.5H20.5648V13.4171H21.2786C21.4678 13.4171 21.6494 13.3424 21.7832 13.2096C21.9171 13.0768 21.9923 12.8966 21.9923 12.7088V8.45902C22.0026 8.38381 22.0026 8.30757 21.9923 8.23236ZM19.1373 19.0834H10.5725V13.4171H19.1373V19.0834ZM20.5648 12.0005H17.7099V9.16731H16.2824V12.0005H12.7137V9.16731H11.2863V12.0005H7.71759V9.16731H6.29012V12.0005H3.43518V8.57234L4.66281 4.91755H19.3372L20.5648 8.57234V12.0005Z" fill="#0E0E0E"/>
</g>
</svg>
