<svg width="24" height="24" viewBox="0 0 24 24" fill="none" xmlns="http://www.w3.org/2000/svg">
<g id="Type=tablet">
<g id="Frame 554102">
<path id="Vector" d="M18.4227 6H5.75698C4.83625 6 4.08984 6.78006 4.08984 7.74232V16.2577C4.08984 17.2199 4.83625 18 5.75698 18H18.4227C19.3434 18 20.0898 17.2199 20.0898 16.2577V7.74232C20.0898 6.78006 19.3434 6 18.4227 6Z" stroke="#2A65C5" stroke-miterlimit="10"/>
<path id="Vector_2" d="M12.8355 7.10156H11.5496C11.3108 7.10156 11.1172 7.3039 11.1172 7.5535V7.79135C11.1172 8.04095 11.3108 8.24329 11.5496 8.24329H12.8355C13.0744 8.24329 13.268 8.04095 13.268 7.79135V7.5535C13.268 7.3039 13.0744 7.10156 12.8355 7.10156Z" fill="#2A65C5"/>
</g>
</g>
</svg>
