<svg width="24" height="24" viewBox="0 0 24 24" fill="none" xmlns="http://www.w3.org/2000/svg">
<g id="Type=time IOS">
<g id="Group">
<path id="Vector" d="M12.5816 6.25491C12.1484 6.25491 11.7938 6.59805 11.7938 7.02942V12.5C11.7938 12.7255 11.8628 12.9216 12.0302 13.1373L14.4624 16.3334C14.7874 16.7549 15.2404 16.8236 15.6441 16.549C16.0085 16.2941 16.038 15.8334 15.7425 15.4314L12.4635 11.0295L13.3596 13.7745V7.02942C13.3596 6.59805 13.0149 6.25491 12.5816 6.25491ZM12.9558 22C18.4407 22 23 17.4608 23 12C23 6.52942 18.4407 2 12.9558 2C7.46109 2 2.91169 6.51961 2.91169 11.9902H4.58571C4.58571 7.36276 8.30795 3.67648 12.9558 3.67648C17.6037 3.67648 21.326 7.37256 21.326 12C21.326 16.6275 17.6037 20.353 12.9558 20.3334C10.1494 20.3235 7.68758 18.9707 6.18095 16.8824C5.87569 16.4804 5.41287 16.3529 4.99929 16.5981C4.6054 16.8432 4.49709 17.3824 4.83189 17.8137C6.70286 20.3137 9.6373 22 12.9558 22ZM1.70048 10.1079C0.991481 10.1079 0.814232 10.5882 1.19827 11.1373L3.40405 14.2549C3.729 14.7059 4.20166 14.6961 4.51678 14.2549L6.72255 11.1275C7.09675 10.5882 6.9195 10.1079 6.22035 10.1079H1.70048Z" fill="white" fill-opacity="0.85"/>
</g>
</g>
</svg>
