<svg width="24" height="24" viewBox="0 0 24 24" fill="none" xmlns="http://www.w3.org/2000/svg">
<g id="Type=time">
<g id="uiw:time-o" clip-path="url(#clip0_13751_167714)">
<path id="Vector" d="M12 4C16.4184 4 20 7.5816 20 12C20 16.4184 16.4184 20 12 20C7.5816 20 4 16.4184 4 12C4 7.5816 7.5816 4 12 4ZM12 5.116C10.1742 5.116 8.42328 5.84128 7.13228 7.13228C5.84128 8.42328 5.116 10.1742 5.116 12C5.116 13.8258 5.84128 15.5767 7.13228 16.8677C8.42328 18.1587 10.1742 18.884 12 18.884C13.8258 18.884 15.5767 18.1587 16.8677 16.8677C18.1587 15.5767 18.884 13.8258 18.884 12C18.884 10.1742 18.1587 8.42328 16.8677 7.13228C15.5767 5.84128 13.8258 5.116 12 5.116ZM11.256 8.4648C11.564 8.4648 11.8136 8.7152 11.8136 9.0232V12.9304H15.7208C15.8651 12.9359 16.0017 12.997 16.1019 13.1011C16.2021 13.2051 16.2581 13.344 16.2581 13.4884C16.2581 13.6328 16.2021 13.7717 16.1019 13.8757C16.0017 13.9798 15.8651 14.0409 15.7208 14.0464H11.256C11.1079 14.0464 10.9659 13.9876 10.8612 13.8828C10.7564 13.7781 10.6976 13.6361 10.6976 13.488V9.024C10.6976 8.7152 10.9472 8.4648 11.256 8.4648Z" fill="#2A65C5"/>
</g>
</g>
<defs>
<clipPath id="clip0_13751_167714">
<rect width="16" height="16" fill="white" transform="translate(4 4)"/>
</clipPath>
</defs>
</svg>
