<svg width="24" height="24" viewBox="0 0 24 24" fill="none" xmlns="http://www.w3.org/2000/svg">
<g id="Type=trade-in IOS">
<path id="Vector" d="M6.09879 12.0147C5.90744 12.2843 5.99576 12.5245 6.34903 12.5245H7.02613C7.29108 15.0196 9.44506 17 12.0014 17C13.4979 17 14.8521 16.3186 15.7745 15.2598C15.956 15.049 15.9315 14.7843 15.7402 14.6471C15.5488 14.5098 15.3133 14.5588 15.1563 14.7402C14.3958 15.6177 13.2672 16.1667 12.0014 16.1667C9.86212 16.1667 8.12029 14.5833 7.87005 12.5245H8.60113C8.9495 12.5245 9.03782 12.2843 8.85136 12.0196L7.7523 10.4559C7.59529 10.2304 7.35977 10.2255 7.19786 10.4559L6.09879 12.0147ZM8.23314 8.7402C8.04669 8.95098 8.07122 9.21079 8.26749 9.34804C8.45884 9.4853 8.68945 9.44118 8.85136 9.25981C9.61679 8.38726 10.7453 7.83334 12.0014 7.83334C14.1357 7.83334 15.8775 9.41667 16.1327 11.4804H15.4016C15.0533 11.4804 14.9649 11.7157 15.1514 11.9853L16.2504 13.549C16.4074 13.7745 16.6429 13.7794 16.8049 13.549L17.899 11.9902C18.0953 11.7157 18.0021 11.4804 17.6488 11.4804H16.9766C16.7067 8.9853 14.5577 7 12.0014 7C10.5049 7 9.15557 7.67647 8.23314 8.7402Z" fill="#7D7D7D"/>
</g>
</svg>
