<svg width="24" height="24" viewBox="0 0 24 24" fill="none" xmlns="http://www.w3.org/2000/svg">
<g id="Type=trade-int">
<path id="Vector" d="M10.417 16H5.417V21M14.417 8H19.417V3M5 9.003C5.5608 7.61545 6.49957 6.41302 7.70963 5.53237C8.91969 4.65171 10.3525 4.12815 11.8453 4.02118C13.3381 3.9142 14.8309 4.2281 16.1542 4.92721C17.4774 5.62631 18.5781 6.68259 19.331 7.976M19.835 14.997C19.2743 16.3848 18.3355 17.5875 17.1254 18.4683C15.9152 19.3492 14.4822 19.8729 12.9893 19.9798C11.4963 20.0868 10.0033 19.7728 8.67988 19.0735C7.35649 18.3742 6.25583 17.3177 5.503 16.024" stroke="#2A65C5" stroke-linecap="round" stroke-linejoin="round"/>
</g>
</svg>
