<svg width="24" height="24" viewBox="0 0 24 24" fill="none" xmlns="http://www.w3.org/2000/svg">
<g id="Type=trash">
<path id="Vector" d="M19 7.41667C19.4142 7.41667 19.75 7.08088 19.75 6.66667C19.75 6.25245 19.4142 5.91667 19 5.91667V7.41667ZM5 5.91667C4.58579 5.91667 4.25 6.25245 4.25 6.66667C4.25 7.08088 4.58579 7.41667 5 7.41667V5.91667ZM14.8236 5.14286L15.5402 4.92155V4.92155L14.8236 5.14286ZM14.9035 5.40176L15.6201 5.18046L15.6201 5.18045L14.9035 5.40176ZM9.09657 5.40176L9.81317 5.62306L9.81317 5.62306L9.09657 5.40176ZM9.17652 5.14286L9.89313 5.36416V5.36416L9.17652 5.14286ZM9.06764 5.49362L9.77877 5.73194L9.77877 5.73193L9.06764 5.49362ZM7.56053 6.6661L7.58104 7.41582L7.58104 7.41582L7.56053 6.6661ZM14.9324 5.49362L15.6436 5.2553L15.6436 5.25528L14.9324 5.49362ZM16.4395 6.6661L16.419 7.41582L16.419 7.41582L16.4395 6.6661ZM13.7751 4.01668L13.9024 3.27758V3.27758L13.7751 4.01668ZM14.6759 4.71751L15.3514 4.39163L15.3514 4.39162L14.6759 4.71751ZM10.225 4.01668L10.3524 4.75578L10.225 4.01668ZM9.32417 4.71751L8.64867 4.39162L8.64867 4.39162L9.32417 4.71751ZM7.22285 18.5227L7.97076 18.4668L7.22285 18.5227ZM7.30347 9.54407C7.27258 9.13101 6.91268 8.8212 6.49962 8.85209C6.08656 8.88298 5.77675 9.24287 5.80764 9.65593L7.30347 9.54407ZM16.7772 18.5227L16.0292 18.4668L16.7772 18.5227ZM18.1924 9.65593C18.2232 9.24287 17.9134 8.88298 17.5004 8.85209C17.0873 8.8212 16.7274 9.13101 16.6965 9.54407L18.1924 9.65593ZM19 5.91667H16.5294V7.41667H19V5.91667ZM16.5294 5.91667H7.47065V7.41667H16.5294V5.91667ZM7.47065 5.91667H5V7.41667H7.47065V5.91667ZM10.6456 4.75H13.3545V3.25H10.6456V4.75ZM14.1069 5.36416L14.1869 5.62306L15.6201 5.18045L15.5402 4.92155L14.1069 5.36416ZM9.81317 5.62306L9.89313 5.36416L8.45991 4.92155L8.37996 5.18045L9.81317 5.62306ZM8.37996 5.18045C8.36426 5.23127 8.36007 5.24466 8.35651 5.2553L9.77877 5.73193C9.78939 5.70024 9.7998 5.66637 9.81317 5.62306L8.37996 5.18045ZM7.47065 7.41667C7.51217 7.41667 7.54744 7.41673 7.58104 7.41582L7.54003 5.91638C7.5319 5.9166 7.52116 5.91667 7.47065 5.91667V7.41667ZM8.35651 5.2553C8.21644 5.67326 7.87493 5.90722 7.54002 5.91638L7.58104 7.41582C8.60239 7.38788 9.45735 6.69102 9.77877 5.73194L8.35651 5.2553ZM14.1869 5.62306C14.2002 5.66613 14.2107 5.70029 14.2213 5.73196L15.6436 5.25528C15.64 5.24471 15.6357 5.23108 15.6201 5.18046L14.1869 5.62306ZM16.5294 5.91667C16.4789 5.91667 16.4682 5.9166 16.46 5.91638L16.419 7.41582C16.4526 7.41673 16.4879 7.41667 16.5294 7.41667V5.91667ZM14.2213 5.73194C14.5427 6.69102 15.3977 7.38788 16.419 7.41582L16.46 5.91638C16.1251 5.90722 15.7836 5.67326 15.6436 5.2553L14.2213 5.73194ZM13.3545 4.75C13.5986 4.75 13.6294 4.75264 13.6477 4.75578L13.9024 3.27758C13.7271 3.24736 13.5421 3.25 13.3545 3.25V4.75ZM15.5402 4.92155C15.4793 4.72456 15.4271 4.54855 15.3514 4.39163L14.0004 5.0434C14.0152 5.07412 14.0313 5.11917 14.1069 5.36416L15.5402 4.92155ZM13.6477 4.75578C13.7785 4.77834 13.9175 4.87164 14.0004 5.0434L15.3514 4.39162C15.0731 3.81471 14.5438 3.38813 13.9024 3.27758L13.6477 4.75578ZM10.6456 3.25C10.4579 3.25 10.2729 3.24736 10.0976 3.27758L10.3524 4.75578C10.3707 4.75264 10.4015 4.75 10.6456 4.75V3.25ZM9.89313 5.36416C9.96879 5.11916 9.98484 5.07412 9.99966 5.0434L8.64867 4.39162C8.57296 4.54855 8.52075 4.72455 8.45991 4.92155L9.89313 5.36416ZM10.0976 3.27758C9.45622 3.38813 8.92699 3.81471 8.64867 4.39162L9.99966 5.0434C10.0825 4.87164 10.2216 4.77833 10.3524 4.75578L10.0976 3.27758ZM7.97076 18.4668L7.30347 9.54407L5.80764 9.65593L6.47494 18.5786L7.97076 18.4668ZM17.5251 18.5786L18.1924 9.65593L16.6965 9.54407L16.0292 18.4668L17.5251 18.5786ZM15.2262 20.75C16.4491 20.75 17.4348 19.7859 17.5251 18.5786L16.0292 18.4668C15.9948 18.9268 15.6289 19.25 15.2262 19.25V20.75ZM8.77382 19.25C8.37111 19.25 8.00516 18.9268 7.97076 18.4668L6.47494 18.5786C6.56522 19.7859 7.55087 20.75 8.77382 20.75V19.25ZM15.2262 19.25H8.77382V20.75H15.2262V19.25Z" fill="#0E0E0E"/>
</g>
</svg>
