<svg width="24" height="24" viewBox="0 0 24 24" fill="none" xmlns="http://www.w3.org/2000/svg">
<g id="Type=twitter colored">
<g id="socials">
<path id="bg" d="M24 12C24 5.37258 18.6274 0 12 0C5.37258 0 0 5.37258 0 12C0 18.6274 5.37258 24 12 24C18.6274 24 24 18.6274 24 12Z" fill="#9146FF"/>
<g id="twitch">
<path d="M9.00223 7.07031L6.85938 9.21317V16.9275H9.4308V19.0703L11.5737 16.9275H13.2879L17.1451 13.0703V7.07031H9.00223ZM16.2879 12.6417L14.5737 14.356H12.8594L11.3594 15.856V14.356H9.4308V7.92746H16.2879V12.6417Z" fill="white"/>
<path d="M15.0022 9.42746H14.1451V11.9989H15.0022V9.42746Z" fill="white"/>
<path d="M12.6451 9.42746H11.7879V11.9989H12.6451V9.42746Z" fill="white"/>
</g>
</g>
</g>
</svg>
