<svg width="24" height="24" viewBox="0 0 24 24" fill="none" xmlns="http://www.w3.org/2000/svg">
<g id="Type=up IOS">
<path id="Vector" d="M12 9C11.856 9 11.7235 9.0613 11.6198 9.17789L7.14977 14.0368C7.05184 14.1472 7 14.2822 7 14.4417C7 14.7546 7.22465 15 7.52419 15C7.6682 15 7.80069 14.9386 7.89861 14.8405L12 10.3742L16.1013 14.8405C16.1993 14.9386 16.326 15 16.4758 15C16.7753 15 17 14.7546 17 14.4417C17 14.2822 16.9481 14.1472 16.8444 14.0368L12.3802 9.17789C12.2707 9.0613 12.144 9 12 9Z" fill="white"/>
</g>
</svg>
