<svg width="24" height="24" viewBox="0 0 24 24" fill="none" xmlns="http://www.w3.org/2000/svg">
<g id="Type=user">
<path id="Vector" d="M12 4C10.4178 4 8.87103 4.46919 7.55544 5.34824C6.23985 6.22729 5.21447 7.47672 4.60897 8.93853C4.00347 10.4003 3.84504 12.0089 4.15372 13.5607C4.4624 15.1126 5.22433 16.538 6.34315 17.6569C7.46197 18.7757 8.88743 19.5376 10.4393 19.8463C11.9911 20.155 13.5997 19.9965 15.0615 19.391C16.5233 18.7855 17.7727 17.7602 18.6518 16.4446C19.5308 15.129 20 13.5822 20 12C19.9978 9.87895 19.1542 7.84542 17.6544 6.34562C16.1546 4.84581 14.121 4.00224 12 4ZM7.85231 17.3462C8.29749 16.6499 8.91078 16.0769 9.63563 15.68C10.3605 15.2832 11.1736 15.0751 12 15.0751C12.8264 15.0751 13.6395 15.2832 14.3644 15.68C15.0892 16.0769 15.7025 16.6499 16.1477 17.3462C14.9618 18.2684 13.5023 18.7692 12 18.7692C10.4977 18.7692 9.03821 18.2684 7.85231 17.3462ZM9.53846 11.3846C9.53846 10.8978 9.68283 10.4219 9.95331 10.0171C10.2238 9.61226 10.6082 9.29676 11.058 9.11045C11.5078 8.92414 12.0027 8.87539 12.4802 8.97037C12.9577 9.06535 13.3963 9.29979 13.7406 9.64404C14.0848 9.9883 14.3193 10.4269 14.4142 10.9044C14.5092 11.3819 14.4605 11.8768 14.2742 12.3266C14.0879 12.7764 13.7724 13.1608 13.3676 13.4313C12.9628 13.7018 12.4868 13.8462 12 13.8462C11.3472 13.8462 10.7211 13.5868 10.2594 13.1252C9.7978 12.6636 9.53846 12.0375 9.53846 11.3846ZM17.0585 16.4931C16.3721 15.4985 15.4071 14.7291 14.2846 14.2815C14.8876 13.8066 15.3275 13.1557 15.5433 12.4191C15.7591 11.6826 15.7401 10.8971 15.4888 10.172C15.2375 9.44677 14.7664 8.81791 14.1412 8.37284C13.5159 7.92776 12.7675 7.6886 12 7.6886C11.2325 7.6886 10.4841 7.92776 9.85882 8.37284C9.23355 8.81791 8.76252 9.44677 8.51122 10.172C8.25993 10.8971 8.24086 11.6826 8.45667 12.4191C8.67249 13.1557 9.11245 13.8066 9.71539 14.2815C8.59294 14.7291 7.62787 15.4985 6.94154 16.4931C6.07429 15.5178 5.50744 14.3126 5.30927 13.0227C5.11109 11.7327 5.29004 10.413 5.82455 9.22238C6.35907 8.03177 7.22637 7.02106 8.32201 6.31195C9.41764 5.60284 10.6949 5.22557 12 5.22557C13.3051 5.22557 14.5824 5.60284 15.678 6.31195C16.7736 7.02106 17.6409 8.03177 18.1754 9.22238C18.71 10.413 18.8889 11.7327 18.6907 13.0227C18.4926 14.3126 17.9257 15.5178 17.0585 16.4931Z" fill="#D9D9E0"/>
</g>
</svg>
