<svg width="24" height="24" viewBox="0 0 24 24" fill="none" xmlns="http://www.w3.org/2000/svg">
<g id="Type=user IOS">
<g id="person 1" clip-path="url(#clip0_13751_167540)">
<g id="Group">
<path id="Vector" d="M8.54264 18H16.4574C17.5026 18 18 17.676 18 16.9633C18 15.2657 15.9159 12.8099 12.5031 12.8099C9.08414 12.8099 7 15.2657 7 16.9633C7 17.676 7.49742 18 8.54264 18ZM8.2467 17.0216C8.08299 17.0216 8.01374 16.9763 8.01374 16.8402C8.01374 15.7776 9.61304 13.7884 12.5031 13.7884C15.3869 13.7884 16.9862 15.7776 16.9862 16.8402C16.9862 16.9763 16.9233 17.0216 16.7596 17.0216H8.2467ZM12.5031 12.0065C14.0017 12.0065 15.2232 10.6328 15.2232 8.96113C15.2232 7.30238 14.008 6 12.5031 6C11.0109 6 9.78305 7.3283 9.78305 8.97409C9.78935 10.6393 11.0046 12.0065 12.5031 12.0065ZM12.5031 11.0281C11.5838 11.0281 10.7968 10.121 10.7968 8.97409C10.7968 7.84665 11.5713 6.9784 12.5031 6.9784C13.4413 6.9784 14.2095 7.83369 14.2095 8.96113C14.2095 10.108 13.4287 11.0281 12.5031 11.0281Z" fill="white" fill-opacity="0.85"/>
</g>
</g>
</g>
<defs>
<clipPath id="clip0_13751_167540">
<rect width="11" height="12" fill="white" transform="translate(7 6)"/>
</clipPath>
</defs>
</svg>
