<svg width="24" height="24" viewBox="0 0 24 24" fill="none" xmlns="http://www.w3.org/2000/svg">
<g id="Type=user ANDROID">
<path id="icon" fill-rule="evenodd" clip-rule="evenodd" d="M12 3C9.65188 3 7.75 4.90188 7.75 7.25C7.75 9.59812 9.65188 11.5 12 11.5C14.3481 11.5 16.25 9.59812 16.25 7.25C16.25 4.90188 14.3481 3 12 3ZM14.125 7.25C14.125 6.08125 13.1687 5.125 12 5.125C10.8313 5.125 9.875 6.08125 9.875 7.25C9.875 8.41875 10.8313 9.375 12 9.375C13.1687 9.375 14.125 8.41875 14.125 7.25ZM18.375 16.8125C18.1625 16.0581 14.8687 14.6875 12 14.6875C9.13125 14.6875 5.8375 16.0581 5.625 16.8231V17.875H18.375V16.8125ZM3.5 16.8125C3.5 13.9862 9.16313 12.5625 12 12.5625C14.8369 12.5625 20.5 13.9862 20.5 16.8125V20H3.5V16.8125Z" fill="#999999"/>
</g>
</svg>
