<svg width="24" height="24" viewBox="0 0 24 24" fill="none" xmlns="http://www.w3.org/2000/svg">
<g id="Type=vacancy IOS">
<g id="Group">
<path id="Vector" d="M8.93223 9.4836H16.0678C16.9655 9.4836 17.3914 9.08453 17.3914 8.23464V5.24896C17.3914 4.39908 16.9655 4 16.0678 4H8.93223C8.03458 4 7.60858 4.39908 7.60858 5.24896V8.23464C7.60858 9.08453 8.03458 9.4836 8.93223 9.4836ZM9.35823 8.24203C9.05394 8.24203 8.88659 8.09423 8.88659 7.80601V5.67021C8.88659 5.39676 9.05394 5.24157 9.35823 5.24157H15.6418C15.946 5.24157 16.1134 5.39676 16.1134 5.67021V7.80601C16.1134 8.09423 15.946 8.24203 15.6418 8.24203H9.35823ZM9.16805 11.9741H10.621V8.83325H9.16805V11.9741ZM14.379 11.9741H15.832V8.83325H14.379V11.9741ZM8.25519 14.9894H16.7448C17.5816 14.9894 18 14.6051 18 13.8143V12.691C18 11.9002 17.5816 11.516 16.7448 11.516H8.25519C7.4184 11.516 7 11.9002 7 12.691V13.8143C7 14.6051 7.4184 14.9894 8.25519 14.9894ZM8.60512 13.7478C8.41494 13.7478 8.27801 13.6295 8.27801 13.4596V13.0458C8.27801 12.8757 8.41494 12.7575 8.60512 12.7575H16.3949C16.5851 12.7575 16.722 12.8757 16.722 13.0458V13.4596C16.722 13.6295 16.5851 13.7478 16.3949 13.7478H8.60512ZM8.43776 20H8.67358C9.04633 20 9.30498 19.7488 9.30498 19.3866V14.6051H7.80636V19.3866C7.80636 19.7488 8.065 20 8.43776 20ZM8.90941 16.7113H16.0906V15.5954H8.90941V16.7113ZM16.3264 20H16.5623C16.935 20 17.1936 19.7488 17.1936 19.3866V14.6051H15.695V19.3866C15.695 19.7488 15.9537 20 16.3264 20Z" fill="white" fill-opacity="0.85"/>
</g>
</g>
</svg>
