<svg width="24" height="24" viewBox="0 0 24 24" fill="none" xmlns="http://www.w3.org/2000/svg">
<g id="Type=vacuums">
<g id="Frame 554098">
<path id="Vector" d="M12 20C16.4183 20 20 16.4183 20 12C20 7.58172 16.4183 4 12 4C7.58172 4 4 7.58172 4 12C4 16.4183 7.58172 20 12 20Z" stroke="#2A65C5" stroke-width="0.888889" stroke-miterlimit="10"/>
<path id="Vector_2" d="M6.10048 12.0015C6.10048 10.4385 6.72136 8.93955 7.82655 7.83437C8.93174 6.72918 10.4307 6.10829 11.9937 6.10829C13.5566 6.10829 15.0556 6.72918 16.1608 7.83437C17.266 8.93955 17.8869 10.4385 17.8869 12.0015C17.8869 12.0894 17.9218 12.1737 17.9839 12.2359C18.0461 12.298 18.1304 12.333 18.2184 12.333C18.3063 12.333 18.3906 12.298 18.4527 12.2359C18.5149 12.1737 18.5498 12.0894 18.5498 12.0015C18.5498 10.2627 17.8591 8.59509 16.6296 7.36556C15.4001 6.13604 13.7325 5.44531 11.9937 5.44531C10.2549 5.44531 8.58728 6.13604 7.35776 7.36556C6.12824 8.59509 5.4375 10.2627 5.4375 12.0015C5.4375 12.0894 5.47243 12.1737 5.53459 12.2359C5.59676 12.298 5.68106 12.333 5.76898 12.333C5.8569 12.333 5.94122 12.298 6.00338 12.2359C6.06555 12.1737 6.10048 12.0894 6.10048 12.0015Z" fill="#2A65C5"/>
<path id="Vector_3" d="M12.0006 18.216C12.2447 18.216 12.4426 18.0181 12.4426 17.774C12.4426 17.5299 12.2447 17.332 12.0006 17.332C11.7565 17.332 11.5586 17.5299 11.5586 17.774C11.5586 18.0181 11.7565 18.216 12.0006 18.216Z" fill="#2A65C5" stroke="#2A65C5" stroke-width="0.444444" stroke-miterlimit="10"/>
<path id="Vector_4" d="M10.3292 11.5586H13.6589C13.9681 11.5586 14.2188 11.3079 14.2188 10.9987V10.38C14.2188 10.0708 13.9681 9.8201 13.6589 9.8201H10.3292C10.0201 9.8201 9.76939 10.0708 9.76939 10.38V10.9987C9.76939 11.3079 10.0201 11.5586 10.3292 11.5586Z" fill="#2A65C5"/>
</g>
</g>
</svg>
