<svg width="24" height="24" viewBox="0 0 24 24" fill="none" xmlns="http://www.w3.org/2000/svg">
<g id="Type=vk">
<path id="Vector" d="M13.0718 20C4.87196 20 0.194878 14.3694 0 5H4.10743C4.24235 11.8769 7.27046 14.7898 9.66896 15.3904V5H13.5365V10.9309C15.9051 10.6757 18.3935 7.97297 19.233 5H23.1006C22.7842 6.54187 22.1537 8.00177 21.2483 9.28839C20.3429 10.575 19.1823 11.6607 17.8389 12.4775C19.3384 13.2238 20.6629 14.2802 21.7249 15.5769C22.7869 16.8736 23.5624 18.3811 24 20H19.7427C19.3498 18.5939 18.5513 17.3351 17.4473 16.3816C16.3433 15.428 14.9829 14.8221 13.5365 14.6396V20H13.0718Z" fill="#0E0E0E"/>
</g>
</svg>
