<svg width="24" height="24" viewBox="0 0 24 24" fill="none" xmlns="http://www.w3.org/2000/svg">
<g id="Type=vk colored">
<g id="socials">
<rect id="Rectangle 1" width="24" height="24" rx="12" fill="#0077FF"/>
<path id="Vector" d="M12.5879 16.2008C8.07801 16.2008 5.50562 13.0476 5.39844 7.80078H7.65753C7.73173 11.6518 9.39719 13.2831 10.7164 13.6194V7.80078H12.8435V11.1221C14.1462 10.9792 15.5149 9.46565 15.9766 7.80078H18.1037C17.9298 8.66423 17.583 9.48177 17.085 10.2023C16.5871 10.9228 15.9487 11.5308 15.2098 11.9882C16.0346 12.4061 16.763 12.9977 17.3471 13.7238C17.9313 14.45 18.3577 15.2942 18.5984 16.2008H16.2569C16.0408 15.4133 15.6017 14.7085 14.9945 14.1745C14.3873 13.6405 13.639 13.3011 12.8435 13.199V16.2008H12.5879Z" fill="white"/>
</g>
</g>
</svg>
