<svg width="24" height="24" viewBox="0 0 24 24" fill="none" xmlns="http://www.w3.org/2000/svg">
<g id="Type=wallet">
<path id="Vector" d="M19.875 6.75H4.875C4.67609 6.75 4.48532 6.67098 4.34467 6.53033C4.20402 6.38968 4.125 6.19891 4.125 6C4.125 5.80109 4.20402 5.61032 4.34467 5.46967C4.48532 5.32902 4.67609 5.25 4.875 5.25H17.625C17.8239 5.25 18.0147 5.17098 18.1553 5.03033C18.296 4.88968 18.375 4.69891 18.375 4.5C18.375 4.30109 18.296 4.11032 18.1553 3.96967C18.0147 3.82902 17.8239 3.75 17.625 3.75H4.875C4.27826 3.75 3.70597 3.98705 3.28401 4.40901C2.86205 4.83097 2.625 5.40326 2.625 6V18C2.625 18.5967 2.86205 19.169 3.28401 19.591C3.70597 20.0129 4.27826 20.25 4.875 20.25H19.875C20.2728 20.25 20.6544 20.092 20.9357 19.8107C21.217 19.5294 21.375 19.1478 21.375 18.75V8.25C21.375 7.85218 21.217 7.47064 20.9357 7.18934C20.6544 6.90804 20.2728 6.75 19.875 6.75ZM19.875 18.75H4.875C4.67609 18.75 4.48532 18.671 4.34467 18.5303C4.20402 18.3897 4.125 18.1989 4.125 18V8.12156C4.36582 8.20693 4.6195 8.25037 4.875 8.25H19.875V18.75ZM15.375 13.125C15.375 12.9025 15.441 12.685 15.5646 12.5C15.6882 12.315 15.8639 12.1708 16.0695 12.0856C16.275 12.0005 16.5012 11.9782 16.7195 12.0216C16.9377 12.065 17.1382 12.1722 17.2955 12.3295C17.4528 12.4868 17.56 12.6873 17.6034 12.9055C17.6468 13.1238 17.6245 13.35 17.5394 13.5555C17.4542 13.7611 17.31 13.9368 17.125 14.0604C16.94 14.184 16.7225 14.25 16.5 14.25C16.2016 14.25 15.9155 14.1315 15.7045 13.9205C15.4935 13.7095 15.375 13.4234 15.375 13.125Z" fill="#0E0E0E"/>
</g>
</svg>
