<svg width="24" height="24" viewBox="0 0 24 24" fill="none" xmlns="http://www.w3.org/2000/svg">
<g id="Type=watch">
<g id="Group 553789">
<rect id="Rectangle 6033" x="7.59922" y="7.59922" width="8" height="8.8" rx="2" stroke="#2A65C5" stroke-width="0.8"/>
<path id="Rectangle 6034" d="M9.20078 5.6C9.20078 4.93726 9.73804 4.4 10.4008 4.4H12.8008C13.4635 4.4 14.0008 4.93726 14.0008 5.6V7.6H9.20078V5.6Z" stroke="#2A65C5" stroke-width="0.8"/>
<path id="Rectangle 6036" d="M16.0008 10.0016C16.2217 10.0016 16.4008 10.1806 16.4008 10.4016L16.4008 11.2016C16.4008 11.4225 16.2217 11.6016 16.0008 11.6016L15.6008 11.6016L15.6008 10.0016L16.0008 10.0016Z" stroke="#2A65C5" stroke-width="0.8"/>
<path id="Rectangle 6035" d="M9.20078 18.4C9.20078 19.0627 9.73804 19.6 10.4008 19.6H12.8008C13.4635 19.6 14.0008 19.0627 14.0008 18.4V16.4H9.20078V18.4Z" stroke="#2A65C5" stroke-width="0.8"/>
</g>
</g>
</svg>
