<svg width="24" height="24" viewBox="0 0 24 24" fill="none" xmlns="http://www.w3.org/2000/svg">
<g id="Type=whatsapp colored">
<g id="socials">
<rect id="Rectangle 1" width="24" height="24" rx="12" fill="#48C95F"/>
<path id="Vector" d="M16.7561 7.23594C15.5707 6.05469 13.9902 5.39844 12.3219 5.39844C8.85366 5.39844 6.0439 8.19844 6.0439 11.6547C6.0439 12.7484 6.35122 13.8422 6.87805 14.7609L6 17.9984L9.33659 17.1234C10.2585 17.6047 11.2683 17.8672 12.3219 17.8672C15.7902 17.8672 18.6 15.0672 18.6 11.6109C18.5561 9.99219 17.9415 8.41719 16.7561 7.23594ZM15.3512 13.8859C15.2195 14.2359 14.6049 14.5859 14.2976 14.6297C14.0341 14.6734 13.6829 14.6734 13.3317 14.5859C13.1122 14.4984 12.8049 14.4109 12.4537 14.2359C10.8732 13.5797 9.86342 12.0047 9.77561 11.8734C9.68781 11.7859 9.11707 11.0422 9.11707 10.2547C9.11707 9.46719 9.51219 9.11719 9.6439 8.94219C9.77561 8.76719 9.95122 8.76719 10.0829 8.76719C10.1707 8.76719 10.3024 8.76719 10.3902 8.76719C10.478 8.76719 10.6098 8.72344 10.7415 9.02969C10.8732 9.33594 11.1805 10.1234 11.2244 10.1672C11.2683 10.2547 11.2683 10.3422 11.2244 10.4297C11.1805 10.5172 11.1366 10.6047 11.0488 10.6922C10.961 10.7797 10.8732 10.9109 10.8293 10.9547C10.7415 11.0422 10.6537 11.1297 10.7415 11.2609C10.8293 11.4359 11.1366 11.9172 11.6195 12.3547C12.2341 12.8797 12.7171 13.0547 12.8927 13.1422C13.0683 13.2297 13.1561 13.1859 13.2439 13.0984C13.3317 13.0109 13.639 12.6609 13.7268 12.4859C13.8146 12.3109 13.9463 12.3547 14.078 12.3984C14.2098 12.4422 15 12.8359 15.1317 12.9234C15.3073 13.0109 15.3951 13.0547 15.439 13.0984C15.4829 13.2297 15.4829 13.5359 15.3512 13.8859Z" fill="white"/>
</g>
</g>
</svg>
