<svg width="50" height="50" viewBox="0 0 50 50" fill="none" xmlns="http://www.w3.org/2000/svg">
<g id="Type=work duration">
<rect width="50" height="50" rx="10" fill="#547DBA" fill-opacity="0.2"/>
<g id="uiw:time-o" clip-path="url(#clip0_13751_167698)">
<path id="Vector" d="M25 13C31.6276 13 37 18.3724 37 25C37 31.6276 31.6276 37 25 37C18.3724 37 13 31.6276 13 25C13 18.3724 18.3724 13 25 13ZM25 14.674C22.2614 14.674 19.6349 15.7619 17.6984 17.6984C15.7619 19.6349 14.674 22.2614 14.674 25C14.674 27.7386 15.7619 30.3651 17.6984 32.3016C19.6349 34.2381 22.2614 35.326 25 35.326C27.7386 35.326 30.3651 34.2381 32.3016 32.3016C34.2381 30.3651 35.326 27.7386 35.326 25C35.326 22.2614 34.2381 19.6349 32.3016 17.6984C30.3651 15.7619 27.7386 14.674 25 14.674ZM23.884 19.6972C24.346 19.6972 24.7204 20.0728 24.7204 20.5348V26.3956H30.5812C30.7977 26.4038 31.0026 26.4956 31.1529 26.6516C31.3032 26.8077 31.3871 27.0159 31.3871 27.2326C31.3871 27.4493 31.3032 27.6575 31.1529 27.8136C31.0026 27.9696 30.7977 28.0614 30.5812 28.0696H23.884C23.6619 28.0696 23.4488 27.9814 23.2917 27.8243C23.1346 27.6672 23.0464 27.4541 23.0464 27.232V20.536C23.0464 20.0728 23.4208 19.6972 23.884 19.6972Z" fill="#0E0E0E"/>
</g>
</g>
<defs>
<clipPath id="clip0_13751_167698">
<rect width="24" height="24" fill="white" transform="translate(13 13)"/>
</clipPath>
</defs>
</svg>
