<svg width="111" height="48" viewBox="0 0 111 48" fill="none" xmlns="http://www.w3.org/2000/svg">
<path d="M81.2614 45.4982L81.256 37.8741C81.7175 37.5777 82.2595 37.4645 82.874 37.4645C83.8158 37.4645 84.5697 37.8067 85.1359 38.4939C85.7074 39.1839 85.9945 40.2268 85.9945 41.6309C85.9945 43.0457 85.702 44.1103 85.1198 44.8163C84.5349 45.5251 83.7862 45.8782 82.874 45.8782C82.2676 45.8782 81.7309 45.8081 81.2614 45.4982ZM88.1115 43.8381V47.7646H84.5831C85.4713 47.5059 86.2333 47.0235 86.8558 46.3228C87.4541 45.6464 87.87 44.8217 88.1115 43.8381ZM81.2533 18.0796L68.2131 34.2952L55.1621 18.1443L55.1809 47.7646H48.3308L48.3066 0.123047H49.5489L68.2426 24.2133L86.7726 0.123047H88.0874L88.1088 39.518C87.8727 38.5263 87.4515 37.6962 86.8477 37.0252C85.8442 35.9041 84.5188 35.3435 82.8525 35.3435C82.2783 35.3435 81.7497 35.4082 81.256 35.5322L81.2533 18.0796Z" fill="white"/>
<path d="M34.7621 32.7196L41.5934 32.7627H41.6015V32.7681C41.4915 33.2181 41.3653 33.6709 41.2231 34.1155C41.0917 34.5602 40.9387 35.0022 40.775 35.4334C40.4531 36.2904 40.0747 37.115 39.6427 37.9047C39.2295 38.6754 38.76 39.4111 38.2368 40.1118C37.7377 40.7829 37.2091 41.4243 36.6456 42.0307C36.0795 42.637 35.4785 43.2084 34.8452 43.7312C34.2737 44.2082 33.6646 44.6448 33.0368 45.0328C32.4223 45.4128 31.7837 45.747 31.121 46.0327C30.4341 46.3291 29.7284 46.5878 29.0147 46.8034C28.2983 47.0271 27.5685 47.2077 26.8306 47.3505C26.0659 47.4987 25.2985 47.6092 24.5257 47.6793C23.7315 47.7494 22.9266 47.7763 22.1243 47.7763C21.4347 47.7682 20.7505 47.7305 20.069 47.6604C19.3875 47.5958 18.7113 47.4907 18.0352 47.3586C17.367 47.2239 16.7043 47.0622 16.0469 46.86C15.3815 46.6633 14.7322 46.4369 14.0936 46.1728C13.4577 45.9141 12.8244 45.6257 12.21 45.3104C11.5955 44.9951 10.9999 44.6448 10.4149 44.2756C9.83537 43.901 9.26922 43.5021 8.72186 43.0763C8.16912 42.6451 7.63249 42.187 7.12268 41.7046C6.61825 41.2329 6.15138 40.7317 5.70597 40.1981C5.25788 39.6564 4.83125 39.0824 4.43951 38.4868C4.01557 37.8292 3.62651 37.1474 3.27233 36.444C2.91547 35.7352 2.5908 35.0157 2.30639 34.2799C1.99514 33.4957 1.73487 32.6953 1.50412 31.8868C1.27337 31.0487 1.08554 30.2052 0.940652 29.3562C0.787712 28.4615 0.672335 27.5587 0.605256 26.6532C0.52476 25.7073 0.495246 24.7586 0.500612 23.8073C0.508662 22.8425 0.54891 21.8696 0.640137 20.9021C0.725999 19.9751 0.846741 19.0534 1.01042 18.1425C1.17409 17.2774 1.36996 16.4231 1.61145 15.585C1.85025 14.7684 2.12393 13.9626 2.44591 13.1703C2.74375 12.4346 3.07378 11.715 3.43332 11.0116C3.79823 10.3109 4.19802 9.62911 4.63002 8.97154C5.03249 8.37864 5.45643 7.80731 5.92062 7.27101C6.36335 6.7428 6.84632 6.24693 7.35075 5.78339C7.86861 5.31177 8.41061 4.86172 8.96334 4.444C9.51607 4.02628 10.0822 3.6382 10.6672 3.27169C11.2521 2.91056 11.8531 2.57639 12.4622 2.27455C13.0793 1.97002 13.7018 1.69244 14.3351 1.45798C14.979 1.20734 15.631 0.991748 16.2884 0.811185C16.9458 0.625233 17.6139 0.471619 18.2874 0.355736C18.9689 0.231767 19.6531 0.142834 20.3373 0.0835449C21.0376 0.0242557 21.7352 0 22.4356 0C23.2029 0.00808489 23.9757 0.051204 24.7404 0.129358C25.489 0.207512 26.243 0.323396 26.9835 0.477009C27.7134 0.625232 28.4378 0.811184 29.1515 1.03756C29.8572 1.25585 30.5495 1.51188 31.2364 1.80832C31.8937 2.09129 32.5297 2.42277 33.1414 2.80007C33.7693 3.18006 34.3703 3.61125 34.9472 4.08018C35.5751 4.58952 36.1707 5.15008 36.7315 5.73488C37.2923 6.32778 37.8209 6.9584 38.3119 7.60788C38.8297 8.27623 39.2913 8.9931 39.7045 9.73152C40.1203 10.478 40.4906 11.2569 40.7992 12.068C40.9387 12.4292 41.0729 12.7957 41.1883 13.1649C41.309 13.5449 41.4244 13.9249 41.5237 14.3103L41.5317 14.3156H41.5183L34.5877 14.2644H34.5823C34.1074 13.2026 33.5305 12.2244 32.8355 11.3485C32.1647 10.505 31.3974 9.75038 30.5173 9.11437C29.3125 8.2385 27.9978 7.64022 26.6294 7.26023C25.2609 6.87485 23.8254 6.70507 22.3873 6.69968C21.3408 6.68621 20.3024 6.77783 19.2801 6.97726C18.3196 7.1686 17.3697 7.45966 16.4628 7.8666C15.5452 8.27084 14.6946 8.78019 13.9004 9.37847C13.0927 9.99562 12.3495 10.7044 11.676 11.5048C10.3022 13.1326 9.32825 14.9678 8.68161 16.9244C7.97593 19.0884 7.66468 21.4061 7.64859 23.7804C7.63517 26.0226 7.94642 28.1651 8.59843 30.1755C9.23703 32.1267 10.1976 33.9592 11.5124 35.6463C12.1697 36.4898 12.9049 37.2552 13.7099 37.9262C14.4826 38.5703 15.3305 39.1255 16.2401 39.5755C17.1551 40.0256 18.0969 40.3544 19.0655 40.5727C20.0824 40.8044 21.1208 40.9149 22.1726 40.9203C22.9454 40.9257 23.7181 40.8826 24.4909 40.7802C25.2153 40.6832 25.9398 40.535 26.6455 40.322C27.3511 40.1091 28.038 39.8396 28.6954 39.5109C29.3474 39.1875 29.9726 38.8075 30.5656 38.3709C31.18 37.9208 31.7381 37.4115 32.2506 36.8536C32.7631 36.2931 33.2246 35.6759 33.6378 35.013C33.8578 34.6518 34.0564 34.2853 34.2415 33.9053C34.4347 33.52 34.6037 33.1211 34.7647 32.7142H34.7621V32.7196Z" fill="white"/>
<path d="M101.753 47.7717V35.6094H110.275V37.6629H104.088V40.3687H109.843V42.4222H104.088V45.7209H110.5V47.7744H101.753V47.7717ZM92.4774 40.7621H94.2C95.3135 40.7621 96.0058 40.7109 96.2875 40.6085C96.5666 40.5115 96.7866 40.339 96.9369 40.0938C97.0979 39.8512 97.1757 39.5467 97.1757 39.1802C97.1757 38.7679 97.0737 38.4391 96.8644 38.1885C96.6578 37.9378 96.368 37.7761 95.9897 37.7115C95.7992 37.6791 95.2357 37.6656 94.2966 37.6656H92.4774V40.7621ZM90.1484 47.7717V35.6094H95.0452C96.2741 35.6094 97.1703 35.7199 97.7284 35.9382C98.2892 36.1565 98.7319 36.5445 99.0673 37.1051C99.4027 37.6656 99.5717 38.3016 99.5717 39.0158C99.5717 39.9375 99.3168 40.684 98.8097 41.2823C98.3053 41.8752 97.5513 42.2471 96.5398 42.4034C97.0388 42.7106 97.4547 43.0529 97.7767 43.4248C98.104 43.7913 98.5414 44.4569 99.0941 45.4002L100.5 47.7691H97.7204L96.0541 45.1172C95.4584 44.1713 95.0479 43.5784 94.8252 43.3331C94.6052 43.0879 94.3744 42.9154 94.1249 42.8265C93.8754 42.7376 93.4836 42.6917 92.9524 42.6917H92.4774V47.7717H90.1484Z" fill="white"/>
<path d="M70.7028 47.7705V37.6617H67.2898V35.6082H76.4233V37.6617H73.0344V47.7705H70.7028ZM81.2557 35.5327V37.8746C80.9498 38.0417 80.6788 38.2492 80.432 38.5403C79.847 39.2356 79.5492 40.2866 79.5492 41.6799C79.5492 43.0571 79.8551 44.1081 80.4561 44.8223C80.7003 45.1052 80.9686 45.3316 81.2584 45.4987L81.2611 47.8298C80.2388 47.5981 79.3667 47.0968 78.6745 46.3368C77.6629 45.2292 77.1585 43.7092 77.1585 41.7662C77.1585 40.5238 77.3356 39.4862 77.6817 38.6427C77.9447 38.0202 78.3015 37.465 78.7496 36.9691C79.2084 36.4786 79.6994 36.1121 80.2415 35.8696C80.5634 35.7321 80.8988 35.6109 81.2557 35.5327ZM56.7744 43.8305L59.0444 43.5934C59.1759 44.3965 59.4522 44.984 59.8708 45.3559C60.284 45.7359 60.8448 45.9218 61.5505 45.9218C62.291 45.9218 62.8599 45.7547 63.2355 45.4205C63.6138 45.0864 63.8043 44.6929 63.8043 44.2509C63.8043 43.9599 63.7238 43.7146 63.5655 43.5125C63.4072 43.3104 63.1282 43.1379 62.7311 42.9897C62.4574 42.8873 61.8456 42.7121 60.8824 42.4561C59.6427 42.13 58.7707 41.7284 58.2663 41.2514C57.5606 40.575 57.2145 39.7584 57.2145 38.7936C57.2145 38.1765 57.3808 37.5917 57.7082 37.0473C58.0436 36.5083 58.5158 36.1014 59.1437 35.8184C59.7635 35.5354 60.5201 35.3926 61.4002 35.3926C62.8438 35.3926 63.9251 35.7268 64.6522 36.4032C65.382 37.0796 65.7657 37.9824 65.8006 39.1143L63.4716 39.1979C63.367 38.5672 63.1523 38.1172 62.8303 37.8477C62.5084 37.5701 62.02 37.43 61.3707 37.43C60.7026 37.43 60.1767 37.5782 59.801 37.8746C59.5595 38.0606 59.4308 38.3193 59.4308 38.6346C59.4308 38.923 59.5488 39.1682 59.7769 39.373C60.072 39.6318 60.7804 39.9066 61.9073 40.1923C63.0396 40.4699 63.8714 40.7636 64.408 41.0682C64.95 41.37 65.374 41.7743 65.6799 42.3025C65.9831 42.8253 66.136 43.4694 66.136 44.2401C66.136 44.9354 65.9536 45.5849 65.5886 46.1967C65.221 46.8031 64.7059 47.2585 64.0324 47.5549C63.3643 47.8514 62.5298 47.9996 61.5317 47.9996C60.0774 47.9996 58.9585 47.6439 58.1777 46.9324C57.3942 46.2183 56.9274 45.1915 56.7744 43.8305Z" fill="white"/>
</svg>
