<svg width="24" height="24" fill="none" xmlns="http://www.w3.org/2000/svg"><path d="M10.129 5.058l-.345-.002v.002h.345zM11.179 4v-.345h-.002L11.18 4zm1.79 0l.003-.344h-.002V4zm1.052 1.058h.344v-.002l-.345.002zm-2.699 12.101v-.344h-.344v.344h.344zm1.35 0h.344v-.344h-.345v.344zm0 2.841v.345h.344V20h-.345zm-1.35 0h-.344v.345h.344V20zM9.908 7.93h4.184v-.69H9.908v.69zm4.184 0c.309 0 .563.253.563.57h.69c0-.693-.56-1.26-1.253-1.26v.69zm.563.57v7.673h.69V8.5h-.69zm0 7.673c0 .317-.254.57-.563.57v.689c.694 0 1.252-.566 1.252-1.259h-.688zm-.563.57H9.908v.689h4.184v-.69zm-4.184 0a.567.567 0 01-.564-.57h-.688c0 .693.558 1.259 1.252 1.259v-.69zm-.564-.57V8.5h-.688v7.673h.688zm0-7.673c0-.317.255-.57.564-.57v-.69c-.694 0-1.252.567-1.252 1.26h.688zm1.13-.902v-2.54h-.69v2.54h.69zm0-2.538a.724.724 0 01.209-.505l-.49-.486c-.26.262-.407.617-.409.987l.69.004zm.209-.505a.71.71 0 01.499-.21l-.005-.69a1.4 1.4 0 00-.983.414l.489.486zm.496-.21h1.79v-.69h-1.79v.69zm1.789 0a.71.71 0 01.498.21l.49-.486a1.398 1.398 0 00-.984-.413l-.004.688zm.498.21a.724.724 0 01.21.505l.689-.004a1.412 1.412 0 00-.41-.987l-.489.486zm.21.503v2.54h.689v-2.54h-.689zm-2.354 12.446h1.35v-.69h-1.35v.69zm1.005-.345V20h.689v-2.84h-.69zm.344 2.497h-1.349v.689h1.35v-.69zM11.667 20v-2.84h-.69V20h.69z" fill="#2A65C5"/></svg>