<svg width="24" height="24" fill="none" xmlns="http://www.w3.org/2000/svg"><path d="M4.636 20c-.45 0-.835-.157-1.156-.47A1.52 1.52 0 013 18.4V8.8c0-.44.16-.817.481-1.13a1.59 1.59 0 011.155-.47h2.578l1.022-1.08c.15-.16.331-.287.543-.38a1.63 1.63 0 01.663-.14h3.376c.232 0 .427.077.584.23a.762.762 0 01.234.57.798.798 0 01-.818.8H9.443L7.95 8.8H4.636v9.6h13.091V12a.798.798 0 01.818-.8c.232 0 .427.077.584.23a.762.762 0 01.235.57v6.4c0 .44-.16.817-.482 1.13a1.59 1.59 0 01-1.155.47H4.637zM17.727 7.2h-.818a.802.802 0 01-.583-.23.762.762 0 01-.235-.57c0-.227.078-.417.235-.57a.798.798 0 01.583-.23h.818v-.8a.798.798 0 01.818-.8c.232 0 .427.077.584.23a.762.762 0 01.235.57v.8h.818c.232 0 .426.077.583.23A.762.762 0 0121 6.4a.798.798 0 01-.818.8h-.818V8a.798.798 0 01-.818.8.802.802 0 01-.584-.23.762.762 0 01-.235-.57v-.8zm-6.545 10c1.022 0 1.892-.35 2.608-1.05a3.43 3.43 0 001.074-2.55c0-1-.359-1.85-1.075-2.55-.716-.7-1.585-1.05-2.607-1.05-1.023 0-1.892.35-2.609 1.05A3.43 3.43 0 007.5 13.6c0 1 .358 1.85 1.074 2.55.716.7 1.586 1.05 2.608 1.05zm0-1.6a1.998 1.998 0 01-1.452-.58 1.91 1.91 0 01-.594-1.42c0-.56.198-1.033.594-1.42.395-.387.88-.58 1.452-.58s1.057.193 1.452.58c.396.387.593.86.593 1.42a1.91 1.91 0 01-.593 1.42c-.395.387-.88.58-1.452.58z" fill="#0E0E0E"/></svg>