<svg width="24" height="24" fill="none" xmlns="http://www.w3.org/2000/svg"><g fill="#0E0E0E"><path d="M3 4.25a.75.75 0 000 1.5v-1.5zm2.951 2.11l-.734.155.734-.155zm14.813 2.698l-.742-.115.742.115zm-.908 5.828l-.74-.116.74.116zM3 5.75h1.209v-1.5H3v1.5zm5.535 11h10.02v-1.5H8.535v1.5zM20.598 15l.907-5.827-1.483-.23-.907 5.827 1.483.23zM5.217 6.516l.246 1.178 1.468-.309-.247-1.178-1.468.309zm.238 1.128l1.032 7.328 1.485-.209L6.94 7.435l-1.485.21zM4.209 5.75c.517 0 .92.344 1.008.765l1.468-.309C6.441 5.044 5.385 4.25 4.21 4.25v1.5zM8.5 6.788H6.198v1.5H8.5v-1.5zm10.962 0H18.5v1.5h.962v-1.5zm2.043 2.385a2.067 2.067 0 00-2.043-2.385v1.5c.348 0 .614.31.56.655l1.483.23zm-2.95 7.577A2.067 2.067 0 0020.598 15l-1.483-.23a.567.567 0 01-.56.48v1.5zm-10.02-1.5a.567.567 0 01-.562-.488l-1.485.21a2.067 2.067 0 002.047 1.778v-1.5z"/><circle cx="9.5" cy="19.5" r="1.5"/><circle cx="18.5" cy="19.5" r="1.5"/></g><path d="M10 5.95L13.41 9 19 4" stroke="#0E0E0E" stroke-width="1.6" stroke-linecap="round" stroke-linejoin="round"/></svg>