<svg width="34" height="28" fill="none" xmlns="http://www.w3.org/2000/svg"><path d="M9.693 20.045H19.3c.32 0 .6-.26.6-.61s-.28-.611-.6-.611H9.833c-.47 0-.758-.326-.832-.822l-1.35-9.058C7.57 8.317 7.338 8 6.5 8H3.61c-.33 0-.61.285-.61.61 0 .334.28.619.61.619h2.782l1.317 8.936c.173 1.155.79 1.88 1.984 1.88zm-1.515-2.898h11.138c1.202 0 1.82-.732 1.993-1.896l.658-4.305c.017-.106.033-.236.033-.31 0-.39-.296-.658-.75-.658H7.463l.008 1.229H20.6l-.584 3.898c-.066.504-.337.822-.823.822H8.162l.016 1.22zM10.343 24c.741 0 1.334-.578 1.334-1.318a1.32 1.32 0 00-1.334-1.319c-.749 0-1.342.586-1.342 1.319 0 .74.593 1.318 1.342 1.318zm7.697 0c.75 0 1.342-.578 1.342-1.318 0-.733-.593-1.319-1.342-1.319-.74 0-1.341.586-1.341 1.319 0 .74.6 1.318 1.341 1.318z" fill="#999"/><rect x="14.5" y=".5" width="19" height="19" rx="9.5" fill="#0E0E0E"/><rect x="14.5" y=".5" width="19" height="19" rx="9.5" stroke="#fff"/><path d="M20.35 12.21v-.87l3.834-6.067h.631v1.346h-.426l-2.898 4.585v.069h5.165v.937H20.35zM24.456 14V5.273h1.006V14h-1.006z" fill="#fff"/></svg>