<svg width="24" height="24" fill="none" xmlns="http://www.w3.org/2000/svg"><path d="M6.454 20.844c.332.272.753.178 1.256-.203l4.288-3.3 4.295 3.3c.503.382.916.475 1.256.203.333-.263.406-.695.203-1.314l-1.694-5.276 4.328-3.256c.503-.373.706-.764.576-1.188-.13-.407-.51-.61-1.135-.602l-5.309.034-1.613-5.3C12.711 3.313 12.42 3 11.998 3c-.414 0-.706.314-.9.941L9.485 9.242l-5.309-.034c-.624-.008-1.005.195-1.135.602-.137.424.073.815.576 1.188l4.328 3.257L6.25 19.53c-.203.619-.13 1.051.203 1.314z" fill="#0E0E0E"/></svg>