<svg width="24" height="24" fill="none" xmlns="http://www.w3.org/2000/svg"><path d="M7.5 2c.17 0 .334.07.455.195a.68.68 0 01.188.472v2h7.714v-2a.68.68 0 01.188-.472A.632.632 0 0116.5 2c.17 0 .334.07.455.195a.68.68 0 01.188.472v2H19.5c.828 0 1.5.697 1.5 1.555v14.222c0 .413-.158.809-.44 1.1A1.474 1.474 0 0119.5 22h-15c-.398 0-.78-.164-1.06-.456a1.585 1.585 0 01-.44-1.1V6.222c0-.858.672-1.555 1.5-1.555h2.357v-2a.68.68 0 01.188-.472A.631.631 0 017.5 2zm12.214 8.444H4.286v10c0 .123.096.223.214.223h15a.21.21 0 00.151-.065.227.227 0 00.063-.158v-10zM4.5 6a.21.21 0 00-.152.065.226.226 0 00-.062.157v2.89h15.428v-2.89a.226.226 0 00-.063-.157A.21.21 0 0019.5 6h-15z" fill="#0E0E0E"/></svg>