<svg width="24" height="24" fill="none" xmlns="http://www.w3.org/2000/svg"><path d="M21.97 19.53a.75.75 0 101.06-1.06l-1.06 1.06zm-7.345-3.03a5.375 5.375 0 01-5.375-5.375h-1.5A6.875 6.875 0 0014.625 18v-1.5zM9.25 11.125a5.375 5.375 0 015.375-5.375v-1.5a6.875 6.875 0 00-6.875 6.875h1.5zm5.375-5.375A5.375 5.375 0 0120 11.125h1.5a6.875 6.875 0 00-6.875-6.875v1.5zm3.8 10.236l3.545 3.544 1.06-1.06-3.544-3.544-1.06 1.06zM20 11.125a5.35 5.35 0 01-1.574 3.8l1.06 1.061a6.856 6.856 0 002.014-4.861H20zm-1.574 3.8a5.356 5.356 0 01-3.801 1.575V18c1.898 0 3.618-.77 4.861-2.014l-1.06-1.06z" fill="#0E0E0E"/><path d="M1.5 19h7m-7-7H5M1.5 5h5.25" stroke="#0E0E0E" stroke-width="1.5" stroke-linecap="round"/></svg>