<svg width="28" height="28" fill="none" xmlns="http://www.w3.org/2000/svg"><g clip-path="url(#clip0_13751_167287)"><path d="M6.68 24.598h14.215c2.46 0 3.68-1.22 3.68-3.633V6.656c0-2.414-1.22-3.633-3.68-3.633H6.68C4.23 3.023 3 4.23 3 6.656v14.309c0 2.426 1.23 3.633 3.68 3.633zm5.8-5.075c-.398 0-.726-.164-1.03-.574l-2.942-3.61c-.176-.234-.281-.491-.281-.76 0-.528.41-.962.949-.962.328 0 .586.106.879.492l2.379 3.07 5.004-8.038c.222-.352.527-.54.843-.54.504 0 .985.352.985.903 0 .258-.141.527-.293.773l-5.508 8.672c-.246.387-.586.574-.985.574z" fill="#0E0E0E"/></g><defs><clipPath id="clip0_13751_167287"><path fill="#fff" transform="translate(3 3)" d="M0 0h21.574v21.598H0z"/></clipPath></defs></svg>