<svg width="24" height="24" fill="none" xmlns="http://www.w3.org/2000/svg"><rect width="24" height="24" rx="12" fill="#F79A38"/><g fill="#fff"><path d="M15.743 13.674c.315-.315.36-.764.09-1.214-.225-.36-.63-.54-1.08-.45a1.52 1.52 0 00-.539.27c-1.394.944-3.283.9-4.677-.045l-.27-.135c-.495-.225-.99-.135-1.26.315-.314.45-.27.944.135 1.35.09.089.18.134.225.224l.045.045c.63.495 1.394.81 2.384.944l-.585.585-1.529 1.53c-.135.134-.315.36-.315.674 0 .405.225.81.63.99.135.09.27.09.405.09.225 0 .494-.09.674-.315l1.754-1.755.045-.044s.045 0 .045.044c.36.405.765.765 1.125 1.17l.54.54c.224.225.404.315.674.315.405.044.855-.225 1.035-.63a.9.9 0 00-.225-1.08c-.45-.45-.9-.944-1.395-1.394l-.764-.764c.405-.045.854-.135 1.26-.315.674-.225 1.169-.54 1.573-.945z"/><path d="M11.875 12.415c1.934 0 3.509-1.53 3.509-3.463 0-.945-.36-1.844-1.035-2.52-.675-.674-1.53-1.034-2.429-1.034-1.934 0-3.463 1.575-3.508 3.464 0 .944.36 1.799 1.035 2.473.63.72 1.484 1.08 2.428 1.08zm-.99-4.498c.27-.27.63-.405.99-.405.81 0 1.395.63 1.395 1.395 0 .81-.63 1.394-1.395 1.394-.81 0-1.394-.63-1.394-1.394 0-.36.135-.72.405-.99z"/><path d="M15.743 13.674c.315-.315.36-.764.09-1.214-.225-.36-.63-.54-1.08-.45a1.52 1.52 0 00-.539.27c-1.394.944-3.283.9-4.677-.045l-.27-.135c-.495-.225-.99-.135-1.26.315-.314.45-.27.944.135 1.35.09.089.18.134.225.224l.045.045c.63.495 1.394.81 2.384.944l-.585.585-1.529 1.53c-.135.134-.315.36-.315.674 0 .405.225.81.63.99.135.09.27.09.405.09.225 0 .494-.09.674-.315l1.754-1.755.045-.044s.045 0 .045.044c.36.405.765.765 1.125 1.17l.54.54c.224.225.404.315.674.315.405.044.855-.225 1.035-.63a.9.9 0 00-.225-1.08c-.45-.45-.9-.944-1.395-1.394l-.764-.764c.405-.045.854-.135 1.26-.315.674-.225 1.169-.54 1.573-.945z"/></g></svg>