<svg width="24" height="24" fill="none" xmlns="http://www.w3.org/2000/svg"><rect x="5.145" y="4.645" width="14.71" height="14.71" rx="7.355" stroke="#7D7D7D" stroke-width="1.29"/><path d="M16.893 14.967l.01-1.27a.402.402 0 01.212-.05c.124 0 .223.042.298.127.075.086.391.487.391.661 0 .175-.088.22-.165.307-.077.088-.179.224-.299.224h-.447zm.911-.532v.53h-.464c.117-.031.217-.136.299-.223a.694.694 0 00.165-.307zm-.902-3.184l-1.715 2.004-1.716-1.996.002 3.661h-.9l-.004-5.889h.164l2.458 2.978 2.437-2.978h.173l.003 5.404c-.03-.123-.312-.578-.391-.66-.21.061-.079-.128-.298-.128-.075 0-.147.035-.212.05v-2.446zm-5.859 1.813l.87.006h.002a2.47 2.47 0 01-.106.329 2.333 2.333 0 01-.323.577 2.401 2.401 0 01-.662.607 1.89 1.89 0 01-.244.122 2.64 2.64 0 01-.546.163 3.004 3.004 0 01-1.623-.145 3.057 3.057 0 01-.469-.234 2.998 2.998 0 01-.419-.317 2.08 2.08 0 01-.342-.397 2.718 2.718 0 01-.271-.518 3.046 3.046 0 01-.217-.94 4.057 4.057 0 01.052-1.049 3.036 3.036 0 01.461-1.13 2.253 2.253 0 01.552-.559 3.01 3.01 0 01.445-.267c.079-.038.158-.072.239-.101a2.603 2.603 0 01.503-.136 2.908 2.908 0 01.822-.028 2.975 2.975 0 01.827.207 2.051 2.051 0 01.473.28 2.467 2.467 0 01.428.435 2.117 2.117 0 01.317.55 2.187 2.187 0 01.093.276h-.001l-.883-.005a1.67 1.67 0 00-.223-.36 1.48 1.48 0 00-.79-.504 2.087 2.087 0 00-.54-.069 1.996 1.996 0 00-.396.034 1.718 1.718 0 00-.686.296 1.767 1.767 0 00-.283.262 1.98 1.98 0 00-.381.668c-.09.267-.13.553-.132.845-.002.277.038.541.121.789.081.24.204.466.371.674.084.104.178.198.28.281a1.645 1.645 0 00.682.326c.13.029.262.043.396.043.098 0 .197-.004.295-.017a1.808 1.808 0 00.536-.156 1.604 1.604 0 00.452-.328 1.555 1.555 0 00.32-.51z" fill="#7D7D7D"/></svg>