<svg width="24" height="24" fill="none" xmlns="http://www.w3.org/2000/svg"><path d="M5 19.38c0 .342.303.62.677.62.375 0 .678-.278.678-.62V5.62c0-.342-.303-.62-.678-.62C5.303 5 5 5.278 5 5.62v13.76zm4.065 0c0 .342.303.62.677.62.374 0 .677-.278.677-.62V5.723c0-.343-.303-.62-.677-.62-.374 0-.677.277-.677.62V19.38zm4.064 0c0 .342.303.62.678.62.374 0 .677-.278.677-.62V9.81c0-.342-.303-.62-.678-.62-.374 0-.677.278-.677.62v9.57zm4.516 0c0 .342.303.62.678.62.374 0 .677-.278.677-.62v-8.871c0-.343-.303-.621-.677-.621-.375 0-.678.278-.678.62v8.871z" fill="#0E0E0E"/><g clip-path="url(#clip0_13751_167379)"><path d="M15 6.902l1.516 1.41L19 6" stroke="#0E0E0E" stroke-width="1.522" stroke-linecap="round" stroke-linejoin="round"/></g><defs><clipPath id="clip0_13751_167379"><path fill="#fff" transform="translate(14 5)" d="M0 0h6v5H0z"/></clipPath></defs></svg>