<svg width="34" height="28" fill="none" xmlns="http://www.w3.org/2000/svg"><path d="M5 23.333c0 .369.325.667.726.667.4 0 .726-.299.726-.667v-5.777c0-.369-.325-.667-.726-.667-.401 0-.726.298-.726.667v5.777zm4.355 0c0 .369.325.667.726.667.4 0 .726-.299.726-.667V8.667c0-.369-.325-.667-.726-.667-.401 0-.726.298-.726.667v14.666zm4.355 0c0 .369.325.667.725.667.401 0 .726-.299.726-.667V10.444c0-.368-.325-.666-.726-.666-.4 0-.725.298-.725.666v12.89zm4.838 0c0 .369.325.667.726.667.401 0 .726-.299.726-.667v-9.777c0-.369-.325-.667-.726-.667-.4 0-.726.298-.726.667v9.777z" fill="#999"/><rect x="14.5" y=".5" width="19" height="19" rx="9.5" fill="#0E0E0E"/><rect x="14.5" y=".5" width="19" height="19" rx="9.5" stroke="#fff"/><path d="M20.35 12.21v-.87l3.834-6.067h.631v1.346h-.426l-2.898 4.585v.069h5.165v.937H20.35zM24.456 14V5.273h1.006V14h-1.006z" fill="#fff"/></svg>