<svg width="24" height="24" fill="none" xmlns="http://www.w3.org/2000/svg"><g fill="#999"><path d="M5 19.38c0 .342.303.62.677.62.375 0 .678-.278.678-.62V5.62c0-.342-.303-.62-.678-.62C5.303 5 5 5.278 5 5.62v13.76zm4.065 0c0 .342.303.62.677.62.374 0 .677-.278.677-.62V5.723c0-.343-.303-.62-.677-.62-.374 0-.677.277-.677.62V19.38zm4.064 0c0 .342.303.62.677.62.375 0 .678-.278.678-.62v-8.76c0-.342-.303-.62-.678-.62-.374 0-.677.278-.677.62v8.76zm4.516 0c0 .342.303.62.678.62.374 0 .677-.278.677-.62v-6.782c0-.343-.303-.621-.677-.621-.375 0-.678.278-.678.62v6.782zM17 5a.75.75 0 01.75.75v4.5a.75.75 0 01-1.5 0v-4.5A.75.75 0 0117 5z"/><path d="M14 8a.75.75 0 01.75-.75h4.5a.75.75 0 010 1.5h-4.5A.75.75 0 0114 8z"/></g></svg>