<svg width="24" height="24" fill="none" xmlns="http://www.w3.org/2000/svg"><path d="M5 19.333c0 .369.325.667.726.667.4 0 .726-.299.726-.667v-5.777c0-.369-.325-.667-.726-.667-.401 0-.726.298-.726.667v5.777zm4.355 0c0 .369.325.667.726.667.4 0 .726-.299.726-.667V4.667c0-.369-.325-.667-.726-.667-.401 0-.726.298-.726.667v14.666zm4.355 0c0 .369.325.667.725.667.401 0 .726-.299.726-.667V6.444c0-.368-.325-.666-.726-.666-.4 0-.725.298-.725.666v12.89zm4.838 0c0 .369.325.667.726.667.401 0 .726-.299.726-.667V9.556c0-.369-.325-.667-.726-.667-.4 0-.726.298-.726.667v9.777z" fill="#2A65C5"/></svg>