<svg width="24" height="24" fill="none" xmlns="http://www.w3.org/2000/svg"><g fill="#0E0E0E"><path d="M15.2 14.4a5.6 5.6 0 10-11.2 0 5.6 5.6 0 0011.2 0z"/><path d="M9.6 8.8v.75-.75zm5.6 5.6h.75-.75zM9.6 20v-.75.75zm4.8-16v-.75V4zM20 9.6h-.75.75zM8.85 8.85l.1.743-.1-.743zm6.3 6.3l-.743-.1.743.1zM9.6 9.55a4.85 4.85 0 014.85 4.85h1.5A6.35 6.35 0 009.6 8.05v1.5zm0 9.7a4.85 4.85 0 01-4.85-4.85h-1.5a6.35 6.35 0 006.35 6.35v-1.5zm4.8-14.5a4.85 4.85 0 014.85 4.85h1.5a6.35 6.35 0 00-6.35-6.35v1.5zm-4.8 3.3c-.288 0-.571.02-.85.056l.2 1.487c.212-.028.429-.043.65-.043v-1.5zm6.294 7.2a6.41 6.41 0 00.056-.85h-1.5c0 .221-.015.438-.043.65l1.487.2zM19.25 9.6a4.851 4.851 0 01-4.2 4.807l.2 1.487a6.351 6.351 0 005.5-6.294h-1.5zm-4.843 5.45a4.851 4.851 0 01-4.807 4.2v1.5a6.351 6.351 0 006.294-5.5l-1.487-.2zm-4.814-6.1a4.851 4.851 0 014.807-4.2v-1.5a6.351 6.351 0 00-6.294 5.5l1.487.2zM4.75 14.4a4.851 4.851 0 014.2-4.807l-.2-1.487a6.351 6.351 0 00-5.5 6.294h1.5z"/></g></svg>