<svg width="32" height="32" fill="none" xmlns="http://www.w3.org/2000/svg"><g clip-path="url(#clip0_13751_167807)"><path d="M2 21.952C2 24.414 3.5 26 5.758 26a3.938 3.938 0 001.76-.44 3.81 3.81 0 001.355-1.174l1.788-2.294c.09-.14.215-.258.362-.342a1.1 1.1 0 01.483-.143h9.488c.17.01.336.059.483.143.147.084.271.201.362.342l1.788 2.294c.349.491.813.894 1.355 1.175.542.28 1.145.43 1.76.439C29 26 30.5 24.414 30.5 21.952a13.194 13.194 0 00-.615-3.6 57.541 57.541 0 00-2.663-7.342c-.846-1.865-1.278-2.798-3.374-3.255a38.607 38.607 0 00-15.196 0c-2.086.504-2.528 1.362-3.374 3.255a57.52 57.52 0 00-2.663 7.341 13.614 13.614 0 00-.615 3.6z" stroke="#3C82FF" stroke-width="1.727" stroke-miterlimit="10"/><path d="M21.864 13.91a.864.864 0 100-1.727.864.864 0 000 1.728zm0 3.455a.864.864 0 100-1.727.864.864 0 000 1.727zm-1.727-1.727a.864.864 0 100-1.727.864.864 0 000 1.727zm3.455 0a.864.864 0 100-1.727.864.864 0 000 1.727z" fill="#3C82FF"/><g fill="#3C82FF"><path d="M9.774 16.07c.478 0 .864.432.864-3.023a.864.864 0 00-1.727 0c0 3.455.387 3.023.864 3.023z"/><path d="M9.774 17.365a.864.864 0 00.864-.863c0-2.322-.386-3.023-.864-3.023-.476 0-.863.441-.863 3.023 0 .477.387.863.864.863z"/><path d="M8.047 15.638c3.455 0 3.455-.386 3.455-.864 0-.476 0-.863-3.455-.863a.864.864 0 100 1.727z"/><path d="M11.502 15.638a.864.864 0 000-1.727c-3.67.027-3.455.386-3.455.864 0 .476.432.863 3.455.863z"/></g></g><defs><clipPath id="clip0_13751_167807"><path fill="#fff" transform="translate(1 6)" d="M0 0h31v21H0z"/></clipPath></defs></svg>