<svg width="24" height="24" fill="none" xmlns="http://www.w3.org/2000/svg"><g stroke="#2A65C5" stroke-linecap="round" stroke-linejoin="round"><path d="M13.001 11.998a2.571 2.571 0 100-5.142 2.571 2.571 0 000 5.142z"/><path d="M4 6.857h1.286V5.571A2.571 2.571 0 017.857 3h10.286a2.571 2.571 0 012.571 2.571V18.43A2.57 2.57 0 0118.143 21H7.857a2.571 2.571 0 01-2.571-2.571v-1.286H4M4 12h1.286M4 9.429h1.286M4 14.57h1.286"/><path clip-rule="evenodd" d="M16.859 15.857v-1.286A2.571 2.571 0 0014.287 12h-2.571a2.571 2.571 0 00-2.571 2.571v1.286a1.286 1.286 0 001.285 1.286h5.143a1.286 1.286 0 001.286-1.286z"/></g></svg>