<svg width="24" height="24" fill="none" xmlns="http://www.w3.org/2000/svg"><path d="M17 8.917a.75.75 0 000-1.5v1.5zm-11-1.5a.75.75 0 100 1.5v-1.5zm9.624 7.538l-.749-.045.749.045zm-8.248 0L6.627 15l.75-.045zm.732 3.46l.541-.518-.541.519zm5.61-11.486L13 7.143l.719-.214zm.063.21l.719-.215-.719.215zm-4.562 0L8.5 6.924l.719.215zm.063-.21l.718.214-.718-.214zm-.086.285l.713.23-.713-.23zm-1.255.203a.75.75 0 100 1.5v-1.5zm.07.75l.022.749-.021-.75zm5.793-.953l.713-.232-.713.232zm1.255 1.703a.75.75 0 000-1.5v1.5zm-.07-.75l-.022.749.021-.75zm-2.094-2.153l.131-.739-.131.739zm.707.569l.68-.317-.68.317zm-3.497-.57l-.131-.738.131.739zm-.707.57l-.68-.317.68.317zm-1.53 4.015a.75.75 0 00-1.498.09l1.497-.09zm8.762.09a.75.75 0 00-1.497-.09l1.497.09zM17 7.417H6v1.5h11v-1.5zM11.25 19.75h.5v-1.5h-.5v1.5zm.5 0c.838 0 1.548.002 2.115-.08.597-.088 1.133-.28 1.57-.736l-1.084-1.037c-.124.13-.298.229-.702.288-.434.063-1.015.065-1.899.065v1.5zm3.125-4.84c-.058.977-.1 1.644-.188 2.143-.087.485-.202.704-.336.844l1.083 1.037c.426-.444.619-.997.73-1.617.108-.606.152-1.377.209-2.317l-1.498-.09zm-3.625 3.34c-.884 0-1.465-.002-1.899-.065-.404-.06-.578-.159-.702-.288l-1.083 1.037c.436.455.972.648 1.569.735.567.083 1.277.081 2.115.081v-1.5zM6.627 15c.057.94.101 1.71.21 2.317.11.62.303 1.173.729 1.617l1.083-1.037c-.134-.14-.25-.359-.336-.844-.089-.499-.13-1.166-.188-2.143L6.627 15zm3.809-8.25h2.128v-1.5h-2.128v1.5zM13 7.143l.063.21 1.437-.429-.063-.21-1.437.43zm-3.063.21l.063-.21-1.437-.429-.063.21 1.437.43zM8.5 6.925a3.153 3.153 0 01-.017.058l1.426.463c.01-.028.018-.057.028-.091L8.5 6.924zm-.559 1.993l.092-.001-.042-1.5h-.05v1.5zm.542-1.935c-.097.3-.318.43-.492.434l.042 1.5c.891-.025 1.61-.651 1.876-1.471l-1.426-.463zm4.58.372l.028.09 1.427-.462a3.105 3.105 0 01-.018-.058l-1.437.43zm1.996.063h-.05l-.042 1.499h.092v-1.5zm-1.968.028c.265.82.985 1.446 1.876 1.47l.042-1.498c-.174-.005-.395-.136-.492-.435l-1.426.463zm-.527-.695l.176.001c.033.001.034.003.023 0l.263-1.476c-.157-.028-.321-.025-.462-.025v1.5zm1.873-.036c-.046-.156-.09-.31-.155-.448l-1.36.634c.008.014.017.04.078.243l1.437-.429zm-1.674.038c.04.007.11.042.16.148l1.36-.634a1.734 1.734 0 00-1.257-.99l-.263 1.476zM10.436 5.25c-.14 0-.305-.003-.462.025l.263 1.477c-.01.002-.01 0 .023 0 .037-.002.086-.002.176-.002v-1.5zM10 7.143c.06-.203.07-.229.077-.243l-1.36-.634c-.064.138-.108.292-.154.448l1.437.43zm-.026-1.868a1.733 1.733 0 00-1.256.99l1.36.635c.049-.106.12-.141.159-.148l-.263-1.477zM6.37 10.688L6.627 15l1.498-.09-.258-4.312-1.497.09zM16.373 15l.257-4.312-1.497-.09-.258 4.312 1.498.09z" fill="#999"/></svg>