<svg width="50" height="50" fill="none" xmlns="http://www.w3.org/2000/svg"><rect width="50" height="50" rx="10" fill="#547DBA" fill-opacity=".2"/><g clip-path="url(#clip0_13751_167704)"><g clip-path="url(#clip1_13751_167704)"><path d="M21.68 32.932h9.015v-1.62h-9.016v1.62zm9.054-11.494h3.4c.505 0 .86.09 1.266.543l3.104 3.553c.267.302.405.725.405 1.087v3.553c0 .755-.386 1.137-1.127 1.137h-1.591v1.62h1.62c1.76 0 2.69-.935 2.69-2.727v-3.553c0-.986-.159-1.449-.702-2.073l-3.361-3.865c-.583-.664-1.236-.896-2.205-.896h-3.499v1.62zM19.05 35.74c1.858 0 3.37-1.54 3.37-3.442 0-1.892-1.512-3.432-3.37-3.432-1.869 0-3.39 1.54-3.39 3.432 0 1.902 1.521 3.442 3.39 3.442zm0-1.369c-1.127 0-2.047-.926-2.047-2.073 0-1.138.92-2.074 2.047-2.074 1.117 0 2.026.936 2.026 2.074 0 1.147-.91 2.073-2.026 2.073zm14.244 1.369c1.869 0 3.371-1.54 3.371-3.442 0-1.892-1.502-3.432-3.37-3.432-1.869 0-3.382 1.54-3.382 3.432 0 1.902 1.513 3.442 3.381 3.442zm0-1.369c-1.117 0-2.036-.926-2.036-2.073 0-1.138.92-2.074 2.036-2.074 1.107 0 2.027.936 2.027 2.074 0 1.147-.9 2.073-2.027 2.073zm-21.58-4.167c0 1.792.92 2.728 2.69 2.728h2.165v-1.62h-2.146c-.741 0-1.117-.383-1.117-1.138V23.39a5.671 5.671 0 01-1.591-.442v7.256zm17.201-15.942h-8.867c.237.513.396 1.046.484 1.62h8.354c.73 0 1.126.393 1.126 1.147v14.756l1.592-.584V16.999c0-1.791-.93-2.737-2.689-2.737zm4.538 12.48h4.31c0-.242-.09-.372-.238-.544l-2.946-3.371c-.217-.232-.474-.383-.751-.383h-1.226v3.443c0 .533.327.855.85.855zm-18.971-4.568c2.697 0 4.982-2.303 4.982-5.087 0-2.794-2.246-5.087-4.982-5.087-2.726 0-4.982 2.303-4.982 5.087 0 2.804 2.256 5.087 4.982 5.087z" fill="#0E0E0E"/><path d="M12.277 17.65c-.317 0-.562-.292-.562-.647 0-.344.254-.637.563-.637h1.633v-2.61c0-.356.254-.627.563-.627.308 0 .562.271.562.627v3.247c0 .366-.245.648-.562.648h-2.197z" fill="#fff"/></g></g><defs><clipPath id="clip0_13751_167704"><path fill="#fff" transform="translate(9.5 11.5)" d="M0 0h31v27H0z"/></clipPath><clipPath id="clip1_13751_167704"><path fill="#fff" transform="translate(9.5 12)" d="M0 0h31v26H0z"/></clipPath></defs></svg>