<svg width="26" height="24" fill="none" xmlns="http://www.w3.org/2000/svg"><g clip-path="url(#clip0_13751_167795)"><path d="M10.389 18.1h7.08v-1.247h-7.08V18.1zM17.5 9.258h2.671c.396 0 .676.07.994.419l2.438 2.732c.21.233.318.558.318.837v2.733c0 .58-.303.875-.885.875h-1.25V18.1h1.273c1.382 0 2.112-.72 2.112-2.098v-2.733c0-.759-.124-1.115-.551-1.595l-2.64-2.973c-.458-.511-.97-.69-1.731-.69H17.5v1.247zM8.323 20.26a2.649 2.649 0 002.648-2.648 2.647 2.647 0 00-2.648-2.64c-1.467 0-2.663 1.185-2.663 2.64a2.657 2.657 0 002.663 2.648zm0-1.053a1.601 1.601 0 01-1.607-1.595 1.598 1.598 0 013.199 0c0 .883-.714 1.595-1.592 1.595zm11.188 1.053a2.644 2.644 0 100-5.288 2.649 2.649 0 00-2.655 2.64 2.65 2.65 0 002.655 2.648zm0-1.053a1.6 1.6 0 01-1.6-1.595c0-.875.723-1.595 1.6-1.595.87 0 1.592.72 1.592 1.595 0 .883-.707 1.595-1.592 1.595zM2.563 16.002c0 1.378.722 2.098 2.111 2.098h1.7v-1.247H4.69c-.582 0-.877-.294-.877-.874V10.76a4.522 4.522 0 01-1.25-.34v5.582zM16.072 3.738H9.108c.186.395.31.805.38 1.247h6.56c.575 0 .886.302.886.882v11.35l1.25-.449V5.844c0-1.378-.73-2.106-2.112-2.106zm3.564 9.6h3.385c0-.185-.07-.286-.187-.417l-2.313-2.594c-.171-.178-.373-.294-.59-.294h-.963v2.647c0 .41.256.659.668.659zM4.737 9.826c2.119 0 3.913-1.772 3.913-3.913A3.929 3.929 0 004.737 2C2.596 2 .824 3.772.824 5.913c0 2.157 1.772 3.913 3.913 3.913z" fill="#2A65C5"/><path d="M3.004 6.35c-.25 0-.442-.226-.442-.499 0-.265.2-.49.442-.49h1.283V3.353c0-.273.2-.482.442-.482.243 0 .442.209.442.482v2.498c0 .281-.192.498-.442.498H3.004z" fill="#fff"/></g><defs><clipPath id="clip0_13751_167795"><path fill="#fff" transform="translate(.824 2)" d="M0 0h24.348v20H0z"/></clipPath></defs></svg>