<svg width="24" height="24" fill="none" xmlns="http://www.w3.org/2000/svg"><g fill-rule="evenodd" clip-rule="evenodd" fill="#0E0E0E"><path d="M18.093 2.549c-.552-.31-1.14-.34-1.762-.263-.59.074-1.308.26-2.171.485l-2.02.524c-.863.225-1.58.41-2.13.634-.578.234-1.078.548-1.402 1.093-.326.548-.358 1.134-.277 1.746.077.577.27 1.277.5 2.11l.543 1.965c.23.835.424 1.534.654 2.07.245.57.572 1.055 1.128 1.367.553.309 1.14.34 1.762.262.59-.073 1.31-.26 2.173-.485l2.019-.524c.863-.224 1.58-.411 2.13-.634.579-.234 1.079-.548 1.402-1.093.326-.548.358-1.134.277-1.745-.076-.577-.27-1.278-.5-2.112l-.543-1.964c-.23-.834-.424-1.534-.655-2.07-.244-.57-.573-1.055-1.128-1.366zm-3.605 1.686c.925-.24 1.547-.4 2.03-.46.46-.058.681-.007.842.083.157.088.309.24.483.65.186.43.354 1.029.602 1.927l.514 1.863c.248.898.413 1.498.474 1.96.058.439.006.638-.08.78-.088.148-.245.297-.676.47-.447.182-1.07.346-1.994.586l-1.92.499c-.925.24-1.549.4-2.03.46-.463.059-.683.008-.844-.082-.156-.088-.307-.242-.482-.65-.185-.43-.354-1.03-.601-1.928l-.514-1.862c-.25-.9-.413-1.5-.474-1.96-.058-.44-.006-.638.08-.782.087-.147.245-.296.675-.47.447-.181 1.07-.344 1.995-.585l1.92-.5z"/><path d="M3.202 4.725a.75.75 0 00-.4 1.445l1.703.473c.426.118.743.44.851.83l1.952 7.064c-.076.015-.15.032-.225.052-1.977.513-3.185 2.502-2.643 4.467.54 1.955 2.594 3.082 4.563 2.57 1.724-.447 2.863-2.016 2.767-3.712l8.42-2.188a.75.75 0 10-.377-1.452l-8.438 2.193a3.718 3.718 0 00-2.506-1.91L6.802 7.074a2.707 2.707 0 00-1.896-1.878l-1.703-.472h-.001zM7.461 16.04c1.212-.314 2.428.389 2.74 1.519.31 1.12-.37 2.303-1.574 2.616-1.212.315-2.428-.39-2.74-1.52-.31-1.12.37-2.302 1.574-2.615z"/></g></svg>