<svg width="50" height="50" fill="none" xmlns="http://www.w3.org/2000/svg"><rect width="50" height="50" rx="10" fill="#547DBA" fill-opacity=".2"/><g stroke="#0E0E0E" stroke-width="1.5"><path d="M31.179 21.04l.463-.464a1.966 1.966 0 112.781 2.78l-.463.464m-2.781-2.78s.058.984.927 1.853c.869.87 1.854.927 1.854.927m-2.781-2.78l-4.26 4.26c-.29.288-.434.433-.558.592-.146.188-.271.39-.374.606-.087.182-.151.375-.28.762l-.413 1.24-.134.401m8.8-5.08l-4.26 4.26c-.29.29-.434.433-.593.557-.188.146-.39.271-.606.374-.182.087-.375.151-.762.28l-1.24.413-.401.134m-.938-.938l-.133.402a.53.53 0 00.67.67l.401-.134m-.938-.938l.938.938"/><path d="M21 26h2.5M21 22h6.5M21 30h1.5m10.328-13.828C31.657 15 29.771 15 26 15h-2c-3.771 0-5.657 0-6.828 1.172C16 17.343 16 19.229 16 23v4c0 3.771 0 5.657 1.172 6.828C18.343 35 20.229 35 24 35h2c3.771 0 5.657 0 6.828-1.172.944-.943 1.127-2.348 1.163-4.828" stroke-linecap="round"/></g></svg>