<svg width="24" height="24" fill="none" xmlns="http://www.w3.org/2000/svg"><path d="M17.213 14h.773c.115 0 .21-.17.214-.378v-3.244c0-.209-.096-.378-.213-.378h-.773c-.118 0-.214.17-.214.378v3.244c0 .209.096.378.213.378z" fill="#0E0E0E"/><path fill-rule="evenodd" clip-rule="evenodd" d="M8.309 17.647A.313.313 0 018 17.332v-3.017a.315.315 0 11.628 0v2.377l.472-.374a.302.302 0 01.384 0l.472.374v-2.377a.315.315 0 01.628 0v3.023c0 .12-.07.228-.173.282a.307.307 0 01-.33-.038l-.786-.618-.786.618a.352.352 0 01-.2.065z" fill="#0E0E0E"/><rect x="3" y="21" width="19" height="1.2" rx=".6" fill="#0E0E0E"/><path d="M7 14.85V4a2 2 0 012-2h9a2 2 0 012 2v17.474h-8" stroke="#0E0E0E" stroke-width="1.2"/><mask id="a" fill="#fff"><path d="M5 15a1 1 0 011-1h6a1 1 0 011 1v7H5v-7z"/></mask><path d="M5 15a1 1 0 011-1h6a1 1 0 011 1v7H5v-7z" stroke="#0E0E0E" stroke-width="2.4" mask="url(#a)"/></svg>