<svg width="24" height="24" fill="none" xmlns="http://www.w3.org/2000/svg"><path d="M16.182 5.549a22.954 22.954 0 00-3.768-3.42.736.736 0 00-.835 0 22.96 22.96 0 00-3.76 3.42C5.318 8.368 4 11.339 4 14.143c0 2.084.843 4.082 2.343 5.556A8.074 8.074 0 0012 22a8.075 8.075 0 005.657-2.301A7.787 7.787 0 0020 14.143c0-2.804-1.32-5.775-3.818-8.594zM12 20.57a6.613 6.613 0 01-4.626-1.885 6.378 6.378 0 01-1.92-4.543c0-5.11 5.043-9.375 6.546-10.536 1.503 1.16 6.546 5.424 6.546 10.536a6.378 6.378 0 01-1.92 4.543A6.613 6.613 0 0112 20.571zm5.08-5.594a5.114 5.114 0 01-1.451 2.73 5.269 5.269 0 01-2.78 1.426.734.734 0 01-.613-.179.71.71 0 01-.083-.964.73.73 0 01.454-.266c1.507-.249 2.785-1.504 3.04-2.987a.713.713 0 01.296-.463.738.738 0 011.015.17.705.705 0 01.123.533z" fill="#0E0E0E"/></svg>