<svg width="24" height="24" fill="none" xmlns="http://www.w3.org/2000/svg"><path d="M15.765 6.666v2.61l-2.23-.05c-1.716 0-1.779 0-2.374.157a5.444 5.444 0 00-3.61 2.87 5.343 5.343 0 000 4.726 5.448 5.448 0 003.578 2.862c.44.115.894.168 1.349.158.442.01.883-.041 1.31-.152a5.468 5.468 0 004.003-3.911c.158-.632.152-.341.171-5.27 0-2.47.032-4.979.038-5.58V4h-2.254l.019 2.666zm0 6.78c0 1.51.145 2.098-.425 3.014-.57.916-1.228 1.075-2.096 1.264-1.57.36-3.628-.98-3.8-2.527a4.414 4.414 0 01.419-2.528c.418-.847 1.266-1.049 2.229-1.049h3.647l.026 1.826z" stroke="#06C" stroke-width=".669" stroke-miterlimit="10"/></svg>