<svg width="24" height="24" fill="none" xmlns="http://www.w3.org/2000/svg"><g clip-path="url(#clip0_13751_167366)"><path d="M6.698 20h10.087c1.547 0 2.44-.895 2.44-2.668v-9.2l-1.383 1.385v7.746c0 .895-.48 1.351-1.074 1.351H6.724c-.86 0-1.34-.456-1.34-1.35v-9.77c0-.894.48-1.36 1.34-1.36h7.827l1.384-1.385H6.698C4.911 4.75 4 5.644 4 7.417v9.915C4 19.114 4.91 20 6.698 20zm3.128-5.577l1.675-.732 8.025-8.03L18.35 4.5l-8.016 8.03-.774 1.618c-.068.146.103.344.267.275zm10.336-9.39l.619-.637c.292-.31.292-.723 0-1.007l-.198-.206c-.266-.267-.687-.233-.97.043l-.628.62 1.177 1.187z" fill="#2A65C5"/></g><defs><clipPath id="clip0_13751_167366"><path fill="#fff" transform="translate(4 3)" d="M0 0h17v18H0z"/></clipPath></defs></svg>