<svg width="24" height="24" fill="none" xmlns="http://www.w3.org/2000/svg"><path fill-rule="evenodd" clip-rule="evenodd" d="M18.41 9.123h-4.506l2.686-6.295a.597.597 0 00-.264-.757.589.589 0 00-.28-.071H10.14a.589.589 0 00-.544.36l-3.544 8.31a.596.596 0 00.543.828h2.923L6.046 20.18c-.236.59.493 1.09.953.653l5.936-5.63 5.858-5.036a.594.594 0 00-.384-1.045zm-5.401 1.188h3.8l-4.664 4.01-4 3.793 2.795-6.989a.595.595 0 00-.548-.814H7.49l3.039-7.124h4.622l-2.686 6.296a.596.596 0 00.544.828z" fill="#0E0E0E"/></svg>