<svg width="28" height="28" fill="none" xmlns="http://www.w3.org/2000/svg"><path d="M6 11.935c0 3.48 2.876 6.903 7.42 9.844.17.107.41.221.58.221.17 0 .41-.114.588-.22C19.124 18.837 22 15.414 22 11.934 22 9.042 20.042 7 17.432 7c-1.49 0-2.699.719-3.432 1.822C13.283 7.727 12.058 7 10.568 7 7.958 7 6 9.042 6 11.935zm1.297 0c0-2.174 1.386-3.62 3.255-3.62 1.514 0 2.385.956 2.9 1.773.218.327.355.417.548.417.193 0 .314-.098.548-.417.556-.8 1.394-1.773 2.9-1.773 1.87 0 3.255 1.446 3.255 3.62 0 3.039-3.166 6.315-6.534 8.586-.08.057-.137.098-.169.098s-.089-.04-.161-.098c-3.376-2.271-6.542-5.547-6.542-8.586z" fill="#999"/></svg>