<svg width="24" height="24" fill="none" xmlns="http://www.w3.org/2000/svg"><path d="M15.875 6c-1.305 0-2.557.574-3.375 1.48C11.682 6.575 10.43 6 9.125 6 6.815 6 5 7.714 5 9.896c0 2.678 2.55 4.86 6.412 8.176L12.5 19l1.088-.935C17.45 14.756 20 12.575 20 9.896 20 7.714 18.185 6 15.875 6zm-3.3 11.016l-.075.071-.075-.07C8.855 13.962 6.5 11.943 6.5 9.896c0-1.417 1.125-2.48 2.625-2.48 1.155 0 2.28.701 2.678 1.672h1.402c.39-.97 1.515-1.672 2.67-1.672 1.5 0 2.625 1.063 2.625 2.48 0 2.047-2.355 4.066-5.925 7.12z" fill="#999"/></svg>