<svg width="34" height="28" fill="none" xmlns="http://www.w3.org/2000/svg"><path d="M3 13.264c0 3.712 3.236 7.363 8.348 10.5.19.114.462.236.652.236s.462-.122.662-.235C17.764 20.627 21 16.976 21 13.264 21 10.179 18.798 8 15.861 8c-1.677 0-3.036.767-3.861 1.943C11.193 8.776 9.816 8 8.139 8 5.202 8 3 10.179 3 13.264zm1.46 0c0-2.319 1.558-3.86 3.66-3.86 1.705 0 2.684 1.019 3.264 1.89.244.349.399.445.616.445.218 0 .354-.105.616-.445.626-.854 1.568-1.891 3.263-1.891 2.103 0 3.662 1.542 3.662 3.86 0 3.242-3.562 6.737-7.35 9.16-.091.06-.155.104-.191.104-.036 0-.1-.043-.181-.104-3.798-2.423-7.36-5.918-7.36-9.16z" fill="#999"/><rect x="14.5" y=".5" width="19" height="19" rx="9.5" fill="#0E0E0E"/><rect x="14.5" y=".5" width="19" height="19" rx="9.5" stroke="#fff"/><path d="M20.35 12.21v-.87l3.834-6.067h.631v1.346h-.426l-2.898 4.585v.069h5.165v.937H20.35zM24.456 14V5.273h1.006V14h-1.006z" fill="#fff"/></svg>