<svg width="24" height="24" fill="none" xmlns="http://www.w3.org/2000/svg"><path d="M5.714 20h8.748c1.157 0 1.707-.355 1.707-1.137 0-1.863-2.299-4.557-6.081-4.557C6.306 14.306 4 17 4 18.863 4 19.645 4.55 20 5.714 20zm-.335-1.073c-.18 0-.258-.05-.258-.2 0-1.165 1.77-3.348 4.967-3.348 3.197 0 4.96 2.183 4.96 3.348 0 .15-.07.2-.251.2H5.379zm4.709-5.602c1.658 0 3.01-1.507 3.01-3.341 0-1.813-1.338-3.25-3.01-3.25-1.65 0-3.01 1.458-3.01 3.264.008 1.827 1.36 3.327 3.01 3.327zm0-1.074c-1.017 0-1.888-.995-1.888-2.253 0-1.237.857-2.19 1.888-2.19 1.045 0 1.888.939 1.888 2.176 0 1.258-.857 2.267-1.888 2.267zm5.155.761c.23.163.564.114.745-.164.536-.718.857-1.777.857-2.864 0-1.088-.32-2.14-.857-2.865-.181-.277-.516-.327-.745-.164-.286.2-.328.555-.112.846.411.569.634 1.358.634 2.183 0 .824-.23 1.606-.634 2.182-.209.299-.174.64.111.846zm2.577 1.855c.258.178.578.114.766-.156C19.478 13.46 20 11.739 20 9.984c0-1.756-.515-3.49-1.414-4.728-.188-.27-.508-.334-.766-.156-.251.178-.3.512-.09.803.758 1.095 1.19 2.566 1.19 4.08 0 1.515-.446 2.98-1.19 4.081-.203.292-.161.626.09.803z" fill="#7D7D7D"/></svg>