<svg width="24" height="24" fill="none" xmlns="http://www.w3.org/2000/svg"><path d="M12 13.8c.17 0 .313-.058.428-.173a.578.578 0 00.172-.427.579.579 0 00-.173-.427A.583.583 0 0012 12.6a.579.579 0 00-.427.173.583.583 0 00-.173.427c0 .17.058.313.173.428A.578.578 0 0012 13.8zm-.6-2.4h1.2V7.8h-1.2v3.6zM6 18V7.2c0-.33.118-.612.353-.847S6.87 6 7.2 6h9.6c.33 0 .613.118.848.353S18 6.87 18 7.2v7.2c0 .33-.117.613-.352.848a1.153 1.153 0 01-.848.352H8.4L6 18zm1.89-3.6h8.91V7.2H7.2v7.875l.69-.675z" fill="#2A65C5"/></svg>