<svg width="24" height="24" fill="none" xmlns="http://www.w3.org/2000/svg"><g clip-path="url(#clip0_13751_167623)"><path d="M15.203 20c1.179 0 2.143-.951 2.143-2.114 0-1.163-.964-2.114-2.143-2.114-1.18 0-2.153.951-2.153 2.114 0 1.163.973 2.114 2.152 2.114zm0-1.083c-.59 0-1.046-.458-1.046-1.03 0-.591.456-1.032 1.046-1.032.589 0 1.045.44 1.045 1.031 0 .573-.456 1.03-1.046 1.03zm-1.42-1.744H3.714a.708.708 0 00-.715.713.7.7 0 00.715.705h10.067v-1.418zm6.53 0h-3.556v1.418h3.555a.7.7 0 00.688-.705.709.709 0 00-.688-.713zM8.895 14.627c1.179 0 2.144-.96 2.144-2.123 0-1.162-.965-2.114-2.144-2.114-1.18 0-2.144.952-2.144 2.114 0 1.163.965 2.123 2.144 2.123zm0-1.092c-.58 0-1.045-.458-1.045-1.03 0-.582.464-1.031 1.045-1.031.59 0 1.045.45 1.045 1.03 0 .573-.456 1.03-1.045 1.03zM3.679 11.79c-.366 0-.679.317-.679.713 0 .397.313.705.679.705h3.68V11.79H3.68zm16.597 0h-9.96v1.418h9.96a.708.708 0 100-1.418zm-5.073-2.554c1.179 0 2.143-.952 2.143-2.114S16.382 5 15.203 5c-1.18 0-2.153.96-2.153 2.123 0 1.162.973 2.114 2.152 2.114zm0-1.084a1.03 1.03 0 01-1.046-1.04c0-.58.456-1.03 1.046-1.03.589 0 1.045.45 1.045 1.03a1.03 1.03 0 01-1.046 1.04zm-1.376-1.735H3.715A.7.7 0 003 7.123c0 .396.313.713.715.713h10.112V6.418zm6.485 0h-3.68v1.418h3.68A.709.709 0 0021 7.122a.7.7 0 00-.688-.705z" fill="#0E0E0E"/></g><defs><clipPath id="clip0_13751_167623"><path fill="#fff" transform="translate(3 5)" d="M0 0h18v15H0z"/></clipPath></defs></svg>