<svg width="50" height="50" fill="none" xmlns="http://www.w3.org/2000/svg"><rect width="50" height="50" rx="10" fill="#547DBA" fill-opacity=".2"/><path d="M20.7 26.97l.97-.958-6.697-6.79c-.737-.744-.727-1.52 0-2.264l1.425-1.447c.717-.735 1.505-.724 2.242.01l7.212 7.27 1.01-.908-7.161-7.28c-1.425-1.427-2.94-1.427-4.324-.03l-1.343 1.356c-1.384 1.396-1.384 2.926.03 4.353l6.637 6.689zm-.656-4.536a.37.37 0 00.535 0 .375.375 0 000-.53l-3.777-3.814a.41.41 0 00-.536 0c-.141.163-.151.408 0 .55l3.778 3.794zm1.242-1.244c.142.153.404.132.536 0 .151-.174.151-.408.01-.55l-3.778-3.804a.366.366 0 00-.525 0 .375.375 0 000 .53l3.757 3.824zm13 15.64l1.808-1.825c.212-.224.181-.55-.02-.866l-2.111-3.182c-.213-.316-.536-.54-.9-.59l-.909-.144-4.898-4.945-.94 1.091 5.253 5.282 1.131.194 1.93 2.59-.92.927-2.555-1.947-.202-1.142-5.202-5.261-.95 1.08 4.738 4.772.14.918c.051.367.284.693.587.897l3.161 2.161c.323.215.636.215.859-.01zm-19.707-1.203c1.758 1.754 4.111 1.774 5.839.02 2.222-2.263 1.818-4.832 8.949-12l-.879-.897c-7.777 7.881-6.596 9.35-9.1 11.878-1.122 1.142-2.637 1.152-3.809-.01-1.161-1.193-1.14-2.712-.03-3.844 2.525-2.539 3.98-1.336 11.777-9.187l-.878-.887c-7.101 7.199-9.646 6.79-11.889 9.024-1.747 1.743-1.727 4.13.02 5.903zm2.88-1.62c.686 0 1.252-.572 1.252-1.265a1.246 1.246 0 10-2.495 0c0 .693.555 1.264 1.242 1.264zm9.686-11.074c2.313 2.335 6 2.417 8.242.163 1.818-1.835 2.13-4.73.777-7.076l-.98 1c.85 1.753.566 3.793-.747 5.128-1.707 1.723-4.535 1.642-6.343-.163-1.798-1.815-1.869-4.69-.151-6.403 1.313-1.326 3.363-1.611 5.05-.744l.99-1c-2.303-1.356-5.162-1.05-6.98.796-2.232 2.243-2.161 5.964.142 8.3zm3.06-4.578l1.495 1.499c.747.755 1.707.775 2.414.051l2.121-2.151-.889-.887-1.929 1.927c-.273.275-.616.295-.909 0l-1.232-1.255c-.293-.305-.323-.662-.05-.938l1.949-1.947-.92-.897-2.1 2.13c-.748.745-.728 1.703.05 2.468z" fill="#0E0E0E"/></svg>