<svg width="28" height="28" fill="none" xmlns="http://www.w3.org/2000/svg"><path d="M17.484 12.945c-.154-.209-.341-.39-.515-.57-.449-.416-.958-.715-1.386-1.153-.998-1.014-1.219-2.687-.583-3.972-.636.16-1.191.52-1.667.917-1.734 1.444-2.417 3.993-1.6 6.18.027.07.054.14.054.23 0 .152-.1.291-.235.347-.154.07-.314.028-.441-.083a.4.4 0 01-.094-.119c-.757-.993-.877-2.416-.368-3.555-1.119.944-1.728 2.542-1.64 4.049.04.347.08.694.193 1.041.094.417.275.834.476 1.202.723 1.201 1.975 2.062 3.32 2.236 1.433.187 2.966-.084 4.065-1.111 1.225-1.153 1.653-3 1.024-4.584L18 13.82c-.14-.32-.516-.875-.516-.875zM15.37 17.32a2.17 2.17 0 01-.737.416c-.75.278-1.5-.11-1.941-.569a1.893 1.893 0 001.412-1.424c.114-.555-.1-1.014-.187-1.548-.08-.514-.067-.952.114-1.431.127.264.26.528.421.736.516.695 1.326 1 1.5 1.945.027.097.04.194.04.298.02.57-.22 1.195-.622 1.577z" fill="url(#paint0_linear_13751_167304)"/><defs><linearGradient id="paint0_linear_13751_167304" x1="17.547" y1="11.325" x2="4.132" y2="19.197" gradientUnits="userSpaceOnUse"><stop stop-color="#FFDF92"/><stop offset="1" stop-color="#FF5E59"/></linearGradient></defs></svg>