<svg width="50" height="50" fill="none" xmlns="http://www.w3.org/2000/svg"><rect width="50" height="50" rx="10" fill="#547DBA" fill-opacity=".2"/><path d="M27.811 36.128h0l-.242.244a5.977 5.977 0 01-.576-.34l.082-.263s0 0 0 0a3.259 3.259 0 00-.329-2.682 3.44 3.44 0 00-.954-1.022 3.603 3.603 0 00-1.29-.573s0 0 0 0l-.177-.04a6.01 6.01 0 01-.007-.66l.345-.085s0 0 0 0a3.6 3.6 0 001.256-.578 3.44 3.44 0 00.929-1.004 3.258 3.258 0 00.345-2.625s0 0 0 0l-.135-.457c.18-.117.366-.224.558-.321l.263.265h0c.331.335.73.6 1.17.782a3.663 3.663 0 002.783 0c.44-.18.839-.445 1.17-.78h0l.24-.243c.2.103.392.217.577.34l-.083.262s0 0 0 0a3.26 3.26 0 00.33 2.684c.242.4.567.748.954 1.021.386.274.826.469 1.291.574h.001l.175.04c.014.219.017.44.007.66l-.345.083h0c-.454.11-.882.306-1.257.578a3.439 3.439 0 00-.929 1.004 3.26 3.26 0 00-.345 2.626s0 0 0 0l.135.457c-.18.117-.366.224-.558.322l-.262-.266h0c-.331-.335-.73-.6-1.17-.781a3.662 3.662 0 00-2.782-.002c-.44.18-.838.445-1.17.78zm-10.578-21.92a2.61 2.61 0 011.8-.708h9.098c.68 0 1.326.257 1.8.708.472.45.733 1.056.733 1.681v6.727a9.454 9.454 0 00-.516 0V15.89c0-.524-.22-1.022-.6-1.384a2.055 2.055 0 00-1.417-.561h-9.098c-.527 0-1.038.199-1.417.56-.381.363-.6.86-.6 1.384v17.337c0 .524.219 1.021.6 1.384.38.362.89.561 1.417.561h3.65c.088.151.18.3.278.445h-3.928a2.61 2.61 0 01-1.8-.709 2.322 2.322 0 01-.733-1.68V15.89c0-.626.26-1.232.733-1.682zM28.99 32.443c.38.362.89.561 1.417.561s1.037-.2 1.417-.561c.38-.363.6-.86.6-1.384 0-.524-.22-1.02-.6-1.383a2.056 2.056 0 00-1.417-.561c-.527 0-1.038.199-1.417.56-.381.363-.6.86-.6 1.384 0 .524.219 1.021.6 1.384z" stroke="#5AA0F5"/></svg>