<svg width="24" height="24" fill="none" xmlns="http://www.w3.org/2000/svg"><path d="M4 15.656C4 17.082 4.868 18 6.176 18a2.28 2.28 0 001.018-.255c.314-.162.583-.395.785-.68l1.035-1.328a.637.637 0 01.49-.28h5.492a.637.637 0 01.49.28l1.035 1.329c.202.284.47.517.784.68.314.162.663.25 1.02.254 1.307 0 2.175-.918 2.175-2.344a7.639 7.639 0 00-.356-2.084 33.295 33.295 0 00-1.542-4.25c-.49-1.08-.74-1.62-1.953-1.885a22.352 22.352 0 00-8.798 0c-1.208.292-1.464.789-1.953 1.885a33.301 33.301 0 00-1.542 4.25A7.881 7.881 0 004 15.656z" stroke="#2A65C5" stroke-miterlimit="10"/><path d="M15.5 11a.5.5 0 100-1 .5.5 0 000 1zm0 2a.5.5 0 100-1 .5.5 0 000 1zm-1-1a.5.5 0 100-1 .5.5 0 000 1zm2 0a.5.5 0 100-1 .5.5 0 000 1z" fill="#2A65C5"/><g fill="#2A65C5"><path d="M8.5 12.25c.276 0 .5.25.5-1.75a.5.5 0 00-1 0c0 2 .224 1.75.5 1.75z"/><path d="M8.5 13a.5.5 0 00.5-.5c0-1.344-.224-1.75-.5-1.75s-.5.255-.5 1.75a.5.5 0 00.5.5z"/><path d="M7.5 12c2 0 2-.224 2-.5s0-.5-2-.5a.5.5 0 000 1z"/><path d="M9.5 12a.5.5 0 000-1c-2.125.016-2 .224-2 .5s.25.5 2 .5z"/></g></svg>