<svg width="24" height="24" fill="none" xmlns="http://www.w3.org/2000/svg"><path d="M8.667 1a2.71 2.71 0 00-1.886.758A2.55 2.55 0 006 3.588v6.739c.436-.12.882-.2 1.333-.24V3.588c0-.343.14-.672.39-.915s.59-.379.944-.379H14v4.53c0 .514.21 1.008.586 1.372.375.364.884.569 1.414.569h4.667v10.353c0 .343-.14.672-.39.915a1.36 1.36 0 01-.944.379h-4.8a7.11 7.11 0 01-.876 1.294h5.676a2.71 2.71 0 001.886-.758 2.55 2.55 0 00.781-1.83V8.006a1.91 1.91 0 00-.587-1.371l-5.218-5.067A2.031 2.031 0 0014.78 1H8.667zM20.39 7.47H16a.677.677 0 01-.471-.189.638.638 0 01-.196-.457V2.562l5.058 4.909zM14 17.178a5.738 5.738 0 01-1.757 4.117A6.093 6.093 0 018 23a6.093 6.093 0 01-4.243-1.706A5.738 5.738 0 012 17.177c0-1.545.632-3.026 1.757-4.118A6.094 6.094 0 018 11.353c1.591 0 3.117.614 4.243 1.706A5.738 5.738 0 0114 17.177zM8 13.94a.677.677 0 00-.471.19.637.637 0 00-.196.457v2.589c0 .171.07.336.196.457a.677.677 0 00.942 0 .637.637 0 00.196-.457v-2.589a.637.637 0 00-.196-.457.677.677 0 00-.471-.19zm0 6.632a.846.846 0 00.59-.236.797.797 0 00.243-.572.797.797 0 00-.244-.572.846.846 0 00-.589-.237.846.846 0 00-.59.237.797.797 0 00-.243.572c0 .214.087.42.244.572a.846.846 0 00.589.236z" fill="#0E0E0E"/></svg>