<svg width="24" height="24" fill="none" xmlns="http://www.w3.org/2000/svg"><rect x="9.664" y="9.281" width="1" height="2.1" rx=".5" transform="rotate(52.37 9.664 9.281)" fill="#2A65C5"/><path d="M9.313 14.325a1 1 0 01.637-1.263l.38-.125 1.214 3.687a.7.7 0 11-1.33.438l-.901-2.737z" fill="#2A65C5"/><path d="M6.756 8.476a3.874 3.874 0 011.804-.471 2.39 2.39 0 011.018.157c.324.126.62.322.868.575.248.252.442.556.57.892.128.335.187.695.173 1.056a3.648 3.648 0 01-.544 1.841c-.341.55-.767.927-1.389 1.273C8 14.5 7.161 14.432 6.5 14.5c.14-.351.5-.5.5-1s-.214-1.112-.682-1.648c-.469-.536-1.13-.742-1.818-.852.092-.208.237-.617.5-1 .5-.727 1.198-1.222 1.756-1.524z" stroke="#2A65C5" stroke-width=".526" stroke-miterlimit="10"/><path d="M5.168 14.975c.227.02.455-.012.67-.092.214-.08.41-.206.574-.37a1.69 1.69 0 00.376-.584c.084-.22.123-.457.112-.694a2.358 2.358 0 00-.714-1.518 2.18 2.18 0 00-1.514-.61 1.558 1.558 0 00-.648.116 1.61 1.61 0 00-.55.375c-.158.163-.28.358-.362.573-.08.215-.119.445-.111.676.019.58.257 1.13.663 1.528a2.07 2.07 0 001.504.6z" stroke="#2A65C5" stroke-width=".6" stroke-miterlimit="10"/><ellipse cx="4.576" cy="13.482" rx="1.039" ry=".513" transform="rotate(43.112 4.576 13.482)" fill="#2A65C5"/><rect width="1" height="2.1" rx=".5" transform="scale(-1 1) rotate(52.371 -16.957 -10.651)" fill="#2A65C5"/><path d="M15.39 14.325a1 1 0 00-.637-1.263l-.38-.125-1.214 3.687a.7.7 0 001.33.438l.901-2.737z" fill="#2A65C5"/><path d="M17.948 8.476a3.874 3.874 0 00-1.805-.471 2.39 2.39 0 00-1.017.157 2.48 2.48 0 00-.87.575 2.59 2.59 0 00-.569.892 2.676 2.676 0 00-.173 1.056 3.65 3.65 0 00.544 1.841c.341.55.767.927 1.389 1.273 1.256.701 2.095.633 2.756.701-.14-.351-.5-.5-.5-1s.214-1.112.682-1.648c.469-.536 1.13-.742 1.818-.852-.092-.208-.237-.617-.5-1-.5-.727-1.198-1.222-1.755-1.524z" stroke="#2A65C5" stroke-width=".526" stroke-miterlimit="10"/><path d="M19.535 14.975a1.545 1.545 0 01-.67-.092 1.596 1.596 0 01-.573-.37 1.675 1.675 0 01-.377-.584 1.733 1.733 0 01-.112-.694 2.358 2.358 0 01.714-1.518 2.18 2.18 0 011.514-.61c.222-.009.442.03.649.116.206.084.393.212.55.375a1.73 1.73 0 01.472 1.249 2.245 2.245 0 01-.663 1.528 2.07 2.07 0 01-1.504.6z" stroke="#2A65C5" stroke-width=".6" stroke-miterlimit="10"/><ellipse cx="1.039" cy=".513" rx="1.039" ry=".513" transform="scale(-1 1) rotate(43.112 -25.96 -19.792)" fill="#2A65C5"/></svg>