<svg width="24" height="24" fill="none" xmlns="http://www.w3.org/2000/svg"><path d="M5 19.335c0 .368.325.667.726.667.4 0 .726-.299.726-.667V4.663c0-.369-.325-.667-.726-.667-.401 0-.726.298-.726.667v14.672zm4.355 0c0 .368.325.667.726.667.4 0 .726-.299.726-.667V4.668c0-.368-.325-.666-.726-.666-.401 0-.726.298-.726.666v14.667zm4.355 0c0 .368.325.667.725.667.401 0 .726-.299.726-.667V4.668c0-.368-.325-.666-.726-.666-.4 0-.725.298-.725.666v14.667zm4.838 0c0 .368.325.667.726.667.401 0 .726-.299.726-.667V4.668c0-.368-.325-.666-.726-.666-.4 0-.726.298-.726.666v14.667z" fill="#0E0E0E"/></svg>