<svg width="24" height="24" fill="none" xmlns="http://www.w3.org/2000/svg"><g clip-path="url(#clip0_13751_167321)"><path d="M8 12c0 .23.083.433.258.608l7.297 7.143a.791.791 0 00.598.249c.479 0 .847-.36.847-.839a.866.866 0 00-.248-.599L10.052 12l6.7-6.562a.884.884 0 00.248-.6.826.826 0 00-.847-.838.818.818 0 00-.598.24l-7.297 7.152A.816.816 0 008 12z" fill="#0E0E0E"/></g><defs><clipPath id="clip0_13751_167321"><path fill="#fff" transform="translate(8 4)" d="M0 0h9v16H0z"/></clipPath></defs></svg>