<svg width="28" height="28" fill="none" xmlns="http://www.w3.org/2000/svg"><path d="M14 22c4.377 0 8-3.631 8-8 0-4.376-3.631-8-8.008-8C9.624 6 6 9.624 6 14c0 4.369 3.631 8 8 8zm0-1.333A6.635 6.635 0 017.341 14a6.628 6.628 0 016.651-6.667A6.648 6.648 0 0120.667 14 6.641 6.641 0 0114 20.667zm-1.373-2.275h3.193a.553.553 0 100-1.106h-.973v-3.992c0-.423-.212-.706-.612-.706h-1.474a.556.556 0 00-.573.55c0 .32.251.556.573.556h.839v3.592h-.973a.556.556 0 00-.572.55c0 .32.25.556.572.556zm1.303-7.106c.572 0 1.019-.455 1.019-1.027 0-.573-.447-1.028-1.02-1.028a1.02 1.02 0 00-1.02 1.028 1.02 1.02 0 001.02 1.027z" fill="#0E0E0E"/></svg>