<svg width="24" height="24" fill="none" xmlns="http://www.w3.org/2000/svg"><g fill="#2A65C5"><path d="M7.142 9.602a.61.61 0 00-.429.175.596.596 0 000 .849.611.611 0 00.43.176h4.25a.61.61 0 00.429-.176.596.596 0 000-.849.61.61 0 00-.43-.175h-4.25zm-.607-2.4c0-.16.064-.312.178-.425a.61.61 0 01.43-.175h9.41a.61.61 0 01.43.175.596.596 0 010 .849.61.61 0 01-.43.176h-9.41a.61.61 0 01-.43-.176.596.596 0 01-.178-.424z"/><path fill-rule="evenodd" clip-rule="evenodd" d="M6.535 14.402c0-.16.064-.312.178-.425a.61.61 0 01.43-.175H9.57c.16 0 .315.063.43.175a.597.597 0 01.177.425v2.4a.596.596 0 01-.178.424.611.611 0 01-.43.176H7.143a.611.611 0 01-.429-.176.596.596 0 01-.178-.424v-2.4zm1.214 1.8v-1.2h1.215v1.2H7.749zm6.679 0c.483 0 .946-.19 1.288-.528a1.79 1.79 0 00.533-1.272 1.79 1.79 0 00-.533-1.273 1.832 1.832 0 00-1.288-.527c-.483 0-.946.19-1.288.527a1.79 1.79 0 000 2.545c.342.338.805.528 1.288.528zm0-1.2a.614.614 0 00.586-.364.594.594 0 00-.344-.797.612.612 0 00-.653.146.596.596 0 000 .83.61.61 0 00.411.185zm-3.643 3.709c0-1.27 2.427-1.91 3.643-1.91 1.216 0 3.643.64 3.643 1.91V21h-7.286v-2.29zm1.248.024a.568.568 0 00-.034.034v1.033h4.858V18.77a.559.559 0 00-.034-.036c-.1-.096-.291-.223-.592-.35-.608-.255-1.357-.382-1.803-.382-.446 0-1.196.127-1.803.382-.3.126-.493.255-.592.35z"/><path fill-rule="evenodd" clip-rule="evenodd" d="M7.75 1.8c0-.477.192-.935.533-1.273A1.833 1.833 0 019.571 0h4.858c.483 0 .946.19 1.287.527.342.338.534.796.534 1.273h2.429c.483 0 .946.19 1.288.527.341.338.533.796.533 1.273v18.6c0 .477-.192.935-.534 1.273A1.832 1.832 0 0118.68 24H5.32c-.483 0-.946-.19-1.288-.527A1.79 1.79 0 013.5 22.2V3.6c0-.477.192-.935.533-1.273A1.832 1.832 0 015.321 1.8H7.75zm6.679 3c.483 0 .946-.19 1.287-.527A1.79 1.79 0 0016.25 3h2.429a.61.61 0 01.429.176.597.597 0 01.178.424v18.6c0 .16-.064.312-.178.424a.611.611 0 01-.43.176H5.322a.61.61 0 01-.429-.176.597.597 0 01-.178-.424V3.6c0-.16.064-.312.178-.424A.61.61 0 015.322 3H7.75c0 .477.192.935.533 1.273.342.337.805.527 1.288.527h4.858zM9.57 1.2a.61.61 0 00-.429.176.596.596 0 00-.178.424V3c0 .16.064.312.178.424a.61.61 0 00.43.176h4.857a.61.61 0 00.429-.176.597.597 0 00.178-.424V1.8a.597.597 0 00-.178-.424.61.61 0 00-.43-.176H9.572z"/></g></svg>