<svg width="24" height="24" fill="none" xmlns="http://www.w3.org/2000/svg"><g clip-path="url(#clip0_13751_167596)"><path d="M4 15.196c0 2.674 1.76 4.926 3.889 4.926h2.662c1.06.555 2.345.878 3.78.878h1.12c1 0 1.869-.058 2.444-.199 1.119-.273 1.82-1.043 1.82-2.02a2.1 2.1 0 00-.084-.571c.551-.414.86-1.019.86-1.681 0-.323-.067-.646-.184-.902.376-.381.585-.936.585-1.516 0-.372-.092-.77-.25-1.06.224-.322.358-.778.358-1.258a2.122 2.122 0 00-2.145-2.136H15.81c-.184 0-.3-.083-.3-.24 0-.861 1.368-2.882 1.368-4.504 0-1.118-.784-1.913-1.86-1.913-.794 0-1.328.406-1.853 1.4-.977 1.862-2.145 3.535-4.048 5.836H7.589C5.602 10.236 4 12.464 4 15.196zm4.699-.041c0-1.73.392-2.832 1.477-4.281 1.21-1.606 2.887-3.527 4.098-5.912.3-.604.5-.737.792-.737.342 0 .576.24.576.688 0 1.291-1.368 3.245-1.368 4.504 0 .91.75 1.465 1.71 1.465h2.871c.518 0 .91.39.91.911 0 .38-.125.621-.434.936-.15.132-.167.298-.042.455.259.38.367.613.367.927 0 .373-.175.696-.542.969-.2.157-.284.364-.167.613.209.372.309.546.309.836 0 .422-.276.745-.86 1.043-.184.108-.225.257-.15.43.2.498.225.572.225.779 0 .38-.284.687-.868.836-.475.116-1.235.166-2.145.166h-1.034c-3.439 0-5.725-1.938-5.725-4.629zm-3.464.04c0-2.06 1.118-3.733 2.354-3.733h.726c-.593 1.11-.852 2.268-.852 3.668 0 1.482.535 2.773 1.494 3.759H7.89c-1.41 0-2.654-1.69-2.654-3.693z" fill="#7D7D7D"/></g><defs><clipPath id="clip0_13751_167596"><path fill="#fff" transform="translate(4 3)" d="M0 0h17v18H0z"/></clipPath></defs></svg>