<svg width="28" height="28" fill="none" xmlns="http://www.w3.org/2000/svg"><path d="M14 20c3.282 0 6-2.724 6-6 0-3.282-2.724-6-6.006-6C10.718 8 8 10.718 8 14c0 3.276 2.723 6 6 6zm0-1a4.976 4.976 0 01-4.994-5c0-2.777 2.212-5 4.988-5A4.986 4.986 0 0119 14c0 2.776-2.224 5-5 5zm-1.03-1.706h2.395a.415.415 0 100-.83h-.73v-2.993c0-.318-.159-.53-.458-.53H13.07a.415.415 0 100 .83h.629v2.694h-.73a.415.415 0 100 .83zm.977-5.33a.76.76 0 00.765-.77.764.764 0 10-1.53 0c0 .43.342.77.765.77z" fill="#0E0E0E"/></svg>