<svg width="24" height="24" fill="none" xmlns="http://www.w3.org/2000/svg"><path fill-rule="evenodd" clip-rule="evenodd" d="M14.562 4.61a.61.61 0 10-1.218 0v1.827h-1.828a.61.61 0 100 1.22h1.828v1.827a.61.61 0 101.218 0V7.656h1.829a.61.61 0 100-1.219h-1.829V4.61zM4.61 5.624a.61.61 0 100 1.219h2.376l1.502 5.632.667 2.835a.61.61 0 00.593.47h8.173a.61.61 0 000-1.219h-7.69l-.383-1.625h8.933a.61.61 0 00.6-.503l.86-4.875a.61.61 0 10-1.2-.212l-.771 4.372H9.546L8.042 6.077a.61.61 0 00-.589-.452H4.61zm7.72 12.39a1.219 1.219 0 11-2.439 0 1.219 1.219 0 012.438 0zm4.468 1.22a1.219 1.219 0 100-2.438 1.219 1.219 0 000 2.437z" fill="#0E0E0E"/></svg>