<svg width="24" height="24" fill="none" xmlns="http://www.w3.org/2000/svg"><path d="M12 22c.173 0 .455-.06.726-.198C18.888 18.643 21 17.307 21 13.693V6.119c0-1.04-.487-1.367-1.408-1.723-1.278-.485-5.404-1.842-6.682-2.247A3.176 3.176 0 0012 2c-.303 0-.617.08-.899.149-1.278.336-5.415 1.772-6.693 2.247C3.498 4.743 3 5.079 3 6.119v7.574c0 3.614 2.123 4.94 8.274 8.109.282.139.553.198.726.198zm0-1.792c-.173 0-.347-.06-.671-.238-5.004-2.772-6.607-3.584-6.607-6.643V6.426c0-.337.065-.466.368-.575 1.646-.594 4.841-1.574 6.477-2.168.173-.07.314-.089.433-.089.12 0 .26.03.433.09 1.636.593 4.809 1.643 6.488 2.167.292.1.357.238.357.575v6.9c0 3.06-1.603 3.862-6.607 6.644-.314.178-.498.238-.671.238zm-1.18-3.99c.357 0 .66-.159.877-.456l4.95-7.128c.13-.188.26-.406.26-.634 0-.436-.434-.723-.878-.723-.282 0-.553.149-.758.446l-4.495 6.594-2.133-2.525c-.26-.317-.499-.406-.791-.406-.477 0-.845.347-.845.792 0 .208.098.426.25.614l2.642 2.97c.27.327.563.456.92.456z" fill="#5AA0F5" fill-opacity=".6"/></svg>