<svg width="24" height="24" fill="none" xmlns="http://www.w3.org/2000/svg"><path d="M9.665 9.269h8.812c.29 0 .523-.216.523-.493a.505.505 0 00-.523-.499H9.665c-.297 0-.523.216-.523.5 0 .276.226.492.523.492zm0 3.727h8.812a.51.51 0 00.523-.5c0-.276-.232-.492-.523-.492H9.665c-.297 0-.523.216-.523.493s.226.499.523.499zm0 3.72h8.812c.29 0 .523-.215.523-.492a.505.505 0 00-.523-.5H9.665c-.297 0-.523.216-.523.5 0 .277.226.493.523.493zm-2.852-7.17c.452 0 .813-.345.813-.77 0-.431-.361-.776-.813-.776C6.36 8 6 8.345 6 8.776c0 .425.361.77.813.77zm0 3.727c.452 0 .813-.345.813-.776 0-.431-.361-.776-.813-.776-.452 0-.813.345-.813.776 0 .431.361.776.813.776zm0 3.727c.452 0 .813-.351.813-.776 0-.431-.361-.776-.813-.776-.452 0-.813.345-.813.776 0 .425.361.776.813.776z" fill="#2A65C5"/></svg>