<svg width="24" height="24" fill="none" xmlns="http://www.w3.org/2000/svg"><path d="M12.5 21.837a50.31 50.31 0 01-3.123-4.233c-.924-1.406-1.837-2.974-2.518-4.533C6.175 11.502 5.75 9.996 5.75 8.7c0-3.862 3.036-6.95 6.75-6.95s6.75 3.088 6.75 6.95c0 1.296-.425 2.802-1.11 4.37-.68 1.56-1.593 3.128-2.517 4.534a50.3 50.3 0 01-3.123 4.233zM9.071 8.7c0 1.914 1.518 3.5 3.429 3.5 1.911 0 3.429-1.586 3.429-3.5 0-1.913-1.518-3.5-3.429-3.5-1.911 0-3.429 1.587-3.429 3.5z" stroke="#0E0E0E" stroke-width="1.5"/></svg>