<svg width="24" height="24" fill="none" xmlns="http://www.w3.org/2000/svg"><path d="M11.326 14.058c.07.02.145.04.223.059.482.122 1.126.254 1.69.254.564 0 1.209-.132 1.69-.254l.223-.059v2.704h2.261l-4.189 4.57-4.57-4.57h2.673v-2.704z" stroke="#2A65C5" stroke-width=".957"/><circle cx="12.999" cy="7.573" r="5.109" stroke="#2A65C5" stroke-width=".929"/><path d="M13.96 4.79h-2.156v2.985h-.663v.663h.663v.664h-.663v.663h.663v.995h.664v-.995h1.327v-.663h-1.327v-.664h1.492a1.824 1.824 0 100-3.649zm0 2.985h-1.492V5.453h1.492c.64 0 1.162.52 1.162 1.16 0 .64-.521 1.162-1.162 1.162z" fill="#2A65C5"/></svg>