<svg width="24" height="24" fill="none" xmlns="http://www.w3.org/2000/svg"><path d="M8.667 6.116v15.677M15.333 2v15.834M2 8.458c0-1.667 0-2.5.437-2.986.154-.173.342-.311.552-.407.591-.267 1.368-.003 2.921.524 1.186.402 1.778.604 2.378.582.22-.007.439-.037.653-.088.583-.141 1.103-.494 2.143-1.199l1.536-1.043c1.333-.905 1.999-1.357 2.763-1.46.765-.105 1.525.153 3.044.669l1.294.438c1.1.374 1.65.56 1.965 1.005C22 4.937 22 5.528 22 6.707v9.194c0 1.666 0 2.5-.437 2.986-.154.172-.342.31-.552.405-.591.268-1.368.004-2.921-.523-1.186-.402-1.778-.604-2.378-.582a3.28 3.28 0 00-.653.088c-.583.141-1.103.494-2.143 1.199l-1.536 1.043c-1.333.905-1.999 1.357-2.763 1.46-.765.105-1.525-.153-3.044-.669L4.28 20.87c-1.1-.374-1.65-.56-1.965-1.005C2 19.421 2 18.83 2 17.651V8.457v.001z" stroke="#2A65C5"/></svg>