<svg width="24" height="24" fill="none" xmlns="http://www.w3.org/2000/svg"><path d="M4.87 19.703c.192 0 .392-.068.638-.205l3.915-2.083 4.254 2.357c.277.152.577.228.862.228.269 0 .538-.068.769-.198l4.023-2.258c.461-.25.669-.616.669-1.125V6.18c0-.563-.315-.875-.87-.875-.191 0-.392.06-.645.198l-4.077 2.243-4.177-2.532A1.57 1.57 0 009.454 5a1.6 1.6 0 00-.792.213l-4 2.25C4.208 7.722 4 8.087 4 8.596v10.226c0 .562.315.881.87.881zm4.053-3.497l-3.47 1.886c-.038.015-.076.038-.115.038-.061 0-.1-.046-.1-.122V8.893c0-.183.07-.312.254-.419L8.646 6.65c.1-.053.185-.1.277-.152v9.708zm1.239.122v-9.67c.076.045.169.09.246.136l3.43 2.068v9.504c-.107-.061-.223-.115-.338-.175l-3.338-1.863zm4.915 2.174V8.786l3.47-1.87a.23.23 0 01.107-.038c.07 0 .108.045.108.121v9.116c0 .19-.077.32-.254.426l-3.085 1.771c-.115.069-.23.137-.346.19z" fill="#fff" fill-opacity=".85"/></svg>