<svg width="24" height="24" fill="none" xmlns="http://www.w3.org/2000/svg"><path d="M15.887 15.516a2.446 2.446 0 00-2.447 2.447 2.443 2.443 0 002.447 2.431 2.44 2.44 0 100-4.879zm0 1.189c.697 0 1.25.553 1.25 1.258 0 .697-.553 1.242-1.25 1.242a1.232 1.232 0 01-1.258-1.242 1.24 1.24 0 011.258-1.258zM7.439 8.887A2.444 2.444 0 007.44 4a2.443 2.443 0 000 4.887zm0-1.19c-.697 0-1.25-.553-1.25-1.258 0-.704.553-1.25 1.25-1.25.705 0 1.25.546 1.25 1.25 0 .705-.537 1.258-1.25 1.258zm-.613 1.47c0 1.515.947 2.576 2.75 3.076l3.81 1.075c1.25.357 1.887 1 1.887 1.91v.53h1.22v-.53c0-1.508-.94-2.569-2.743-3.069l-3.81-1.075c-1.243-.349-1.894-1.008-1.894-1.917v-.523h-1.22v.523z" fill="#0E0E0E"/></svg>