<svg width="24" height="24" fill="none" xmlns="http://www.w3.org/2000/svg"><g clip-rule="evenodd" stroke="#2A65C5" stroke-miterlimit="10"><path d="M4 7h8.392c.436.007.865.104 1.265.285.399.181.76.443 1.062.77.301.326.538.711.696 1.133.158.423.234.873.224 1.326.033 2.289 0 4.544 0 6.816 0 .498 0 .52-.496.52h-1.606c-.287 0-.364-.074-.358-.371v-6.135a1.934 1.934 0 00-.114-.768 1.877 1.877 0 00-.405-.653 1.789 1.789 0 00-.626-.425 1.731 1.731 0 00-.737-.123c-1.546.052-3.093 0-4.634 0a.867.867 0 01-.137.149v7.937c0 .252-.06.338-.32.332h-2.2L4 7zm13.412 5.546V7.567c0-.355.11-.504.462-.492h1.684c.297 0 .418.103.418.412.039 3.354.028 6.713 0 10.072 0 .31-.099.452-.43.44H17.83c-.325 0-.424-.125-.424-.446.011-1.665.006-3.336.006-5.007z"/><path d="M11.049 14.584v2.822c0 .378-.105.532-.48.52H8.848c-.253 0-.335-.097-.335-.343v-6.015c0-.263.099-.343.34-.337h1.839c.264 0 .358.097.358.372-.006.99 0 1.986 0 2.981z"/></g></svg>