<svg width="24" height="24" fill="none" xmlns="http://www.w3.org/2000/svg"><g clip-path="url(#clip0_13751_167351)"><path d="M15.894 20c1.431 0 2.372-.384 3.198-1.317.065-.065.13-.14.188-.204.491-.549.72-1.088.72-1.604 0-.589-.344-1.137-1.072-1.644l-2.38-1.652c-.736-.507-1.595-.565-2.282.114l-.63.63c-.188.188-.352.197-.532.082-.441-.278-1.333-1.055-1.938-1.66-.638-.63-1.252-1.334-1.58-1.85-.105-.187-.097-.343.09-.53l.623-.63c.687-.688.63-1.555.122-2.283L8.77 5.072C8.262 4.344 7.714 4.008 7.125 4c-.516-.008-1.055.23-1.604.72l-.204.18C4.384 5.734 4 6.675 4 8.09c0 2.34 1.44 5.186 4.082 7.828C10.708 18.544 13.562 20 15.894 20zm.008-1.26c-2.086.041-4.76-1.562-6.88-3.672-2.134-2.127-3.811-4.892-3.77-6.978.016-.9.335-1.677.973-2.233.057-.05.098-.09.155-.13.246-.214.508-.328.745-.328s.45.09.605.335l1.587 2.38c.172.254.188.54-.065.794l-.72.72c-.565.564-.524 1.252-.115 1.8.466.63 1.276 1.545 1.906 2.167.622.63 1.612 1.513 2.25 1.988.548.409 1.235.45 1.8-.115l.719-.72c.254-.253.532-.237.793-.073l2.38 1.587a.686.686 0 01.336.613c0 .238-.114.5-.327.745-.05.057-.082.098-.13.155-.557.638-1.334.949-2.242.965z" fill="#7D7D7D"/></g><defs><clipPath id="clip0_13751_167351"><path fill="#fff" transform="translate(4 4)" d="M0 0h16v16H0z"/></clipPath></defs></svg>