<svg width="24" height="24" fill="none" xmlns="http://www.w3.org/2000/svg"><g fill="#0E0E0E"><path d="M19.25 12A7.25 7.25 0 0112 19.25v1.5A8.75 8.75 0 0020.75 12h-1.5zM12 19.25A7.25 7.25 0 014.75 12h-1.5A8.75 8.75 0 0012 20.75v-1.5zM4.75 12A7.25 7.25 0 0112 4.75v-1.5A8.75 8.75 0 003.25 12h1.5zM12 4.75A7.25 7.25 0 0119.25 12h1.5A8.75 8.75 0 0012 3.25v1.5z"/><path d="M12 16.75c1.692 0 3.21.815 4.205 2.108l1.188-.916C16.135 16.308 14.19 15.25 12 15.25v1.5zm-4.207 2.108C8.79 17.565 10.307 16.75 12 16.75v-1.5c-2.19 0-4.136 1.058-5.394 2.692l1.188.916zm5.859-7.658a1.65 1.65 0 01-1.65 1.65v1.5a3.15 3.15 0 003.15-3.15h-1.5zm-1.65 1.65a1.65 1.65 0 01-1.65-1.65h-1.5a3.15 3.15 0 003.15 3.15v-1.5zm-1.65-1.65c0-.91.738-1.65 1.65-1.65v-1.5a3.15 3.15 0 00-3.15 3.15h1.5zm1.65-1.65c.91 0 1.65.74 1.65 1.65h1.5a3.15 3.15 0 00-3.15-3.15v1.5z"/></g></svg>