<svg width="24" height="24" fill="none" xmlns="http://www.w3.org/2000/svg"><path d="M18.166 11.588c.084.098.155.11.622.11.348 0 .531.005.628-.084.114-.105.107-.34.107-.874 0-.533.007-.77-.107-.874-.097-.088-.28-.083-.628-.083-.622 0-.715.06-.715.438v.219h-1.558c-1.488 0-1.567-.006-1.647-.104l3.298 1.252zm0 0a.39.39 0 01-.093-.213c0-.099-.01-.099-.407 0l-.091.023m.591.19l-.591-.19m0 0s0 0 0 0a.507.507 0 01-.002-.024v-.005.005a.63.63 0 000 .024m.002 0h-.002m0 0c-.212.054-.454.111-.576.135-.14.033-.393.093-.562.137-.327.087-1.165.295-1.862.46-.184.042-.293.067-.389.116l3.39-.848zM11 9.955h0c.711-.11 1.76-.043 2.417.15.155.045.414.16.662.294.12.066.227.13.307.183.069.046.093.07.093.068v-.001h0a.66.66 0 00.309.217c.11.038.231.05.344.057.236.015.648.017 1.383.017h.833c-.177.043-.355.085-.447.102l-.01.002-.008.002c-.14.033-.399.094-.573.14h0-.004a84.53 84.53 0 01-1.847.456h0l-.05.012c-.188.044-.387.09-.581.224-.166.114-.326.291-.532.52l-.052.057c-.255.28-.453.433-.643.523-.186.088-.404.133-.727.133-.41 0-.716-.092-.886-.207l-.002-.001-.002-.002-.014-.01a3.938 3.938 0 01-.167-.147 6.74 6.74 0 01-.296-.296h0a7.34 7.34 0 00-.53-.522h0a.582.582 0 00-.124-.073h-.001c-.025-.012-.05-.021-.07-.029a3.565 3.565 0 00-.154-.05 16.803 16.803 0 00-.462-.133 58.169 58.169 0 00-1.41-.364L6.41 10.94h2.557l.144-.133.178-.164h0c.13-.12.375-.268.701-.403A4.554 4.554 0 0111 9.955zm7.498 1.114a.533.533 0 00-.104-.13h.179v-.652a5.82 5.82 0 01.215-.004h.232c.003.093.003.21.003.374v.166c0 .163 0 .282-.003.374h-.232c-.1 0-.177 0-.237-.002a.543.543 0 00-.053-.126zm-13.287.095l-.006.028a10.214 10.214 0 01-.472.004 7.065 7.065 0 010-.911 9.409 9.409 0 01.442.003v.652h.088l-.052.224zm-.687-.866s0 0 0 0h0z" stroke="#2A65C5"/><path d="M8.702 13.198c-.491.51-.64.698-.931 1.23a4.963 4.963 0 00-.601 1.932c-.065.576-.045.66.149.637.116-.017.142-.066.187-.404a2.925 2.925 0 011.028-1.91c.407-.35 1.066-.715 1.506-.831l.252-.072-.22-.144a8.66 8.66 0 01-.588-.438c-.2-.155-.388-.288-.427-.288-.039 0-.194.133-.355.288zm5.476-.053c-.13.126-.348.297-.484.377-.142.08-.254.16-.249.178 0 .022.207.137.455.251a3.235 3.235 0 011.891 2.637c.041.39.047.412.19.412.123 0 .153-.028.164-.189.036-.337-.17-1.39-.372-1.944a6.55 6.55 0 00-.437-.922c-.277-.451-.762-1.035-.857-1.035-.04 0-.177.103-.3.235z" fill="#2A65C5"/><path d="M10.64 14.59a.15.15 0 01.15-.15h2.145a.15.15 0 01.15.15v1.03a.15.15 0 01-.15.15H10.79a.15.15 0 01-.15-.15v-1.03z" stroke="#2A65C5" stroke-width=".7"/><rect x="1" y="8" width="7.652" height="1.015" rx=".508" fill="#2A65C5"/><path d="M14.871 8.508c0-.28.227-.508.508-.508h6.657a.508.508 0 110 1.015h-6.657a.508.508 0 01-.508-.507z" fill="#2A65C5"/></svg>