<svg width="24" height="24" fill="none" xmlns="http://www.w3.org/2000/svg"><path d="M8.465 20c.355 0 .602-.201 1.045-.619l2.505-2.374h4.66c2.163 0 3.325-1.276 3.325-3.542V7.543C20 5.276 18.838 4 16.675 4h-9.35C5.162 4 4 5.268 4 7.542v5.924c0 2.273 1.162 3.541 3.325 3.541h.348v2.01c0 .596.283.983.792.983zm.297-1.415v-2.243c0-.417-.152-.58-.544-.58h-.893c-1.467 0-2.156-.796-2.156-2.304V7.542c0-1.508.69-2.297 2.156-2.297h9.35c1.46 0 2.156.789 2.156 2.297v5.916c0 1.508-.697 2.304-2.156 2.304h-4.704c-.407 0-.61.062-.886.364l-2.323 2.459zm3.1-6.48c.363 0 .58-.248.58-.55v-.092c0-.433.24-.712.748-1.068.705-.495 1.206-.943 1.206-1.871 0-1.284-1.075-1.972-2.309-1.972-1.248 0-2.069.626-2.272 1.338a1.329 1.329 0 00-.058.379c0 .348.254.533.5.533.248 0 .4-.123.53-.309l.131-.186c.254-.448.64-.711 1.118-.711.668 0 1.097.402 1.097.99 0 .526-.305.78-.944 1.253-.516.386-.908.796-.908 1.554v.1c0 .403.204.611.581.611zm-.022 2.304a.794.794 0 00.784-.804.788.788 0 00-.784-.797.791.791 0 00-.777.797c0 .448.364.804.777.804z" fill="#0E0E0E"/></svg>