<svg width="24" height="24" fill="none" xmlns="http://www.w3.org/2000/svg"><path d="M22.762 11.883c0-.293-.117-.563-.352-.785l-7.77-7.746c-.257-.258-.503-.352-.785-.352-.574 0-1.02.422-1.02 1.008 0 .281.095.55.282.738l2.625 2.672 4.652 4.242.235-.586-3.774-.234H2.031c-.61 0-1.031.433-1.031 1.043 0 .61.422 1.043 1.031 1.043h14.824l3.774-.235-.235-.574-4.652 4.23-2.625 2.672c-.187.176-.281.458-.281.739 0 .586.445 1.008 1.02 1.008.28 0 .527-.106.761-.328l7.793-7.77a1.06 1.06 0 00.352-.785z" fill="#fff" fill-opacity=".85"/></svg>