<svg width="24" height="24" fill="none" xmlns="http://www.w3.org/2000/svg"><path d="M12.956 5a.5.5 0 000 1V5zm1.672.5l.478-.146A.5.5 0 0014.628 5v.5zm2.514 8.243l.254.43a.5.5 0 00.224-.576l-.478.146zm-2.514 3.143v.5a.5.5 0 00.478-.353l-.478-.147zm-7.417 0h-.5a.5.5 0 00.5.5v-.5zm8.217-1.743l-.4-.3.4.3zM6.48 14.079a.5.5 0 10-.54.842l.54-.841zM12.956 6h1.672V5h-1.672v1zm1.194-.354l2.514 8.243.956-.292-2.514-8.243-.957.292zm.478 11.24v-.5H7.211v1h7.416v-.5zm2.514-3.143l-.255-.43h-.001l-.003.002-.012.008a4.87 4.87 0 00-.194.12c-.126.081-.3.197-.491.335-.371.268-.852.655-1.159 1.066l.801.598c.21-.282.587-.595.944-.854a9.814 9.814 0 01.579-.387l.035-.022.009-.005h.001l-.254-.431zm-2.115 1.1c-.265.356-.485.843-.632 1.211a10.467 10.467 0 00-.227.628l-.013.04-.004.012v.003l-.001.001.478.148.478.147v-.002l.003-.008.01-.034a8.13 8.13 0 01.205-.564c.141-.354.322-.738.504-.983l-.8-.598zm-7.816 2.043h.5v-.01a2.31 2.31 0 00-.003-.086 5.158 5.158 0 00-.137-.973c-.133-.552-.423-1.31-1.09-1.738l-.54.842c.333.214.542.65.659 1.13a4.16 4.16 0 01.11.834v.001h.5z" fill="#2A65C5"/><g stroke="#2A65C5"><circle cx="4" cy="17" r="1.7" stroke-width=".6"/><circle cx="4.002" cy="17.002" r=".686" stroke-width=".343"/></g><g stroke="#2A65C5"><circle cx="18" cy="17" r="1.7" stroke-width=".6"/><circle cx="18.002" cy="17.002" r=".686" stroke-width=".343"/></g></svg>