<svg width="24" height="24" fill="none" xmlns="http://www.w3.org/2000/svg"><path d="M19.47 20.53a.75.75 0 101.06-1.06l-1.06 1.06zm-8.63-3.6a6.09 6.09 0 01-6.09-6.09h-1.5a7.59 7.59 0 007.59 7.59v-1.5zm-6.09-6.09a6.09 6.09 0 016.09-6.09v-1.5a7.59 7.59 0 00-7.59 7.59h1.5zm6.09-6.09a6.09 6.09 0 016.09 6.09h1.5a7.59 7.59 0 00-7.59-7.59v1.5zm4.306 11.457l4.324 4.323 1.06-1.06-4.323-4.324-1.06 1.06zm1.784-5.367c0 1.682-.68 3.203-1.784 4.306l1.06 1.06a7.569 7.569 0 002.224-5.366h-1.5zm-1.784 4.306a6.069 6.069 0 01-4.306 1.784v1.5c2.096 0 3.994-.85 5.367-2.223l-1.06-1.06z" fill="#999"/></svg>