<svg width="24" height="24" fill="none" xmlns="http://www.w3.org/2000/svg"><g fill="#0E0E0E"><path d="M10.534 16.945a6.555 6.555 0 003.798-1.212l4.028 3.99a.974.974 0 00.697.277c.552 0 .943-.42.943-.96a.91.91 0 00-.272-.673l-4.002-3.973a6.407 6.407 0 001.342-3.922c0-3.56-2.94-6.472-6.534-6.472C6.948 4 4 6.904 4 10.472c0 3.56 2.94 6.473 6.534 6.473zm0-1.397c-2.804 0-5.123-2.298-5.123-5.076 0-2.777 2.32-5.075 5.123-5.075 2.804 0 5.124 2.298 5.124 5.075 0 2.778-2.32 5.076-5.124 5.076z"/><path d="M10.534 16.945a6.555 6.555 0 003.798-1.212l4.028 3.99a.974.974 0 00.697.277c.552 0 .943-.42.943-.96a.91.91 0 00-.272-.673l-4.002-3.973a6.407 6.407 0 001.342-3.922c0-3.56-2.94-6.472-6.534-6.472C6.948 4 4 6.904 4 10.472c0 3.56 2.94 6.473 6.534 6.473zm0-1.397c-2.804 0-5.123-2.298-5.123-5.076 0-2.777 2.32-5.075 5.123-5.075 2.804 0 5.124 2.298 5.124 5.075 0 2.778-2.32 5.076-5.124 5.076z"/></g></svg>