<svg width="24" height="24" fill="none" xmlns="http://www.w3.org/2000/svg"><path d="M21.992 8.011l-1.427-4.5a.747.747 0 00-.275-.381.688.688 0 00-.44-.13H4.15a.688.688 0 00-.439.129.747.747 0 00-.275.381l-1.427 4.5c-.01.08-.01.16 0 .24v4.5c0 .199.075.39.209.53.134.141.315.22.504.22h.714V21h1.428v-7.5h4.282V21h11.42v-7.5h.714c.189 0 .37-.079.504-.22a.77.77 0 00.21-.53v-4.5c.01-.08.01-.16 0-.24zm-2.855 11.49h-8.565v-6h8.565v6zm1.428-7.5H17.71v-3h-1.428v3h-3.568v-3h-1.428v3H7.718v-3H6.29v3H3.435v-3.63l1.228-3.87h14.674l1.228 3.87v3.63z" fill="#0E0E0E"/></svg>