<svg width="24" height="24" fill="none" xmlns="http://www.w3.org/2000/svg"><path d="M13.625 19.544v-3.39a3.62 3.62 0 001.254-1.03 3.59 3.59 0 00.388-3.75 3.61 3.61 0 00-1.302-1.467l-.01-.006-.011-.007-.252-.144-.749-.43v3.288l-.943.584-.943-.584V9.322l-.749.428-.254.146-.01.006-.011.007a3.61 3.61 0 00-1.301 1.468 3.583 3.583 0 00.39 3.746c.335.435.764.787 1.253 1.031v3.389a1.856 1.856 0 00-.144-.045h-.004 0l-.003-.002c-.9-.239-1.681.199-2.241.867a8.425 8.425 0 01-.457-.262c.3-.815.291-1.707-.368-2.362h0l-.005-.004s0 0 0 0c-.66-.655-1.559-.663-2.38-.361a8.306 8.306 0 01-.261-.45c.67-.554 1.113-1.33.872-2.226v-.005h0l-.002-.004c-.242-.897-1.017-1.35-1.878-1.496a8.3 8.3 0 010-.517c.862-.147 1.637-.6 1.879-1.497h0l.001-.006s0 0 0 0c.242-.897-.2-1.674-.87-2.229.083-.152.17-.302.262-.45.82.302 1.718.293 2.377-.362 0 0 0 0 0 0l.004-.004 6.468 11.416zm0 0a1.88 1.88 0 01.146-.046l.005-.001-.151.047zm4.993-8.365h0l-.002-.006.002.006zm0 0c.242.897 1.017 1.35 1.878 1.496a8.32 8.32 0 010 .517c-.85.145-1.617.588-1.869 1.463m-.01-3.476l.01 3.476m-4.863-8.288l.006.002.008.002c.899.239 1.68-.198 2.24-.867.155.083.308.17.457.262-.301.815-.291 1.707.368 2.362l.005.004c.66.655 1.558.663 2.38.362.09.147.178.297.26.45-.671.554-1.114 1.332-.872 2.228l-4.852-4.805zm0 0c-.895-.241-1.35-1.008-1.499-1.863a8.46 8.46 0 00-.529 0c-.149.857-.606 1.625-1.506 1.864l-.004.002h0-.005c-.898.238-1.68-.2-2.239-.868-.155.082-.307.17-.456.261.301.815.293 1.71-.369 2.365l6.607-1.76zm4.863 8.288l-.003.008-.009.032c-.241.896.2 1.674.87 2.229-.082.152-.17.302-.261.45-.82-.301-1.718-.293-2.377.362l-.005.004c-.66.656-.67 1.549-.367 2.364-.15.092-.302.179-.457.261-.56-.67-1.342-1.107-2.241-.868l4.85-4.842z" stroke="#2A65C5"/></svg>