<svg width="24" height="24" fill="none" xmlns="http://www.w3.org/2000/svg"><path d="M9.134 13.314l.646-.639-4.464-4.527c-.492-.496-.485-1.013 0-1.51l.95-.964c.477-.49 1.002-.483 1.494.006l4.808 4.847.673-.605-4.774-4.853c-.95-.952-1.96-.952-2.882-.02l-.896.903c-.922.932-.922 1.951.02 2.903l4.425 4.459zm-.438-3.025a.246.246 0 00.357 0 .25.25 0 000-.353L6.534 7.393a.273.273 0 00-.356 0c-.095.11-.101.272 0 .367l2.518 2.53zm.828-.83c.094.103.27.09.357 0 .101-.115.101-.271.007-.366L7.369 6.557a.244.244 0 00-.35 0 .25.25 0 000 .354L9.524 9.46zm8.667 10.428l1.205-1.217c.141-.15.121-.367-.014-.578l-1.407-2.12a.882.882 0 00-.6-.395l-.605-.095-3.266-3.296-.626.727 3.501 3.52.754.13 1.287 1.727-.613.618-1.704-1.298-.135-.761-3.467-3.508-.633.72 3.158 3.182.094.612a.886.886 0 00.39.598l2.108 1.44c.216.143.424.143.573-.006zm-13.138-.802c1.172 1.169 2.74 1.183 3.892.014 1.482-1.51 1.212-3.223 5.966-8.001l-.586-.598c-5.185 5.254-4.397 6.233-6.067 7.919-.747.761-1.757.768-2.538-.007-.775-.795-.761-1.808-.02-2.563 1.683-1.692 2.653-.89 7.851-6.124l-.586-.591c-4.734 4.798-6.43 4.527-7.925 6.015-1.165 1.162-1.152 2.753.013 3.936zm1.92-1.08a.844.844 0 00.834-.844.832.832 0 10-1.663 0c0 .462.37.843.828.843zm6.457-7.383c1.542 1.557 4 1.611 5.494.109 1.213-1.224 1.421-3.154.519-4.717l-.653.666c.565 1.169.377 2.528-.498 3.419-1.139 1.149-3.024 1.094-4.23-.109-1.198-1.21-1.245-3.127-.1-4.269.875-.883 2.242-1.074 3.367-.496l.66-.666c-1.536-.904-3.441-.7-4.654.53-1.488 1.496-1.44 3.977.095 5.533zm2.04-3.052l.997 1c.498.502 1.138.516 1.609.033L19.49 7.17l-.592-.591-1.287 1.284c-.181.184-.41.198-.606 0l-.821-.836c-.195-.204-.216-.441-.034-.625l1.3-1.298-.613-.598-1.4 1.42c-.499.496-.485 1.135.033 1.645z" fill="#000"/></svg>