<svg width="24" height="24" fill="none" xmlns="http://www.w3.org/2000/svg"><path d="M11.245 20h1.51c.576 0 1.017-.352 1.151-.905l.322-1.4.24-.082 1.218.748c.486.307 1.047.232 1.458-.18l1.047-1.04c.41-.411.486-.98.18-1.459l-.763-1.212.09-.225 1.397-.33c.546-.134.905-.583.905-1.152v-1.482a1.15 1.15 0 00-.905-1.152l-1.383-.337-.097-.24.763-1.211c.306-.48.231-1.04-.18-1.46l-1.047-1.048c-.403-.404-.964-.478-1.45-.18l-1.219.75-.254-.098-.322-1.4A1.143 1.143 0 0012.756 4h-1.511c-.576 0-1.017.352-1.151.906l-.33 1.399-.254.097-1.21-.748c-.487-.3-1.055-.225-1.459.18L5.801 6.88c-.41.42-.493.98-.179 1.46l.756 1.212-.09.24-1.383.336A1.15 1.15 0 004 11.281v1.482c0 .57.359 1.018.905 1.153l1.398.33.082.224-.755 1.212c-.314.479-.232 1.048.18 1.46l1.039 1.04c.41.411.979.486 1.465.18l1.211-.75.24.083.329 1.4c.134.553.575.905 1.15.905zm.12-1.167c-.128 0-.195-.053-.217-.173l-.449-1.855a4.217 4.217 0 01-1.204-.494l-1.63 1.002c-.09.068-.186.053-.276-.037l-.882-.883c-.083-.082-.09-.172-.03-.277l1.002-1.617a5.455 5.455 0 01-.486-1.197l-1.855-.441c-.12-.023-.172-.09-.172-.217v-1.25c0-.135.045-.195.172-.217l1.847-.45c.12-.486.344-.927.479-1.204l-.995-1.617c-.067-.112-.06-.202.023-.291l.89-.869c.089-.09.171-.104.283-.037l1.615.98c.322-.18.778-.366 1.226-.493l.442-1.856c.022-.12.09-.173.216-.173h1.272c.127 0 .194.053.209.173l.456 1.87c.463.12.867.307 1.204.487l1.622-.988c.12-.067.195-.052.292.037l.882.869c.09.09.09.18.022.291l-.994 1.617c.142.277.359.718.479 1.205l1.854.449c.12.022.172.082.172.217v1.25c0 .127-.06.194-.172.217l-1.862.441c-.12.457-.306.883-.486 1.197l1.002 1.617c.06.105.06.195-.03.277l-.875.883c-.097.09-.187.105-.284.037l-1.63-1.002c-.321.202-.74.381-1.196.494l-.456 1.855c-.015.12-.082.173-.21.173h-1.27zM12 14.859A2.865 2.865 0 0014.849 12 2.862 2.862 0 0012 9.156c-1.563 0-2.856 1.287-2.856 2.844A2.872 2.872 0 0012 14.859zm0-1.16A1.7 1.7 0 0110.31 12c0-.92.763-1.684 1.69-1.684.912 0 1.675.763 1.675 1.684 0 .928-.763 1.699-1.675 1.699z" fill="#fff" fill-opacity=".85"/></svg>