<svg width="24" height="24" fill="none" xmlns="http://www.w3.org/2000/svg"><path d="M18.198 10.527a6.105 6.105 0 00-.495-1.417l.718-.85a.722.722 0 000-.968l-1.148-1.265a.725.725 0 00-.965-.104l-.902.656a5.922 5.922 0 00-1.403-.672l-.08-1.17a.802.802 0 00-.702-.672L11.5 4.001a.7.7 0 00-.734.617l-.183 1.089a6.235 6.235 0 00-1.595.536l-.798-.72a.748.748 0 00-.956 0L5.965 6.69a.738.738 0 00-.104.977l.622.881a5.872 5.872 0 00-.694 1.466l-1.013.072a.796.796 0 00-.701.704l-.072 1.698a.747.747 0 00.622.8l.997.16c.114.53.293 1.044.534 1.53l-.638.76a.706.706 0 000 .962l1.164 1.273a.717.717 0 00.965.096l.798-.56c.477.302.988.546 1.523.728l.072.993a.802.802 0 00.701.697l1.69.072a.795.795 0 00.798-.617l.16-.977a6.846 6.846 0 001.595-.624l.797.664a.74.74 0 00.99 0l1.267-1.137a.802.802 0 00.072-.969l-.59-.88c.267-.466.488-.957.662-1.466l1.044-.072a.717.717 0 00.67-.705L20 11.512a.803.803 0 00-.622-.8l-1.18-.185zm-6.38 4.348a2.815 2.815 0 01-1.547-.546 2.833 2.833 0 01-1.073-2.96 2.837 2.837 0 01.835-1.416 2.818 2.818 0 014.322.62c.289.48.43 1.035.405 1.595a2.822 2.822 0 01-.906 1.973 2.797 2.797 0 01-2.036.734z" stroke="#2A65C5" stroke-width=".842" stroke-miterlimit="10"/></svg>