<svg width="24" height="24" fill="none" xmlns="http://www.w3.org/2000/svg"><path d="M17.333 15.73c-.675 0-1.28.27-1.742.695l-6.338-3.752c.045-.207.08-.415.08-.632 0-.217-.035-.425-.08-.633l6.267-3.716a2.63 2.63 0 001.813.732C18.81 8.424 20 7.213 20 5.712 20 4.212 18.809 3 17.333 3c-1.475 0-2.666 1.211-2.666 2.712 0 .217.035.425.08.633L8.48 10.061a2.631 2.631 0 00-1.813-.733C5.19 9.328 4 10.54 4 12.041c0 1.5 1.191 2.712 2.667 2.712a2.63 2.63 0 001.813-.732l6.329 3.752c-.045.19-.071.388-.071.596 0 1.456 1.164 2.631 2.595 2.631 1.431 0 2.596-1.175 2.596-2.63 0-1.456-1.165-2.64-2.596-2.64zm0-10.922a.9.9 0 01.89.904.9.9 0 01-.89.904.9.9 0 01-.889-.904.9.9 0 01.89-.904zM6.667 12.945a.9.9 0 01-.89-.904.9.9 0 01.89-.904.9.9 0 01.889.904.9.9 0 01-.89.904zm10.666 6.328a.9.9 0 01-.889-.904.9.9 0 01.89-.904.9.9 0 01.888.904.9.9 0 01-.889.904z" fill="#0E0E0E"/></svg>