<svg width="24" height="24" fill="none" xmlns="http://www.w3.org/2000/svg"><path d="M7.8 20h8.4c1.531 0 2.3-.737 2.3-2.198v-7.075c0-1.46-.769-2.197-2.3-2.197h-2.043v1.14h2.021c.725 0 1.143.383 1.143 1.12v6.948c0 .737-.418 1.12-1.143 1.12H7.814c-.732 0-1.135-.383-1.135-1.12V10.79c0-.737.403-1.12 1.135-1.12h2.03V8.53H7.8c-1.531 0-2.3.737-2.3 2.197v7.075c0 1.46.769 2.198 2.3 2.198zm4.196-5.55c.315 0 .586-.256.586-.554v-7.28l-.044-1.063.491.503 1.113 1.148c.103.114.25.17.396.17.3 0 .534-.212.534-.503 0-.149-.066-.262-.175-.369l-2.476-2.31c-.146-.142-.27-.192-.425-.192-.146 0-.27.05-.425.191L9.097 6.502a.488.488 0 00-.168.37c0 .29.22.502.527.502.14 0 .3-.056.403-.17l1.106-1.148.498-.503-.044 1.063v7.28c0 .298.263.553.578.553z" fill="#0E0E0E"/></svg>