<svg width="50" height="50" fill="none" xmlns="http://www.w3.org/2000/svg"><rect width="50" height="50" rx="10" fill="#547DBA" fill-opacity=".2"/><g clip-path="url(#clip0_13751_167701)"><path d="M35 13H15c-.53 0-1.04.202-1.414.562-.375.36-.586.849-.586 1.358v7.054c0 10.753 9.477 14.32 11.375 14.927.405.132.845.132 1.25 0C27.525 36.295 37 32.727 37 21.974V14.92c0-.51-.21-.998-.586-1.358A2.043 2.043 0 0035 13zm0 8.975c0 9.41-8.294 12.554-10 13.102-1.691-.541-10-3.683-10-13.102V14.92h20v7.055zm-15.707 3.224a.942.942 0 01-.294-.679.94.94 0 01.294-.679A1.02 1.02 0 0120 23.56c.265 0 .52.1.707.281l2.293 2.2 6.293-6.04a1.036 1.036 0 011.415 0 .927.927 0 010 1.358l-7 6.72a1.036 1.036 0 01-1.415 0l-3-2.88z" fill="#0E0E0E"/></g><defs><clipPath id="clip0_13751_167701"><path fill="#fff" transform="translate(13 13)" d="M0 0h24v24H0z"/></clipPath></defs></svg>