<svg width="24" height="24" fill="none" xmlns="http://www.w3.org/2000/svg"><path d="M7.328 5.223l-4.1 3.836A.734.734 0 003 9.551c0 .395.292.663.715.663a.718.718 0 00.511-.194l1.689-1.6 1.307-1.386-.081 1.721v9.571c0 .395.3.67.73.67.423 0 .723-.275.723-.67V8.754l-.073-1.72 1.3 1.385 1.697 1.601a.698.698 0 00.503.194c.422 0 .714-.268.714-.663a.7.7 0 00-.227-.492L8.416 5.223a.774.774 0 00-1.088 0zM17.68 18.78l4.093-3.85a.674.674 0 00.227-.492c0-.395-.292-.655-.715-.655a.692.692 0 00-.503.186l-1.689 1.601-1.307 1.393.073-1.72V5.67c0-.387-.3-.67-.723-.67-.43 0-.73.283-.73.67v9.571l.08 1.721-1.306-1.393-1.69-1.601a.706.706 0 00-.503-.187c-.422 0-.723.261-.723.656 0 .171.09.365.236.492l4.092 3.85a.78.78 0 001.088 0z" fill="#0E0E0E"/></svg>