<svg width="24" height="24" fill="none" xmlns="http://www.w3.org/2000/svg"><path d="M21.992 8.232l-1.427-4.25a.708.708 0 00-.714-.481H4.15a.718.718 0 00-.714.482l-1.427 4.25a.837.837 0 000 .226v4.25c0 .188.075.368.209.5a.717.717 0 00.504.208h.714V20.5h1.428v-7.083h4.282V20.5h11.42v-7.083h.714c.189 0 .37-.075.504-.207a.705.705 0 00.21-.501v-4.25a.835.835 0 000-.227zm-2.855 10.851h-8.565v-5.666h8.565v5.666zm1.428-7.082H17.71V9.167h-1.428v2.834h-3.568V9.167h-1.428v2.834H7.718V9.167H6.29v2.834H3.435V8.572l1.228-3.654h14.674l1.228 3.654v3.429z" fill="#0E0E0E"/></svg>