<svg width="24" height="24" fill="none" xmlns="http://www.w3.org/2000/svg"><path d="M12.582 6.255a.78.78 0 00-.788.774V12.5c0 .226.069.422.236.637l2.432 3.196c.325.422.778.49 1.182.216.365-.255.394-.716.098-1.118l-3.279-4.401.897 2.745V7.028a.772.772 0 00-.778-.774zM12.956 22C18.44 22 23 17.46 23 12c0-5.47-4.56-10-10.044-10C7.46 2 2.912 6.52 2.912 11.99h1.674c0-4.627 3.722-8.314 8.37-8.314s8.37 3.697 8.37 8.324a8.308 8.308 0 01-8.37 8.333c-2.807-.01-5.268-1.362-6.775-3.45-.305-.403-.768-.53-1.182-.285-.394.245-.502.784-.167 1.216C6.702 20.314 9.637 22 12.956 22zM1.7 10.108c-.709 0-.886.48-.502 1.03l2.206 3.117c.325.45.798.441 1.113 0l2.206-3.128c.374-.539.197-1.02-.503-1.02H1.7z" fill="#fff" fill-opacity=".85"/></svg>