<svg width="24" height="24" fill="none" xmlns="http://www.w3.org/2000/svg"><path d="M6.099 12.015c-.192.27-.103.51.25.51h.677C7.291 15.02 9.446 17 12.001 17a5.014 5.014 0 003.774-1.74c.181-.211.156-.476-.035-.613s-.427-.088-.584.093a4.153 4.153 0 01-3.155 1.427 4.143 4.143 0 01-4.13-3.643h.73c.348 0 .437-.24.25-.504l-1.099-1.564c-.157-.226-.392-.23-.554 0l-1.1 1.559zM8.233 8.74c-.186.211-.162.47.034.608.192.137.422.093.584-.088a4.183 4.183 0 013.15-1.427 4.15 4.15 0 014.132 3.647h-.731c-.349 0-.437.236-.25.505l1.098 1.564c.157.226.393.23.555 0l1.094-1.559c.196-.274.103-.51-.25-.51h-.672C16.707 8.985 14.557 7 12 7a4.986 4.986 0 00-3.768 1.74z" fill="#7D7D7D"/></svg>