<svg width="24" height="24" fill="none" xmlns="http://www.w3.org/2000/svg"><path d="M19 7.417a.75.75 0 000-1.5v1.5zm-14-1.5a.75.75 0 100 1.5v-1.5zm9.824-.774l.716-.221-.716.22zm.08.259l.716-.222-.716.222zm-5.807 0l.716.221-.716-.221zm.08-.26l.716.222-.716-.221zm-.11.352l.712.238-.711-.238zM7.562 6.666l.02.75-.02-.75zm7.371-1.172l.712-.239-.712.239zm1.507 1.172l-.02.75.02-.75zm-2.664-2.65l.127-.738-.127.739zm.9.702l.676-.326-.675.326zm-4.45-.701l.127.739-.127-.74zm-.9.7l-.676-.325.675.326zM7.222 18.524l.748-.056-.748.056zm.08-8.979a.75.75 0 00-1.495.112l1.495-.112zm9.474 8.979l-.748-.056.748.056zm1.415-8.867a.75.75 0 00-1.495-.112l1.495.112zM19 5.916h-2.47v1.5H19v-1.5zm-2.47 0H7.47v1.5h9.06v-1.5zm-9.06 0H5v1.5h2.47v-1.5zm3.176-1.166h2.708v-1.5h-2.708v1.5zm3.46.614l.08.26 1.434-.444-.08-.258-1.433.442zm-4.293.26l.08-.26-1.433-.442-.08.258 1.433.443zM8.38 5.18l-.023.075 1.422.477.034-.109L8.38 5.18zm-.91 2.237l.111-.001-.041-1.5h-.07v1.5zm.887-2.162c-.14.418-.482.652-.817.661l.041 1.5c1.021-.028 1.876-.725 2.198-1.684l-1.422-.477zm5.83.368l.034.109 1.423-.477a3.117 3.117 0 01-.024-.075l-1.433.443zm2.342.294h-.069l-.041 1.499h.11v-1.5zm-2.308-.185c.322.959 1.177 1.656 2.198 1.684l.041-1.5c-.335-.009-.676-.243-.816-.66l-1.423.476zm-.867-.982c.245 0 .275.003.294.006l.254-1.478c-.175-.03-.36-.028-.547-.028v1.5zm2.186.172c-.06-.197-.113-.373-.189-.53l-1.35.651c.014.031.03.076.106.321l1.433-.442zm-1.892-.166c.13.022.27.116.352.287l1.351-.651a1.995 1.995 0 00-1.449-1.114l-.254 1.478zM10.646 3.25c-.188 0-.373-.003-.548.028l.254 1.478a2.55 2.55 0 01.294-.006v-1.5zm-.753 2.114c.076-.245.092-.29.107-.32l-1.351-.652c-.076.157-.128.333-.19.53l1.434.442zm.205-2.086a1.995 1.995 0 00-1.45 1.114L10 5.043a.497.497 0 01.352-.287l-.254-1.478zM7.97 18.467l-.668-8.923-1.495.112.667 8.923 1.496-.112zm9.554.112l.667-8.923-1.495-.112-.668 8.923 1.496.112zm-2.299 2.171c1.223 0 2.209-.964 2.3-2.171l-1.497-.112c-.034.46-.4.783-.803.783v1.5zm-6.452-1.5c-.403 0-.769-.323-.803-.783l-1.496.112c.09 1.207 1.076 2.171 2.299 2.171v-1.5zm6.452 0H8.774v1.5h6.452v-1.5z" fill="#0E0E0E"/></svg>