<svg width="24" height="24" fill="none" xmlns="http://www.w3.org/2000/svg"><path fill-rule="evenodd" clip-rule="evenodd" d="M12 3a4.249 4.249 0 00-4.25 4.25A4.249 4.249 0 0012 11.5a4.249 4.249 0 004.25-4.25A4.249 4.249 0 0012 3zm2.125 4.25A2.131 2.131 0 0012 5.125 2.131 2.131 0 009.875 7.25 2.13 2.13 0 0012 9.375a2.131 2.131 0 002.125-2.125zm4.25 9.563c-.212-.755-3.506-2.125-6.375-2.125s-6.162 1.37-6.375 2.135v1.052h12.75v-1.063zm-14.875 0c0-2.827 5.663-4.25 8.5-4.25 2.837 0 8.5 1.423 8.5 4.25V20h-17v-3.188z" fill="#999"/></svg>