<svg width="24" height="24" fill="none" xmlns="http://www.w3.org/2000/svg"><g clip-path="url(#clip0_13751_167540)"><path d="M8.543 18h7.914C17.503 18 18 17.676 18 16.963c0-1.697-2.084-4.153-5.497-4.153C9.084 12.81 7 15.266 7 16.963 7 17.676 7.497 18 8.543 18zm-.296-.978c-.164 0-.233-.046-.233-.182 0-1.062 1.599-3.052 4.49-3.052 2.883 0 4.482 1.99 4.482 3.052 0 .136-.063.182-.226.182H8.247zm4.256-5.015c1.499 0 2.72-1.374 2.72-3.046 0-1.659-1.215-2.961-2.72-2.961-1.492 0-2.72 1.328-2.72 2.974.006 1.665 1.222 3.033 2.72 3.033zm0-.979c-.92 0-1.706-.907-1.706-2.054 0-1.127.774-1.996 1.706-1.996.938 0 1.707.856 1.707 1.983 0 1.147-.781 2.067-1.707 2.067z" fill="#fff" fill-opacity=".85"/></g><defs><clipPath id="clip0_13751_167540"><path fill="#fff" transform="translate(7 6)" d="M0 0h11v12H0z"/></clipPath></defs></svg>