<svg width="24" height="24" fill="none" xmlns="http://www.w3.org/2000/svg"><path d="M8.932 9.484h7.136c.897 0 1.323-.4 1.323-1.25V5.25c0-.85-.425-1.249-1.323-1.249H8.932c-.897 0-1.323.4-1.323 1.249v2.986c0 .85.426 1.249 1.323 1.249zm.426-1.242c-.304 0-.471-.148-.471-.436V5.67c0-.273.167-.428.471-.428h6.284c.304 0 .471.155.471.428v2.136c0 .288-.167.436-.471.436H9.358zm-.19 3.732h1.453v-3.14H9.168v3.14zm5.211 0h1.453v-3.14h-1.453v3.14zM8.255 14.99h8.49c.837 0 1.255-.384 1.255-1.175v-1.123c0-.79-.418-1.175-1.255-1.175h-8.49C7.418 11.516 7 11.9 7 12.691v1.123c0 .791.418 1.175 1.255 1.175zm.35-1.241c-.19 0-.327-.118-.327-.288v-.414c0-.17.137-.288.327-.288h7.79c.19 0 .327.118.327.288v.414c0 .17-.137.288-.327.288h-7.79zM8.438 20h.236c.372 0 .631-.251.631-.613v-4.782H7.806v4.782c0 .362.259.613.632.613zm.471-3.289h7.182v-1.116H8.909v1.116zM16.326 20h.236c.373 0 .632-.251.632-.613v-4.782h-1.499v4.782c0 .362.259.613.631.613z" fill="#fff" fill-opacity=".85"/></svg>