<svg width="24" height="24" fill="none" xmlns="http://www.w3.org/2000/svg"><path d="M12 20a8 8 0 100-16 8 8 0 000 16z" stroke="#2A65C5" stroke-width=".889" stroke-miterlimit="10"/><path d="M6.1 12.002a5.893 5.893 0 1111.787 0 .332.332 0 00.663 0 6.556 6.556 0 10-13.113 0 .332.332 0 00.663 0z" fill="#2A65C5"/><path d="M12 18.216a.442.442 0 100-.884.442.442 0 000 .884z" fill="#2A65C5" stroke="#2A65C5" stroke-width=".444" stroke-miterlimit="10"/><path d="M10.33 11.559h3.329a.56.56 0 00.56-.56v-.619a.56.56 0 00-.56-.56h-3.33a.56.56 0 00-.56.56v.619c0 .309.251.56.56.56z" fill="#2A65C5"/></svg>