<svg width="24" height="24" fill="none" xmlns="http://www.w3.org/2000/svg"><rect width="24" height="24" rx="12" fill="#48C95F"/><path d="M16.756 7.236a6.257 6.257 0 00-4.434-1.838c-3.468 0-6.278 2.8-6.278 6.257 0 1.093.307 2.187.834 3.106L6 17.998l3.337-.875a6.418 6.418 0 002.985.744c3.468 0 6.278-2.8 6.278-6.256-.044-1.619-.659-3.194-1.844-4.375zm-1.405 6.65c-.132.35-.746.7-1.053.744a2.463 2.463 0 01-.966-.044c-.22-.088-.527-.175-.878-.35-1.58-.656-2.59-2.231-2.678-2.363-.088-.087-.659-.83-.659-1.618 0-.788.395-1.138.527-1.313.132-.175.307-.175.439-.175h.307c.088 0 .22-.044.351.263.132.306.44 1.093.483 1.137a.278.278 0 010 .263.915.915 0 01-.175.262c-.088.088-.176.219-.22.263-.088.087-.175.175-.088.306.088.175.396.656.879 1.094.614.525 1.097.7 1.273.787.175.088.263.044.35-.044.089-.087.396-.437.484-.612.088-.175.22-.131.351-.088.132.044.922.438 1.054.525.175.088.263.132.307.175.044.132.044.438-.088.788z" fill="#fff"/></svg>