<svg width="50" height="50" fill="none" xmlns="http://www.w3.org/2000/svg"><rect width="50" height="50" rx="10" fill="#547DBA" fill-opacity=".2"/><g clip-path="url(#clip0_13751_167698)"><path d="M25 13c6.628 0 12 5.372 12 12s-5.372 12-12 12-12-5.372-12-12 5.372-12 12-12zm0 1.674a10.326 10.326 0 100 20.652 10.326 10.326 0 000-20.652zm-1.116 5.023c.462 0 .836.376.836.838v5.86h5.861a.838.838 0 010 1.675h-6.697a.838.838 0 01-.838-.838v-6.696c0-.463.375-.839.838-.839z" fill="#0E0E0E"/></g><defs><clipPath id="clip0_13751_167698"><path fill="#fff" transform="translate(13 13)" d="M0 0h24v24H0z"/></clipPath></defs></svg>